<?xml version="1.0" encoding="UTF-8" standalone="no"?>
<!DOCTYPE svg PUBLIC "-//W3C//DTD SVG 1.1//EN"
 "http://www.w3.org/Graphics/SVG/1.1/DTD/svg11.dtd">
<!-- Generated by graphviz version 2.40.1 (20161225.0304)
 -->
<!-- Title: src/Arguments.cpp Pages: 1 -->
<!--zoomable 212 -->
<svg id="main" version="1.1" xmlns="http://www.w3.org/2000/svg" xmlns:xlink="http://www.w3.org/1999/xlink" xml:space="preserve" onload="init(evt)">
<style type="text/css"><![CDATA[
.edge:hover path { stroke: red; }
.edge:hover polygon { stroke: red; fill: red; }
]]></style>
<script type="text/javascript"><![CDATA[
var edges = document.getElementsByTagName('g');
if (edges && edges.length) {
  for (var i=0;i<edges.length;i++) {
    if (edges[i].id.substr(0,4)=='edge') {
      edges[i].setAttribute('class','edge');
    }
  }
}
]]></script>
        <defs>
                <circle id="rim" cx="0" cy="0" r="7"/>
                <circle id="rim2" cx="0" cy="0" r="3.5"/>
                <g id="zoomPlus">
                        <use xlink:href="#rim" fill="#404040">
                                <set attributeName="fill" to="#808080" begin="zoomplus.mouseover" end="zoomplus.mouseout"/>
                        </use>
                        <path d="M-4,0h8M0,-4v8" fill="none" stroke="white" stroke-width="1.5" pointer-events="none"/>
                </g>
                <g id="zoomMin">
                        <use xlink:href="#rim" fill="#404040">
                                <set attributeName="fill" to="#808080" begin="zoomminus.mouseover" end="zoomminus.mouseout"/>
                        </use>
                        <path d="M-4,0h8" fill="none" stroke="white" stroke-width="1.5" pointer-events="none"/>
                </g>
                <g id="dirArrow">
                        <path fill="none" stroke="white" stroke-width="1.5" d="M0,-3.0v7 M-2.5,-0.5L0,-3.0L2.5,-0.5"/>
                </g>
               <g id="resetDef">
                       <use xlink:href="#rim2" fill="#404040">
                               <set attributeName="fill" to="#808080" begin="reset.mouseover" end="reset.mouseout"/>
                       </use>
               </g>
        </defs>

<script type="text/javascript">
var viewWidth = 548;
var viewHeight = 212;
var sectionId = 'dynsection-0';
</script>
<script xlink:href="svgpan.js"/>
<svg id="graph" class="graph">
<g id="viewport">
<title>src/Arguments.cpp</title>
<!-- Node0 -->
<g id="node1" class="node">
<title>Node0</title>
<polygon fill="#bfbfbf" stroke="#000000" points="371.4885,-180.5779 371.4885,-203.6039 480.5815,-203.6039 480.5815,-180.5779 371.4885,-180.5779"/>
<text text-anchor="middle" x="426.035" y="-190.8039" font-family="Avenir-Book" font-size="11.00" fill="#000000">src/Arguments.cpp</text>
</g>
<!-- Node1 -->
<g id="node2" class="node">
<title>Node1</title>
<g id="a_node2"><a xlink:href="private_8h.html" target="_top" xlink:title="Internal header file for libgrading. ">
<polygon fill="none" stroke="#000000" points="335.552,-120.5519 335.552,-143.5779 394.518,-143.5779 394.518,-120.5519 335.552,-120.5519"/>
<text text-anchor="middle" x="365.035" y="-130.7779" font-family="Avenir-Book" font-size="11.00" fill="#000000">private.h</text>
</a>
</g>
</g>
<!-- Node0&#45;&gt;Node1 -->
<g id="edge1" class="edge">
<title>Node0&#45;&gt;Node1</title>
<path fill="none" stroke="#191970" d="M414.2736,-180.5173C405.7504,-172.1302 394.0396,-160.6064 384.1772,-150.9015"/>
<polygon fill="#191970" stroke="#191970" points="386.343,-148.1222 376.7603,-143.603 381.4332,-153.1117 386.343,-148.1222"/>
</g>
<!-- Node9 -->
<g id="node10" class="node">
<title>Node9</title>
<polygon fill="none" stroke="#bfbfbf" points="470.7615,-.5 470.7615,-23.526 517.3085,-23.526 517.3085,-.5 470.7615,-.5"/>
<text text-anchor="middle" x="494.035" y="-10.726" font-family="Avenir-Book" font-size="11.00" fill="#000000">vector</text>
</g>
<!-- Node0&#45;&gt;Node9 -->
<g id="edge11" class="edge">
<title>Node0&#45;&gt;Node9</title>
<path fill="none" stroke="#191970" d="M428.4758,-180.431C431.634,-166.0323 437.6207,-140.8901 445.035,-120.0519 456.1208,-88.8947 472.5773,-54.3187 483.3058,-32.8704"/>
<polygon fill="#191970" stroke="#191970" points="486.537,-34.2366 487.928,-23.7335 480.2908,-31.0767 486.537,-34.2366"/>
</g>
<!-- Node10 -->
<g id="node11" class="node">
<title>Node10</title>
<polygon fill="none" stroke="#bfbfbf" points="453.5985,-120.5519 453.5985,-143.5779 540.4715,-143.5779 540.4715,-120.5519 453.5985,-120.5519"/>
<text text-anchor="middle" x="497.035" y="-130.7779" font-family="Avenir-Book" font-size="11.00" fill="#000000">optionparser.h</text>
</g>
<!-- Node0&#45;&gt;Node10 -->
<g id="edge10" class="edge">
<title>Node0&#45;&gt;Node10</title>
<path fill="none" stroke="#191970" d="M439.7245,-180.5173C449.8414,-171.9641 463.8168,-160.1488 475.434,-150.3272"/>
<polygon fill="#191970" stroke="#191970" points="478.0106,-152.7321 483.3875,-143.603 473.4912,-147.3865 478.0106,-152.7321"/>
</g>
<!-- Node2 -->
<g id="node3" class="node">
<title>Node2</title>
<g id="a_node3"><a xlink:href="libgrading_8h.html" target="_top" xlink:title="A library for grading C&#45; and C++&#45;based assignments. ">
<polygon fill="none" stroke="#000000" points="254.3075,-60.526 254.3075,-83.5519 329.7625,-83.5519 329.7625,-60.526 254.3075,-60.526"/>
<text text-anchor="middle" x="292.035" y="-70.7519" font-family="Avenir-Book" font-size="11.00" fill="#000000">libgrading.h</text>
</a>
</g>
</g>
<!-- Node1&#45;&gt;Node2 -->
<g id="edge2" class="edge">
<title>Node1&#45;&gt;Node2</title>
<path fill="none" stroke="#191970" d="M350.9599,-120.4913C340.457,-111.8551 325.9095,-99.8931 313.8972,-90.0157"/>
<polygon fill="#191970" stroke="#191970" points="316.014,-87.2249 306.0669,-83.577 311.568,-92.6318 316.014,-87.2249"/>
</g>
<!-- Node3 -->
<g id="node4" class="node">
<title>Node3</title>
<polygon fill="none" stroke="#bfbfbf" points="0,-.5 0,-23.526 64.07,-23.526 64.07,-.5 0,-.5"/>
<text text-anchor="middle" x="32.035" y="-10.726" font-family="Avenir-Book" font-size="11.00" fill="#000000">functional</text>
</g>
<!-- Node2&#45;&gt;Node3 -->
<g id="edge3" class="edge">
<title>Node2&#45;&gt;Node3</title>
<path fill="none" stroke="#191970" d="M254.2588,-64.5848C212.4292,-56.1483 142.8094,-41.5679 73.9189,-24.1445"/>
<polygon fill="#191970" stroke="#191970" points="74.7607,-20.7473 64.2059,-21.6675 73.0309,-27.5302 74.7607,-20.7473"/>
</g>
<!-- Node4 -->
<g id="node5" class="node">
<title>Node4</title>
<polygon fill="none" stroke="#bfbfbf" points="81.959,-.5 81.959,-23.526 140.111,-23.526 140.111,-.5 81.959,-.5"/>
<text text-anchor="middle" x="111.035" y="-10.726" font-family="Avenir-Book" font-size="11.00" fill="#000000">iostream</text>
</g>
<!-- Node2&#45;&gt;Node4 -->
<g id="edge4" class="edge">
<title>Node2&#45;&gt;Node4</title>
<path fill="none" stroke="#191970" d="M257.1364,-60.4653C226.4542,-50.29 181.8509,-35.498 150.0094,-24.9383"/>
<polygon fill="#191970" stroke="#191970" points="150.7469,-21.4954 140.1535,-21.6697 148.5434,-28.1396 150.7469,-21.4954"/>
</g>
<!-- Node5 -->
<g id="node6" class="node">
<title>Node5</title>
<polygon fill="none" stroke="#bfbfbf" points="157.8665,-.5 157.8665,-23.526 214.2035,-23.526 214.2035,-.5 157.8665,-.5"/>
<text text-anchor="middle" x="186.035" y="-10.726" font-family="Avenir-Book" font-size="11.00" fill="#000000">memory</text>
</g>
<!-- Node2&#45;&gt;Node5 -->
<g id="edge5" class="edge">
<title>Node2&#45;&gt;Node5</title>
<path fill="none" stroke="#191970" d="M271.5971,-60.4653C255.6131,-51.4139 233.1779,-38.7092 215.291,-28.5801"/>
<polygon fill="#191970" stroke="#191970" points="216.8365,-25.4331 206.4101,-23.5511 213.3871,-31.5243 216.8365,-25.4331"/>
</g>
<!-- Node6 -->
<g id="node7" class="node">
<title>Node6</title>
<polygon fill="none" stroke="#bfbfbf" points="232.1975,-.5 232.1975,-23.526 285.8725,-23.526 285.8725,-.5 232.1975,-.5"/>
<text text-anchor="middle" x="259.035" y="-10.726" font-family="Avenir-Book" font-size="11.00" fill="#000000">sstream</text>
</g>
<!-- Node2&#45;&gt;Node6 -->
<g id="edge6" class="edge">
<title>Node2&#45;&gt;Node6</title>
<path fill="none" stroke="#191970" d="M285.6723,-60.4653C281.3353,-52.5765 275.4726,-41.9125 270.3515,-32.5974"/>
<polygon fill="#191970" stroke="#191970" points="273.2629,-30.6279 265.3782,-23.5511 267.1288,-34.0003 273.2629,-30.6279"/>
</g>
<!-- Node7 -->
<g id="node8" class="node">
<title>Node7</title>
<polygon fill="none" stroke="#bfbfbf" points="304.3015,-.5 304.3015,-23.526 347.7685,-23.526 347.7685,-.5 304.3015,-.5"/>
<text text-anchor="middle" x="326.035" y="-10.726" font-family="Avenir-Book" font-size="11.00" fill="#000000">string</text>
</g>
<!-- Node2&#45;&gt;Node7 -->
<g id="edge7" class="edge">
<title>Node2&#45;&gt;Node7</title>
<path fill="none" stroke="#191970" d="M298.5905,-60.4653C303.106,-52.4934 309.2266,-41.6877 314.5419,-32.3037"/>
<polygon fill="#191970" stroke="#191970" points="317.6164,-33.9772 319.4996,-23.5511 311.5256,-30.5272 317.6164,-33.9772"/>
</g>
<!-- Node8 -->
<g id="node9" class="node">
<title>Node8</title>
<polygon fill="none" stroke="#bfbfbf" points="365.3895,-.5 365.3895,-23.526 452.6805,-23.526 452.6805,-.5 365.3895,-.5"/>
<text text-anchor="middle" x="409.035" y="-10.726" font-family="Avenir-Book" font-size="11.00" fill="#000000">unordered_set</text>
</g>
<!-- Node2&#45;&gt;Node8 -->
<g id="edge8" class="edge">
<title>Node2&#45;&gt;Node8</title>
<path fill="none" stroke="#191970" d="M314.5938,-60.4653C332.4793,-51.2893 357.6828,-38.3588 377.5552,-28.1635"/>
<polygon fill="#191970" stroke="#191970" points="379.2458,-31.2299 386.5455,-23.5511 376.0504,-25.0018 379.2458,-31.2299"/>
</g>
<!-- Node2&#45;&gt;Node9 -->
<g id="edge9" class="edge">
<title>Node2&#45;&gt;Node9</title>
<path fill="none" stroke="#191970" d="M329.7847,-62.3507C362.3202,-53.7849 410.7125,-40.5324 460.9616,-24.2234"/>
<polygon fill="#191970" stroke="#191970" points="462.2841,-27.4732 470.6965,-21.0325 460.1037,-20.8214 462.2841,-27.4732"/>
</g>
</g>
</svg>
        <g id="navigator" transform="translate(0 0)" fill="#404254">
                <rect fill="#f2f5e9" fill-opacity="0.5" stroke="#606060" stroke-width=".5" x="0" y="0" width="60" height="60"/>
                <use id="zoomplus" xlink:href="#zoomPlus" x="17" y="9" onmousedown="handleZoom(evt,'in')"/>
                <use id="zoomminus" xlink:href="#zoomMin" x="42" y="9" onmousedown="handleZoom(evt,'out')"/>
                <use id="reset" xlink:href="#resetDef" x="30" y="36" onmousedown="handleReset()"/>
                <g id="arrowUp" xlink:href="#dirArrow" transform="translate(30 24)" onmousedown="handlePan(0,-1)">
                  <use xlink:href="#rim" fill="#404040">
                        <set attributeName="fill" to="#808080" begin="arrowUp.mouseover" end="arrowUp.mouseout"/>
                  </use>
                  <path fill="none" stroke="white" stroke-width="1.5" d="M0,-3.0v7 M-2.5,-0.5L0,-3.0L2.5,-0.5"/>
                </g>
                <g id="arrowRight" xlink:href="#dirArrow" transform="rotate(90) translate(36 -43)" onmousedown="handlePan(1,0)">
                  <use xlink:href="#rim" fill="#404040">
                        <set attributeName="fill" to="#808080" begin="arrowRight.mouseover" end="arrowRight.mouseout"/>
                  </use>
                  <path fill="none" stroke="white" stroke-width="1.5" d="M0,-3.0v7 M-2.5,-0.5L0,-3.0L2.5,-0.5"/>
                </g>
                <g id="arrowDown" xlink:href="#dirArrow" transform="rotate(180) translate(-30 -48)" onmousedown="handlePan(0,1)">
                  <use xlink:href="#rim" fill="#404040">
                        <set attributeName="fill" to="#808080" begin="arrowDown.mouseover" end="arrowDown.mouseout"/>
                  </use>
                  <path fill="none" stroke="white" stroke-width="1.5" d="M0,-3.0v7 M-2.5,-0.5L0,-3.0L2.5,-0.5"/>
                </g>
                <g id="arrowLeft" xlink:href="#dirArrow" transform="rotate(270) translate(-36 17)" onmousedown="handlePan(-1,0)">
                  <use xlink:href="#rim" fill="#404040">
                        <set attributeName="fill" to="#808080" begin="arrowLeft.mouseover" end="arrowLeft.mouseout"/>
                  </use>
                  <path fill="none" stroke="white" stroke-width="1.5" d="M0,-3.0v7 M-2.5,-0.5L0,-3.0L2.5,-0.5"/>
                </g>
        </g>
        <svg viewBox="0 0 15 15" width="100%" height="30px" preserveAspectRatio="xMaxYMin meet">
         <g id="arrow_out" transform="scale(0.3 0.3)">
          <a xlink:href="_arguments_8cpp__incl_org.svg" target="_base">
           <rect id="button" ry="5" rx="5" y="6" x="6" height="38" width="38"
                fill="#f2f5e9" fill-opacity="0.5" stroke="#606060" stroke-width="1.0"/>
           <path id="arrow"
             d="M 11.500037,31.436501 C 11.940474,20.09759 22.043105,11.32322 32.158766,21.979434 L 37.068811,17.246167 C 37.068811,17.246167 37.088388,32 37.088388,32 L 22.160133,31.978069 C 22.160133,31.978069 26.997745,27.140456 26.997745,27.140456 C 18.528582,18.264221 13.291696,25.230495 11.500037,31.436501 z"
             style="fill:#404040;"/>
          </a>
         </g>
        </svg>
</svg>
