<?xml version="1.0" encoding="UTF-8" standalone="no"?>
<!DOCTYPE svg PUBLIC "-//W3C//DTD SVG 1.1//EN"
 "http://www.w3.org/Graphics/SVG/1.1/DTD/svg11.dtd">
<!-- Generated by graphviz version 2.36.0 (20140111.2315)
 -->
<!-- Title: src/Arguments.cpp Pages: 1 -->
<svg width="569pt" height="204pt"
 viewBox="0.00 0.00 569.00 204.00" xmlns="http://www.w3.org/2000/svg" xmlns:xlink="http://www.w3.org/1999/xlink">
<g id="graph0" class="graph" transform="scale(1 1) rotate(0) translate(4 200)">
<title>src/Arguments.cpp</title>
<!-- Node1 -->
<g id="node1" class="node"><title>Node1</title>
<polygon fill="#bfbfbf" stroke="black" points="392,-175 392,-195 500,-195 500,-175 392,-175"/>
<text text-anchor="middle" x="446" y="-182.2" font-family="Avenir-Book" font-size="11.00">src/Arguments.cpp</text>
</g>
<!-- Node2 -->
<g id="node2" class="node"><title>Node2</title>
<g id="a_node2"><a xlink:href="private_8h.html" target="_top" xlink:title="Internal header file for libgrading. ">
<polygon fill="none" stroke="black" points="355.5,-117 355.5,-137 414.5,-137 414.5,-117 355.5,-117"/>
<text text-anchor="middle" x="385" y="-124.2" font-family="Avenir-Book" font-size="11.00">private.h</text>
</a>
</g>
</g>
<!-- Node1&#45;&gt;Node2 -->
<g id="edge1" class="edge"><title>Node1&#45;&gt;Node2</title>
<path fill="none" stroke="midnightblue" d="M435.927,-174.753C426.867,-166.435 413.355,-154.031 402.526,-144.089"/>
<polygon fill="midnightblue" stroke="midnightblue" points="404.619,-141.26 394.885,-137.075 399.885,-146.416 404.619,-141.26"/>
</g>
<!-- Node10 -->
<g id="node10" class="node"><title>Node10</title>
<polygon fill="none" stroke="#bfbfbf" points="475,-1 475,-21 521,-21 521,-1 475,-1"/>
<text text-anchor="middle" x="498" y="-8.2" font-family="Avenir-Book" font-size="11.00">vector</text>
</g>
<!-- Node1&#45;&gt;Node10 -->
<g id="edge11" class="edge"><title>Node1&#45;&gt;Node10</title>
<path fill="none" stroke="midnightblue" d="M448.681,-174.75C452.485,-161.657 459.689,-136.975 466,-116 474.951,-86.2522 485.607,-51.8085 492.083,-30.9768"/>
<polygon fill="midnightblue" stroke="midnightblue" points="495.506,-31.7586 495.136,-21.1702 488.822,-29.6778 495.506,-31.7586"/>
</g>
<!-- Node11 -->
<g id="node11" class="node"><title>Node11</title>
<polygon fill="none" stroke="#bfbfbf" points="474.5,-117 474.5,-137 561.5,-137 561.5,-117 474.5,-117"/>
<text text-anchor="middle" x="518" y="-124.2" font-family="Avenir-Book" font-size="11.00">optionparser.h</text>
</g>
<!-- Node1&#45;&gt;Node11 -->
<g id="edge10" class="edge"><title>Node1&#45;&gt;Node11</title>
<path fill="none" stroke="midnightblue" d="M457.889,-174.753C468.898,-166.19 485.474,-153.298 498.433,-143.219"/>
<polygon fill="midnightblue" stroke="midnightblue" points="500.587,-145.977 506.332,-137.075 496.29,-140.452 500.587,-145.977"/>
</g>
<!-- Node3 -->
<g id="node3" class="node"><title>Node3</title>
<g id="a_node3"><a xlink:href="libgrading_8h.html" target="_top" xlink:title="A library for grading C&#45; and C++&#45;based assignments. ">
<polygon fill="none" stroke="black" points="259.5,-59 259.5,-79 332.5,-79 332.5,-59 259.5,-59"/>
<text text-anchor="middle" x="296" y="-66.2" font-family="Avenir-Book" font-size="11.00">libgrading.h</text>
</a>
</g>
</g>
<!-- Node2&#45;&gt;Node3 -->
<g id="edge2" class="edge"><title>Node2&#45;&gt;Node3</title>
<path fill="none" stroke="midnightblue" d="M370.303,-116.753C356.436,-108.027 335.422,-94.8051 319.276,-84.6458"/>
<polygon fill="midnightblue" stroke="midnightblue" points="320.751,-81.4385 310.423,-79.0752 317.023,-87.3632 320.751,-81.4385"/>
</g>
<!-- Node4 -->
<g id="node4" class="node"><title>Node4</title>
<polygon fill="none" stroke="#bfbfbf" points="0,-1 0,-21 64,-21 64,-1 0,-1"/>
<text text-anchor="middle" x="32" y="-8.2" font-family="Avenir-Book" font-size="11.00">functional</text>
</g>
<!-- Node3&#45;&gt;Node4 -->
<g id="edge3" class="edge"><title>Node3&#45;&gt;Node4</title>
<path fill="none" stroke="midnightblue" d="M259.215,-60.8316C216.925,-52.498 145.183,-38.0789 74.2098,-22.2171"/>
<polygon fill="midnightblue" stroke="midnightblue" points="74.7273,-18.7462 64.2034,-19.9698 73.1934,-25.5761 74.7273,-18.7462"/>
</g>
<!-- Node5 -->
<g id="node5" class="node"><title>Node5</title>
<polygon fill="none" stroke="#bfbfbf" points="82.5,-1 82.5,-21 141.5,-21 141.5,-1 82.5,-1"/>
<text text-anchor="middle" x="112" y="-8.2" font-family="Avenir-Book" font-size="11.00">iostream</text>
</g>
<!-- Node3&#45;&gt;Node5 -->
<g id="edge4" class="edge"><title>Node3&#45;&gt;Node5</title>
<path fill="none" stroke="midnightblue" d="M266.028,-58.878C234.793,-49.3718 185.704,-34.4317 151.362,-23.9798"/>
<polygon fill="midnightblue" stroke="midnightblue" points="152.24,-20.5886 141.655,-21.0253 150.202,-27.2854 152.24,-20.5886"/>
</g>
<!-- Node6 -->
<g id="node6" class="node"><title>Node6</title>
<polygon fill="none" stroke="#bfbfbf" points="160,-1 160,-21 216,-21 216,-1 160,-1"/>
<text text-anchor="middle" x="188" y="-8.2" font-family="Avenir-Book" font-size="11.00">memory</text>
</g>
<!-- Node3&#45;&gt;Node6 -->
<g id="edge5" class="edge"><title>Node3&#45;&gt;Node6</title>
<path fill="none" stroke="midnightblue" d="M278.166,-58.7527C260.866,-49.7826 234.402,-36.0601 214.612,-25.7986"/>
<polygon fill="midnightblue" stroke="midnightblue" points="215.991,-22.5713 205.502,-21.0752 212.769,-28.7856 215.991,-22.5713"/>
</g>
<!-- Node7 -->
<g id="node7" class="node"><title>Node7</title>
<polygon fill="none" stroke="#bfbfbf" points="234,-1 234,-21 290,-21 290,-1 234,-1"/>
<text text-anchor="middle" x="262" y="-8.2" font-family="Avenir-Book" font-size="11.00">sstream</text>
</g>
<!-- Node3&#45;&gt;Node7 -->
<g id="edge6" class="edge"><title>Node3&#45;&gt;Node7</title>
<path fill="none" stroke="midnightblue" d="M290.386,-58.7527C285.633,-50.9242 278.682,-39.4761 272.848,-29.8679"/>
<polygon fill="midnightblue" stroke="midnightblue" points="275.692,-27.8066 267.51,-21.0752 269.708,-31.4395 275.692,-27.8066"/>
</g>
<!-- Node8 -->
<g id="node8" class="node"><title>Node8</title>
<polygon fill="none" stroke="#bfbfbf" points="308.5,-1 308.5,-21 351.5,-21 351.5,-1 308.5,-1"/>
<text text-anchor="middle" x="330" y="-8.2" font-family="Avenir-Book" font-size="11.00">string</text>
</g>
<!-- Node3&#45;&gt;Node8 -->
<g id="edge7" class="edge"><title>Node3&#45;&gt;Node8</title>
<path fill="none" stroke="midnightblue" d="M301.614,-58.7527C306.367,-50.9242 313.318,-39.4761 319.152,-29.8679"/>
<polygon fill="midnightblue" stroke="midnightblue" points="322.292,-31.4395 324.49,-21.0752 316.308,-27.8066 322.292,-31.4395"/>
</g>
<!-- Node9 -->
<g id="node9" class="node"><title>Node9</title>
<polygon fill="none" stroke="#bfbfbf" points="369.5,-1 369.5,-21 456.5,-21 456.5,-1 369.5,-1"/>
<text text-anchor="middle" x="413" y="-8.2" font-family="Avenir-Book" font-size="11.00">unordered_set</text>
</g>
<!-- Node3&#45;&gt;Node9 -->
<g id="edge8" class="edge"><title>Node3&#45;&gt;Node9</title>
<path fill="none" stroke="midnightblue" d="M315.058,-58.878C334.011,-49.8068 363.301,-35.7876 384.916,-25.4418"/>
<polygon fill="midnightblue" stroke="midnightblue" points="386.441,-28.5925 393.95,-21.1181 383.419,-22.2784 386.441,-28.5925"/>
</g>
<!-- Node3&#45;&gt;Node10 -->
<g id="edge9" class="edge"><title>Node3&#45;&gt;Node10</title>
<path fill="none" stroke="midnightblue" d="M330.39,-58.9468C364.595,-49.87 418.535,-35.361 465,-22 465.101,-21.971 465.202,-21.942 465.303,-21.9129"/>
<polygon fill="midnightblue" stroke="midnightblue" points="466.339,-25.2563 474.946,-19.0775 464.365,-18.5406 466.339,-25.2563"/>
</g>
</g>
</svg>
