<?xml version="1.0" encoding="UTF-8" standalone="no"?>
<!DOCTYPE svg PUBLIC "-//W3C//DTD SVG 1.1//EN"
 "http://www.w3.org/Graphics/SVG/1.1/DTD/svg11.dtd">
<!-- Generated by graphviz version 2.38.0 (20140413.2041)
 -->
<!-- Title: src/Arguments.cpp Pages: 1 -->
<!--zoomable 200 -->
<svg id="main" version="1.1" xmlns="http://www.w3.org/2000/svg" xmlns:xlink="http://www.w3.org/1999/xlink" xml:space="preserve" onload="init(evt)">
<style type="text/css"><![CDATA[
.edge:hover path { stroke: red; }
.edge:hover polygon { stroke: red; fill: red; }
]]></style>
<script type="text/javascript"><![CDATA[
var edges = document.getElementsByTagName('g');
if (edges && edges.length) {
  for (var i=0;i<edges.length;i++) {
    if (edges[i].id.substr(0,4)=='edge') {
      edges[i].setAttribute('class','edge');
    }
  }
}
]]></script>
        <defs>
                <circle id="rim" cx="0" cy="0" r="7"/>
                <circle id="rim2" cx="0" cy="0" r="3.5"/>
                <g id="zoomPlus">
                        <use xlink:href="#rim" fill="#404040">
                                <set attributeName="fill" to="#808080" begin="zoomplus.mouseover" end="zoomplus.mouseout"/>
                        </use>
                        <path d="M-4,0h8M0,-4v8" fill="none" stroke="white" stroke-width="1.5" pointer-events="none"/>
                </g>
                <g id="zoomMin">
                        <use xlink:href="#rim" fill="#404040">
                                <set attributeName="fill" to="#808080" begin="zoomminus.mouseover" end="zoomminus.mouseout"/>
                        </use>
                        <path d="M-4,0h8" fill="none" stroke="white" stroke-width="1.5" pointer-events="none"/>
                </g>
                <g id="dirArrow">
                        <path fill="none" stroke="white" stroke-width="1.5" d="M0,-3.0v7 M-2.5,-0.5L0,-3.0L2.5,-0.5"/>
                </g>
               <g id="resetDef">
                       <use xlink:href="#rim2" fill="#404040">
                               <set attributeName="fill" to="#808080" begin="reset.mouseover" end="reset.mouseout"/>
                       </use>
               </g>
        </defs>

<script type="text/javascript">
var viewWidth = 611;
var viewHeight = 200;
var sectionId = 'dynsection-0';
</script>
<script xlink:href="svgpan.js"/>
<svg id="graph" class="graph">
<g id="viewport">
<title>src/Arguments.cpp</title>
<!-- Node1 -->
<g id="node1" class="node"><title>Node1</title>
<polygon fill="#bfbfbf" stroke="black" points="419,-171.5 419,-191.5 540,-191.5 540,-171.5 419,-171.5"/>
<text text-anchor="middle" x="479.5" y="-178.7" font-family="Avenir-Book" font-size="11.00">src/Arguments.cpp</text>
</g>
<!-- Node2 -->
<g id="node2" class="node"><title>Node2</title>
<g id="a_node2"><a xlink:href="private_8h.html" target="_top" xlink:title="Internal header file for libgrading. ">
<polygon fill="none" stroke="black" points="383,-114.5 383,-134.5 448,-134.5 448,-114.5 383,-114.5"/>
<text text-anchor="middle" x="415.5" y="-121.7" font-family="Avenir-Book" font-size="11.00">private.h</text>
</a>
</g>
</g>
<!-- Node1&#45;&gt;Node2 -->
<g id="edge1" class="edge"><title>Node1&#45;&gt;Node2</title>
<path fill="none" stroke="midnightblue" d="M468.932,-171.418C459.447,-163.267 445.313,-151.12 433.963,-141.367"/>
<polygon fill="midnightblue" stroke="midnightblue" points="436.163,-138.643 426.298,-134.779 431.601,-143.952 436.163,-138.643"/>
</g>
<!-- Node10 -->
<g id="node10" class="node"><title>Node10</title>
<polygon fill="none" stroke="#bfbfbf" points="512,-0.5 512,-20.5 563,-20.5 563,-0.5 512,-0.5"/>
<text text-anchor="middle" x="537.5" y="-7.7" font-family="Avenir-Book" font-size="11.00">vector</text>
</g>
<!-- Node1&#45;&gt;Node10 -->
<g id="edge11" class="edge"><title>Node1&#45;&gt;Node10</title>
<path fill="none" stroke="midnightblue" d="M482.038,-171.408C485.673,-158.548 492.677,-134.346 499.5,-114 509.418,-84.427 522.263,-50.5791 530.19,-30.134"/>
<polygon fill="midnightblue" stroke="midnightblue" points="533.474,-31.3463 533.845,-20.758 526.952,-28.8039 533.474,-31.3463"/>
</g>
<!-- Node11 -->
<g id="node11" class="node"><title>Node11</title>
<polygon fill="none" stroke="#bfbfbf" points="508,-114.5 508,-134.5 603,-134.5 603,-114.5 508,-114.5"/>
<text text-anchor="middle" x="555.5" y="-121.7" font-family="Avenir-Book" font-size="11.00">optionparser.h</text>
</g>
<!-- Node1&#45;&gt;Node11 -->
<g id="edge10" class="edge"><title>Node1&#45;&gt;Node11</title>
<path fill="none" stroke="midnightblue" d="M492.05,-171.418C503.601,-163.058 520.959,-150.497 534.602,-140.624"/>
<polygon fill="midnightblue" stroke="midnightblue" points="536.882,-143.294 542.932,-134.596 532.778,-137.623 536.882,-143.294"/>
</g>
<!-- Node3 -->
<g id="node3" class="node"><title>Node3</title>
<g id="a_node3"><a xlink:href="libgrading_8h.html" target="_top" xlink:title="A library for grading C&#45; and C++&#45;based assignments. ">
<polygon fill="none" stroke="black" points="279,-57.5 279,-77.5 358,-77.5 358,-57.5 279,-57.5"/>
<text text-anchor="middle" x="318.5" y="-64.7" font-family="Avenir-Book" font-size="11.00">libgrading.h</text>
</a>
</g>
</g>
<!-- Node2&#45;&gt;Node3 -->
<g id="edge2" class="edge"><title>Node2&#45;&gt;Node3</title>
<path fill="none" stroke="midnightblue" d="M399.482,-114.418C384.318,-105.82 361.313,-92.7754 343.693,-82.7844"/>
<polygon fill="midnightblue" stroke="midnightblue" points="344.967,-79.4834 334.541,-77.5956 341.514,-85.5727 344.967,-79.4834"/>
</g>
<!-- Node4 -->
<g id="node4" class="node"><title>Node4</title>
<polygon fill="none" stroke="#bfbfbf" points="0,-0.5 0,-20.5 69,-20.5 69,-0.5 0,-0.5"/>
<text text-anchor="middle" x="34.5" y="-7.7" font-family="Avenir-Book" font-size="11.00">functional</text>
</g>
<!-- Node3&#45;&gt;Node4 -->
<g id="edge3" class="edge"><title>Node3&#45;&gt;Node4</title>
<path fill="none" stroke="midnightblue" d="M278.766,-59.3862C232.988,-51.1046 155.249,-36.7797 79.4142,-21.3502"/>
<polygon fill="midnightblue" stroke="midnightblue" points="79.7125,-17.8389 69.2142,-19.2657 78.3109,-24.6971 79.7125,-17.8389"/>
</g>
<!-- Node5 -->
<g id="node5" class="node"><title>Node5</title>
<polygon fill="none" stroke="#bfbfbf" points="87,-0.5 87,-20.5 152,-20.5 152,-0.5 87,-0.5"/>
<text text-anchor="middle" x="119.5" y="-7.7" font-family="Avenir-Book" font-size="11.00">iostream</text>
</g>
<!-- Node3&#45;&gt;Node5 -->
<g id="edge4" class="edge"><title>Node3&#45;&gt;Node5</title>
<path fill="none" stroke="midnightblue" d="M285.639,-57.4179C251.835,-48.0751 199.04,-33.4834 162.061,-23.263"/>
<polygon fill="midnightblue" stroke="midnightblue" points="162.65,-19.7947 152.079,-20.5042 160.785,-26.5418 162.65,-19.7947"/>
</g>
<!-- Node6 -->
<g id="node6" class="node"><title>Node6</title>
<polygon fill="none" stroke="#bfbfbf" points="170,-0.5 170,-20.5 233,-20.5 233,-0.5 170,-0.5"/>
<text text-anchor="middle" x="201.5" y="-7.7" font-family="Avenir-Book" font-size="11.00">memory</text>
</g>
<!-- Node3&#45;&gt;Node6 -->
<g id="edge5" class="edge"><title>Node3&#45;&gt;Node6</title>
<path fill="none" stroke="midnightblue" d="M299.18,-57.4179C280.381,-48.5807 251.591,-35.0473 230.131,-24.9591"/>
<polygon fill="midnightblue" stroke="midnightblue" points="231.388,-21.6824 220.849,-20.5956 228.41,-28.0174 231.388,-21.6824"/>
</g>
<!-- Node7 -->
<g id="node7" class="node"><title>Node7</title>
<polygon fill="none" stroke="#bfbfbf" points="251.5,-0.5 251.5,-20.5 313.5,-20.5 313.5,-0.5 251.5,-0.5"/>
<text text-anchor="middle" x="282.5" y="-7.7" font-family="Avenir-Book" font-size="11.00">sstream</text>
</g>
<!-- Node3&#45;&gt;Node7 -->
<g id="edge6" class="edge"><title>Node3&#45;&gt;Node7</title>
<path fill="none" stroke="midnightblue" d="M312.555,-57.4179C307.583,-49.8207 300.338,-38.7527 294.208,-29.3866"/>
<polygon fill="midnightblue" stroke="midnightblue" points="296.979,-27.2297 288.574,-20.7795 291.122,-31.0633 296.979,-27.2297"/>
</g>
<!-- Node8 -->
<g id="node8" class="node"><title>Node8</title>
<polygon fill="none" stroke="#bfbfbf" points="332,-0.5 332,-20.5 379,-20.5 379,-0.5 332,-0.5"/>
<text text-anchor="middle" x="355.5" y="-7.7" font-family="Avenir-Book" font-size="11.00">string</text>
</g>
<!-- Node3&#45;&gt;Node8 -->
<g id="edge7" class="edge"><title>Node3&#45;&gt;Node8</title>
<path fill="none" stroke="midnightblue" d="M324.61,-57.4179C329.774,-49.7415 337.322,-38.5217 343.664,-29.0945"/>
<polygon fill="midnightblue" stroke="midnightblue" points="346.58,-31.0303 349.257,-20.7795 340.772,-27.1231 346.58,-31.0303"/>
</g>
<!-- Node9 -->
<g id="node9" class="node"><title>Node9</title>
<polygon fill="none" stroke="#bfbfbf" points="397.5,-0.5 397.5,-20.5 493.5,-20.5 493.5,-0.5 397.5,-0.5"/>
<text text-anchor="middle" x="445.5" y="-7.7" font-family="Avenir-Book" font-size="11.00">unordered_set</text>
</g>
<!-- Node3&#45;&gt;Node9 -->
<g id="edge8" class="edge"><title>Node3&#45;&gt;Node9</title>
<path fill="none" stroke="midnightblue" d="M339.471,-57.4179C360.061,-48.5011 391.691,-34.803 415.049,-24.6873"/>
<polygon fill="midnightblue" stroke="midnightblue" points="416.712,-27.7815 424.497,-20.5956 413.93,-21.358 416.712,-27.7815"/>
</g>
<!-- Node3&#45;&gt;Node10 -->
<g id="edge9" class="edge"><title>Node3&#45;&gt;Node10</title>
<path fill="none" stroke="midnightblue" d="M356.269,-57.4247C391.473,-48.9072 445.678,-35.6429 502.093,-21.0624"/>
<polygon fill="midnightblue" stroke="midnightblue" points="503.102,-24.4167 511.904,-18.5193 501.345,-17.6407 503.102,-24.4167"/>
</g>
</g>
</svg>
        <g id="navigator" transform="translate(0 0)" fill="#404254">
                <rect fill="#f2f5e9" fill-opacity="0.5" stroke="#606060" stroke-width=".5" x="0" y="0" width="60" height="60"/>
                <use id="zoomplus" xlink:href="#zoomPlus" x="17" y="9" onmousedown="handleZoom(evt,'in')"/>
                <use id="zoomminus" xlink:href="#zoomMin" x="42" y="9" onmousedown="handleZoom(evt,'out')"/>
                <use id="reset" xlink:href="#resetDef" x="30" y="36" onmousedown="handleReset()"/>
                <g id="arrowUp" xlink:href="#dirArrow" transform="translate(30 24)" onmousedown="handlePan(0,-1)">
                  <use xlink:href="#rim" fill="#404040">
                        <set attributeName="fill" to="#808080" begin="arrowUp.mouseover" end="arrowUp.mouseout"/>
                  </use>
                  <path fill="none" stroke="white" stroke-width="1.5" d="M0,-3.0v7 M-2.5,-0.5L0,-3.0L2.5,-0.5"/>
                </g>
                <g id="arrowRight" xlink:href="#dirArrow" transform="rotate(90) translate(36 -43)" onmousedown="handlePan(1,0)">
                  <use xlink:href="#rim" fill="#404040">
                        <set attributeName="fill" to="#808080" begin="arrowRight.mouseover" end="arrowRight.mouseout"/>
                  </use>
                  <path fill="none" stroke="white" stroke-width="1.5" d="M0,-3.0v7 M-2.5,-0.5L0,-3.0L2.5,-0.5"/>
                </g>
                <g id="arrowDown" xlink:href="#dirArrow" transform="rotate(180) translate(-30 -48)" onmousedown="handlePan(0,1)">
                  <use xlink:href="#rim" fill="#404040">
                        <set attributeName="fill" to="#808080" begin="arrowDown.mouseover" end="arrowDown.mouseout"/>
                  </use>
                  <path fill="none" stroke="white" stroke-width="1.5" d="M0,-3.0v7 M-2.5,-0.5L0,-3.0L2.5,-0.5"/>
                </g>
                <g id="arrowLeft" xlink:href="#dirArrow" transform="rotate(270) translate(-36 17)" onmousedown="handlePan(-1,0)">
                  <use xlink:href="#rim" fill="#404040">
                        <set attributeName="fill" to="#808080" begin="arrowLeft.mouseover" end="arrowLeft.mouseout"/>
                  </use>
                  <path fill="none" stroke="white" stroke-width="1.5" d="M0,-3.0v7 M-2.5,-0.5L0,-3.0L2.5,-0.5"/>
                </g>
        </g>
        <svg viewBox="0 0 15 15" width="100%" height="30px" preserveAspectRatio="xMaxYMin meet">
         <g id="arrow_out" transform="scale(0.3 0.3)">
          <a xlink:href="Arguments_8cpp__incl_org.svg" target="_base">
           <rect id="button" ry="5" rx="5" y="6" x="6" height="38" width="38"
                fill="#f2f5e9" fill-opacity="0.5" stroke="#606060" stroke-width="1.0"/>
           <path id="arrow"
             d="M 11.500037,31.436501 C 11.940474,20.09759 22.043105,11.32322 32.158766,21.979434 L 37.068811,17.246167 C 37.068811,17.246167 37.088388,32 37.088388,32 L 22.160133,31.978069 C 22.160133,31.978069 26.997745,27.140456 26.997745,27.140456 C 18.528582,18.264221 13.291696,25.230495 11.500037,31.436501 z"
             style="fill:#404040;"/>
          </a>
         </g>
        </svg>
</svg>
