<?xml version="1.0" encoding="UTF-8" standalone="no"?>
<!DOCTYPE svg PUBLIC "-//W3C//DTD SVG 1.1//EN"
 "http://www.w3.org/Graphics/SVG/1.1/DTD/svg11.dtd">
<!-- Generated by graphviz version 2.40.1 (20161225.0304)
 -->
<!-- Title: src/Arguments.cpp Pages: 1 -->
<!--zoomable 200 -->
<svg id="main" version="1.1" xmlns="http://www.w3.org/2000/svg" xmlns:xlink="http://www.w3.org/1999/xlink" xml:space="preserve" onload="init(evt)">
<style type="text/css"><![CDATA[
.edge:hover path { stroke: red; }
.edge:hover polygon { stroke: red; fill: red; }
]]></style>
<script type="text/javascript"><![CDATA[
var edges = document.getElementsByTagName('g');
if (edges && edges.length) {
  for (var i=0;i<edges.length;i++) {
    if (edges[i].id.substr(0,4)=='edge') {
      edges[i].setAttribute('class','edge');
    }
  }
}
]]></script>
        <defs>
                <circle id="rim" cx="0" cy="0" r="7"/>
                <circle id="rim2" cx="0" cy="0" r="3.5"/>
                <g id="zoomPlus">
                        <use xlink:href="#rim" fill="#404040">
                                <set attributeName="fill" to="#808080" begin="zoomplus.mouseover" end="zoomplus.mouseout"/>
                        </use>
                        <path d="M-4,0h8M0,-4v8" fill="none" stroke="white" stroke-width="1.5" pointer-events="none"/>
                </g>
                <g id="zoomMin">
                        <use xlink:href="#rim" fill="#404040">
                                <set attributeName="fill" to="#808080" begin="zoomminus.mouseover" end="zoomminus.mouseout"/>
                        </use>
                        <path d="M-4,0h8" fill="none" stroke="white" stroke-width="1.5" pointer-events="none"/>
                </g>
                <g id="dirArrow">
                        <path fill="none" stroke="white" stroke-width="1.5" d="M0,-3.0v7 M-2.5,-0.5L0,-3.0L2.5,-0.5"/>
                </g>
               <g id="resetDef">
                       <use xlink:href="#rim2" fill="#404040">
                               <set attributeName="fill" to="#808080" begin="reset.mouseover" end="reset.mouseout"/>
                       </use>
               </g>
        </defs>

<script type="text/javascript">
var viewWidth = 608;
var viewHeight = 200;
var sectionId = 'dynsection-0';
</script>
<script xlink:href="svgpan.js"/>
<svg id="graph" class="graph">
<g id="viewport">
<title>src/Arguments.cpp</title>
<!-- Node0 -->
<g id="node1" class="node">
<title>Node0</title>
<g id="a_node1"><a xlink:title="Implementation of grading::Arguments.">
<polygon fill="#bfbfbf" stroke="#000000" points="410,-171.5 410,-191.5 535,-191.5 535,-171.5 410,-171.5"/>
<text text-anchor="middle" x="472.5" y="-178.7" font-family="Avenir-Book" font-size="11.00" fill="#000000">src/Arguments.cpp</text>
</a>
</g>
</g>
<!-- Node1 -->
<g id="node2" class="node">
<title>Node1</title>
<g id="a_node2"><a xlink:href="private_8h.html" target="_top" xlink:title="Internal header file for libgrading.">
<polygon fill="none" stroke="#000000" points="372.5,-114.5 372.5,-134.5 440.5,-134.5 440.5,-114.5 372.5,-114.5"/>
<text text-anchor="middle" x="406.5" y="-121.7" font-family="Avenir-Book" font-size="11.00" fill="#000000">private.h</text>
</a>
</g>
</g>
<!-- Node0&#45;&gt;Node1 -->
<g id="edge1" class="edge">
<title>Node0&#45;&gt;Node1</title>
<path fill="none" stroke="#191970" d="M460.7005,-171.3095C451.0336,-162.9608 437.1575,-150.9769 425.8657,-141.2249"/>
<polygon fill="#191970" stroke="#191970" points="428.0533,-138.4896 418.1973,-134.6022 423.4779,-143.7874 428.0533,-138.4896"/>
</g>
<!-- Node9 -->
<g id="node10" class="node">
<title>Node9</title>
<g id="a_node10"><a xlink:title=" ">
<polygon fill="none" stroke="#bfbfbf" points="523.5,-.5 523.5,-20.5 575.5,-20.5 575.5,-.5 523.5,-.5"/>
<text text-anchor="middle" x="549.5" y="-7.7" font-family="Avenir-Book" font-size="11.00" fill="#000000">vector</text>
</a>
</g>
</g>
<!-- Node0&#45;&gt;Node9 -->
<g id="edge11" class="edge">
<title>Node0&#45;&gt;Node9</title>
<path fill="none" stroke="#191970" d="M474.8181,-171.2002C478.0087,-157.7545 484.3021,-133.6233 492.5,-114 505.4019,-83.1168 525.0118,-49.5576 537.5381,-29.2784"/>
<polygon fill="#191970" stroke="#191970" points="540.5646,-31.04 542.9018,-20.7061 534.6305,-27.3269 540.5646,-31.04"/>
</g>
<!-- Node10 -->
<g id="node11" class="node">
<title>Node10</title>
<g id="a_node11"><a xlink:title=" ">
<polygon fill="none" stroke="#bfbfbf" points="501,-114.5 501,-134.5 600,-134.5 600,-114.5 501,-114.5"/>
<text text-anchor="middle" x="550.5" y="-121.7" font-family="Avenir-Book" font-size="11.00" fill="#000000">optionparser.h</text>
</a>
</g>
</g>
<!-- Node0&#45;&gt;Node10 -->
<g id="edge10" class="edge">
<title>Node0&#45;&gt;Node10</title>
<path fill="none" stroke="#191970" d="M486.4448,-171.3095C498.0912,-162.7987 514.9071,-150.5102 528.3872,-140.6594"/>
<polygon fill="#191970" stroke="#191970" points="530.667,-143.3283 536.6759,-134.6022 526.5369,-137.6766 530.667,-143.3283"/>
</g>
<!-- Node2 -->
<g id="node3" class="node">
<title>Node2</title>
<g id="a_node3"><a xlink:href="libgrading_8h.html" target="_top" xlink:title="A library for grading C&#45; and C++&#45;based assignments.">
<polygon fill="none" stroke="#000000" points="282.5,-57.5 282.5,-77.5 368.5,-77.5 368.5,-57.5 282.5,-57.5"/>
<text text-anchor="middle" x="325.5" y="-64.7" font-family="Avenir-Book" font-size="11.00" fill="#000000">libgrading.h</text>
</a>
</g>
</g>
<!-- Node1&#45;&gt;Node2 -->
<g id="edge2" class="edge">
<title>Node1&#45;&gt;Node2</title>
<path fill="none" stroke="#191970" d="M392.0188,-114.3095C379.8093,-105.7177 362.1287,-93.2758 348.0643,-83.3786"/>
<polygon fill="#191970" stroke="#191970" points="350.0481,-80.4949 339.8558,-77.6022 346.0196,-86.2195 350.0481,-80.4949"/>
</g>
<!-- Node3 -->
<g id="node4" class="node">
<title>Node3</title>
<g id="a_node4"><a xlink:title=" ">
<polygon fill="none" stroke="#bfbfbf" points="0,-.5 0,-20.5 73,-20.5 73,-.5 0,-.5"/>
<text text-anchor="middle" x="36.5" y="-7.7" font-family="Avenir-Book" font-size="11.00" fill="#000000">functional</text>
</a>
</g>
</g>
<!-- Node2&#45;&gt;Node3 -->
<g id="edge3" class="edge">
<title>Node2&#45;&gt;Node3</title>
<path fill="none" stroke="#191970" d="M282.3909,-59.7264C235.8315,-51.2249 159.2232,-36.9316 83.3457,-21.1227"/>
<polygon fill="#191970" stroke="#191970" points="83.6377,-17.608 73.1327,-18.9845 82.2033,-24.4595 83.6377,-17.608"/>
</g>
<!-- Node4 -->
<g id="node5" class="node">
<title>Node4</title>
<g id="a_node5"><a xlink:title=" ">
<polygon fill="none" stroke="#bfbfbf" points="91.5,-.5 91.5,-20.5 157.5,-20.5 157.5,-.5 91.5,-.5"/>
<text text-anchor="middle" x="124.5" y="-7.7" font-family="Avenir-Book" font-size="11.00" fill="#000000">iostream</text>
</a>
</g>
</g>
<!-- Node2&#45;&gt;Node4 -->
<g id="edge4" class="edge">
<title>Node2&#45;&gt;Node4</title>
<path fill="none" stroke="#191970" d="M290.0279,-57.4408C255.8266,-47.7419 204.0171,-33.0496 167.4878,-22.6906"/>
<polygon fill="#191970" stroke="#191970" points="168.1927,-19.2525 157.6171,-19.8914 166.2829,-25.987 168.1927,-19.2525"/>
</g>
<!-- Node5 -->
<g id="node6" class="node">
<title>Node5</title>
<g id="a_node6"><a xlink:title=" ">
<polygon fill="none" stroke="#bfbfbf" points="175.5,-.5 175.5,-20.5 239.5,-20.5 239.5,-.5 175.5,-.5"/>
<text text-anchor="middle" x="207.5" y="-7.7" font-family="Avenir-Book" font-size="11.00" fill="#000000">memory</text>
</a>
</g>
</g>
<!-- Node2&#45;&gt;Node5 -->
<g id="edge5" class="edge">
<title>Node2&#45;&gt;Node5</title>
<path fill="none" stroke="#191970" d="M304.6756,-57.4408C286.0859,-48.461 258.635,-35.2008 237.6466,-25.0624"/>
<polygon fill="#191970" stroke="#191970" points="239.04,-21.8485 228.5131,-20.6504 235.9952,-28.1517 239.04,-21.8485"/>
</g>
<!-- Node6 -->
<g id="node7" class="node">
<title>Node6</title>
<g id="a_node7"><a xlink:title=" ">
<polygon fill="none" stroke="#bfbfbf" points="257.5,-.5 257.5,-20.5 319.5,-20.5 319.5,-.5 257.5,-.5"/>
<text text-anchor="middle" x="288.5" y="-7.7" font-family="Avenir-Book" font-size="11.00" fill="#000000">sstream</text>
</a>
</g>
</g>
<!-- Node2&#45;&gt;Node6 -->
<g id="edge6" class="edge">
<title>Node2&#45;&gt;Node6</title>
<path fill="none" stroke="#191970" d="M318.8851,-57.3095C313.8341,-49.5282 306.7332,-38.589 300.666,-29.2423"/>
<polygon fill="#191970" stroke="#191970" points="303.4381,-27.0844 295.0576,-20.6022 297.5666,-30.8957 303.4381,-27.0844"/>
</g>
<!-- Node7 -->
<g id="node8" class="node">
<title>Node7</title>
<g id="a_node8"><a xlink:title=" ">
<polygon fill="none" stroke="#bfbfbf" points="337.5,-.5 337.5,-20.5 387.5,-20.5 387.5,-.5 337.5,-.5"/>
<text text-anchor="middle" x="362.5" y="-7.7" font-family="Avenir-Book" font-size="11.00" fill="#000000">string</text>
</a>
</g>
</g>
<!-- Node2&#45;&gt;Node7 -->
<g id="edge7" class="edge">
<title>Node2&#45;&gt;Node7</title>
<path fill="none" stroke="#191970" d="M332.1149,-57.3095C337.1659,-49.5282 344.2668,-38.589 350.334,-29.2423"/>
<polygon fill="#191970" stroke="#191970" points="353.4334,-30.8957 355.9424,-20.6022 347.5619,-27.0844 353.4334,-30.8957"/>
</g>
<!-- Node8 -->
<g id="node9" class="node">
<title>Node8</title>
<g id="a_node9"><a xlink:title=" ">
<polygon fill="none" stroke="#bfbfbf" points="406,-.5 406,-20.5 505,-20.5 505,-.5 406,-.5"/>
<text text-anchor="middle" x="455.5" y="-7.7" font-family="Avenir-Book" font-size="11.00" fill="#000000">unordered_set</text>
</a>
</g>
</g>
<!-- Node2&#45;&gt;Node8 -->
<g id="edge8" class="edge">
<title>Node2&#45;&gt;Node8</title>
<path fill="none" stroke="#191970" d="M348.4421,-57.4408C369.1069,-48.3801 399.7105,-34.9615 422.9108,-24.7891"/>
<polygon fill="#191970" stroke="#191970" points="424.5971,-27.8715 432.3499,-20.6504 421.7861,-21.4606 424.5971,-27.8715"/>
</g>
<!-- Node2&#45;&gt;Node9 -->
<g id="edge9" class="edge">
<title>Node2&#45;&gt;Node9</title>
<path fill="none" stroke="#191970" d="M368.8212,-57.4949C405.0568,-48.9798 458.3275,-36.1231 513.2584,-21.2538"/>
<polygon fill="#191970" stroke="#191970" points="514.4391,-24.5597 523.1675,-18.5542 512.5991,-17.8059 514.4391,-24.5597"/>
</g>
</g>
</svg>
        <g id="navigator" transform="translate(0 0)" fill="#404254">
                <rect fill="#f2f5e9" fill-opacity="0.5" stroke="#606060" stroke-width=".5" x="0" y="0" width="60" height="60"/>
                <use id="zoomplus" xlink:href="#zoomPlus" x="17" y="9" onmousedown="handleZoom(evt,'in')"/>
                <use id="zoomminus" xlink:href="#zoomMin" x="42" y="9" onmousedown="handleZoom(evt,'out')"/>
                <use id="reset" xlink:href="#resetDef" x="30" y="36" onmousedown="handleReset()"/>
                <g id="arrowUp" xlink:href="#dirArrow" transform="translate(30 24)" onmousedown="handlePan(0,-1)">
                  <use xlink:href="#rim" fill="#404040">
                        <set attributeName="fill" to="#808080" begin="arrowUp.mouseover" end="arrowUp.mouseout"/>
                  </use>
                  <path fill="none" stroke="white" stroke-width="1.5" d="M0,-3.0v7 M-2.5,-0.5L0,-3.0L2.5,-0.5"/>
                </g>
                <g id="arrowRight" xlink:href="#dirArrow" transform="rotate(90) translate(36 -43)" onmousedown="handlePan(1,0)">
                  <use xlink:href="#rim" fill="#404040">
                        <set attributeName="fill" to="#808080" begin="arrowRight.mouseover" end="arrowRight.mouseout"/>
                  </use>
                  <path fill="none" stroke="white" stroke-width="1.5" d="M0,-3.0v7 M-2.5,-0.5L0,-3.0L2.5,-0.5"/>
                </g>
                <g id="arrowDown" xlink:href="#dirArrow" transform="rotate(180) translate(-30 -48)" onmousedown="handlePan(0,1)">
                  <use xlink:href="#rim" fill="#404040">
                        <set attributeName="fill" to="#808080" begin="arrowDown.mouseover" end="arrowDown.mouseout"/>
                  </use>
                  <path fill="none" stroke="white" stroke-width="1.5" d="M0,-3.0v7 M-2.5,-0.5L0,-3.0L2.5,-0.5"/>
                </g>
                <g id="arrowLeft" xlink:href="#dirArrow" transform="rotate(270) translate(-36 17)" onmousedown="handlePan(-1,0)">
                  <use xlink:href="#rim" fill="#404040">
                        <set attributeName="fill" to="#808080" begin="arrowLeft.mouseover" end="arrowLeft.mouseout"/>
                  </use>
                  <path fill="none" stroke="white" stroke-width="1.5" d="M0,-3.0v7 M-2.5,-0.5L0,-3.0L2.5,-0.5"/>
                </g>
        </g>
        <svg viewBox="0 0 15 15" width="100%" height="30px" preserveAspectRatio="xMaxYMin meet">
         <g id="arrow_out" transform="scale(0.3 0.3)">
          <a xlink:href="Arguments_8cpp__incl_org.svg" target="_base">
           <rect id="button" ry="5" rx="5" y="6" x="6" height="38" width="38"
                fill="#f2f5e9" fill-opacity="0.5" stroke="#606060" stroke-width="1.0"/>
           <path id="arrow"
             d="M 11.500037,31.436501 C 11.940474,20.09759 22.043105,11.32322 32.158766,21.979434 L 37.068811,17.246167 C 37.068811,17.246167 37.088388,32 37.088388,32 L 22.160133,31.978069 C 22.160133,31.978069 26.997745,27.140456 26.997745,27.140456 C 18.528582,18.264221 13.291696,25.230495 11.500037,31.436501 z"
             style="fill:#404040;"/>
          </a>
         </g>
        </svg>
</svg>
