<?xml version="1.0" encoding="UTF-8" standalone="no"?>
<!DOCTYPE svg PUBLIC "-//W3C//DTD SVG 1.1//EN"
 "http://www.w3.org/Graphics/SVG/1.1/DTD/svg11.dtd">
<!-- Generated by graphviz version 2.36.0 (20140111.2315)
 -->
<!-- Title: src/checks.cpp Pages: 1 -->
<!--zoomable 146 -->
<svg id="main" version="1.1" xmlns="http://www.w3.org/2000/svg" xmlns:xlink="http://www.w3.org/1999/xlink" xml:space="preserve" onload="init(evt)">
<style type="text/css"><![CDATA[
.edge:hover path { stroke: red; }
.edge:hover polygon { stroke: red; fill: red; }
]]></style>
<script type="text/javascript"><![CDATA[
var edges = document.getElementsByTagName('g');
if (edges && edges.length) {
  for (var i=0;i<edges.length;i++) {
    if (edges[i].id.substr(0,4)=='edge') {
      edges[i].setAttribute('class','edge');
    }
  }
}
]]></script>
        <defs>
                <circle id="rim" cx="0" cy="0" r="7"/>
                <circle id="rim2" cx="0" cy="0" r="3.5"/>
                <g id="zoomPlus">
                        <use xlink:href="#rim" fill="#404040">
                                <set attributeName="fill" to="#808080" begin="zoomplus.mouseover" end="zoomplus.mouseout"/>
                        </use>
                        <path d="M-4,0h8M0,-4v8" fill="none" stroke="white" stroke-width="1.5" pointer-events="none"/>
                </g>
                <g id="zoomMin">
                        <use xlink:href="#rim" fill="#404040">
                                <set attributeName="fill" to="#808080" begin="zoomminus.mouseover" end="zoomminus.mouseout"/>
                        </use>
                        <path d="M-4,0h8" fill="none" stroke="white" stroke-width="1.5" pointer-events="none"/>
                </g>
                <g id="dirArrow">
                        <path fill="none" stroke="white" stroke-width="1.5" d="M0,-3.0v7 M-2.5,-0.5L0,-3.0L2.5,-0.5"/>
                </g>
               <g id="resetDef">
                       <use xlink:href="#rim2" fill="#404040">
                               <set attributeName="fill" to="#808080" begin="reset.mouseover" end="reset.mouseout"/>
                       </use>
               </g>
        </defs>

<script type="text/javascript">
var viewWidth = 529;
var viewHeight = 146;
var sectionId = 'dynsection-0';
</script>
<script xlink:href="svgpan.js"/>
<svg id="graph" class="graph">
<g id="viewport">
<title>src/checks.cpp</title>
<!-- Node1 -->
<g id="node1" class="node"><title>Node1</title>
<polygon fill="#bfbfbf" stroke="black" points="268.5,-117 268.5,-137 357.5,-137 357.5,-117 268.5,-117"/>
<text text-anchor="middle" x="313" y="-124.2" font-family="Avenir-Book" font-size="11.00">src/checks.cpp</text>
</g>
<!-- Node2 -->
<g id="node2" class="node"><title>Node2</title>
<g id="a_node2"><a xlink:href="libgrading_8h.html" target="_top" xlink:title="A library for grading C&#45; and C++&#45;based assignments. ">
<polygon fill="none" stroke="black" points="188.5,-59 188.5,-79 261.5,-79 261.5,-59 188.5,-59"/>
<text text-anchor="middle" x="225" y="-66.2" font-family="Avenir-Book" font-size="11.00">libgrading.h</text>
</a>
</g>
</g>
<!-- Node1&#45;&gt;Node2 -->
<g id="edge1" class="edge"><title>Node1&#45;&gt;Node2</title>
<path fill="none" stroke="midnightblue" d="M298.469,-116.753C284.757,-108.027 263.979,-94.8051 248.015,-84.6458"/>
<polygon fill="midnightblue" stroke="midnightblue" points="249.577,-81.4912 239.261,-79.0752 245.819,-87.3968 249.577,-81.4912"/>
</g>
<!-- Node3 -->
<g id="node3" class="node"><title>Node3</title>
<polygon fill="none" stroke="#bfbfbf" points="0,-1 0,-21 64,-21 64,-1 0,-1"/>
<text text-anchor="middle" x="32" y="-8.2" font-family="Avenir-Book" font-size="11.00">functional</text>
</g>
<!-- Node1&#45;&gt;Node3 -->
<g id="edge12" class="edge"><title>Node1&#45;&gt;Node3</title>
<path fill="none" stroke="midnightblue" d="M284.163,-116.928C257.02,-108.177 215.369,-94.2025 180,-80 137.329,-62.8655 89.1498,-40.0609 59.6785,-25.7036"/>
<polygon fill="midnightblue" stroke="midnightblue" points="60.9566,-22.4324 50.4361,-21.1789 57.8786,-28.7194 60.9566,-22.4324"/>
</g>
<!-- Node10 -->
<g id="node10" class="node"><title>Node10</title>
<polygon fill="none" stroke="#bfbfbf" points="279.5,-59 279.5,-79 346.5,-79 346.5,-59 279.5,-59"/>
<text text-anchor="middle" x="313" y="-66.2" font-family="Avenir-Book" font-size="11.00">distance.h</text>
</g>
<!-- Node1&#45;&gt;Node10 -->
<g id="edge9" class="edge"><title>Node1&#45;&gt;Node10</title>
<path fill="none" stroke="midnightblue" d="M313,-116.753C313,-109.25 313,-98.4238 313,-89.0781"/>
<polygon fill="midnightblue" stroke="midnightblue" points="316.5,-89.0752 313,-79.0752 309.5,-89.0752 316.5,-89.0752"/>
</g>
<!-- Node11 -->
<g id="node11" class="node"><title>Node11</title>
<polygon fill="none" stroke="#bfbfbf" points="365,-59 365,-79 417,-79 417,-59 365,-59"/>
<text text-anchor="middle" x="391" y="-66.2" font-family="Avenir-Book" font-size="11.00">cassert</text>
</g>
<!-- Node1&#45;&gt;Node11 -->
<g id="edge10" class="edge"><title>Node1&#45;&gt;Node11</title>
<path fill="none" stroke="midnightblue" d="M325.88,-116.753C337.92,-108.109 356.106,-95.0518 370.203,-84.9314"/>
<polygon fill="midnightblue" stroke="midnightblue" points="372.278,-87.7504 378.36,-79.0752 368.195,-82.0642 372.278,-87.7504"/>
</g>
<!-- Node12 -->
<g id="node12" class="node"><title>Node12</title>
<polygon fill="none" stroke="#bfbfbf" points="435,-59 435,-79 481,-79 481,-59 435,-59"/>
<text text-anchor="middle" x="458" y="-66.2" font-family="Avenir-Book" font-size="11.00">cmath</text>
</g>
<!-- Node1&#45;&gt;Node12 -->
<g id="edge11" class="edge"><title>Node1&#45;&gt;Node12</title>
<path fill="none" stroke="midnightblue" d="M336.619,-116.878C360.777,-107.548 398.487,-92.9842 425.463,-82.5662"/>
<polygon fill="midnightblue" stroke="midnightblue" points="426.803,-85.8006 434.87,-78.9329 424.281,-79.2707 426.803,-85.8006"/>
</g>
<!-- Node2&#45;&gt;Node3 -->
<g id="edge2" class="edge"><title>Node2&#45;&gt;Node3</title>
<path fill="none" stroke="midnightblue" d="M193.562,-58.878C160.659,-49.331 108.867,-34.3033 72.8244,-23.8454"/>
<polygon fill="midnightblue" stroke="midnightblue" points="73.6843,-20.4506 63.1051,-21.0253 71.7336,-27.1734 73.6843,-20.4506"/>
</g>
<!-- Node4 -->
<g id="node4" class="node"><title>Node4</title>
<polygon fill="none" stroke="#bfbfbf" points="82.5,-1 82.5,-21 141.5,-21 141.5,-1 82.5,-1"/>
<text text-anchor="middle" x="112" y="-8.2" font-family="Avenir-Book" font-size="11.00">iostream</text>
</g>
<!-- Node2&#45;&gt;Node4 -->
<g id="edge3" class="edge"><title>Node2&#45;&gt;Node4</title>
<path fill="none" stroke="midnightblue" d="M206.593,-58.878C188.371,-49.8475 160.253,-35.9132 139.405,-25.5812"/>
<polygon fill="midnightblue" stroke="midnightblue" points="140.913,-22.4225 130.399,-21.1181 137.805,-28.6946 140.913,-22.4225"/>
</g>
<!-- Node5 -->
<g id="node5" class="node"><title>Node5</title>
<polygon fill="none" stroke="#bfbfbf" points="160,-1 160,-21 216,-21 216,-1 160,-1"/>
<text text-anchor="middle" x="188" y="-8.2" font-family="Avenir-Book" font-size="11.00">memory</text>
</g>
<!-- Node2&#45;&gt;Node5 -->
<g id="edge4" class="edge"><title>Node2&#45;&gt;Node5</title>
<path fill="none" stroke="midnightblue" d="M218.89,-58.7527C213.664,-50.8427 205.996,-39.2372 199.608,-29.5683"/>
<polygon fill="midnightblue" stroke="midnightblue" points="202.429,-27.4891 193.996,-21.0752 196.589,-31.348 202.429,-27.4891"/>
</g>
<!-- Node6 -->
<g id="node6" class="node"><title>Node6</title>
<polygon fill="none" stroke="#bfbfbf" points="234,-1 234,-21 290,-21 290,-1 234,-1"/>
<text text-anchor="middle" x="262" y="-8.2" font-family="Avenir-Book" font-size="11.00">sstream</text>
</g>
<!-- Node2&#45;&gt;Node6 -->
<g id="edge5" class="edge"><title>Node2&#45;&gt;Node6</title>
<path fill="none" stroke="midnightblue" d="M231.11,-58.7527C236.336,-50.8427 244.004,-39.2372 250.392,-29.5683"/>
<polygon fill="midnightblue" stroke="midnightblue" points="253.411,-31.348 256.004,-21.0752 247.571,-27.4891 253.411,-31.348"/>
</g>
<!-- Node7 -->
<g id="node7" class="node"><title>Node7</title>
<polygon fill="none" stroke="#bfbfbf" points="308.5,-1 308.5,-21 351.5,-21 351.5,-1 308.5,-1"/>
<text text-anchor="middle" x="330" y="-8.2" font-family="Avenir-Book" font-size="11.00">string</text>
</g>
<!-- Node2&#45;&gt;Node7 -->
<g id="edge6" class="edge"><title>Node2&#45;&gt;Node7</title>
<path fill="none" stroke="midnightblue" d="M242.339,-58.7527C259.158,-49.7826 284.887,-36.0601 304.128,-25.7986"/>
<polygon fill="midnightblue" stroke="midnightblue" points="305.808,-28.8694 312.984,-21.0752 302.513,-22.6929 305.808,-28.8694"/>
</g>
<!-- Node8 -->
<g id="node8" class="node"><title>Node8</title>
<polygon fill="none" stroke="#bfbfbf" points="369.5,-1 369.5,-21 456.5,-21 456.5,-1 369.5,-1"/>
<text text-anchor="middle" x="413" y="-8.2" font-family="Avenir-Book" font-size="11.00">unordered_set</text>
</g>
<!-- Node2&#45;&gt;Node8 -->
<g id="edge7" class="edge"><title>Node2&#45;&gt;Node8</title>
<path fill="none" stroke="midnightblue" d="M255.624,-58.878C287.537,-49.3718 337.694,-34.4317 372.782,-23.9798"/>
<polygon fill="midnightblue" stroke="midnightblue" points="374.116,-27.2345 382.701,-21.0253 372.118,-20.5258 374.116,-27.2345"/>
</g>
<!-- Node9 -->
<g id="node9" class="node"><title>Node9</title>
<polygon fill="none" stroke="#bfbfbf" points="475,-1 475,-21 521,-21 521,-1 475,-1"/>
<text text-anchor="middle" x="498" y="-8.2" font-family="Avenir-Book" font-size="11.00">vector</text>
</g>
<!-- Node2&#45;&gt;Node9 -->
<g id="edge8" class="edge"><title>Node2&#45;&gt;Node9</title>
<path fill="none" stroke="midnightblue" d="M261.637,-59.9297C264.801,-59.2648 267.956,-58.6132 271,-58 353.945,-41.2923 378.112,-42.6266 464.909,-21.792"/>
<polygon fill="midnightblue" stroke="midnightblue" points="465.762,-25.1868 474.652,-19.4243 464.109,-18.3847 465.762,-25.1868"/>
</g>
</g>
</svg>
        <g id="navigator" transform="translate(0 0)" fill="#404254">
                <rect fill="#f2f5e9" fill-opacity="0.5" stroke="#606060" stroke-width=".5" x="0" y="0" width="60" height="60"/>
                <use id="zoomplus" xlink:href="#zoomPlus" x="17" y="9" onmousedown="handleZoom(evt,'in')"/>
                <use id="zoomminus" xlink:href="#zoomMin" x="42" y="9" onmousedown="handleZoom(evt,'out')"/>
                <use id="reset" xlink:href="#resetDef" x="30" y="36" onmousedown="handleReset()"/>
                <g id="arrowUp" xlink:href="#dirArrow" transform="translate(30 24)" onmousedown="handlePan(0,-1)">
                  <use xlink:href="#rim" fill="#404040">
                        <set attributeName="fill" to="#808080" begin="arrowUp.mouseover" end="arrowUp.mouseout"/>
                  </use>
                  <path fill="none" stroke="white" stroke-width="1.5" d="M0,-3.0v7 M-2.5,-0.5L0,-3.0L2.5,-0.5"/>
                </g>
                <g id="arrowRight" xlink:href="#dirArrow" transform="rotate(90) translate(36 -43)" onmousedown="handlePan(1,0)">
                  <use xlink:href="#rim" fill="#404040">
                        <set attributeName="fill" to="#808080" begin="arrowRight.mouseover" end="arrowRight.mouseout"/>
                  </use>
                  <path fill="none" stroke="white" stroke-width="1.5" d="M0,-3.0v7 M-2.5,-0.5L0,-3.0L2.5,-0.5"/>
                </g>
                <g id="arrowDown" xlink:href="#dirArrow" transform="rotate(180) translate(-30 -48)" onmousedown="handlePan(0,1)">
                  <use xlink:href="#rim" fill="#404040">
                        <set attributeName="fill" to="#808080" begin="arrowDown.mouseover" end="arrowDown.mouseout"/>
                  </use>
                  <path fill="none" stroke="white" stroke-width="1.5" d="M0,-3.0v7 M-2.5,-0.5L0,-3.0L2.5,-0.5"/>
                </g>
                <g id="arrowLeft" xlink:href="#dirArrow" transform="rotate(270) translate(-36 17)" onmousedown="handlePan(-1,0)">
                  <use xlink:href="#rim" fill="#404040">
                        <set attributeName="fill" to="#808080" begin="arrowLeft.mouseover" end="arrowLeft.mouseout"/>
                  </use>
                  <path fill="none" stroke="white" stroke-width="1.5" d="M0,-3.0v7 M-2.5,-0.5L0,-3.0L2.5,-0.5"/>
                </g>
        </g>
        <svg viewBox="0 0 15 15" width="100%" height="30px" preserveAspectRatio="xMaxYMin meet">
         <g id="arrow_out" transform="scale(0.3 0.3)">
          <a xlink:href="checks_8cpp__incl_org.svg" target="_base">
           <rect id="button" ry="5" rx="5" y="6" x="6" height="38" width="38"
                fill="#f2f5e9" fill-opacity="0.5" stroke="#606060" stroke-width="1.0"/>
           <path id="arrow"
             d="M 11.500037,31.436501 C 11.940474,20.09759 22.043105,11.32322 32.158766,21.979434 L 37.068811,17.246167 C 37.068811,17.246167 37.088388,32 37.088388,32 L 22.160133,31.978069 C 22.160133,31.978069 26.997745,27.140456 26.997745,27.140456 C 18.528582,18.264221 13.291696,25.230495 11.500037,31.436501 z"
             style="fill:#404040;"/>
          </a>
         </g>
        </svg>
</svg>
