<?xml version="1.0" encoding="UTF-8" standalone="no"?>
<!DOCTYPE svg PUBLIC "-//W3C//DTD SVG 1.1//EN"
 "http://www.w3.org/Graphics/SVG/1.1/DTD/svg11.dtd">
<!-- Generated by graphviz version 2.38.0 (20140413.2041)
 -->
<!-- Title: src/checks.cpp Pages: 1 -->
<svg width="448pt" height="152pt"
 viewBox="0.00 0.00 448.11 152.08" xmlns="http://www.w3.org/2000/svg" xmlns:xlink="http://www.w3.org/1999/xlink">
<g id="graph0" class="graph" transform="scale(1 1) rotate(0) translate(4 148.078)">
<title>src/checks.cpp</title>
<!-- Node1 -->
<g id="node1" class="node"><title>Node1</title>
<polygon fill="#bfbfbf" stroke="black" points="230.966,-120.552 230.966,-143.578 319.104,-143.578 319.104,-120.552 230.966,-120.552"/>
<text text-anchor="middle" x="275.035" y="-130.778" font-family="Avenir-Book" font-size="11.00">src/checks.cpp</text>
</g>
<!-- Node2 -->
<g id="node2" class="node"><title>Node2</title>
<g id="a_node2"><a xlink:href="libgrading_8h.html" target="_top" xlink:title="A library for grading C&#45; and C++&#45;based assignments. ">
<polygon fill="none" stroke="black" points="148.308,-60.526 148.308,-83.5519 223.762,-83.5519 223.762,-60.526 148.308,-60.526"/>
<text text-anchor="middle" x="186.035" y="-70.7519" font-family="Avenir-Book" font-size="11.00">libgrading.h</text>
</a>
</g>
</g>
<!-- Node1&#45;&gt;Node2 -->
<g id="edge1" class="edge"><title>Node1&#45;&gt;Node2</title>
<path fill="none" stroke="midnightblue" d="M258.711,-120.422C245.287,-111.67 226.052,-99.1292 210.742,-89.1476"/>
<polygon fill="midnightblue" stroke="midnightblue" points="212.544,-86.144 202.255,-83.6143 208.721,-92.0078 212.544,-86.144"/>
</g>
<!-- Node3 -->
<g id="node3" class="node"><title>Node3</title>
<polygon fill="none" stroke="#bfbfbf" points="-7.10543e-15,-0.5 -7.10543e-15,-23.526 64.07,-23.526 64.07,-0.5 -7.10543e-15,-0.5"/>
<text text-anchor="middle" x="32.035" y="-10.726" font-family="Avenir-Book" font-size="11.00">functional</text>
</g>
<!-- Node1&#45;&gt;Node3 -->
<g id="edge11" class="edge"><title>Node1&#45;&gt;Node3</title>
<path fill="none" stroke="midnightblue" d="M236.176,-120.496C208.387,-112.258 170.495,-99.6174 139.035,-84.0519 107.733,-68.5645 74.681,-45.4367 53.7373,-29.8149"/>
<polygon fill="midnightblue" stroke="midnightblue" points="55.6317,-26.8595 45.5431,-23.6235 51.4117,-32.4445 55.6317,-26.8595"/>
</g>
<!-- Node9 -->
<g id="node9" class="node"><title>Node9</title>
<polygon fill="none" stroke="#bfbfbf" points="241.977,-60.526 241.977,-83.5519 308.093,-83.5519 308.093,-60.526 241.977,-60.526"/>
<text text-anchor="middle" x="275.035" y="-70.7519" font-family="Avenir-Book" font-size="11.00">distance.h</text>
</g>
<!-- Node1&#45;&gt;Node9 -->
<g id="edge8" class="edge"><title>Node1&#45;&gt;Node9</title>
<path fill="none" stroke="midnightblue" d="M275.035,-120.422C275.035,-112.979 275.035,-102.795 275.035,-93.7758"/>
<polygon fill="midnightblue" stroke="midnightblue" points="278.535,-93.6143 275.035,-83.6143 271.535,-93.6144 278.535,-93.6143"/>
</g>
<!-- Node10 -->
<g id="node10" class="node"><title>Node10</title>
<polygon fill="none" stroke="#bfbfbf" points="326.133,-60.526 326.133,-83.5519 375.936,-83.5519 375.936,-60.526 326.133,-60.526"/>
<text text-anchor="middle" x="351.035" y="-70.7519" font-family="Avenir-Book" font-size="11.00">cassert</text>
</g>
<!-- Node1&#45;&gt;Node10 -->
<g id="edge9" class="edge"><title>Node1&#45;&gt;Node10</title>
<path fill="none" stroke="midnightblue" d="M288.975,-120.422C300.223,-111.834 316.251,-99.5967 329.2,-89.71"/>
<polygon fill="midnightblue" stroke="midnightblue" points="331.36,-92.4647 337.184,-83.6143 327.112,-86.901 331.36,-92.4647"/>
</g>
<!-- Node11 -->
<g id="node11" class="node"><title>Node11</title>
<polygon fill="none" stroke="#bfbfbf" points="393.959,-60.526 393.959,-83.5519 440.11,-83.5519 440.11,-60.526 393.959,-60.526"/>
<text text-anchor="middle" x="417.035" y="-70.7519" font-family="Avenir-Book" font-size="11.00">cmath</text>
</g>
<!-- Node1&#45;&gt;Node11 -->
<g id="edge10" class="edge"><title>Node1&#45;&gt;Node11</title>
<path fill="none" stroke="midnightblue" d="M301.08,-120.422C324.406,-110.89 358.728,-96.865 383.982,-86.5456"/>
<polygon fill="midnightblue" stroke="midnightblue" points="385.579,-89.674 393.512,-82.6513 382.931,-83.1941 385.579,-89.674"/>
</g>
<!-- Node2&#45;&gt;Node3 -->
<g id="edge2" class="edge"><title>Node2&#45;&gt;Node3</title>
<path fill="none" stroke="midnightblue" d="M157.789,-60.3961C133.042,-51.0715 96.8803,-37.4462 69.6799,-27.1973"/>
<polygon fill="midnightblue" stroke="midnightblue" points="70.6938,-23.8391 60.1019,-23.5884 68.2256,-30.3896 70.6938,-23.8391"/>
</g>
<!-- Node4 -->
<g id="node4" class="node"><title>Node4</title>
<polygon fill="none" stroke="#bfbfbf" points="81.959,-0.5 81.959,-23.526 140.111,-23.526 140.111,-0.5 81.959,-0.5"/>
<text text-anchor="middle" x="111.035" y="-10.726" font-family="Avenir-Book" font-size="11.00">iostream</text>
</g>
<!-- Node2&#45;&gt;Node4 -->
<g id="edge3" class="edge"><title>Node2&#45;&gt;Node4</title>
<path fill="none" stroke="midnightblue" d="M172.279,-60.3961C161.284,-51.8894 145.662,-39.8035 132.949,-29.9671"/>
<polygon fill="midnightblue" stroke="midnightblue" points="134.755,-26.9394 124.704,-23.5884 130.471,-32.4758 134.755,-26.9394"/>
</g>
<!-- Node5 -->
<g id="node5" class="node"><title>Node5</title>
<polygon fill="none" stroke="#bfbfbf" points="157.867,-0.5 157.867,-23.526 214.203,-23.526 214.203,-0.5 157.867,-0.5"/>
<text text-anchor="middle" x="186.035" y="-10.726" font-family="Avenir-Book" font-size="11.00">memory</text>
</g>
<!-- Node2&#45;&gt;Node5 -->
<g id="edge4" class="edge"><title>Node2&#45;&gt;Node5</title>
<path fill="none" stroke="midnightblue" d="M186.035,-60.3961C186.035,-52.9528 186.035,-42.769 186.035,-33.7498"/>
<polygon fill="midnightblue" stroke="midnightblue" points="189.535,-33.5883 186.035,-23.5884 182.535,-33.5884 189.535,-33.5883"/>
</g>
<!-- Node6 -->
<g id="node6" class="node"><title>Node6</title>
<polygon fill="none" stroke="#bfbfbf" points="232.197,-0.5 232.197,-23.526 285.872,-23.526 285.872,-0.5 232.197,-0.5"/>
<text text-anchor="middle" x="259.035" y="-10.726" font-family="Avenir-Book" font-size="11.00">sstream</text>
</g>
<!-- Node2&#45;&gt;Node6 -->
<g id="edge5" class="edge"><title>Node2&#45;&gt;Node6</title>
<path fill="none" stroke="midnightblue" d="M199.424,-60.3961C210.126,-51.8894 225.331,-39.8035 237.706,-29.9671"/>
<polygon fill="midnightblue" stroke="midnightblue" points="240.08,-32.5508 245.731,-23.5884 235.724,-27.071 240.08,-32.5508"/>
</g>
<!-- Node7 -->
<g id="node7" class="node"><title>Node7</title>
<polygon fill="none" stroke="#bfbfbf" points="304.301,-0.5 304.301,-23.526 347.768,-23.526 347.768,-0.5 304.301,-0.5"/>
<text text-anchor="middle" x="326.035" y="-10.726" font-family="Avenir-Book" font-size="11.00">string</text>
</g>
<!-- Node2&#45;&gt;Node7 -->
<g id="edge6" class="edge"><title>Node2&#45;&gt;Node7</title>
<path fill="none" stroke="midnightblue" d="M211.713,-60.3961C235.128,-50.6911 269.784,-36.3275 294.796,-25.9605"/>
<polygon fill="midnightblue" stroke="midnightblue" points="296.301,-29.1258 304.198,-22.0636 293.62,-22.6593 296.301,-29.1258"/>
</g>
<!-- Node8 -->
<g id="node8" class="node"><title>Node8</title>
<polygon fill="none" stroke="#bfbfbf" points="365.761,-0.5 365.761,-23.526 412.308,-23.526 412.308,-0.5 365.761,-0.5"/>
<text text-anchor="middle" x="389.035" y="-10.726" font-family="Avenir-Book" font-size="11.00">vector</text>
</g>
<!-- Node2&#45;&gt;Node8 -->
<g id="edge7" class="edge"><title>Node2&#45;&gt;Node8</title>
<path fill="none" stroke="midnightblue" d="M223.93,-61.355C256.608,-52.8412 305.252,-39.7805 355.866,-24.2724"/>
<polygon fill="midnightblue" stroke="midnightblue" points="357.15,-27.5388 365.672,-21.244 355.085,-20.8505 357.15,-27.5388"/>
</g>
</g>
</svg>
