<?xml version="1.0" encoding="UTF-8" standalone="no"?>
<!DOCTYPE svg PUBLIC "-//W3C//DTD SVG 1.1//EN"
 "http://www.w3.org/Graphics/SVG/1.1/DTD/svg11.dtd">
<!-- Generated by graphviz version 2.40.1 (20161225.0304)
 -->
<!-- Title: src/checks.cpp Pages: 1 -->
<svg width="584pt" height="143pt"
 viewBox="0.00 0.00 583.50 143.00" xmlns="http://www.w3.org/2000/svg" xmlns:xlink="http://www.w3.org/1999/xlink">
<g id="graph0" class="graph" transform="scale(1 1) rotate(0) translate(4 139)">
<title>src/checks.cpp</title>
<!-- Node0 -->
<g id="node1" class="node">
<title>Node0</title>
<g id="a_node1"><a xlink:title="Implementation of various expectation checks.">
<polygon fill="#bfbfbf" stroke="#000000" points="296,-114.5 296,-134.5 397,-134.5 397,-114.5 296,-114.5"/>
<text text-anchor="middle" x="346.5" y="-121.7" font-family="Avenir-Book" font-size="11.00" fill="#000000">src/checks.cpp</text>
</a>
</g>
</g>
<!-- Node1 -->
<g id="node2" class="node">
<title>Node1</title>
<g id="a_node2"><a xlink:href="libgrading_8h.html" target="_top" xlink:title="A library for grading C&#45; and C++&#45;based assignments.">
<polygon fill="none" stroke="#000000" points="204.5,-57.5 204.5,-77.5 290.5,-77.5 290.5,-57.5 204.5,-57.5"/>
<text text-anchor="middle" x="247.5" y="-64.7" font-family="Avenir-Book" font-size="11.00" fill="#000000">libgrading.h</text>
</a>
</g>
</g>
<!-- Node0&#45;&gt;Node1 -->
<g id="edge1" class="edge">
<title>Node0&#45;&gt;Node1</title>
<path fill="none" stroke="#191970" d="M328.8008,-114.3095C313.5965,-105.5556 291.4506,-92.8049 274.1104,-82.8211"/>
<polygon fill="#191970" stroke="#191970" points="275.4586,-79.5587 265.046,-77.6022 271.9658,-85.6251 275.4586,-79.5587"/>
</g>
<!-- Node2 -->
<g id="node3" class="node">
<title>Node2</title>
<g id="a_node3"><a xlink:title=" ">
<polygon fill="none" stroke="#bfbfbf" points="0,-.5 0,-20.5 73,-20.5 73,-.5 0,-.5"/>
<text text-anchor="middle" x="36.5" y="-7.7" font-family="Avenir-Book" font-size="11.00" fill="#000000">functional</text>
</a>
</g>
</g>
<!-- Node0&#45;&gt;Node2 -->
<g id="edge12" class="edge">
<title>Node0&#45;&gt;Node2</title>
<path fill="none" stroke="#191970" d="M310.1522,-114.4438C279.3482,-105.6514 234.1493,-92.1125 195.5,-78 150.3144,-61.5008 99.329,-39.1767 67.5524,-24.8051"/>
<polygon fill="#191970" stroke="#191970" points="68.8871,-21.5672 58.335,-20.6155 65.9905,-27.9398 68.8871,-21.5672"/>
</g>
<!-- Node9 -->
<g id="node10" class="node">
<title>Node9</title>
<g id="a_node10"><a xlink:title=" ">
<polygon fill="none" stroke="#bfbfbf" points="308.5,-57.5 308.5,-77.5 384.5,-77.5 384.5,-57.5 308.5,-57.5"/>
<text text-anchor="middle" x="346.5" y="-64.7" font-family="Avenir-Book" font-size="11.00" fill="#000000">distance.h</text>
</a>
</g>
</g>
<!-- Node0&#45;&gt;Node9 -->
<g id="edge9" class="edge">
<title>Node0&#45;&gt;Node9</title>
<path fill="none" stroke="#191970" d="M346.5,-114.3095C346.5,-106.9335 346.5,-96.72 346.5,-87.715"/>
<polygon fill="#191970" stroke="#191970" points="350.0001,-87.6022 346.5,-77.6022 343.0001,-87.6023 350.0001,-87.6022"/>
</g>
<!-- Node10 -->
<g id="node11" class="node">
<title>Node10</title>
<g id="a_node11"><a xlink:title=" ">
<polygon fill="none" stroke="#bfbfbf" points="403,-57.5 403,-77.5 460,-77.5 460,-57.5 403,-57.5"/>
<text text-anchor="middle" x="431.5" y="-64.7" font-family="Avenir-Book" font-size="11.00" fill="#000000">cassert</text>
</a>
</g>
</g>
<!-- Node0&#45;&gt;Node10 -->
<g id="edge10" class="edge">
<title>Node0&#45;&gt;Node10</title>
<path fill="none" stroke="#191970" d="M361.6963,-114.3095C374.5087,-105.7177 393.0624,-93.2758 407.8214,-83.3786"/>
<polygon fill="#191970" stroke="#191970" points="410.0792,-86.0787 416.4353,-77.6022 406.1805,-80.2649 410.0792,-86.0787"/>
</g>
<!-- Node11 -->
<g id="node12" class="node">
<title>Node11</title>
<g id="a_node12"><a xlink:title=" ">
<polygon fill="none" stroke="#bfbfbf" points="478,-57.5 478,-77.5 531,-77.5 531,-57.5 478,-57.5"/>
<text text-anchor="middle" x="504.5" y="-64.7" font-family="Avenir-Book" font-size="11.00" fill="#000000">cmath</text>
</a>
</g>
</g>
<!-- Node0&#45;&gt;Node11 -->
<g id="edge11" class="edge">
<title>Node0&#45;&gt;Node11</title>
<path fill="none" stroke="#191970" d="M374.3835,-114.4408C400.5352,-105.0063 439.7837,-90.847 468.3338,-80.5473"/>
<polygon fill="#191970" stroke="#191970" points="469.7283,-83.7651 477.9472,-77.0792 467.3528,-77.1805 469.7283,-83.7651"/>
</g>
<!-- Node1&#45;&gt;Node2 -->
<g id="edge2" class="edge">
<title>Node1&#45;&gt;Node2</title>
<path fill="none" stroke="#191970" d="M210.2631,-57.4408C174.7498,-47.8471 121.1513,-33.3679 82.8804,-23.0293"/>
<polygon fill="#191970" stroke="#191970" points="83.5783,-19.5924 73.0116,-20.3633 81.7527,-26.3502 83.5783,-19.5924"/>
</g>
<!-- Node3 -->
<g id="node4" class="node">
<title>Node3</title>
<g id="a_node4"><a xlink:title=" ">
<polygon fill="none" stroke="#bfbfbf" points="91.5,-.5 91.5,-20.5 157.5,-20.5 157.5,-.5 91.5,-.5"/>
<text text-anchor="middle" x="124.5" y="-7.7" font-family="Avenir-Book" font-size="11.00" fill="#000000">iostream</text>
</a>
</g>
</g>
<!-- Node1&#45;&gt;Node3 -->
<g id="edge3" class="edge">
<title>Node1&#45;&gt;Node3</title>
<path fill="none" stroke="#191970" d="M225.7932,-57.4408C206.3285,-48.4205 177.5438,-35.0813 155.6288,-24.9255"/>
<polygon fill="#191970" stroke="#191970" points="156.9483,-21.6795 146.4035,-20.6504 154.005,-28.0307 156.9483,-21.6795"/>
</g>
<!-- Node4 -->
<g id="node5" class="node">
<title>Node4</title>
<g id="a_node5"><a xlink:title=" ">
<polygon fill="none" stroke="#bfbfbf" points="175.5,-.5 175.5,-20.5 239.5,-20.5 239.5,-.5 175.5,-.5"/>
<text text-anchor="middle" x="207.5" y="-7.7" font-family="Avenir-Book" font-size="11.00" fill="#000000">memory</text>
</a>
</g>
</g>
<!-- Node1&#45;&gt;Node4 -->
<g id="edge4" class="edge">
<title>Node1&#45;&gt;Node4</title>
<path fill="none" stroke="#191970" d="M240.3488,-57.3095C234.8313,-49.4472 227.0514,-38.3608 220.4479,-28.9507"/>
<polygon fill="#191970" stroke="#191970" points="223.1985,-26.7773 214.5893,-20.6022 217.4686,-30.7983 223.1985,-26.7773"/>
</g>
<!-- Node5 -->
<g id="node6" class="node">
<title>Node5</title>
<g id="a_node6"><a xlink:title=" ">
<polygon fill="none" stroke="#bfbfbf" points="257.5,-.5 257.5,-20.5 319.5,-20.5 319.5,-.5 257.5,-.5"/>
<text text-anchor="middle" x="288.5" y="-7.7" font-family="Avenir-Book" font-size="11.00" fill="#000000">sstream</text>
</a>
</g>
</g>
<!-- Node1&#45;&gt;Node5 -->
<g id="edge5" class="edge">
<title>Node1&#45;&gt;Node5</title>
<path fill="none" stroke="#191970" d="M254.83,-57.3095C260.4854,-49.4472 268.4598,-38.3608 275.2284,-28.9507"/>
<polygon fill="#191970" stroke="#191970" points="278.2355,-30.7641 281.2335,-20.6022 272.5528,-26.6765 278.2355,-30.7641"/>
</g>
<!-- Node6 -->
<g id="node7" class="node">
<title>Node6</title>
<g id="a_node7"><a xlink:title=" ">
<polygon fill="none" stroke="#bfbfbf" points="337.5,-.5 337.5,-20.5 387.5,-20.5 387.5,-.5 337.5,-.5"/>
<text text-anchor="middle" x="362.5" y="-7.7" font-family="Avenir-Book" font-size="11.00" fill="#000000">string</text>
</a>
</g>
</g>
<!-- Node1&#45;&gt;Node6 -->
<g id="edge6" class="edge">
<title>Node1&#45;&gt;Node6</title>
<path fill="none" stroke="#191970" d="M267.795,-57.4408C285.8305,-48.5014 312.4242,-35.3202 332.843,-25.1996"/>
<polygon fill="#191970" stroke="#191970" points="334.6156,-28.2273 342.0211,-20.6504 331.5069,-21.9555 334.6156,-28.2273"/>
</g>
<!-- Node7 -->
<g id="node8" class="node">
<title>Node7</title>
<g id="a_node8"><a xlink:title=" ">
<polygon fill="none" stroke="#bfbfbf" points="406,-.5 406,-20.5 505,-20.5 505,-.5 406,-.5"/>
<text text-anchor="middle" x="455.5" y="-7.7" font-family="Avenir-Book" font-size="11.00" fill="#000000">unordered_set</text>
</a>
</g>
</g>
<!-- Node1&#45;&gt;Node7 -->
<g id="edge7" class="edge">
<title>Node1&#45;&gt;Node7</title>
<path fill="none" stroke="#191970" d="M284.2074,-57.4408C319.0017,-47.9058 371.4066,-33.5448 409.0851,-23.2195"/>
<polygon fill="#191970" stroke="#191970" points="410.0909,-26.573 418.8103,-20.5544 408.2408,-19.8219 410.0909,-26.573"/>
</g>
<!-- Node8 -->
<g id="node9" class="node">
<title>Node8</title>
<g id="a_node9"><a xlink:title=" ">
<polygon fill="none" stroke="#bfbfbf" points="523.5,-.5 523.5,-20.5 575.5,-20.5 575.5,-.5 523.5,-.5"/>
<text text-anchor="middle" x="549.5" y="-7.7" font-family="Avenir-Book" font-size="11.00" fill="#000000">vector</text>
</a>
</g>
</g>
<!-- Node1&#45;&gt;Node8 -->
<g id="edge8" class="edge">
<title>Node1&#45;&gt;Node8</title>
<path fill="none" stroke="#191970" d="M290.6088,-58.6802C293.6156,-58.1005 296.6018,-57.5351 299.5,-57 391.6121,-39.9934 418.3752,-42.7505 513.2052,-21.0893"/>
<polygon fill="#191970" stroke="#191970" points="514.2695,-24.4355 523.2218,-18.7693 512.6899,-17.616 514.2695,-24.4355"/>
</g>
</g>
</svg>
