<?xml version="1.0" encoding="UTF-8" standalone="no"?>
<!DOCTYPE svg PUBLIC "-//W3C//DTD SVG 1.1//EN"
 "http://www.w3.org/Graphics/SVG/1.1/DTD/svg11.dtd">
<!-- Generated by graphviz version 2.38.0 (20140413.2041)
 -->
<!-- Title: src/checks.cpp Pages: 1 -->
<svg width="571pt" height="143pt"
 viewBox="0.00 0.00 571.00 143.00" xmlns="http://www.w3.org/2000/svg" xmlns:xlink="http://www.w3.org/1999/xlink">
<g id="graph0" class="graph" transform="scale(1 1) rotate(0) translate(4 139)">
<title>src/checks.cpp</title>
<!-- Node1 -->
<g id="node1" class="node"><title>Node1</title>
<polygon fill="#bfbfbf" stroke="black" points="286.5,-114.5 286.5,-134.5 384.5,-134.5 384.5,-114.5 286.5,-114.5"/>
<text text-anchor="middle" x="335.5" y="-121.7" font-family="Avenir-Book" font-size="11.00">src/checks.cpp</text>
</g>
<!-- Node2 -->
<g id="node2" class="node"><title>Node2</title>
<g id="a_node2"><a xlink:href="libgrading_8h.html" target="_top" xlink:title="A library for grading C&#45; and C++&#45;based assignments. ">
<polygon fill="none" stroke="black" points="202,-57.5 202,-77.5 281,-77.5 281,-57.5 202,-57.5"/>
<text text-anchor="middle" x="241.5" y="-64.7" font-family="Avenir-Book" font-size="11.00">libgrading.h</text>
</a>
</g>
</g>
<!-- Node1&#45;&gt;Node2 -->
<g id="edge1" class="edge"><title>Node1&#45;&gt;Node2</title>
<path fill="none" stroke="midnightblue" d="M319.978,-114.418C305.282,-105.82 282.989,-92.7754 265.913,-82.7844"/>
<polygon fill="midnightblue" stroke="midnightblue" points="267.444,-79.6249 257.045,-77.5956 263.909,-85.6667 267.444,-79.6249"/>
</g>
<!-- Node3 -->
<g id="node3" class="node"><title>Node3</title>
<polygon fill="none" stroke="#bfbfbf" points="0,-0.5 0,-20.5 69,-20.5 69,-0.5 0,-0.5"/>
<text text-anchor="middle" x="34.5" y="-7.7" font-family="Avenir-Book" font-size="11.00">functional</text>
</g>
<!-- Node1&#45;&gt;Node3 -->
<g id="edge12" class="edge"><title>Node1&#45;&gt;Node3</title>
<path fill="none" stroke="midnightblue" d="M304.771,-114.489C275.834,-105.806 231.393,-91.9656 193.5,-78 147.702,-61.1211 95.7107,-38.7517 64.0141,-24.7424"/>
<polygon fill="midnightblue" stroke="midnightblue" points="65.4181,-21.5364 54.8581,-20.6784 62.5782,-27.9344 65.4181,-21.5364"/>
</g>
<!-- Node10 -->
<g id="node10" class="node"><title>Node10</title>
<polygon fill="none" stroke="#bfbfbf" points="299,-57.5 299,-77.5 372,-77.5 372,-57.5 299,-57.5"/>
<text text-anchor="middle" x="335.5" y="-64.7" font-family="Avenir-Book" font-size="11.00">distance.h</text>
</g>
<!-- Node1&#45;&gt;Node10 -->
<g id="edge9" class="edge"><title>Node1&#45;&gt;Node10</title>
<path fill="none" stroke="midnightblue" d="M335.5,-114.418C335.5,-107.216 335.5,-96.8962 335.5,-87.8632"/>
<polygon fill="midnightblue" stroke="midnightblue" points="339,-87.7794 335.5,-77.7795 332,-87.7795 339,-87.7794"/>
</g>
<!-- Node11 -->
<g id="node11" class="node"><title>Node11</title>
<polygon fill="none" stroke="#bfbfbf" points="390,-57.5 390,-77.5 447,-77.5 447,-57.5 390,-57.5"/>
<text text-anchor="middle" x="418.5" y="-64.7" font-family="Avenir-Book" font-size="11.00">cassert</text>
</g>
<!-- Node1&#45;&gt;Node11 -->
<g id="edge10" class="edge"><title>Node1&#45;&gt;Node11</title>
<path fill="none" stroke="midnightblue" d="M349.206,-114.418C361.941,-105.979 381.139,-93.257 396.101,-83.3426"/>
<polygon fill="midnightblue" stroke="midnightblue" points="398.371,-86.037 404.774,-77.5956 394.505,-80.2019 398.371,-86.037"/>
</g>
<!-- Node12 -->
<g id="node12" class="node"><title>Node12</title>
<polygon fill="none" stroke="#bfbfbf" points="465.5,-57.5 465.5,-77.5 517.5,-77.5 517.5,-57.5 465.5,-57.5"/>
<text text-anchor="middle" x="491.5" y="-64.7" font-family="Avenir-Book" font-size="11.00">cmath</text>
</g>
<!-- Node1&#45;&gt;Node12 -->
<g id="edge11" class="edge"><title>Node1&#45;&gt;Node12</title>
<path fill="none" stroke="midnightblue" d="M361.26,-114.418C387.193,-105.275 427.385,-91.1046 456.261,-80.924"/>
<polygon fill="midnightblue" stroke="midnightblue" points="457.694,-84.1302 465.961,-77.5042 455.366,-77.5285 457.694,-84.1302"/>
</g>
<!-- Node2&#45;&gt;Node3 -->
<g id="edge2" class="edge"><title>Node2&#45;&gt;Node3</title>
<path fill="none" stroke="midnightblue" d="M207.318,-57.4179C172.005,-48.0352 116.768,-33.3586 78.2793,-23.1322"/>
<polygon fill="midnightblue" stroke="midnightblue" points="78.952,-19.6896 68.3886,-20.5042 77.1545,-26.4548 78.952,-19.6896"/>
</g>
<!-- Node4 -->
<g id="node4" class="node"><title>Node4</title>
<polygon fill="none" stroke="#bfbfbf" points="87,-0.5 87,-20.5 152,-20.5 152,-0.5 87,-0.5"/>
<text text-anchor="middle" x="119.5" y="-7.7" font-family="Avenir-Book" font-size="11.00">iostream</text>
</g>
<!-- Node2&#45;&gt;Node4 -->
<g id="edge3" class="edge"><title>Node2&#45;&gt;Node4</title>
<path fill="none" stroke="midnightblue" d="M221.354,-57.4179C201.663,-48.5409 171.461,-34.9253 149.053,-24.823"/>
<polygon fill="midnightblue" stroke="midnightblue" points="150.231,-21.5148 139.676,-20.5956 147.354,-27.8963 150.231,-21.5148"/>
</g>
<!-- Node5 -->
<g id="node5" class="node"><title>Node5</title>
<polygon fill="none" stroke="#bfbfbf" points="170,-0.5 170,-20.5 233,-20.5 233,-0.5 170,-0.5"/>
<text text-anchor="middle" x="201.5" y="-7.7" font-family="Avenir-Book" font-size="11.00">memory</text>
</g>
<!-- Node2&#45;&gt;Node5 -->
<g id="edge4" class="edge"><title>Node2&#45;&gt;Node5</title>
<path fill="none" stroke="midnightblue" d="M234.895,-57.4179C229.312,-49.7415 221.152,-38.5217 214.296,-29.0945"/>
<polygon fill="midnightblue" stroke="midnightblue" points="216.961,-26.8082 208.249,-20.7795 211.3,-30.9255 216.961,-26.8082"/>
</g>
<!-- Node6 -->
<g id="node6" class="node"><title>Node6</title>
<polygon fill="none" stroke="#bfbfbf" points="251.5,-0.5 251.5,-20.5 313.5,-20.5 313.5,-0.5 251.5,-0.5"/>
<text text-anchor="middle" x="282.5" y="-7.7" font-family="Avenir-Book" font-size="11.00">sstream</text>
</g>
<!-- Node2&#45;&gt;Node6 -->
<g id="edge5" class="edge"><title>Node2&#45;&gt;Node6</title>
<path fill="none" stroke="midnightblue" d="M248.27,-57.4179C254.052,-49.6624 262.529,-38.29 269.601,-28.8035"/>
<polygon fill="midnightblue" stroke="midnightblue" points="272.412,-30.8888 275.583,-20.7795 266.8,-26.7051 272.412,-30.8888"/>
</g>
<!-- Node7 -->
<g id="node7" class="node"><title>Node7</title>
<polygon fill="none" stroke="#bfbfbf" points="332,-0.5 332,-20.5 379,-20.5 379,-0.5 332,-0.5"/>
<text text-anchor="middle" x="355.5" y="-7.7" font-family="Avenir-Book" font-size="11.00">string</text>
</g>
<!-- Node2&#45;&gt;Node7 -->
<g id="edge6" class="edge"><title>Node2&#45;&gt;Node7</title>
<path fill="none" stroke="midnightblue" d="M260.325,-57.4179C278.642,-48.5807 306.693,-35.0473 327.603,-24.9591"/>
<polygon fill="midnightblue" stroke="midnightblue" points="329.162,-28.0933 336.647,-20.5956 326.12,-21.7887 329.162,-28.0933"/>
</g>
<!-- Node8 -->
<g id="node8" class="node"><title>Node8</title>
<polygon fill="none" stroke="#bfbfbf" points="397.5,-0.5 397.5,-20.5 493.5,-20.5 493.5,-0.5 397.5,-0.5"/>
<text text-anchor="middle" x="445.5" y="-7.7" font-family="Avenir-Book" font-size="11.00">unordered_set</text>
</g>
<!-- Node2&#45;&gt;Node8 -->
<g id="edge7" class="edge"><title>Node2&#45;&gt;Node8</title>
<path fill="none" stroke="midnightblue" d="M275.186,-57.4179C309.988,-48.0352 364.424,-33.3586 402.355,-23.1322"/>
<polygon fill="midnightblue" stroke="midnightblue" points="403.358,-26.4867 412.103,-20.5042 401.536,-19.7281 403.358,-26.4867"/>
</g>
<!-- Node9 -->
<g id="node9" class="node"><title>Node9</title>
<polygon fill="none" stroke="#bfbfbf" points="512,-0.5 512,-20.5 563,-20.5 563,-0.5 512,-0.5"/>
<text text-anchor="middle" x="537.5" y="-7.7" font-family="Avenir-Book" font-size="11.00">vector</text>
</g>
<!-- Node2&#45;&gt;Node9 -->
<g id="edge8" class="edge"><title>Node2&#45;&gt;Node9</title>
<path fill="none" stroke="midnightblue" d="M281.065,-58.7471C284.256,-58.147 287.431,-57.558 290.5,-57 381.407,-40.4713 407.45,-41.4534 501.97,-20.932"/>
<polygon fill="midnightblue" stroke="midnightblue" points="502.939,-24.3026 511.956,-18.74 501.439,-17.4654 502.939,-24.3026"/>
</g>
</g>
</svg>
