<?xml version="1.0" encoding="UTF-8" standalone="no"?>
<!DOCTYPE svg PUBLIC "-//W3C//DTD SVG 1.1//EN"
 "http://www.w3.org/Graphics/SVG/1.1/DTD/svg11.dtd">
<!-- Generated by graphviz version 2.40.1 (20161225.0304)
 -->
<!-- Title: src/checks.cpp Pages: 1 -->
<!--zoomable 152 -->
<svg id="main" version="1.1" xmlns="http://www.w3.org/2000/svg" xmlns:xlink="http://www.w3.org/1999/xlink" xml:space="preserve" onload="init(evt)">
<style type="text/css"><![CDATA[
.edge:hover path { stroke: red; }
.edge:hover polygon { stroke: red; fill: red; }
]]></style>
<script type="text/javascript"><![CDATA[
var edges = document.getElementsByTagName('g');
if (edges && edges.length) {
  for (var i=0;i<edges.length;i++) {
    if (edges[i].id.substr(0,4)=='edge') {
      edges[i].setAttribute('class','edge');
    }
  }
}
]]></script>
        <defs>
                <circle id="rim" cx="0" cy="0" r="7"/>
                <circle id="rim2" cx="0" cy="0" r="3.5"/>
                <g id="zoomPlus">
                        <use xlink:href="#rim" fill="#404040">
                                <set attributeName="fill" to="#808080" begin="zoomplus.mouseover" end="zoomplus.mouseout"/>
                        </use>
                        <path d="M-4,0h8M0,-4v8" fill="none" stroke="white" stroke-width="1.5" pointer-events="none"/>
                </g>
                <g id="zoomMin">
                        <use xlink:href="#rim" fill="#404040">
                                <set attributeName="fill" to="#808080" begin="zoomminus.mouseover" end="zoomminus.mouseout"/>
                        </use>
                        <path d="M-4,0h8" fill="none" stroke="white" stroke-width="1.5" pointer-events="none"/>
                </g>
                <g id="dirArrow">
                        <path fill="none" stroke="white" stroke-width="1.5" d="M0,-3.0v7 M-2.5,-0.5L0,-3.0L2.5,-0.5"/>
                </g>
               <g id="resetDef">
                       <use xlink:href="#rim2" fill="#404040">
                               <set attributeName="fill" to="#808080" begin="reset.mouseover" end="reset.mouseout"/>
                       </use>
               </g>
        </defs>

<script type="text/javascript">
var viewWidth = 525;
var viewHeight = 152;
var sectionId = 'dynsection-0';
</script>
<script xlink:href="svgpan.js"/>
<svg id="graph" class="graph">
<g id="viewport">
<title>src/checks.cpp</title>
<!-- Node0 -->
<g id="node1" class="node">
<title>Node0</title>
<g id="a_node1"><a xlink:title="Implementation of various expectation checks.">
<polygon fill="#bfbfbf" stroke="#000000" points="266.966,-120.5519 266.966,-143.5779 355.104,-143.5779 355.104,-120.5519 266.966,-120.5519"/>
<text text-anchor="middle" x="311.035" y="-130.7779" font-family="Avenir-Book" font-size="11.00" fill="#000000">src/checks.cpp</text>
</a>
</g>
</g>
<!-- Node1 -->
<g id="node2" class="node">
<title>Node1</title>
<g id="a_node2"><a xlink:href="libgrading_8h.html" target="_top" xlink:title="A library for grading C&#45; and C++&#45;based assignments.">
<polygon fill="none" stroke="#000000" points="184.3075,-60.526 184.3075,-83.5519 259.7625,-83.5519 259.7625,-60.526 184.3075,-60.526"/>
<text text-anchor="middle" x="222.035" y="-70.7519" font-family="Avenir-Book" font-size="11.00" fill="#000000">libgrading.h</text>
</a>
</g>
</g>
<!-- Node0&#45;&gt;Node1 -->
<g id="edge1" class="edge">
<title>Node0&#45;&gt;Node1</title>
<path fill="none" stroke="#191970" d="M293.8749,-120.4913C280.8238,-111.689 262.6501,-99.4318 247.8475,-89.4482"/>
<polygon fill="#191970" stroke="#191970" points="249.3901,-86.267 239.1424,-83.577 245.476,-92.0704 249.3901,-86.267"/>
</g>
<!-- Node2 -->
<g id="node3" class="node">
<title>Node2</title>
<g id="a_node3"><a xlink:title=" ">
<polygon fill="none" stroke="#bfbfbf" points="0,-.5 0,-23.526 64.07,-23.526 64.07,-.5 0,-.5"/>
<text text-anchor="middle" x="32.035" y="-10.726" font-family="Avenir-Book" font-size="11.00" fill="#000000">functional</text>
</a>
</g>
</g>
<!-- Node0&#45;&gt;Node2 -->
<g id="edge12" class="edge">
<title>Node0&#45;&gt;Node2</title>
<path fill="none" stroke="#191970" d="M274.186,-120.4674C246.5483,-111.4307 207.9725,-98.095 175.035,-84.0519 135.0595,-67.0082 90.5817,-43.9168 62.0072,-28.5194"/>
<polygon fill="#191970" stroke="#191970" points="63.4153,-25.3015 52.9559,-23.6125 60.0791,-31.4554 63.4153,-25.3015"/>
</g>
<!-- Node9 -->
<g id="node10" class="node">
<title>Node9</title>
<g id="a_node10"><a xlink:title=" ">
<polygon fill="none" stroke="#bfbfbf" points="277.977,-60.526 277.977,-83.5519 344.093,-83.5519 344.093,-60.526 277.977,-60.526"/>
<text text-anchor="middle" x="311.035" y="-70.7519" font-family="Avenir-Book" font-size="11.00" fill="#000000">distance.h</text>
</a>
</g>
</g>
<!-- Node0&#45;&gt;Node9 -->
<g id="edge9" class="edge">
<title>Node0&#45;&gt;Node9</title>
<path fill="none" stroke="#191970" d="M311.035,-120.4913C311.035,-112.9346 311.035,-102.8316 311.035,-93.8068"/>
<polygon fill="#191970" stroke="#191970" points="314.5351,-93.577 311.035,-83.577 307.5351,-93.5771 314.5351,-93.577"/>
</g>
<!-- Node10 -->
<g id="node11" class="node">
<title>Node10</title>
<g id="a_node11"><a xlink:title=" ">
<polygon fill="none" stroke="#bfbfbf" points="362.1335,-60.526 362.1335,-83.5519 411.9365,-83.5519 411.9365,-60.526 362.1335,-60.526"/>
<text text-anchor="middle" x="387.035" y="-70.7519" font-family="Avenir-Book" font-size="11.00" fill="#000000">cassert</text>
</a>
</g>
</g>
<!-- Node0&#45;&gt;Node10 -->
<g id="edge10" class="edge">
<title>Node0&#45;&gt;Node10</title>
<path fill="none" stroke="#191970" d="M325.6886,-120.4913C336.6231,-111.8551 351.7684,-99.8931 364.2743,-90.0157"/>
<polygon fill="#191970" stroke="#191970" points="366.7482,-92.5218 372.4264,-83.577 362.4095,-87.0285 366.7482,-92.5218"/>
</g>
<!-- Node11 -->
<g id="node12" class="node">
<title>Node11</title>
<g id="a_node12"><a xlink:title=" ">
<polygon fill="none" stroke="#bfbfbf" points="429.9595,-60.526 429.9595,-83.5519 476.1105,-83.5519 476.1105,-60.526 429.9595,-60.526"/>
<text text-anchor="middle" x="453.035" y="-70.7519" font-family="Avenir-Book" font-size="11.00" fill="#000000">cmath</text>
</a>
</g>
</g>
<!-- Node0&#45;&gt;Node11 -->
<g id="edge11" class="edge">
<title>Node0&#45;&gt;Node11</title>
<path fill="none" stroke="#191970" d="M338.414,-120.4913C361.7507,-110.6265 395.3526,-96.4224 420.1444,-85.9424"/>
<polygon fill="#191970" stroke="#191970" points="421.6589,-89.1022 429.5069,-81.9847 418.9333,-82.6545 421.6589,-89.1022"/>
</g>
<!-- Node1&#45;&gt;Node2 -->
<g id="edge2" class="edge">
<title>Node1&#45;&gt;Node2</title>
<path fill="none" stroke="#191970" d="M185.4011,-60.4653C153.5424,-50.4004 107.3857,-35.8182 74.0392,-25.2832"/>
<polygon fill="#191970" stroke="#191970" points="74.7214,-21.8283 64.1316,-22.1531 72.6126,-28.5031 74.7214,-21.8283"/>
</g>
<!-- Node3 -->
<g id="node4" class="node">
<title>Node3</title>
<g id="a_node4"><a xlink:title=" ">
<polygon fill="none" stroke="#bfbfbf" points="81.959,-.5 81.959,-23.526 140.111,-23.526 140.111,-.5 81.959,-.5"/>
<text text-anchor="middle" x="111.035" y="-10.726" font-family="Avenir-Book" font-size="11.00" fill="#000000">iostream</text>
</a>
</g>
</g>
<!-- Node1&#45;&gt;Node3 -->
<g id="edge3" class="edge">
<title>Node1&#45;&gt;Node3</title>
<path fill="none" stroke="#191970" d="M200.6331,-60.4653C183.8183,-51.3724 160.186,-38.5926 141.4135,-28.4409"/>
<polygon fill="#191970" stroke="#191970" points="142.8323,-25.2292 132.3712,-23.5511 139.5025,-31.3866 142.8323,-25.2292"/>
</g>
<!-- Node4 -->
<g id="node5" class="node">
<title>Node4</title>
<g id="a_node5"><a xlink:title=" ">
<polygon fill="none" stroke="#bfbfbf" points="157.8665,-.5 157.8665,-23.526 214.2035,-23.526 214.2035,-.5 157.8665,-.5"/>
<text text-anchor="middle" x="186.035" y="-10.726" font-family="Avenir-Book" font-size="11.00" fill="#000000">memory</text>
</a>
</g>
</g>
<!-- Node1&#45;&gt;Node4 -->
<g id="edge4" class="edge">
<title>Node1&#45;&gt;Node4</title>
<path fill="none" stroke="#191970" d="M215.0938,-60.4653C210.3128,-52.4934 203.8321,-41.6877 198.2041,-32.3037"/>
<polygon fill="#191970" stroke="#191970" points="201.0998,-30.3268 192.9549,-23.5511 195.0966,-33.9272 201.0998,-30.3268"/>
</g>
<!-- Node5 -->
<g id="node6" class="node">
<title>Node5</title>
<g id="a_node6"><a xlink:title=" ">
<polygon fill="none" stroke="#bfbfbf" points="232.1975,-.5 232.1975,-23.526 285.8725,-23.526 285.8725,-.5 232.1975,-.5"/>
<text text-anchor="middle" x="259.035" y="-10.726" font-family="Avenir-Book" font-size="11.00" fill="#000000">sstream</text>
</a>
</g>
</g>
<!-- Node1&#45;&gt;Node5 -->
<g id="edge5" class="edge">
<title>Node1&#45;&gt;Node5</title>
<path fill="none" stroke="#191970" d="M229.169,-60.4653C234.0829,-52.4934 240.7435,-41.6877 246.5278,-32.3037"/>
<polygon fill="#191970" stroke="#191970" points="249.6551,-33.9004 251.9229,-23.5511 243.6962,-30.2273 249.6551,-33.9004"/>
</g>
<!-- Node6 -->
<g id="node7" class="node">
<title>Node6</title>
<g id="a_node7"><a xlink:title=" ">
<polygon fill="none" stroke="#bfbfbf" points="304.3015,-.5 304.3015,-23.526 347.7685,-23.526 347.7685,-.5 304.3015,-.5"/>
<text text-anchor="middle" x="326.035" y="-10.726" font-family="Avenir-Book" font-size="11.00" fill="#000000">string</text>
</a>
</g>
</g>
<!-- Node1&#45;&gt;Node6 -->
<g id="edge6" class="edge">
<title>Node1&#45;&gt;Node6</title>
<path fill="none" stroke="#191970" d="M242.0872,-60.4653C257.7697,-51.4139 279.7816,-38.7092 297.331,-28.5801"/>
<polygon fill="#191970" stroke="#191970" points="299.133,-31.5813 306.0443,-23.5511 295.6338,-25.5186 299.133,-31.5813"/>
</g>
<!-- Node7 -->
<g id="node8" class="node">
<title>Node7</title>
<g id="a_node8"><a xlink:title=" ">
<polygon fill="none" stroke="#bfbfbf" points="365.3895,-.5 365.3895,-23.526 452.6805,-23.526 452.6805,-.5 365.3895,-.5"/>
<text text-anchor="middle" x="409.035" y="-10.726" font-family="Avenir-Book" font-size="11.00" fill="#000000">unordered_set</text>
</a>
</g>
</g>
<!-- Node1&#45;&gt;Node7 -->
<g id="edge7" class="edge">
<title>Node1&#45;&gt;Node7</title>
<path fill="none" stroke="#191970" d="M258.0905,-60.4653C288.0995,-50.8326 330.9983,-37.0624 363.3981,-26.6622"/>
<polygon fill="#191970" stroke="#191970" points="364.6385,-29.94 373.0902,-23.5511 362.499,-23.275 364.6385,-29.94"/>
</g>
<!-- Node8 -->
<g id="node9" class="node">
<title>Node8</title>
<g id="a_node9"><a xlink:title=" ">
<polygon fill="none" stroke="#bfbfbf" points="470.7615,-.5 470.7615,-23.526 517.3085,-23.526 517.3085,-.5 470.7615,-.5"/>
<text text-anchor="middle" x="494.035" y="-10.726" font-family="Avenir-Book" font-size="11.00" fill="#000000">vector</text>
</a>
</g>
</g>
<!-- Node1&#45;&gt;Node8 -->
<g id="edge8" class="edge">
<title>Node1&#45;&gt;Node8</title>
<path fill="none" stroke="#191970" d="M259.9486,-62.1202C263.017,-61.3871 266.0744,-60.6797 269.035,-60.026 351.1611,-41.8916 376.1844,-47.0308 460.6646,-24.1027"/>
<polygon fill="#191970" stroke="#191970" points="461.7176,-27.4429 470.4222,-21.4031 459.851,-20.6963 461.7176,-27.4429"/>
</g>
</g>
</svg>
        <g id="navigator" transform="translate(0 0)" fill="#404254">
                <rect fill="#f2f5e9" fill-opacity="0.5" stroke="#606060" stroke-width=".5" x="0" y="0" width="60" height="60"/>
                <use id="zoomplus" xlink:href="#zoomPlus" x="17" y="9" onmousedown="handleZoom(evt,'in')"/>
                <use id="zoomminus" xlink:href="#zoomMin" x="42" y="9" onmousedown="handleZoom(evt,'out')"/>
                <use id="reset" xlink:href="#resetDef" x="30" y="36" onmousedown="handleReset()"/>
                <g id="arrowUp" xlink:href="#dirArrow" transform="translate(30 24)" onmousedown="handlePan(0,-1)">
                  <use xlink:href="#rim" fill="#404040">
                        <set attributeName="fill" to="#808080" begin="arrowUp.mouseover" end="arrowUp.mouseout"/>
                  </use>
                  <path fill="none" stroke="white" stroke-width="1.5" d="M0,-3.0v7 M-2.5,-0.5L0,-3.0L2.5,-0.5"/>
                </g>
                <g id="arrowRight" xlink:href="#dirArrow" transform="rotate(90) translate(36 -43)" onmousedown="handlePan(1,0)">
                  <use xlink:href="#rim" fill="#404040">
                        <set attributeName="fill" to="#808080" begin="arrowRight.mouseover" end="arrowRight.mouseout"/>
                  </use>
                  <path fill="none" stroke="white" stroke-width="1.5" d="M0,-3.0v7 M-2.5,-0.5L0,-3.0L2.5,-0.5"/>
                </g>
                <g id="arrowDown" xlink:href="#dirArrow" transform="rotate(180) translate(-30 -48)" onmousedown="handlePan(0,1)">
                  <use xlink:href="#rim" fill="#404040">
                        <set attributeName="fill" to="#808080" begin="arrowDown.mouseover" end="arrowDown.mouseout"/>
                  </use>
                  <path fill="none" stroke="white" stroke-width="1.5" d="M0,-3.0v7 M-2.5,-0.5L0,-3.0L2.5,-0.5"/>
                </g>
                <g id="arrowLeft" xlink:href="#dirArrow" transform="rotate(270) translate(-36 17)" onmousedown="handlePan(-1,0)">
                  <use xlink:href="#rim" fill="#404040">
                        <set attributeName="fill" to="#808080" begin="arrowLeft.mouseover" end="arrowLeft.mouseout"/>
                  </use>
                  <path fill="none" stroke="white" stroke-width="1.5" d="M0,-3.0v7 M-2.5,-0.5L0,-3.0L2.5,-0.5"/>
                </g>
        </g>
        <svg viewBox="0 0 15 15" width="100%" height="30px" preserveAspectRatio="xMaxYMin meet">
         <g id="arrow_out" transform="scale(0.3 0.3)">
          <a xlink:href="checks_8cpp__incl_org.svg" target="_base">
           <rect id="button" ry="5" rx="5" y="6" x="6" height="38" width="38"
                fill="#f2f5e9" fill-opacity="0.5" stroke="#606060" stroke-width="1.0"/>
           <path id="arrow"
             d="M 11.500037,31.436501 C 11.940474,20.09759 22.043105,11.32322 32.158766,21.979434 L 37.068811,17.246167 C 37.068811,17.246167 37.088388,32 37.088388,32 L 22.160133,31.978069 C 22.160133,31.978069 26.997745,27.140456 26.997745,27.140456 C 18.528582,18.264221 13.291696,25.230495 11.500037,31.436501 z"
             style="fill:#404040;"/>
          </a>
         </g>
        </svg>
</svg>
