<?xml version="1.0" encoding="UTF-8" standalone="no"?>
<!DOCTYPE svg PUBLIC "-//W3C//DTD SVG 1.1//EN"
 "http://www.w3.org/Graphics/SVG/1.1/DTD/svg11.dtd">
<!-- Generated by graphviz version 2.36.0 (20140111.2315)
 -->
<!-- Title: CheckResult Pages: 1 -->
<!--zoomable 339 -->
<svg id="main" version="1.1" xmlns="http://www.w3.org/2000/svg" xmlns:xlink="http://www.w3.org/1999/xlink" xml:space="preserve" onload="init(evt)">
<style type="text/css"><![CDATA[
.edge:hover path { stroke: red; }
.edge:hover polygon { stroke: red; fill: red; }
]]></style>
<script type="text/javascript"><![CDATA[
var edges = document.getElementsByTagName('g');
if (edges && edges.length) {
  for (var i=0;i<edges.length;i++) {
    if (edges[i].id.substr(0,4)=='edge') {
      edges[i].setAttribute('class','edge');
    }
  }
}
]]></script>
        <defs>
                <circle id="rim" cx="0" cy="0" r="7"/>
                <circle id="rim2" cx="0" cy="0" r="3.5"/>
                <g id="zoomPlus">
                        <use xlink:href="#rim" fill="#404040">
                                <set attributeName="fill" to="#808080" begin="zoomplus.mouseover" end="zoomplus.mouseout"/>
                        </use>
                        <path d="M-4,0h8M0,-4v8" fill="none" stroke="white" stroke-width="1.5" pointer-events="none"/>
                </g>
                <g id="zoomMin">
                        <use xlink:href="#rim" fill="#404040">
                                <set attributeName="fill" to="#808080" begin="zoomminus.mouseover" end="zoomminus.mouseout"/>
                        </use>
                        <path d="M-4,0h8" fill="none" stroke="white" stroke-width="1.5" pointer-events="none"/>
                </g>
                <g id="dirArrow">
                        <path fill="none" stroke="white" stroke-width="1.5" d="M0,-3.0v7 M-2.5,-0.5L0,-3.0L2.5,-0.5"/>
                </g>
               <g id="resetDef">
                       <use xlink:href="#rim2" fill="#404040">
                               <set attributeName="fill" to="#808080" begin="reset.mouseover" end="reset.mouseout"/>
                       </use>
               </g>
        </defs>

<script type="text/javascript">
var viewWidth = 508;
var viewHeight = 339;
var sectionId = 'dynsection-0';
</script>
<script xlink:href="svgpan.js"/>
<svg id="graph" class="graph">
<g id="viewport">
<title>CheckResult</title>
<!-- Node1 -->
<g id="node1" class="node"><title>Node1</title>
<polygon fill="#bfbfbf" stroke="black" points="0.5,-156 0.5,-176 79.5,-176 79.5,-156 0.5,-156"/>
<text text-anchor="middle" x="40" y="-163.2" font-family="Avenir-Book" font-size="11.00">CheckResult</text>
</g>
<!-- Node2 -->
<g id="node2" class="node"><title>Node2</title>
<g id="a_node2"><a xlink:href="namespacegrading.html#a02b06a7a05a39b2a9d36066c7c1b2a96" target="_top" xlink:title="Check an arbitrary condition, failing the test if false. ">
<polygon fill="none" stroke="black" points="292,-311 292,-331 382,-331 382,-311 292,-311"/>
<text text-anchor="middle" x="337" y="-318.2" font-family="Avenir-Book" font-size="11.00">grading::Check</text>
</a>
</g>
</g>
<!-- Node1&#45;&gt;Node2 -->
<g id="edge1" class="edge"><title>Node1&#45;&gt;Node2</title>
<path fill="none" stroke="midnightblue" d="M50.0811,-185.282C61.9499,-208.33 84.9399,-246.366 116,-267 169.724,-302.69 244.902,-314.814 291.998,-318.918"/>
<polygon fill="midnightblue" stroke="midnightblue" points="53.1275,-183.547 45.5524,-176.14 46.8549,-186.655 53.1275,-183.547"/>
</g>
<!-- Node4 -->
<g id="node4" class="node"><title>Node4</title>
<g id="a_node4"><a xlink:href="namespacegrading.html#a4e80ff15169ee05c6d87c2096e834d9a" target="_top" xlink:title="Check that two floating&#45;point numbers are equal within some tolerance. ">
<polygon fill="none" stroke="black" points="279.5,-272 279.5,-292 394.5,-292 394.5,-272 279.5,-272"/>
<text text-anchor="middle" x="337" y="-279.2" font-family="Avenir-Book" font-size="11.00">grading::CheckFloat</text>
</a>
</g>
</g>
<!-- Node1&#45;&gt;Node4 -->
<g id="edge3" class="edge"><title>Node1&#45;&gt;Node4</title>
<path fill="none" stroke="midnightblue" d="M55.8903,-184.014C69.811,-199.641 92.006,-221.641 116,-234 167.435,-260.494 232.929,-272.397 279.034,-277.725"/>
<polygon fill="midnightblue" stroke="midnightblue" points="58.2331,-181.371 49.0489,-176.089 52.9344,-185.946 58.2331,-181.371"/>
</g>
<!-- Node5 -->
<g id="node5" class="node"><title>Node5</title>
<g id="a_node5"><a xlink:href="namespacegrading.html#a1718d44f68e8dca72ca3e9fc874ed856" target="_top" xlink:title="Check that two integers are equal, failing the test if they are not. ">
<polygon fill="none" stroke="black" points="285.5,-233 285.5,-253 388.5,-253 388.5,-233 285.5,-233"/>
<text text-anchor="middle" x="337" y="-240.2" font-family="Avenir-Book" font-size="11.00">grading::CheckInt</text>
</a>
</g>
</g>
<!-- Node1&#45;&gt;Node5 -->
<g id="edge5" class="edge"><title>Node1&#45;&gt;Node5</title>
<path fill="none" stroke="midnightblue" d="M65.1004,-181.439C79.379,-189.915 98.1242,-199.911 116,-206 172.094,-225.106 239.72,-234.591 285.058,-239.13"/>
<polygon fill="midnightblue" stroke="midnightblue" points="66.7766,-178.361 56.4163,-176.144 63.1328,-184.338 66.7766,-178.361"/>
</g>
<!-- Node6 -->
<g id="node6" class="node"><title>Node6</title>
<g id="a_node6"><a xlink:href="namespacegrading.html#a6a748b83bd55765d8dc2dd705e52137e" target="_top" xlink:title="Check that a pointer is not equal to nullptr. ">
<polygon fill="none" stroke="black" points="272,-194 272,-214 402,-214 402,-194 272,-194"/>
<text text-anchor="middle" x="337" y="-201.2" font-family="Avenir-Book" font-size="11.00">grading::CheckNonNull</text>
</a>
</g>
</g>
<!-- Node1&#45;&gt;Node6 -->
<g id="edge7" class="edge"><title>Node1&#45;&gt;Node6</title>
<path fill="none" stroke="midnightblue" d="M85.5625,-178.55C95.5158,-180.999 106.066,-183.324 116,-185 167.978,-193.769 227.588,-198.599 271.635,-201.192"/>
<polygon fill="midnightblue" stroke="midnightblue" points="86.4077,-175.154 75.8533,-176.078 84.6807,-181.937 86.4077,-175.154"/>
</g>
<!-- Node7 -->
<g id="node7" class="node"><title>Node7</title>
<g id="a_node7"><a xlink:href="namespacegrading.html#ab80ca5498aeecda6cd1f7cb92a8f6018" target="_top" xlink:title="Check that a pointer is equal to nullptr. ">
<polygon fill="none" stroke="black" points="121.5,-156 121.5,-176 230.5,-176 230.5,-156 121.5,-156"/>
<text text-anchor="middle" x="176" y="-163.2" font-family="Avenir-Book" font-size="11.00">grading::CheckNull</text>
</a>
</g>
</g>
<!-- Node1&#45;&gt;Node7 -->
<g id="edge9" class="edge"><title>Node1&#45;&gt;Node7</title>
<path fill="none" stroke="midnightblue" d="M89.7828,-166C100.053,-166 110.941,-166 121.378,-166"/>
<polygon fill="midnightblue" stroke="midnightblue" points="89.7584,-162.5 79.7584,-166 89.7583,-169.5 89.7584,-162.5"/>
</g>
<!-- Node8 -->
<g id="node8" class="node"><title>Node8</title>
<g id="a_node8"><a xlink:href="namespacegrading.html#a60adb41dad219d6cbf3c27bf477bd638" target="_top" xlink:title="Check that two strings are (approximately) equal. ">
<polygon fill="none" stroke="black" points="116.5,-117 116.5,-137 235.5,-137 235.5,-117 116.5,-117"/>
<text text-anchor="middle" x="176" y="-124.2" font-family="Avenir-Book" font-size="11.00">grading::CheckString</text>
</a>
</g>
</g>
<!-- Node1&#45;&gt;Node8 -->
<g id="edge11" class="edge"><title>Node1&#45;&gt;Node8</title>
<path fill="none" stroke="midnightblue" d="M85.221,-153.13C103.236,-147.887 123.745,-141.918 140.609,-137.009"/>
<polygon fill="midnightblue" stroke="midnightblue" points="84.1318,-149.801 75.5083,-155.957 86.088,-156.523 84.1318,-149.801"/>
</g>
<!-- Node9 -->
<g id="node9" class="node"><title>Node9</title>
<g id="a_node9"><a xlink:href="namespacegrading.html#a395448d7484928cd96ef99470b0d9109" target="_top" xlink:title="Fail the current test. ">
<polygon fill="none" stroke="black" points="137.5,-78 137.5,-98 214.5,-98 214.5,-78 137.5,-78"/>
<text text-anchor="middle" x="176" y="-85.2" font-family="Avenir-Book" font-size="11.00">grading::Fail</text>
</a>
</g>
</g>
<!-- Node1&#45;&gt;Node9 -->
<g id="edge13" class="edge"><title>Node1&#45;&gt;Node9</title>
<path fill="none" stroke="midnightblue" d="M58.9776,-148.829C73.4163,-135.824 94.7276,-118.321 116,-107 122.65,-103.461 130.074,-100.437 137.353,-97.9108"/>
<polygon fill="midnightblue" stroke="midnightblue" points="56.3028,-146.535 51.3227,-155.886 61.0475,-151.681 56.3028,-146.535"/>
</g>
<!-- Node11 -->
<g id="node11" class="node"><title>Node11</title>
<g id="a_node11"><a xlink:href="namespacegrading.html#a2a2d0f24b23462f9b5e5dc59623029de" target="_top" xlink:title="Combine the results of two checks using a product (AND): both must pass. ">
<polygon fill="none" stroke="black" points="118.5,-39 118.5,-59 233.5,-59 233.5,-39 118.5,-39"/>
<text text-anchor="middle" x="176" y="-46.2" font-family="Avenir-Book" font-size="11.00">grading::operator&amp;&amp;</text>
</a>
</g>
</g>
<!-- Node1&#45;&gt;Node11 -->
<g id="edge16" class="edge"><title>Node1&#45;&gt;Node11</title>
<path fill="none" stroke="midnightblue" d="M51.0174,-146.671C63.418,-124.573 86.5514,-88.7827 116,-68 121.099,-64.4012 126.917,-61.4578 132.865,-59.0576"/>
<polygon fill="midnightblue" stroke="midnightblue" points="47.7805,-145.298 46.091,-155.757 53.9342,-148.634 47.7805,-145.298"/>
</g>
<!-- Node12 -->
<g id="node12" class="node"><title>Node12</title>
<g id="a_node12"><a xlink:href="namespacegrading.html#afab8c0737ae99cfa595261baac5387af" target="_top" xlink:title="Combine the results of two checks using a sum (OR): at least one must pass. ">
<polygon fill="none" stroke="black" points="123,-0 123,-20 229,-20 229,-0 123,-0"/>
<text text-anchor="middle" x="176" y="-7.2" font-family="Avenir-Book" font-size="11.00">grading::operator||</text>
</a>
</g>
</g>
<!-- Node1&#45;&gt;Node12 -->
<g id="edge18" class="edge"><title>Node1&#45;&gt;Node12</title>
<path fill="none" stroke="midnightblue" d="M46.6911,-146.004C56.1768,-116.229 78.027,-60.3872 116,-29 120.396,-25.3664 125.501,-22.4229 130.832,-20.0396"/>
<polygon fill="midnightblue" stroke="midnightblue" points="43.3032,-145.115 43.7488,-155.701 50.0017,-147.148 43.3032,-145.115"/>
</g>
<!-- Node3 -->
<g id="node3" class="node"><title>Node3</title>
<g id="a_node3"><a xlink:href="classgrading_1_1_check_result.html#a5679ca29245899bbe1dc3ccd6afe7222" target="_top" xlink:title="A message to display if the check fails. ">
<polygon fill="none" stroke="black" points="438.5,-155 438.5,-175 499.5,-175 499.5,-155 438.5,-155"/>
<text text-anchor="middle" x="469" y="-162.2" font-family="Avenir-Book" font-size="11.00">message</text>
</a>
</g>
</g>
<!-- Node2&#45;&gt;Node3 -->
<g id="edge2" class="edge"><title>Node2&#45;&gt;Node3</title>
<path fill="none" stroke="midnightblue" d="M391.347,-308.229C395.165,-306.169 398.775,-303.777 402,-301 442.569,-266.064 460.392,-200.446 465.958,-175.23"/>
<polygon fill="midnightblue" stroke="midnightblue" points="389.768,-305.103 382.142,-312.459 392.69,-311.464 389.768,-305.103"/>
</g>
<!-- Node4&#45;&gt;Node3 -->
<g id="edge4" class="edge"><title>Node4&#45;&gt;Node3</title>
<path fill="none" stroke="midnightblue" d="M392.877,-267.694C396.083,-266 399.155,-264.11 402,-262 433.74,-238.461 455.276,-194.893 463.847,-175.171"/>
<polygon fill="midnightblue" stroke="midnightblue" points="391.197,-264.614 383.568,-271.966 394.117,-270.976 391.197,-264.614"/>
</g>
<!-- Node5&#45;&gt;Node3 -->
<g id="edge6" class="edge"><title>Node5&#45;&gt;Node3</title>
<path fill="none" stroke="midnightblue" d="M388.608,-229.399C393.247,-227.498 397.782,-225.37 402,-223 425.139,-209.998 447.314,-187.876 459.146,-175.038"/>
<polygon fill="midnightblue" stroke="midnightblue" points="387.15,-226.208 379.011,-232.99 389.603,-232.764 387.15,-226.208"/>
</g>
<!-- Node6&#45;&gt;Node3 -->
<g id="edge8" class="edge"><title>Node6&#45;&gt;Node3</title>
<path fill="none" stroke="midnightblue" d="M381.246,-191.026C399.926,-185.422 421.316,-179.005 438.183,-173.945"/>
<polygon fill="midnightblue" stroke="midnightblue" points="380.051,-187.731 371.478,-193.957 382.062,-194.435 380.051,-187.731"/>
</g>
<!-- Node7&#45;&gt;Node3 -->
<g id="edge10" class="edge"><title>Node7&#45;&gt;Node3</title>
<path fill="none" stroke="midnightblue" d="M241.049,-165.78C302.331,-165.569 392.053,-165.261 438.181,-165.102"/>
<polygon fill="midnightblue" stroke="midnightblue" points="240.701,-162.281 230.713,-165.815 240.725,-169.281 240.701,-162.281"/>
</g>
<!-- Node8&#45;&gt;Node3 -->
<g id="edge12" class="edge"><title>Node8&#45;&gt;Node3</title>
<path fill="none" stroke="midnightblue" d="M245.514,-135.947C306.737,-143.942 393.502,-155.272 438.446,-161.141"/>
<polygon fill="midnightblue" stroke="midnightblue" points="245.907,-132.469 235.538,-134.644 245.001,-139.41 245.907,-132.469"/>
</g>
<!-- Node10 -->
<g id="node10" class="node"><title>Node10</title>
<g id="a_node10"><a xlink:href="namespacegrading.html#ab60215986fc07d2b182735c01cee0656" target="_top" xlink:title="Output a human&#45;readable representation of a TestResult. ">
<polygon fill="none" stroke="black" points="280.5,-78 280.5,-98 393.5,-98 393.5,-78 280.5,-78"/>
<text text-anchor="middle" x="337" y="-85.2" font-family="Avenir-Book" font-size="11.00">grading::operator&lt;&lt;</text>
</a>
</g>
</g>
<!-- Node9&#45;&gt;Node10 -->
<g id="edge14" class="edge"><title>Node9&#45;&gt;Node10</title>
<path fill="none" stroke="midnightblue" d="M225.148,-88C242.512,-88 262.251,-88 280.213,-88"/>
<polygon fill="midnightblue" stroke="midnightblue" points="224.681,-84.5001 214.681,-88 224.681,-91.5001 224.681,-84.5001"/>
</g>
<!-- Node10&#45;&gt;Node3 -->
<g id="edge15" class="edge"><title>Node10&#45;&gt;Node3</title>
<path fill="none" stroke="midnightblue" d="M378.655,-101.792C386.596,-105.062 394.713,-108.829 402,-113 423.016,-125.029 444.528,-143.322 457.056,-154.698"/>
<polygon fill="midnightblue" stroke="midnightblue" points="379.712,-98.4473 369.124,-98.0561 377.157,-104.964 379.712,-98.4473"/>
</g>
<!-- Node11&#45;&gt;Node3 -->
<g id="edge17" class="edge"><title>Node11&#45;&gt;Node3</title>
<path fill="none" stroke="midnightblue" d="M243.853,-40.1558C291.156,-37.1965 354.384,-40.1785 402,-68 436.47,-88.1407 456.846,-134.301 464.503,-154.832"/>
<polygon fill="midnightblue" stroke="midnightblue" points="243.429,-36.6773 233.71,-40.8957 243.938,-43.6588 243.429,-36.6773"/>
</g>
<!-- Node12&#45;&gt;Node3 -->
<g id="edge19" class="edge"><title>Node12&#45;&gt;Node3</title>
<path fill="none" stroke="midnightblue" d="M239.226,-2.18369C287.755,0.60729 354.642,-3.14898 402,-36 444.168,-65.2508 461.041,-129.799 466.156,-154.815"/>
<polygon fill="midnightblue" stroke="midnightblue" points="238.901,1.30239 229.163,-2.87051 239.378,-5.68137 238.901,1.30239"/>
</g>
</g>
</svg>
        <g id="navigator" transform="translate(0 0)" fill="#404254">
                <rect fill="#f2f5e9" fill-opacity="0.5" stroke="#606060" stroke-width=".5" x="0" y="0" width="60" height="60"/>
                <use id="zoomplus" xlink:href="#zoomPlus" x="17" y="9" onmousedown="handleZoom(evt,'in')"/>
                <use id="zoomminus" xlink:href="#zoomMin" x="42" y="9" onmousedown="handleZoom(evt,'out')"/>
                <use id="reset" xlink:href="#resetDef" x="30" y="36" onmousedown="handleReset()"/>
                <g id="arrowUp" xlink:href="#dirArrow" transform="translate(30 24)" onmousedown="handlePan(0,-1)">
                  <use xlink:href="#rim" fill="#404040">
                        <set attributeName="fill" to="#808080" begin="arrowUp.mouseover" end="arrowUp.mouseout"/>
                  </use>
                  <path fill="none" stroke="white" stroke-width="1.5" d="M0,-3.0v7 M-2.5,-0.5L0,-3.0L2.5,-0.5"/>
                </g>
                <g id="arrowRight" xlink:href="#dirArrow" transform="rotate(90) translate(36 -43)" onmousedown="handlePan(1,0)">
                  <use xlink:href="#rim" fill="#404040">
                        <set attributeName="fill" to="#808080" begin="arrowRight.mouseover" end="arrowRight.mouseout"/>
                  </use>
                  <path fill="none" stroke="white" stroke-width="1.5" d="M0,-3.0v7 M-2.5,-0.5L0,-3.0L2.5,-0.5"/>
                </g>
                <g id="arrowDown" xlink:href="#dirArrow" transform="rotate(180) translate(-30 -48)" onmousedown="handlePan(0,1)">
                  <use xlink:href="#rim" fill="#404040">
                        <set attributeName="fill" to="#808080" begin="arrowDown.mouseover" end="arrowDown.mouseout"/>
                  </use>
                  <path fill="none" stroke="white" stroke-width="1.5" d="M0,-3.0v7 M-2.5,-0.5L0,-3.0L2.5,-0.5"/>
                </g>
                <g id="arrowLeft" xlink:href="#dirArrow" transform="rotate(270) translate(-36 17)" onmousedown="handlePan(-1,0)">
                  <use xlink:href="#rim" fill="#404040">
                        <set attributeName="fill" to="#808080" begin="arrowLeft.mouseover" end="arrowLeft.mouseout"/>
                  </use>
                  <path fill="none" stroke="white" stroke-width="1.5" d="M0,-3.0v7 M-2.5,-0.5L0,-3.0L2.5,-0.5"/>
                </g>
        </g>
        <svg viewBox="0 0 15 15" width="100%" height="30px" preserveAspectRatio="xMaxYMin meet">
         <g id="arrow_out" transform="scale(0.3 0.3)">
          <a xlink:href="classgrading_1_1_check_result_aa40a4ffbd2ed79d36078a96dab3e2197_icgraph_org.svg" target="_base">
           <rect id="button" ry="5" rx="5" y="6" x="6" height="38" width="38"
                fill="#f2f5e9" fill-opacity="0.5" stroke="#606060" stroke-width="1.0"/>
           <path id="arrow"
             d="M 11.500037,31.436501 C 11.940474,20.09759 22.043105,11.32322 32.158766,21.979434 L 37.068811,17.246167 C 37.068811,17.246167 37.088388,32 37.088388,32 L 22.160133,31.978069 C 22.160133,31.978069 26.997745,27.140456 26.997745,27.140456 C 18.528582,18.264221 13.291696,25.230495 11.500037,31.436501 z"
             style="fill:#404040;"/>
          </a>
         </g>
        </svg>
</svg>
