<?xml version="1.0" encoding="UTF-8" standalone="no"?>
<!DOCTYPE svg PUBLIC "-//W3C//DTD SVG 1.1//EN"
 "http://www.w3.org/Graphics/SVG/1.1/DTD/svg11.dtd">
<!-- Generated by graphviz version 2.38.0 (20140413.2041)
 -->
<!-- Title: cancel Pages: 1 -->
<svg width="223pt" height="68pt"
 viewBox="0.00 0.00 223.00 68.00" xmlns="http://www.w3.org/2000/svg" xmlns:xlink="http://www.w3.org/1999/xlink">
<g id="graph0" class="graph" transform="scale(1 1) rotate(0) translate(4 64)">
<title>cancel</title>
<!-- Node1 -->
<g id="node1" class="node"><title>Node1</title>
<polygon fill="#bfbfbf" stroke="black" points="0,-19.5 0,-39.5 51,-39.5 51,-19.5 0,-19.5"/>
<text text-anchor="middle" x="25.5" y="-26.7" font-family="Avenir-Book" font-size="11.00">cancel</text>
</g>
<!-- Node2 -->
<g id="node2" class="node"><title>Node2</title>
<g id="a_node2"><a xlink:href="namespacegrading.html#a2a2d0f24b23462f9b5e5dc59623029de" target="_top" xlink:title="Combine the results of two checks using a product (AND): both must pass. ">
<polygon fill="none" stroke="black" points="87,-39.5 87,-59.5 215,-59.5 215,-39.5 87,-39.5"/>
<text text-anchor="middle" x="151" y="-46.7" font-family="Avenir-Book" font-size="11.00">grading::operator&amp;&amp;</text>
</a>
</g>
</g>
<!-- Node1&#45;&gt;Node2 -->
<g id="edge1" class="edge"><title>Node1&#45;&gt;Node2</title>
<path fill="none" stroke="midnightblue" d="M61.286,-35.1334C69.6473,-36.4874 78.8293,-37.9744 88.0182,-39.4625"/>
<polygon fill="midnightblue" stroke="midnightblue" points="61.6262,-31.6429 51.1952,-33.4992 60.5071,-38.5529 61.6262,-31.6429"/>
</g>
<!-- Node3 -->
<g id="node3" class="node"><title>Node3</title>
<g id="a_node3"><a xlink:href="namespacegrading.html#afab8c0737ae99cfa595261baac5387af" target="_top" xlink:title="Combine the results of two checks using a sum (OR): at least one must pass. ">
<polygon fill="none" stroke="black" points="91.5,-0.5 91.5,-20.5 210.5,-20.5 210.5,-0.5 91.5,-0.5"/>
<text text-anchor="middle" x="151" y="-7.7" font-family="Avenir-Book" font-size="11.00">grading::operator||</text>
</a>
</g>
</g>
<!-- Node1&#45;&gt;Node3 -->
<g id="edge2" class="edge"><title>Node1&#45;&gt;Node3</title>
<path fill="none" stroke="midnightblue" d="M61.2841,-24.1486C70.663,-22.7057 81.0746,-21.1039 91.3702,-19.52"/>
<polygon fill="midnightblue" stroke="midnightblue" points="60.5467,-20.7208 51.1952,-25.7007 61.6112,-27.6394 60.5467,-20.7208"/>
</g>
</g>
</svg>
