<?xml version="1.0" encoding="UTF-8" standalone="no"?>
<!DOCTYPE svg PUBLIC "-//W3C//DTD SVG 1.1//EN"
 "http://www.w3.org/Graphics/SVG/1.1/DTD/svg11.dtd">
<!-- Generated by graphviz version 2.38.0 (20140413.2041)
 -->
<!-- Title: Run Pages: 1 -->
<svg width="206pt" height="80pt"
 viewBox="0.00 0.00 206.00 80.00" xmlns="http://www.w3.org/2000/svg" xmlns:xlink="http://www.w3.org/1999/xlink">
<g id="graph0" class="graph" transform="scale(1 1) rotate(0) translate(4 76)">
<title>Run</title>
<!-- Node1 -->
<g id="node1" class="node"><title>Node1</title>
<polygon fill="#bfbfbf" stroke="black" points="0,-22.5 0,-42.5 37,-42.5 37,-22.5 0,-22.5"/>
<text text-anchor="middle" x="18.5" y="-29.7" font-family="Avenir-Book" font-size="11.00">Run</text>
</g>
<!-- Node2 -->
<g id="node2" class="node"><title>Node2</title>
<g id="a_node2"><a xlink:href="structgrading_1_1Arguments.html#a7732fee01761ae341c2a811613637372" target="_top" xlink:title="Parse command&#45;line arguments. ">
<polygon fill="none" stroke="black" points="73,-39.5 73,-71.5 198,-71.5 198,-39.5 73,-39.5"/>
<text text-anchor="start" x="81" y="-58.7" font-family="Avenir-Book" font-size="11.00">grading::Arguments</text>
<text text-anchor="middle" x="135.5" y="-46.7" font-family="Avenir-Book" font-size="11.00">::Parse</text>
</a>
</g>
</g>
<!-- Node1&#45;&gt;Node2 -->
<g id="edge1" class="edge"><title>Node1&#45;&gt;Node2</title>
<path fill="none" stroke="midnightblue" d="M37.4688,-36.0938C44.689,-37.5378 53.5212,-39.3042 62.8857,-41.1771"/>
<polygon fill="midnightblue" stroke="midnightblue" points="62.2997,-44.6292 72.7919,-43.1584 63.6725,-37.7651 62.2997,-44.6292"/>
</g>
<!-- Node3 -->
<g id="node3" class="node"><title>Node3</title>
<g id="a_node3"><a xlink:href="classgrading_1_1TestSuite.html#afde9b65cb6534abec8680936047a03aa" target="_top" xlink:title="The total weight of all tests in the suite. ">
<polygon fill="none" stroke="black" points="96,-0.5 96,-20.5 175,-20.5 175,-0.5 96,-0.5"/>
<text text-anchor="middle" x="135.5" y="-7.7" font-family="Avenir-Book" font-size="11.00">totalWeight</text>
</a>
</g>
</g>
<!-- Node1&#45;&gt;Node3 -->
<g id="edge2" class="edge"><title>Node1&#45;&gt;Node3</title>
<path fill="none" stroke="midnightblue" d="M37.4688,-29.0625C50.4594,-26.5773 68.6675,-23.094 85.8065,-19.8153"/>
<polygon fill="midnightblue" stroke="midnightblue" points="86.5623,-23.2342 95.7266,-17.9175 85.247,-16.3589 86.5623,-23.2342"/>
</g>
</g>
</svg>
