<?xml version="1.0" encoding="UTF-8" standalone="no"?>
<!DOCTYPE svg PUBLIC "-//W3C//DTD SVG 1.1//EN"
 "http://www.w3.org/Graphics/SVG/1.1/DTD/svg11.dtd">
<!-- Generated by graphviz version 2.40.1 (20161225.0304)
 -->
<!-- Title: PosixSharedMemory Pages: 1 -->
<svg width="172pt" height="214pt"
 viewBox="0.00 0.00 172.00 214.00" xmlns="http://www.w3.org/2000/svg" xmlns:xlink="http://www.w3.org/1999/xlink">
<g id="graph0" class="graph" transform="scale(1 1) rotate(0) translate(4 210)">
<title>PosixSharedMemory</title>
<!-- Node0 -->
<g id="node1" class="node">
<title>Node0</title>
<g id="a_node1"><a xlink:title="A memory&#45;mapped POSIX shared memory segment.">
<polygon fill="#bfbfbf" stroke="#000000" points="0,-.5 0,-96.5 164,-96.5 164,-.5 0,-.5"/>
<text text-anchor="middle" x="82" y="-83.7" font-family="Avenir-Book" font-size="11.00" fill="#000000">PosixSharedMemory</text>
<polyline fill="none" stroke="#000000" points="0,-76.5 164,-76.5 "/>
<text text-anchor="middle" x="82" y="-63.7" font-family="Avenir-Book" font-size="11.00" fill="#000000"> </text>
<polyline fill="none" stroke="#000000" points="0,-56.5 164,-56.5 "/>
<text text-anchor="start" x="8" y="-43.7" font-family="Avenir-Book" font-size="11.00" fill="#000000">+ PosixSharedMemory()</text>
<text text-anchor="start" x="8" y="-31.7" font-family="Avenir-Book" font-size="11.00" fill="#000000">+ ~PosixSharedMemory()</text>
<text text-anchor="start" x="8" y="-19.7" font-family="Avenir-Book" font-size="11.00" fill="#000000">+ fd()</text>
<text text-anchor="start" x="8" y="-7.7" font-family="Avenir-Book" font-size="11.00" fill="#000000">+ rawPointer()</text>
</a>
</g>
</g>
<!-- Node1 -->
<g id="node2" class="node">
<title>Node1</title>
<g id="a_node2"><a xlink:href="classgrading_1_1SharedMemory.html" target="_top" xlink:title="A representation of a shared memory object.">
<polygon fill="none" stroke="#000000" points="14.5,-133.5 14.5,-205.5 149.5,-205.5 149.5,-133.5 14.5,-133.5"/>
<text text-anchor="middle" x="82" y="-192.7" font-family="Avenir-Book" font-size="11.00" fill="#000000">SharedMemory</text>
<polyline fill="none" stroke="#000000" points="14.5,-185.5 149.5,-185.5 "/>
<text text-anchor="middle" x="82" y="-172.7" font-family="Avenir-Book" font-size="11.00" fill="#000000"> </text>
<polyline fill="none" stroke="#000000" points="14.5,-165.5 149.5,-165.5 "/>
<text text-anchor="start" x="22.5" y="-152.7" font-family="Avenir-Book" font-size="11.00" fill="#000000">+ ~SharedMemory()</text>
<text text-anchor="start" x="22.5" y="-140.7" font-family="Avenir-Book" font-size="11.00" fill="#000000">+ rawPointer()</text>
</a>
</g>
</g>
<!-- Node1&#45;&gt;Node0 -->
<g id="edge1" class="edge">
<title>Node1&#45;&gt;Node0</title>
<path fill="none" stroke="#191970" d="M82,-123.0005C82,-114.4405 82,-105.4848 82,-96.8713"/>
<polygon fill="none" stroke="#191970" points="78.5001,-123.196 82,-133.196 85.5001,-123.196 78.5001,-123.196"/>
</g>
</g>
</svg>
