<?xml version="1.0" encoding="UTF-8" standalone="no"?>
<!DOCTYPE svg PUBLIC "-//W3C//DTD SVG 1.1//EN"
 "http://www.w3.org/Graphics/SVG/1.1/DTD/svg11.dtd">
<!-- Generated by graphviz version 2.36.0 (20140111.2315)
 -->
<!-- Title: actual Pages: 1 -->
<svg width="304pt" height="67pt"
 viewBox="0.00 0.00 304.00 67.00" xmlns="http://www.w3.org/2000/svg" xmlns:xlink="http://www.w3.org/1999/xlink">
<g id="graph0" class="graph" transform="scale(1 1) rotate(0) translate(4 63)">
<title>actual</title>
<!-- Node1 -->
<g id="node1" class="node"><title>Node1</title>
<polygon fill="#bfbfbf" stroke="black" points="0,-19 0,-39 46,-39 46,-19 0,-19"/>
<text text-anchor="middle" x="23" y="-26.2" font-family="Avenir-Book" font-size="11.00">actual</text>
</g>
<!-- Node2 -->
<g id="node2" class="node"><title>Node2</title>
<g id="a_node2"><a xlink:href="namespacegrading.html#a2a2d0f24b23462f9b5e5dc59623029de" target="_top" xlink:title="Combine the results of two checks using a product (AND): both must pass. ">
<polygon fill="none" stroke="black" points="82.5,-39 82.5,-59 197.5,-59 197.5,-39 82.5,-39"/>
<text text-anchor="middle" x="140" y="-46.2" font-family="Avenir-Book" font-size="11.00">grading::operator&amp;&amp;</text>
</a>
</g>
</g>
<!-- Node1&#45;&gt;Node2 -->
<g id="edge1" class="edge"><title>Node1&#45;&gt;Node2</title>
<path fill="none" stroke="midnightblue" d="M56.2178,-34.6031C64.2749,-36.0043 73.159,-37.5494 82.0264,-39.0916"/>
<polygon fill="midnightblue" stroke="midnightblue" points="56.625,-31.1215 46.1732,-32.8562 55.4256,-38.0179 56.625,-31.1215"/>
</g>
<!-- Node4 -->
<g id="node4" class="node"><title>Node4</title>
<g id="a_node4"><a xlink:href="namespacegrading.html#afab8c0737ae99cfa595261baac5387af" target="_top" xlink:title="Combine the results of two checks using a sum (OR): at least one must pass. ">
<polygon fill="none" stroke="black" points="87,-0 87,-20 193,-20 193,-0 87,-0"/>
<text text-anchor="middle" x="140" y="-7.2" font-family="Avenir-Book" font-size="11.00">grading::operator||</text>
</a>
</g>
</g>
<!-- Node1&#45;&gt;Node4 -->
<g id="edge3" class="edge"><title>Node1&#45;&gt;Node4</title>
<path fill="none" stroke="midnightblue" d="M56.3347,-23.6577C65.8291,-22.0891 76.4639,-20.3321 86.8626,-18.614"/>
<polygon fill="midnightblue" stroke="midnightblue" points="55.4689,-20.2533 46.1732,-25.3366 56.61,-27.1596 55.4689,-20.2533"/>
</g>
<!-- Node3 -->
<g id="node3" class="node"><title>Node3</title>
<g id="a_node3"><a xlink:href="classgrading_1_1_check_result.html#a5679ca29245899bbe1dc3ccd6afe7222" target="_top" xlink:title="A message to display if the check fails. ">
<polygon fill="none" stroke="black" points="234.5,-19 234.5,-39 295.5,-39 295.5,-19 234.5,-19"/>
<text text-anchor="middle" x="265" y="-26.2" font-family="Avenir-Book" font-size="11.00">message</text>
</a>
</g>
</g>
<!-- Node2&#45;&gt;Node3 -->
<g id="edge2" class="edge"><title>Node2&#45;&gt;Node3</title>
<path fill="none" stroke="midnightblue" d="M207.867,-38.1273C217.105,-36.6252 226.18,-35.1496 234.25,-33.8375"/>
<polygon fill="midnightblue" stroke="midnightblue" points="207.128,-34.7014 197.819,-39.7611 208.252,-41.6107 207.128,-34.7014"/>
</g>
<!-- Node4&#45;&gt;Node3 -->
<g id="edge4" class="edge"><title>Node4&#45;&gt;Node3</title>
<path fill="none" stroke="midnightblue" d="M203.086,-19.5905C213.925,-21.2648 224.74,-22.9354 234.183,-24.3942"/>
<polygon fill="midnightblue" stroke="midnightblue" points="203.58,-16.1254 193.163,-18.0577 202.512,-23.0434 203.58,-16.1254"/>
</g>
</g>
</svg>
