<?xml version="1.0" encoding="UTF-8" standalone="no"?>
<!DOCTYPE svg PUBLIC "-//W3C//DTD SVG 1.1//EN"
 "http://www.w3.org/Graphics/SVG/1.1/DTD/svg11.dtd">
<!-- Generated by graphviz version 2.38.0 (20140413.2041)
 -->
<!-- Title: grading::SharedMemory Pages: 1 -->
<svg width="148pt" height="229pt"
 viewBox="0.00 0.00 147.88 229.23" xmlns="http://www.w3.org/2000/svg" xmlns:xlink="http://www.w3.org/1999/xlink">
<g id="graph0" class="graph" transform="scale(1 1) rotate(0) translate(4 225.234)">
<title>grading::SharedMemory</title>
<!-- Node1 -->
<g id="node1" class="node"><title>Node1</title>
<polygon fill="#bfbfbf" stroke="black" points="2.2495,-136.63 2.2495,-220.734 137.633,-220.734 137.633,-136.63 2.2495,-136.63"/>
<text text-anchor="middle" x="69.941" y="-207.934" font-family="Avenir-Book" font-size="11.00">grading::SharedMemory</text>
<polyline fill="none" stroke="black" points="2.2495,-197.708 137.633,-197.708 "/>
<text text-anchor="middle" x="69.941" y="-184.908" font-family="Avenir-Book" font-size="11.00"> </text>
<polyline fill="none" stroke="black" points="2.2495,-174.682 137.633,-174.682 "/>
<text text-anchor="start" x="10.2495" y="-161.882" font-family="Avenir-Book" font-size="11.00">+ ~SharedMemory()</text>
<text text-anchor="start" x="10.2495" y="-146.856" font-family="Avenir-Book" font-size="11.00">+ rawPointer()</text>
</g>
<!-- Node2 -->
<g id="node2" class="node"><title>Node2</title>
<g id="a_node2"><a xlink:href="class_posix_shared_memory.html" target="_top" xlink:title="{PosixSharedMemory\n||+ PosixSharedMemory()\l+ ~PosixSharedMemory()\l+ rawPointer()\l}">
<polygon fill="none" stroke="black" points="0,-0.5 0,-99.6299 139.882,-99.6299 139.882,-0.5 0,-0.5"/>
<text text-anchor="middle" x="69.941" y="-86.8299" font-family="Avenir-Book" font-size="11.00">PosixSharedMemory</text>
<polyline fill="none" stroke="black" points="0,-76.6039 139.882,-76.6039 "/>
<text text-anchor="middle" x="69.941" y="-63.8039" font-family="Avenir-Book" font-size="11.00"> </text>
<polyline fill="none" stroke="black" points="0,-53.5779 139.882,-53.5779 "/>
<text text-anchor="start" x="8" y="-40.7779" font-family="Avenir-Book" font-size="11.00">+ PosixSharedMemory()</text>
<text text-anchor="start" x="8" y="-25.7519" font-family="Avenir-Book" font-size="11.00">+ ~PosixSharedMemory()</text>
<text text-anchor="start" x="8" y="-10.726" font-family="Avenir-Book" font-size="11.00">+ rawPointer()</text>
</a>
</g>
</g>
<!-- Node1&#45;&gt;Node2 -->
<g id="edge1" class="edge"><title>Node1&#45;&gt;Node2</title>
<path fill="none" stroke="midnightblue" d="M69.941,-126.47C69.941,-117.703 69.941,-108.613 69.941,-99.9093"/>
<polygon fill="none" stroke="midnightblue" points="66.4411,-126.573 69.941,-136.573 73.4411,-126.573 66.4411,-126.573"/>
</g>
</g>
</svg>
