<?xml version="1.0" encoding="UTF-8" standalone="no"?>
<!DOCTYPE svg PUBLIC "-//W3C//DTD SVG 1.1//EN"
 "http://www.w3.org/Graphics/SVG/1.1/DTD/svg11.dtd">
<!-- Generated by graphviz version 2.40.1 (20161225.0304)
 -->
<!-- Title: cancel Pages: 1 -->
<svg width="235pt" height="68pt"
 viewBox="0.00 0.00 235.00 68.00" xmlns="http://www.w3.org/2000/svg" xmlns:xlink="http://www.w3.org/1999/xlink">
<g id="graph0" class="graph" transform="scale(1 1) rotate(0) translate(4 64)">
<title>cancel</title>
<!-- Node11 -->
<g id="node1" class="node">
<title>Node11</title>
<g id="a_node1"><a xlink:title="Cancel the error: the result is actually ok (e.g., because of a logical OR) or else the error&#39;s owner...">
<polygon fill="#bfbfbf" stroke="#000000" points="174,-19.5 174,-39.5 227,-39.5 227,-19.5 174,-19.5"/>
<text text-anchor="middle" x="200.5" y="-26.7" font-family="Avenir-Book" font-size="11.00" fill="#000000">cancel</text>
</a>
</g>
</g>
<!-- Node12 -->
<g id="node2" class="node">
<title>Node12</title>
<g id="a_node2"><a xlink:href="namespacegrading.html#a13433f91d386d33fa69a7fa80a01059c" target="_top" xlink:title="Combine the results of two checks using a product (AND): both must pass.">
<polygon fill="none" stroke="#000000" points="0,-39.5 0,-59.5 138,-59.5 138,-39.5 0,-39.5"/>
<text text-anchor="middle" x="69" y="-46.7" font-family="Avenir-Book" font-size="11.00" fill="#000000">grading::operator &amp;&amp;</text>
</a>
</g>
</g>
<!-- Node11&#45;&gt;Node12 -->
<g id="edge1" class="edge">
<title>Node11&#45;&gt;Node12</title>
<path fill="none" stroke="#191970" d="M163.8026,-35.0814C154.8093,-36.4492 144.9083,-37.955 134.9998,-39.462"/>
<polygon fill="#191970" stroke="#191970" points="164.529,-38.5112 173.889,-33.5473 163.4764,-31.5908 164.529,-38.5112"/>
</g>
<!-- Node13 -->
<g id="node3" class="node">
<title>Node13</title>
<g id="a_node3"><a xlink:href="namespacegrading.html#afab8c0737ae99cfa595261baac5387af" target="_top" xlink:title="Combine the results of two checks using a sum (OR): at least one must pass.">
<polygon fill="none" stroke="#000000" points="7,-.5 7,-20.5 131,-20.5 131,-.5 7,-.5"/>
<text text-anchor="middle" x="69" y="-7.7" font-family="Avenir-Book" font-size="11.00" fill="#000000">grading::operator||</text>
</a>
</g>
</g>
<!-- Node11&#45;&gt;Node13 -->
<g id="edge2" class="edge">
<title>Node11&#45;&gt;Node13</title>
<path fill="none" stroke="#191970" d="M163.7851,-24.1952C153.6362,-22.7288 142.3325,-21.0956 131.1669,-19.4823"/>
<polygon fill="#191970" stroke="#191970" points="163.4913,-27.689 173.889,-25.6551 164.4923,-20.7609 163.4913,-27.689"/>
</g>
</g>
</svg>
