<?xml version="1.0" encoding="UTF-8" standalone="no"?>
<!DOCTYPE svg PUBLIC "-//W3C//DTD SVG 1.1//EN"
 "http://www.w3.org/Graphics/SVG/1.1/DTD/svg11.dtd">
<!-- Generated by graphviz version 2.40.1 (20161225.0304)
 -->
<!-- Title: cancel Pages: 1 -->
<svg width="213pt" height="74pt"
 viewBox="0.00 0.00 212.67 74.03" xmlns="http://www.w3.org/2000/svg" xmlns:xlink="http://www.w3.org/1999/xlink">
<g id="graph0" class="graph" transform="scale(1 1) rotate(0) translate(4 70.026)">
<title>cancel</title>
<!-- Node11 -->
<g id="node1" class="node">
<title>Node11</title>
<g id="a_node1"><a xlink:title="Cancel the error: the result is actually ok (e.g., because of a logical OR) or else the error&#39;s owner...">
<polygon fill="#bfbfbf" stroke="#000000" points="157.49,-21.5 157.49,-44.526 204.675,-44.526 204.675,-21.5 157.49,-21.5"/>
<text text-anchor="middle" x="181.0825" y="-31.726" font-family="Avenir-Book" font-size="11.00" fill="#000000">cancel</text>
</a>
</g>
</g>
<!-- Node12 -->
<g id="node2" class="node">
<title>Node12</title>
<g id="a_node2"><a xlink:href="namespacegrading.html#a13433f91d386d33fa69a7fa80a01059c" target="_top" xlink:title="Combine the results of two checks using a product (AND): both must pass.">
<polygon fill="none" stroke="#000000" points="0,-42.5 0,-65.526 121.49,-65.526 121.49,-42.5 0,-42.5"/>
<text text-anchor="middle" x="60.745" y="-52.726" font-family="Avenir-Book" font-size="11.00" fill="#000000">grading::operator &amp;&amp;</text>
</a>
</g>
</g>
<!-- Node11&#45;&gt;Node12 -->
<g id="edge1" class="edge">
<title>Node11&#45;&gt;Node12</title>
<path fill="none" stroke="#191970" d="M147.2773,-38.9123C139.2576,-40.3118 130.4589,-41.8473 121.6395,-43.3863"/>
<polygon fill="#191970" stroke="#191970" points="148.0583,-42.329 157.3077,-37.1619 146.8548,-35.4332 148.0583,-42.329"/>
</g>
<!-- Node13 -->
<g id="node3" class="node">
<title>Node13</title>
<g id="a_node3"><a xlink:href="namespacegrading.html#afab8c0737ae99cfa595261baac5387af" target="_top" xlink:title="Combine the results of two checks using a sum (OR): at least one must pass.">
<polygon fill="none" stroke="#000000" points="6.831,-.5 6.831,-23.526 114.659,-23.526 114.659,-.5 6.831,-.5"/>
<text text-anchor="middle" x="60.745" y="-10.726" font-family="Avenir-Book" font-size="11.00" fill="#000000">grading::operator||</text>
</a>
</g>
</g>
<!-- Node11&#45;&gt;Node13 -->
<g id="edge2" class="edge">
<title>Node11&#45;&gt;Node13</title>
<path fill="none" stroke="#191970" d="M147.3042,-27.1184C137.2153,-25.3578 125.8919,-23.3817 114.8442,-21.4538"/>
<polygon fill="#191970" stroke="#191970" points="146.8548,-30.5928 157.3077,-28.8641 148.0583,-23.697 146.8548,-30.5928"/>
</g>
</g>
</svg>
