<?xml version="1.0" encoding="UTF-8" standalone="no"?>
<!DOCTYPE svg PUBLIC "-//W3C//DTD SVG 1.1//EN"
 "http://www.w3.org/Graphics/SVG/1.1/DTD/svg11.dtd">
<!-- Generated by graphviz version 2.38.0 (20140413.2041)
 -->
<!-- Title: grading::TestSuite::Run Pages: 1 -->
<svg width="311pt" height="92pt"
 viewBox="0.00 0.00 311.00 92.00" xmlns="http://www.w3.org/2000/svg" xmlns:xlink="http://www.w3.org/1999/xlink">
<g id="graph0" class="graph" transform="scale(1 1) rotate(0) translate(4 88)">
<title>grading::TestSuite::Run</title>
<!-- Node1 -->
<g id="node1" class="node"><title>Node1</title>
<polygon fill="#bfbfbf" stroke="black" points="0,-31.5 0,-51.5 142,-51.5 142,-31.5 0,-31.5"/>
<text text-anchor="middle" x="71" y="-38.7" font-family="Avenir-Book" font-size="11.00">grading::TestSuite::Run</text>
</g>
<!-- Node2 -->
<g id="node2" class="node"><title>Node2</title>
<g id="a_node2"><a xlink:href="structgrading_1_1Arguments.html#a193b60c24891f195fa3a1bd67cffe788" target="_top" xlink:title="Parse command&#45;line arguments. ">
<polygon fill="none" stroke="black" points="178,-51.5 178,-83.5 303,-83.5 303,-51.5 178,-51.5"/>
<text text-anchor="start" x="186" y="-70.7" font-family="Avenir-Book" font-size="11.00">grading::Arguments</text>
<text text-anchor="middle" x="240.5" y="-58.7" font-family="Avenir-Book" font-size="11.00">::Parse</text>
</a>
</g>
</g>
<!-- Node1&#45;&gt;Node2 -->
<g id="edge1" class="edge"><title>Node1&#45;&gt;Node2</title>
<path fill="none" stroke="midnightblue" d="M136.76,-51.5523C146.909,-53.1277 157.452,-54.7642 167.747,-56.3622"/>
<polygon fill="midnightblue" stroke="midnightblue" points="167.518,-59.8685 177.937,-57.9439 168.592,-52.9513 167.518,-59.8685"/>
</g>
<!-- Node3 -->
<g id="node3" class="node"><title>Node3</title>
<g id="a_node3"><a xlink:href="classgrading_1_1TestSuite.html#a370b4e2e35e2d571edb8430f35e71001" target="_top" xlink:title="The total weight of all tests in the suite. ">
<polygon fill="none" stroke="black" points="183.5,-0.5 183.5,-32.5 297.5,-32.5 297.5,-0.5 183.5,-0.5"/>
<text text-anchor="start" x="191.5" y="-19.7" font-family="Avenir-Book" font-size="11.00">grading::TestSuite</text>
<text text-anchor="middle" x="240.5" y="-7.7" font-family="Avenir-Book" font-size="11.00">::totalWeight</text>
</a>
</g>
</g>
<!-- Node1&#45;&gt;Node3 -->
<g id="edge2" class="edge"><title>Node1&#45;&gt;Node3</title>
<path fill="none" stroke="midnightblue" d="M139.164,-31.4756C150.383,-29.8011 162.015,-28.0649 173.212,-26.3937"/>
<polygon fill="midnightblue" stroke="midnightblue" points="173.974,-29.8188 183.348,-24.8809 172.941,-22.8955 173.974,-29.8188"/>
</g>
</g>
</svg>
