<?xml version="1.0" encoding="UTF-8" standalone="no"?>
<!DOCTYPE svg PUBLIC "-//W3C//DTD SVG 1.1//EN"
 "http://www.w3.org/Graphics/SVG/1.1/DTD/svg11.dtd">
<!-- Generated by graphviz version 2.40.1 (20161225.0304)
 -->
<!-- Title: cancel Pages: 1 -->
<svg width="210pt" height="74pt"
 viewBox="0.00 0.00 209.62 74.03" xmlns="http://www.w3.org/2000/svg" xmlns:xlink="http://www.w3.org/1999/xlink">
<g id="graph0" class="graph" transform="scale(1 1) rotate(0) translate(4 70.026)">
<title>cancel</title>
<!-- Node11 -->
<g id="node1" class="node">
<title>Node11</title>
<polygon fill="#bfbfbf" stroke="#000000" points="0,-21.5 0,-44.526 47.185,-44.526 47.185,-21.5 0,-21.5"/>
<text text-anchor="middle" x="23.5925" y="-31.726" font-family="Avenir-Book" font-size="11.00" fill="#000000">cancel</text>
</g>
<!-- Node12 -->
<g id="node2" class="node">
<title>Node12</title>
<g id="a_node2"><a xlink:href="namespacegrading.html#aa3746f0c72697e2e700f7de0380a56b4" target="_top" xlink:title="Combine the results of two checks using a product (AND): both must pass. ">
<polygon fill="none" stroke="#000000" points="83.185,-42.5 83.185,-65.526 201.617,-65.526 201.617,-42.5 83.185,-42.5"/>
<text text-anchor="middle" x="142.401" y="-52.726" font-family="Avenir-Book" font-size="11.00" fill="#000000">grading::operator&amp;&amp;</text>
</a>
</g>
</g>
<!-- Node11&#45;&gt;Node12 -->
<g id="edge1" class="edge">
<title>Node11&#45;&gt;Node12</title>
<path fill="none" stroke="#191970" d="M57.3254,-38.9755C65.297,-40.3845 74.0322,-41.9284 82.7738,-43.4736"/>
<polygon fill="#191970" stroke="#191970" points="57.8062,-35.5063 47.3496,-37.2122 56.5878,-42.3994 57.8062,-35.5063"/>
</g>
<!-- Node13 -->
<g id="node3" class="node">
<title>Node13</title>
<g id="a_node3"><a xlink:href="namespacegrading.html#afab8c0737ae99cfa595261baac5387af" target="_top" xlink:title="Combine the results of two checks using a sum (OR): at least one must pass. ">
<polygon fill="none" stroke="#000000" points="88.487,-.5 88.487,-23.526 196.315,-23.526 196.315,-.5 88.487,-.5"/>
<text text-anchor="middle" x="142.401" y="-10.726" font-family="Avenir-Book" font-size="11.00" fill="#000000">grading::operator||</text>
</a>
</g>
</g>
<!-- Node11&#45;&gt;Node13 -->
<g id="edge2" class="edge">
<title>Node11&#45;&gt;Node13</title>
<path fill="none" stroke="#191970" d="M57.3042,-27.0543C66.9406,-25.351 77.6942,-23.4502 88.2268,-21.5886"/>
<polygon fill="#191970" stroke="#191970" points="56.5878,-23.6266 47.3496,-28.8138 57.8062,-30.5197 56.5878,-23.6266"/>
</g>
</g>
</svg>
