<?xml version="1.0" encoding="UTF-8" standalone="no"?>
<!DOCTYPE svg PUBLIC "-//W3C//DTD SVG 1.1//EN"
 "http://www.w3.org/Graphics/SVG/1.1/DTD/svg11.dtd">
<!-- Generated by graphviz version 2.36.0 (20140111.2315)
 -->
<!-- Title: error Pages: 1 -->
<svg width="298pt" height="28pt"
 viewBox="0.00 0.00 298.00 28.00" xmlns="http://www.w3.org/2000/svg" xmlns:xlink="http://www.w3.org/1999/xlink">
<g id="graph0" class="graph" transform="scale(1 1) rotate(0) translate(4 24)">
<title>error</title>
<!-- Node1 -->
<g id="node1" class="node"><title>Node1</title>
<polygon fill="#bfbfbf" stroke="black" points="0,-0 0,-20 40,-20 40,-0 0,-0"/>
<text text-anchor="middle" x="20" y="-7.2" font-family="Avenir-Book" font-size="11.00">error</text>
</g>
<!-- Node2 -->
<g id="node2" class="node"><title>Node2</title>
<g id="a_node2"><a xlink:href="namespacegrading.html#a4e80ff15169ee05c6d87c2096e834d9a" target="_top" xlink:title="Check that two floating&#45;point numbers are equal within some tolerance. ">
<polygon fill="none" stroke="black" points="76.5,-0 76.5,-20 191.5,-20 191.5,-0 76.5,-0"/>
<text text-anchor="middle" x="134" y="-7.2" font-family="Avenir-Book" font-size="11.00">grading::CheckFloat</text>
</a>
</g>
</g>
<!-- Node1&#45;&gt;Node2 -->
<g id="edge1" class="edge"><title>Node1&#45;&gt;Node2</title>
<path fill="none" stroke="midnightblue" d="M50.5077,-10C58.518,-10 67.468,-10 76.4373,-10"/>
<polygon fill="midnightblue" stroke="midnightblue" points="50.2535,-6.5001 40.2535,-10 50.2535,-13.5001 50.2535,-6.5001"/>
</g>
<!-- Node3 -->
<g id="node3" class="node"><title>Node3</title>
<g id="a_node3"><a xlink:href="classgrading_1_1_check_result.html#a5679ca29245899bbe1dc3ccd6afe7222" target="_top" xlink:title="A message to display if the check fails. ">
<polygon fill="none" stroke="black" points="228.5,-0 228.5,-20 289.5,-20 289.5,-0 228.5,-0"/>
<text text-anchor="middle" x="259" y="-7.2" font-family="Avenir-Book" font-size="11.00">message</text>
</a>
</g>
</g>
<!-- Node2&#45;&gt;Node3 -->
<g id="edge2" class="edge"><title>Node2&#45;&gt;Node3</title>
<path fill="none" stroke="midnightblue" d="M201.867,-10C211.105,-10 220.18,-10 228.25,-10"/>
<polygon fill="midnightblue" stroke="midnightblue" points="201.819,-6.5001 191.819,-10 201.819,-13.5001 201.819,-6.5001"/>
</g>
</g>
</svg>
