<?xml version="1.0" encoding="UTF-8" standalone="no"?>
<!DOCTYPE svg PUBLIC "-//W3C//DTD SVG 1.1//EN"
 "http://www.w3.org/Graphics/SVG/1.1/DTD/svg11.dtd">
<!-- Generated by graphviz version 2.40.1 (20161225.0304)
 -->
<!-- Title: Run Pages: 1 -->
<svg width="380pt" height="131pt"
 viewBox="0.00 0.00 380.00 131.00" xmlns="http://www.w3.org/2000/svg" xmlns:xlink="http://www.w3.org/1999/xlink">
<g id="graph0" class="graph" transform="scale(1 1) rotate(0) translate(4 127)">
<title>Run</title>
<!-- Node8 -->
<g id="node1" class="node">
<title>Node8</title>
<g id="a_node1"><a xlink:title="Run all tests, using command&#45;line arguments to guide the testing strategy, timeouts,...">
<polygon fill="#bfbfbf" stroke="#000000" points="0,-45.5 0,-65.5 38,-65.5 38,-45.5 0,-45.5"/>
<text text-anchor="middle" x="19" y="-52.7" font-family="Avenir-Book" font-size="11.00" fill="#000000">Run</text>
</a>
</g>
</g>
<!-- Node9 -->
<g id="node2" class="node">
<title>Node9</title>
<g id="a_node2"><a xlink:href="classgrading_1_1Formatter.html#a1a51f34c4f8f006846c959bc2c5f0051" target="_top" xlink:title="Create a new Formatter.">
<polygon fill="none" stroke="#000000" points="77.5,-90.5 77.5,-122.5 201.5,-122.5 201.5,-90.5 77.5,-90.5"/>
<text text-anchor="start" x="85.5" y="-109.7" font-family="Avenir-Book" font-size="11.00" fill="#000000">grading::Formatter</text>
<text text-anchor="middle" x="139.5" y="-97.7" font-family="Avenir-Book" font-size="11.00" fill="#000000">::Create</text>
</a>
</g>
</g>
<!-- Node8&#45;&gt;Node9 -->
<g id="edge1" class="edge">
<title>Node8&#45;&gt;Node9</title>
<path fill="none" stroke="#191970" d="M38.18,-65.0115C48.6726,-70.1019 61.9531,-76.3625 74,-81.5 78.0778,-83.239 82.3211,-84.9892 86.6003,-86.7123"/>
<polygon fill="#191970" stroke="#191970" points="85.389,-89.997 95.9752,-90.426 87.9671,-83.489 85.389,-89.997"/>
</g>
<!-- Node10 -->
<g id="node3" class="node">
<title>Node10</title>
<g id="a_node3"><a xlink:href="structgrading_1_1Arguments.html#a7732fee01761ae341c2a811613637372" target="_top" xlink:title="Parse command&#45;line arguments.">
<polygon fill="none" stroke="#000000" points="74,-39.5 74,-71.5 205,-71.5 205,-39.5 74,-39.5"/>
<text text-anchor="start" x="82" y="-58.7" font-family="Avenir-Book" font-size="11.00" fill="#000000">grading::Arguments</text>
<text text-anchor="middle" x="139.5" y="-46.7" font-family="Avenir-Book" font-size="11.00" fill="#000000">::Parse</text>
</a>
</g>
</g>
<!-- Node8&#45;&gt;Node10 -->
<g id="edge2" class="edge">
<title>Node8&#45;&gt;Node10</title>
<path fill="none" stroke="#191970" d="M38.0936,-55.5C45.3551,-55.5 54.1445,-55.5 63.477,-55.5"/>
<polygon fill="#191970" stroke="#191970" points="63.7704,-59.0001 73.7703,-55.5 63.7703,-52.0001 63.7704,-59.0001"/>
</g>
<!-- Node12 -->
<g id="node5" class="node">
<title>Node12</title>
<g id="a_node5"><a xlink:href="classgrading_1_1TestSuite.html#abdf087198b0210698844fad89ba07acf" target="_top" xlink:title="The total weight of all tests in the suite.">
<polygon fill="none" stroke="#000000" points="98.5,-.5 98.5,-20.5 180.5,-20.5 180.5,-.5 98.5,-.5"/>
<text text-anchor="middle" x="139.5" y="-7.7" font-family="Avenir-Book" font-size="11.00" fill="#000000">totalWeight</text>
</a>
</g>
</g>
<!-- Node8&#45;&gt;Node12 -->
<g id="edge4" class="edge">
<title>Node8&#45;&gt;Node12</title>
<path fill="none" stroke="#191970" d="M38.0854,-46.0831C48.5503,-41.109 61.8345,-35.0998 74,-30.5 80.3514,-28.0985 87.1286,-25.7732 93.8257,-23.6095"/>
<polygon fill="#191970" stroke="#191970" points="95.0292,-26.9002 103.5214,-20.5651 92.9321,-20.2217 95.0292,-26.9002"/>
</g>
<!-- Node11 -->
<g id="node4" class="node">
<title>Node11</title>
<g id="a_node4"><a xlink:href="structgrading_1_1Arguments.html#a55d503e59b653b12f7dd7b0fd3ec3788" target="_top" xlink:title="Construct a &quot;failed to parse normal arguments&quot; object.">
<polygon fill="none" stroke="#000000" points="241,-39.5 241,-71.5 372,-71.5 372,-39.5 241,-39.5"/>
<text text-anchor="start" x="249" y="-58.7" font-family="Avenir-Book" font-size="11.00" fill="#000000">grading::Arguments</text>
<text text-anchor="middle" x="306.5" y="-46.7" font-family="Avenir-Book" font-size="11.00" fill="#000000">::Arguments</text>
</a>
</g>
</g>
<!-- Node10&#45;&gt;Node11 -->
<g id="edge3" class="edge">
<title>Node10&#45;&gt;Node11</title>
<path fill="none" stroke="#191970" d="M205.0235,-55.5C213.496,-55.5 222.2278,-55.5 230.8471,-55.5"/>
<polygon fill="#191970" stroke="#191970" points="230.8914,-59.0001 240.8913,-55.5 230.8913,-52.0001 230.8914,-59.0001"/>
</g>
</g>
</svg>
