<?xml version="1.0" encoding="UTF-8" standalone="no"?>
<!DOCTYPE svg PUBLIC "-//W3C//DTD SVG 1.1//EN"
 "http://www.w3.org/Graphics/SVG/1.1/DTD/svg11.dtd">
<!-- Generated by graphviz version 2.40.1 (20161225.0304)
 -->
<!-- Title: PosixSharedMemory Pages: 1 -->
<svg width="148pt" height="244pt"
 viewBox="0.00 0.00 147.88 244.26" xmlns="http://www.w3.org/2000/svg" xmlns:xlink="http://www.w3.org/1999/xlink">
<g id="graph0" class="graph" transform="scale(1 1) rotate(0) translate(4 240.2597)">
<title>PosixSharedMemory</title>
<!-- Node0 -->
<g id="node1" class="node">
<title>Node0</title>
<g id="a_node1"><a xlink:title="A memory&#45;mapped POSIX shared memory segment.">
<polygon fill="#bfbfbf" stroke="#000000" points="0,-.5 0,-114.6558 139.882,-114.6558 139.882,-.5 0,-.5"/>
<text text-anchor="middle" x="69.941" y="-101.8558" font-family="Avenir-Book" font-size="11.00" fill="#000000">PosixSharedMemory</text>
<polyline fill="none" stroke="#000000" points="0,-91.6299 139.882,-91.6299 "/>
<text text-anchor="middle" x="69.941" y="-78.8299" font-family="Avenir-Book" font-size="11.00" fill="#000000"> </text>
<polyline fill="none" stroke="#000000" points="0,-68.6039 139.882,-68.6039 "/>
<text text-anchor="start" x="8" y="-55.8039" font-family="Avenir-Book" font-size="11.00" fill="#000000">+ PosixSharedMemory()</text>
<text text-anchor="start" x="8" y="-40.7779" font-family="Avenir-Book" font-size="11.00" fill="#000000">+ ~PosixSharedMemory()</text>
<text text-anchor="start" x="8" y="-25.7519" font-family="Avenir-Book" font-size="11.00" fill="#000000">+ fd()</text>
<text text-anchor="start" x="8" y="-10.726" font-family="Avenir-Book" font-size="11.00" fill="#000000">+ rawPointer()</text>
</a>
</g>
</g>
<!-- Node1 -->
<g id="node2" class="node">
<title>Node1</title>
<g id="a_node2"><a xlink:href="classgrading_1_1_shared_memory.html" target="_top" xlink:title="A representation of a shared memory object.">
<polygon fill="none" stroke="#000000" points="12.7325,-151.6558 12.7325,-235.7597 127.1495,-235.7597 127.1495,-151.6558 12.7325,-151.6558"/>
<text text-anchor="middle" x="69.941" y="-222.9597" font-family="Avenir-Book" font-size="11.00" fill="#000000">SharedMemory</text>
<polyline fill="none" stroke="#000000" points="12.7325,-212.7337 127.1495,-212.7337 "/>
<text text-anchor="middle" x="69.941" y="-199.9337" font-family="Avenir-Book" font-size="11.00" fill="#000000"> </text>
<polyline fill="none" stroke="#000000" points="12.7325,-189.7078 127.1495,-189.7078 "/>
<text text-anchor="start" x="20.7325" y="-176.9078" font-family="Avenir-Book" font-size="11.00" fill="#000000">+ ~SharedMemory()</text>
<text text-anchor="start" x="20.7325" y="-161.8818" font-family="Avenir-Book" font-size="11.00" fill="#000000">+ rawPointer()</text>
</a>
</g>
</g>
<!-- Node1&#45;&gt;Node0 -->
<g id="edge1" class="edge">
<title>Node1&#45;&gt;Node0</title>
<path fill="none" stroke="#191970" d="M69.941,-141.1133C69.941,-132.5215 69.941,-123.5824 69.941,-114.8839"/>
<polygon fill="none" stroke="#191970" points="66.4411,-141.3816 69.941,-151.3816 73.4411,-141.3817 66.4411,-141.3816"/>
</g>
</g>
</svg>
