<?xml version="1.0" encoding="UTF-8" standalone="no"?>
<!DOCTYPE svg PUBLIC "-//W3C//DTD SVG 1.1//EN"
 "http://www.w3.org/Graphics/SVG/1.1/DTD/svg11.dtd">
<!-- Generated by graphviz version 2.38.0 (20140413.2041)
 -->
<!-- Title: grading::CheckResult::cancel Pages: 1 -->
<svg width="303pt" height="68pt"
 viewBox="0.00 0.00 303.00 68.00" xmlns="http://www.w3.org/2000/svg" xmlns:xlink="http://www.w3.org/1999/xlink">
<g id="graph0" class="graph" transform="scale(1 1) rotate(0) translate(4 64)">
<title>grading::CheckResult::cancel</title>
<!-- Node1 -->
<g id="node1" class="node"><title>Node1</title>
<polygon fill="#bfbfbf" stroke="black" points="0,-13.5 0,-45.5 131,-45.5 131,-13.5 0,-13.5"/>
<text text-anchor="start" x="8" y="-32.7" font-family="Avenir-Book" font-size="11.00">grading::CheckResult</text>
<text text-anchor="middle" x="65.5" y="-20.7" font-family="Avenir-Book" font-size="11.00">::cancel</text>
</g>
<!-- Node2 -->
<g id="node2" class="node"><title>Node2</title>
<g id="a_node2"><a xlink:href="namespacegrading.html#a408d2501b1f610426acd4a22007c6b95" target="_top" xlink:title="Combine the results of two checks using a product (AND): both must pass. ">
<polygon fill="none" stroke="black" points="167,-39.5 167,-59.5 295,-59.5 295,-39.5 167,-39.5"/>
<text text-anchor="middle" x="231" y="-46.7" font-family="Avenir-Book" font-size="11.00">grading::operator&amp;&amp;</text>
</a>
</g>
</g>
<!-- Node1&#45;&gt;Node2 -->
<g id="edge1" class="edge"><title>Node1&#45;&gt;Node2</title>
<path fill="none" stroke="midnightblue" d="M141.156,-38.6322C149.766,-39.6855 158.482,-40.7516 166.918,-41.7836"/>
<polygon fill="midnightblue" stroke="midnightblue" points="141.471,-35.1447 131.12,-37.4045 140.621,-42.0929 141.471,-35.1447"/>
</g>
<!-- Node3 -->
<g id="node3" class="node"><title>Node3</title>
<g id="a_node3"><a xlink:href="namespacegrading.html#ae879c550a264e817453c5a0611aead83" target="_top" xlink:title="Combine the results of two checks using a sum (OR): at least one must pass. ">
<polygon fill="none" stroke="black" points="171.5,-0.5 171.5,-20.5 290.5,-20.5 290.5,-0.5 171.5,-0.5"/>
<text text-anchor="middle" x="231" y="-7.7" font-family="Avenir-Book" font-size="11.00">grading::operator||</text>
</a>
</g>
</g>
<!-- Node1&#45;&gt;Node3 -->
<g id="edge2" class="edge"><title>Node1&#45;&gt;Node3</title>
<path fill="none" stroke="midnightblue" d="M141.19,-20.8205C151.332,-19.6419 161.62,-18.4463 171.424,-17.307"/>
<polygon fill="midnightblue" stroke="midnightblue" points="140.649,-17.3597 131.12,-21.9907 141.457,-24.3129 140.649,-17.3597"/>
</g>
</g>
</svg>
