<?xml version="1.0" encoding="UTF-8" standalone="no"?>
<!DOCTYPE svg PUBLIC "-//W3C//DTD SVG 1.1//EN"
 "http://www.w3.org/Graphics/SVG/1.1/DTD/svg11.dtd">
<!-- Generated by graphviz version 2.40.1 (20161225.0304)
 -->
<!-- Title: SharedMemory Pages: 1 -->
<svg width="148pt" height="229pt"
 viewBox="0.00 0.00 147.88 229.23" xmlns="http://www.w3.org/2000/svg" xmlns:xlink="http://www.w3.org/1999/xlink">
<g id="graph0" class="graph" transform="scale(1 1) rotate(0) translate(4 225.2337)">
<title>SharedMemory</title>
<!-- Node0 -->
<g id="node1" class="node">
<title>Node0</title>
<polygon fill="#bfbfbf" stroke="#000000" points="12.7325,-136.6299 12.7325,-220.7337 127.1495,-220.7337 127.1495,-136.6299 12.7325,-136.6299"/>
<text text-anchor="middle" x="69.941" y="-207.9337" font-family="Avenir-Book" font-size="11.00" fill="#000000">SharedMemory</text>
<polyline fill="none" stroke="#000000" points="12.7325,-197.7078 127.1495,-197.7078 "/>
<text text-anchor="middle" x="69.941" y="-184.9078" font-family="Avenir-Book" font-size="11.00" fill="#000000"> </text>
<polyline fill="none" stroke="#000000" points="12.7325,-174.6818 127.1495,-174.6818 "/>
<text text-anchor="start" x="20.7325" y="-161.8818" font-family="Avenir-Book" font-size="11.00" fill="#000000">+ ~SharedMemory()</text>
<text text-anchor="start" x="20.7325" y="-146.8558" font-family="Avenir-Book" font-size="11.00" fill="#000000">+ rawPointer()</text>
</g>
<!-- Node1 -->
<g id="node2" class="node">
<title>Node1</title>
<g id="a_node2"><a xlink:href="class_posix_shared_memory.html" target="_top" xlink:title="A memory&#45;mapped POSIX shared memory segment. ">
<polygon fill="none" stroke="#000000" points="0,-.5 0,-99.6299 139.882,-99.6299 139.882,-.5 0,-.5"/>
<text text-anchor="middle" x="69.941" y="-86.8299" font-family="Avenir-Book" font-size="11.00" fill="#000000">PosixSharedMemory</text>
<polyline fill="none" stroke="#000000" points="0,-76.6039 139.882,-76.6039 "/>
<text text-anchor="middle" x="69.941" y="-63.8039" font-family="Avenir-Book" font-size="11.00" fill="#000000"> </text>
<polyline fill="none" stroke="#000000" points="0,-53.5779 139.882,-53.5779 "/>
<text text-anchor="start" x="8" y="-40.7779" font-family="Avenir-Book" font-size="11.00" fill="#000000">+ PosixSharedMemory()</text>
<text text-anchor="start" x="8" y="-25.7519" font-family="Avenir-Book" font-size="11.00" fill="#000000">+ ~PosixSharedMemory()</text>
<text text-anchor="start" x="8" y="-10.726" font-family="Avenir-Book" font-size="11.00" fill="#000000">+ rawPointer()</text>
</a>
</g>
</g>
<!-- Node0&#45;&gt;Node1 -->
<g id="edge1" class="edge">
<title>Node0&#45;&gt;Node1</title>
<path fill="none" stroke="#191970" d="M69.941,-126.4524C69.941,-117.6789 69.941,-108.5942 69.941,-99.8836"/>
<polygon fill="none" stroke="#191970" points="66.4411,-126.5678 69.941,-136.5678 73.4411,-126.5679 66.4411,-126.5678"/>
</g>
</g>
</svg>
