<?xml version="1.0" encoding="UTF-8" standalone="no"?>
<!DOCTYPE svg PUBLIC "-//W3C//DTD SVG 1.1//EN"
 "http://www.w3.org/Graphics/SVG/1.1/DTD/svg11.dtd">
<!-- Generated by graphviz version 2.36.0 (20140111.2315)
 -->
<!-- Title: message Pages: 1 -->
<!--zoomable 455 -->
<svg id="main" version="1.1" xmlns="http://www.w3.org/2000/svg" xmlns:xlink="http://www.w3.org/1999/xlink" xml:space="preserve" onload="init(evt)">
<style type="text/css"><![CDATA[
.edge:hover path { stroke: red; }
.edge:hover polygon { stroke: red; fill: red; }
]]></style>
<script type="text/javascript"><![CDATA[
var edges = document.getElementsByTagName('g');
if (edges && edges.length) {
  for (var i=0;i<edges.length;i++) {
    if (edges[i].id.substr(0,4)=='edge') {
      edges[i].setAttribute('class','edge');
    }
  }
}
]]></script>
        <defs>
                <circle id="rim" cx="0" cy="0" r="7"/>
                <circle id="rim2" cx="0" cy="0" r="3.5"/>
                <g id="zoomPlus">
                        <use xlink:href="#rim" fill="#404040">
                                <set attributeName="fill" to="#808080" begin="zoomplus.mouseover" end="zoomplus.mouseout"/>
                        </use>
                        <path d="M-4,0h8M0,-4v8" fill="none" stroke="white" stroke-width="1.5" pointer-events="none"/>
                </g>
                <g id="zoomMin">
                        <use xlink:href="#rim" fill="#404040">
                                <set attributeName="fill" to="#808080" begin="zoomminus.mouseover" end="zoomminus.mouseout"/>
                        </use>
                        <path d="M-4,0h8" fill="none" stroke="white" stroke-width="1.5" pointer-events="none"/>
                </g>
                <g id="dirArrow">
                        <path fill="none" stroke="white" stroke-width="1.5" d="M0,-3.0v7 M-2.5,-0.5L0,-3.0L2.5,-0.5"/>
                </g>
               <g id="resetDef">
                       <use xlink:href="#rim2" fill="#404040">
                               <set attributeName="fill" to="#808080" begin="reset.mouseover" end="reset.mouseout"/>
                       </use>
               </g>
        </defs>

<script type="text/javascript">
var viewWidth = 508;
var viewHeight = 455;
var sectionId = 'dynsection-4';
</script>
<script xlink:href="svgpan.js"/>
<svg id="graph" class="graph">
<g id="viewport">
<title>message</title>
<!-- Node1 -->
<g id="node1" class="node"><title>Node1</title>
<polygon fill="#bfbfbf" stroke="black" points="0.5,-232 0.5,-252 61.5,-252 61.5,-232 0.5,-232"/>
<text text-anchor="middle" x="31" y="-239.2" font-family="Avenir-Book" font-size="11.00">message</text>
</g>
<!-- Node2 -->
<g id="node2" class="node"><title>Node2</title>
<g id="a_node2"><a xlink:href="namespacegrading.html#a02b06a7a05a39b2a9d36066c7c1b2a96" target="_top" xlink:title="Check an arbitrary condition, failing the test if false. ">
<polygon fill="none" stroke="black" points="274,-39 274,-59 364,-59 364,-39 274,-39"/>
<text text-anchor="middle" x="319" y="-46.2" font-family="Avenir-Book" font-size="11.00">grading::Check</text>
</a>
</g>
</g>
<!-- Node1&#45;&gt;Node2 -->
<g id="edge1" class="edge"><title>Node1&#45;&gt;Node2</title>
<path fill="none" stroke="midnightblue" d="M34.4777,-231.885C40.8097,-208.178 59.8432,-148.646 98,-117 145.401,-77.6873 215.414,-61.0645 263.664,-54.0595"/>
<polygon fill="midnightblue" stroke="midnightblue" points="264.177,-57.5221 273.614,-52.706 263.233,-50.586 264.177,-57.5221"/>
</g>
<!-- Node4 -->
<g id="node4" class="node"><title>Node4</title>
<g id="a_node4"><a xlink:href="namespacegrading.html#a4e80ff15169ee05c6d87c2096e834d9a" target="_top" xlink:title="Check that two floating&#45;point numbers are equal within some tolerance. ">
<polygon fill="none" stroke="black" points="100.5,-349 100.5,-369 215.5,-369 215.5,-349 100.5,-349"/>
<text text-anchor="middle" x="158" y="-356.2" font-family="Avenir-Book" font-size="11.00">grading::CheckFloat</text>
</a>
</g>
</g>
<!-- Node1&#45;&gt;Node4 -->
<g id="edge3" class="edge"><title>Node1&#45;&gt;Node4</title>
<path fill="none" stroke="midnightblue" d="M36.2034,-252.104C44.8612,-271.71 66.5443,-315.083 98,-339 100.752,-341.093 103.737,-342.975 106.854,-344.666"/>
<polygon fill="midnightblue" stroke="midnightblue" points="105.365,-347.833 115.902,-348.943 108.357,-341.505 105.365,-347.833"/>
</g>
<!-- Node6 -->
<g id="node6" class="node"><title>Node6</title>
<g id="a_node6"><a xlink:href="namespacegrading.html#a1718d44f68e8dca72ca3e9fc874ed856" target="_top" xlink:title="Check that two integers are equal, failing the test if they are not. ">
<polygon fill="none" stroke="black" points="267.5,-0 267.5,-20 370.5,-20 370.5,-0 267.5,-0"/>
<text text-anchor="middle" x="319" y="-7.2" font-family="Avenir-Book" font-size="11.00">grading::CheckInt</text>
</a>
</g>
</g>
<!-- Node1&#45;&gt;Node6 -->
<g id="edge6" class="edge"><title>Node1&#45;&gt;Node6</title>
<path fill="none" stroke="midnightblue" d="M32.4447,-231.898C34.3749,-201.023 44.5806,-107.155 98,-60 141.589,-21.5226 208.597,-10.8561 257.21,-8.68535"/>
<polygon fill="midnightblue" stroke="midnightblue" points="257.413,-12.1806 267.289,-8.34413 257.177,-5.18457 257.413,-12.1806"/>
</g>
<!-- Node7 -->
<g id="node7" class="node"><title>Node7</title>
<g id="a_node7"><a xlink:href="namespacegrading.html#a6a748b83bd55765d8dc2dd705e52137e" target="_top" xlink:title="Check that a pointer is not equal to nullptr. ">
<polygon fill="none" stroke="black" points="254,-427 254,-447 384,-447 384,-427 254,-427"/>
<text text-anchor="middle" x="319" y="-434.2" font-family="Avenir-Book" font-size="11.00">grading::CheckNonNull</text>
</a>
</g>
</g>
<!-- Node1&#45;&gt;Node7 -->
<g id="edge8" class="edge"><title>Node1&#45;&gt;Node7</title>
<path fill="none" stroke="midnightblue" d="M33.9542,-252.333C39.3215,-277.785 56.7253,-343.9 98,-378 138.898,-411.789 197.349,-426.367 243.724,-432.59"/>
<polygon fill="midnightblue" stroke="midnightblue" points="243.371,-436.072 253.725,-433.829 244.232,-429.126 243.371,-436.072"/>
</g>
<!-- Node8 -->
<g id="node8" class="node"><title>Node8</title>
<g id="a_node8"><a xlink:href="namespacegrading.html#ab80ca5498aeecda6cd1f7cb92a8f6018" target="_top" xlink:title="Check that a pointer is equal to nullptr. ">
<polygon fill="none" stroke="black" points="103.5,-310 103.5,-330 212.5,-330 212.5,-310 103.5,-310"/>
<text text-anchor="middle" x="158" y="-317.2" font-family="Avenir-Book" font-size="11.00">grading::CheckNull</text>
</a>
</g>
</g>
<!-- Node1&#45;&gt;Node8 -->
<g id="edge10" class="edge"><title>Node1&#45;&gt;Node8</title>
<path fill="none" stroke="midnightblue" d="M41.3167,-252.396C53.2979,-265.204 75.282,-286.875 98,-300 101.898,-302.252 106.088,-304.301 110.373,-306.152"/>
<polygon fill="midnightblue" stroke="midnightblue" points="109.239,-309.468 119.826,-309.894 111.816,-302.959 109.239,-309.468"/>
</g>
<!-- Node9 -->
<g id="node9" class="node"><title>Node9</title>
<g id="a_node9"><a xlink:href="namespacegrading.html#a60adb41dad219d6cbf3c27bf477bd638" target="_top" xlink:title="Check that two strings are (approximately) equal. ">
<polygon fill="none" stroke="black" points="98.5,-271 98.5,-291 217.5,-291 217.5,-271 98.5,-271"/>
<text text-anchor="middle" x="158" y="-278.2" font-family="Avenir-Book" font-size="11.00">grading::CheckString</text>
</a>
</g>
</g>
<!-- Node1&#45;&gt;Node9 -->
<g id="edge12" class="edge"><title>Node1&#45;&gt;Node9</title>
<path fill="none" stroke="midnightblue" d="M61.6233,-251.242C77.4352,-256.176 97.1719,-262.334 114.582,-267.766"/>
<polygon fill="midnightblue" stroke="midnightblue" points="113.928,-271.228 124.517,-270.865 116.013,-264.546 113.928,-271.228"/>
</g>
<!-- Node10 -->
<g id="node10" class="node"><title>Node10</title>
<g id="a_node10"><a xlink:href="namespacegrading.html#a2a2d0f24b23462f9b5e5dc59623029de" target="_top" xlink:title="Combine the results of two checks using a product (AND): both must pass. ">
<polygon fill="none" stroke="black" points="100.5,-127 100.5,-147 215.5,-147 215.5,-127 100.5,-127"/>
<text text-anchor="middle" x="158" y="-134.2" font-family="Avenir-Book" font-size="11.00">grading::operator&amp;&amp;</text>
</a>
</g>
</g>
<!-- Node1&#45;&gt;Node10 -->
<g id="edge14" class="edge"><title>Node1&#45;&gt;Node10</title>
<path fill="none" stroke="midnightblue" d="M38.6176,-231.822C49.4264,-215.845 72.2615,-184.674 98,-165 104.863,-159.754 112.867,-155.151 120.724,-151.272"/>
<polygon fill="midnightblue" stroke="midnightblue" points="122.208,-154.442 129.804,-147.057 119.26,-148.093 122.208,-154.442"/>
</g>
<!-- Node13 -->
<g id="node13" class="node"><title>Node13</title>
<g id="a_node13"><a xlink:href="namespacegrading.html#ab60215986fc07d2b182735c01cee0656" target="_top" xlink:title="Output a human&#45;readable representation of a TestResult. ">
<polygon fill="none" stroke="black" points="101.5,-232 101.5,-252 214.5,-252 214.5,-232 101.5,-232"/>
<text text-anchor="middle" x="158" y="-239.2" font-family="Avenir-Book" font-size="11.00">grading::operator&lt;&lt;</text>
</a>
</g>
</g>
<!-- Node1&#45;&gt;Node13 -->
<g id="edge18" class="edge"><title>Node1&#45;&gt;Node13</title>
<path fill="none" stroke="midnightblue" d="M61.6233,-242C70.5033,-242 80.6212,-242 90.8697,-242"/>
<polygon fill="midnightblue" stroke="midnightblue" points="91.1208,-245.5 101.121,-242 91.1208,-238.5 91.1208,-245.5"/>
</g>
<!-- Node15 -->
<g id="node15" class="node"><title>Node15</title>
<g id="a_node15"><a xlink:href="namespacegrading.html#afab8c0737ae99cfa595261baac5387af" target="_top" xlink:title="Combine the results of two checks using a sum (OR): at least one must pass. ">
<polygon fill="none" stroke="black" points="105,-175 105,-195 211,-195 211,-175 105,-175"/>
<text text-anchor="middle" x="158" y="-182.2" font-family="Avenir-Book" font-size="11.00">grading::operator||</text>
</a>
</g>
</g>
<!-- Node1&#45;&gt;Node15 -->
<g id="edge21" class="edge"><title>Node1&#45;&gt;Node15</title>
<path fill="none" stroke="midnightblue" d="M54.0598,-231.941C73.841,-222.921 103.094,-209.581 125.365,-199.426"/>
<polygon fill="midnightblue" stroke="midnightblue" points="127.094,-202.484 134.74,-195.15 124.189,-196.115 127.094,-202.484"/>
</g>
<!-- Node3 -->
<g id="node3" class="node"><title>Node3</title>
<g id="a_node3"><a xlink:href="classgrading_1_1_check_result.html#aa40a4ffbd2ed79d36078a96dab3e2197" target="_top" xlink:title="&quot;All&#39;s&#45;well&quot; constructor (i.e., the check passed). ">
<polygon fill="none" stroke="black" points="420.5,-234 420.5,-254 499.5,-254 499.5,-234 420.5,-234"/>
<text text-anchor="middle" x="460" y="-241.2" font-family="Avenir-Book" font-size="11.00">CheckResult</text>
</a>
</g>
</g>
<!-- Node2&#45;&gt;Node3 -->
<g id="edge2" class="edge"><title>Node2&#45;&gt;Node3</title>
<path fill="none" stroke="midnightblue" d="M360.051,-59.1171C368.714,-62.7292 377.281,-67.5641 384,-74 427.935,-116.081 447.84,-188.42 455.277,-223.599"/>
<polygon fill="midnightblue" stroke="midnightblue" points="451.888,-224.502 457.268,-233.629 458.754,-223.139 451.888,-224.502"/>
</g>
<!-- Node4&#45;&gt;Node3 -->
<g id="edge4" class="edge"><title>Node4&#45;&gt;Node3</title>
<path fill="none" stroke="midnightblue" d="M215.822,-355.427C263.038,-350.563 330.843,-339.083 384,-312 408.049,-299.748 430.233,-277.726 444.136,-262.065"/>
<polygon fill="midnightblue" stroke="midnightblue" points="447.101,-263.985 450.967,-254.121 441.793,-259.421 447.101,-263.985"/>
</g>
<!-- Node5 -->
<g id="node5" class="node"><title>Node5</title>
<g id="a_node5"><a xlink:href="classgrading_1_1_check_result.html#a38cc0cf6cb8c20b57ae92558f887569e" target="_top" xlink:title="Whether or not the check result is erroneous. ">
<polygon fill="none" stroke="black" points="299,-388 299,-408 339,-408 339,-388 299,-388"/>
<text text-anchor="middle" x="319" y="-395.2" font-family="Avenir-Book" font-size="11.00">error</text>
</a>
</g>
</g>
<!-- Node4&#45;&gt;Node5 -->
<g id="edge5" class="edge"><title>Node4&#45;&gt;Node5</title>
<path fill="none" stroke="midnightblue" d="M199.946,-369.043C227.803,-375.876 263.993,-384.753 288.921,-390.867"/>
<polygon fill="midnightblue" stroke="midnightblue" points="288.312,-394.322 298.858,-393.305 289.98,-387.523 288.312,-394.322"/>
</g>
<!-- Node6&#45;&gt;Node3 -->
<g id="edge7" class="edge"><title>Node6&#45;&gt;Node3</title>
<path fill="none" stroke="midnightblue" d="M370.756,-19.9506C375.605,-22.3486 380.142,-25.3197 384,-29 440.332,-82.7424 454.379,-181.041 457.861,-223.534"/>
<polygon fill="midnightblue" stroke="midnightblue" points="454.386,-224.006 458.577,-233.737 461.368,-223.516 454.386,-224.006"/>
</g>
<!-- Node7&#45;&gt;Node3 -->
<g id="edge9" class="edge"><title>Node7&#45;&gt;Node3</title>
<path fill="none" stroke="midnightblue" d="M368.251,-426.998C373.981,-424.399 379.412,-421.125 384,-417 430.129,-375.527 449.061,-300.664 455.784,-264.565"/>
<polygon fill="midnightblue" stroke="midnightblue" points="459.304,-264.748 457.557,-254.298 452.407,-263.556 459.304,-264.748"/>
</g>
<!-- Node8&#45;&gt;Node3 -->
<g id="edge11" class="edge"><title>Node8&#45;&gt;Node3</title>
<path fill="none" stroke="midnightblue" d="M212.928,-316.406C259.272,-312.139 327.379,-303.035 384,-284 402.015,-277.944 420.885,-267.858 435.192,-259.329"/>
<polygon fill="midnightblue" stroke="midnightblue" points="437.18,-262.215 443.879,-254.007 433.523,-256.246 437.18,-262.215"/>
</g>
<!-- Node9&#45;&gt;Node3 -->
<g id="edge13" class="edge"><title>Node9&#45;&gt;Node3</title>
<path fill="none" stroke="midnightblue" d="M217.602,-279.014C263.202,-276.818 327.941,-272.275 384,-263 394.038,-261.339 404.703,-258.998 414.744,-256.524"/>
<polygon fill="midnightblue" stroke="midnightblue" points="415.707,-259.89 424.531,-254.026 413.976,-253.107 415.707,-259.89"/>
</g>
<!-- Node10&#45;&gt;Node3 -->
<g id="edge17" class="edge"><title>Node10&#45;&gt;Node3</title>
<path fill="none" stroke="midnightblue" d="M178.078,-126.952C218.987,-106.921 316.873,-67.2208 384,-107 426.986,-132.473 446.948,-192.259 454.76,-223.761"/>
<polygon fill="midnightblue" stroke="midnightblue" points="451.376,-224.664 457.034,-233.622 458.197,-223.091 451.376,-224.664"/>
</g>
<!-- Node11 -->
<g id="node11" class="node"><title>Node11</title>
<g id="a_node11"><a xlink:href="classgrading_1_1_check_result.html#a872287484e02407a364d921d96496825" target="_top" xlink:title="Value test expected to see (user&#45;readable representation). ">
<polygon fill="none" stroke="black" points="296,-156 296,-176 342,-176 342,-156 296,-156"/>
<text text-anchor="middle" x="319" y="-163.2" font-family="Avenir-Book" font-size="11.00">actual</text>
</a>
</g>
</g>
<!-- Node10&#45;&gt;Node11 -->
<g id="edge15" class="edge"><title>Node10&#45;&gt;Node11</title>
<path fill="none" stroke="midnightblue" d="M214.164,-147.061C237.995,-151.408 265.054,-156.343 285.573,-160.086"/>
<polygon fill="midnightblue" stroke="midnightblue" points="285.19,-163.574 295.656,-161.925 286.446,-156.687 285.19,-163.574"/>
</g>
<!-- Node12 -->
<g id="node12" class="node"><title>Node12</title>
<g id="a_node12"><a xlink:href="classgrading_1_1_check_result.html#a02d5fa6b14e221f3012a794b905be166" target="_top" xlink:title="Cancel the error: the result is actually ok (e.g., because of a logical OR) or else the error&#39;s owner...">
<polygon fill="none" stroke="black" points="295,-117 295,-137 343,-137 343,-117 295,-117"/>
<text text-anchor="middle" x="319" y="-124.2" font-family="Avenir-Book" font-size="11.00">cancel</text>
</a>
</g>
</g>
<!-- Node10&#45;&gt;Node12 -->
<g id="edge16" class="edge"><title>Node10&#45;&gt;Node12</title>
<path fill="none" stroke="midnightblue" d="M215.505,-133.446C238.658,-131.99 264.657,-130.355 284.677,-129.096"/>
<polygon fill="midnightblue" stroke="midnightblue" points="285.08,-132.577 294.84,-128.457 284.64,-125.591 285.08,-132.577"/>
</g>
<!-- Node14 -->
<g id="node14" class="node"><title>Node14</title>
<g id="a_node14"><a xlink:href="namespacegrading.html#a395448d7484928cd96ef99470b0d9109" target="_top" xlink:title="Fail the current test. ">
<polygon fill="none" stroke="black" points="280.5,-234 280.5,-254 357.5,-254 357.5,-234 280.5,-234"/>
<text text-anchor="middle" x="319" y="-241.2" font-family="Avenir-Book" font-size="11.00">grading::Fail</text>
</a>
</g>
</g>
<!-- Node13&#45;&gt;Node14 -->
<g id="edge19" class="edge"><title>Node13&#45;&gt;Node14</title>
<path fill="none" stroke="midnightblue" d="M214.61,-242.7C232.557,-242.925 252.295,-243.174 269.672,-243.392"/>
<polygon fill="midnightblue" stroke="midnightblue" points="270.106,-246.898 280.149,-243.524 270.194,-239.898 270.106,-246.898"/>
</g>
<!-- Node14&#45;&gt;Node3 -->
<g id="edge20" class="edge"><title>Node14&#45;&gt;Node3</title>
<path fill="none" stroke="midnightblue" d="M357.615,-244C373.728,-244 392.76,-244 409.958,-244"/>
<polygon fill="midnightblue" stroke="midnightblue" points="410.386,-247.5 420.386,-244 410.386,-240.5 410.386,-247.5"/>
</g>
<!-- Node15&#45;&gt;Node3 -->
<g id="edge24" class="edge"><title>Node15&#45;&gt;Node3</title>
<path fill="none" stroke="midnightblue" d="M211.088,-192.682C256.856,-199.752 325.141,-211.078 384,-224 393.872,-226.167 404.397,-228.781 414.345,-231.394"/>
<polygon fill="midnightblue" stroke="midnightblue" points="413.49,-234.789 424.055,-233.99 415.298,-228.026 413.49,-234.789"/>
</g>
<!-- Node15&#45;&gt;Node11 -->
<g id="edge22" class="edge"><title>Node15&#45;&gt;Node11</title>
<path fill="none" stroke="midnightblue" d="M211.063,-178.779C235.701,-175.835 264.346,-172.411 285.785,-169.85"/>
<polygon fill="midnightblue" stroke="midnightblue" points="286.466,-173.293 295.98,-168.631 285.636,-166.343 286.466,-173.293"/>
</g>
<!-- Node15&#45;&gt;Node12 -->
<g id="edge23" class="edge"><title>Node15&#45;&gt;Node12</title>
<path fill="none" stroke="midnightblue" d="M181.786,-174.886C200.876,-166.598 228.948,-154.836 254,-146 264.001,-142.473 275.029,-139.04 285.072,-136.084"/>
<polygon fill="midnightblue" stroke="midnightblue" points="286.075,-139.437 294.713,-133.302 284.134,-132.712 286.075,-139.437"/>
</g>
</g>
</svg>
        <g id="navigator" transform="translate(0 0)" fill="#404254">
                <rect fill="#f2f5e9" fill-opacity="0.5" stroke="#606060" stroke-width=".5" x="0" y="0" width="60" height="60"/>
                <use id="zoomplus" xlink:href="#zoomPlus" x="17" y="9" onmousedown="handleZoom(evt,'in')"/>
                <use id="zoomminus" xlink:href="#zoomMin" x="42" y="9" onmousedown="handleZoom(evt,'out')"/>
                <use id="reset" xlink:href="#resetDef" x="30" y="36" onmousedown="handleReset()"/>
                <g id="arrowUp" xlink:href="#dirArrow" transform="translate(30 24)" onmousedown="handlePan(0,-1)">
                  <use xlink:href="#rim" fill="#404040">
                        <set attributeName="fill" to="#808080" begin="arrowUp.mouseover" end="arrowUp.mouseout"/>
                  </use>
                  <path fill="none" stroke="white" stroke-width="1.5" d="M0,-3.0v7 M-2.5,-0.5L0,-3.0L2.5,-0.5"/>
                </g>
                <g id="arrowRight" xlink:href="#dirArrow" transform="rotate(90) translate(36 -43)" onmousedown="handlePan(1,0)">
                  <use xlink:href="#rim" fill="#404040">
                        <set attributeName="fill" to="#808080" begin="arrowRight.mouseover" end="arrowRight.mouseout"/>
                  </use>
                  <path fill="none" stroke="white" stroke-width="1.5" d="M0,-3.0v7 M-2.5,-0.5L0,-3.0L2.5,-0.5"/>
                </g>
                <g id="arrowDown" xlink:href="#dirArrow" transform="rotate(180) translate(-30 -48)" onmousedown="handlePan(0,1)">
                  <use xlink:href="#rim" fill="#404040">
                        <set attributeName="fill" to="#808080" begin="arrowDown.mouseover" end="arrowDown.mouseout"/>
                  </use>
                  <path fill="none" stroke="white" stroke-width="1.5" d="M0,-3.0v7 M-2.5,-0.5L0,-3.0L2.5,-0.5"/>
                </g>
                <g id="arrowLeft" xlink:href="#dirArrow" transform="rotate(270) translate(-36 17)" onmousedown="handlePan(-1,0)">
                  <use xlink:href="#rim" fill="#404040">
                        <set attributeName="fill" to="#808080" begin="arrowLeft.mouseover" end="arrowLeft.mouseout"/>
                  </use>
                  <path fill="none" stroke="white" stroke-width="1.5" d="M0,-3.0v7 M-2.5,-0.5L0,-3.0L2.5,-0.5"/>
                </g>
        </g>
        <svg viewBox="0 0 15 15" width="100%" height="30px" preserveAspectRatio="xMaxYMin meet">
         <g id="arrow_out" transform="scale(0.3 0.3)">
          <a xlink:href="classgrading_1_1_check_result_a5679ca29245899bbe1dc3ccd6afe7222_cgraph_org.svg" target="_base">
           <rect id="button" ry="5" rx="5" y="6" x="6" height="38" width="38"
                fill="#f2f5e9" fill-opacity="0.5" stroke="#606060" stroke-width="1.0"/>
           <path id="arrow"
             d="M 11.500037,31.436501 C 11.940474,20.09759 22.043105,11.32322 32.158766,21.979434 L 37.068811,17.246167 C 37.068811,17.246167 37.088388,32 37.088388,32 L 22.160133,31.978069 C 22.160133,31.978069 26.997745,27.140456 26.997745,27.140456 C 18.528582,18.264221 13.291696,25.230495 11.500037,31.436501 z"
             style="fill:#404040;"/>
          </a>
         </g>
        </svg>
</svg>
