<?xml version="1.0" encoding="UTF-8" standalone="no"?>
<!DOCTYPE svg PUBLIC "-//W3C//DTD SVG 1.1//EN"
 "http://www.w3.org/Graphics/SVG/1.1/DTD/svg11.dtd">
<!-- Generated by graphviz version 2.36.0 (20140111.2315)
 -->
<!-- Title: PosixSharedMemory Pages: 1 -->
<svg width="150pt" height="204pt"
 viewBox="0.00 0.00 150.00 204.00" xmlns="http://www.w3.org/2000/svg" xmlns:xlink="http://www.w3.org/1999/xlink">
<g id="graph0" class="graph" transform="scale(1 1) rotate(0) translate(4 200)">
<title>PosixSharedMemory</title>
<!-- Node1 -->
<g id="node1" class="node"><title>Node1</title>
<polygon fill="#bfbfbf" stroke="black" points="0,-1 0,-85 142,-85 142,-1 0,-1"/>
<text text-anchor="middle" x="71" y="-72.2" font-family="Avenir-Book" font-size="11.00">PosixSharedMemory</text>
<polyline fill="none" stroke="black" points="0,-65 142,-65 "/>
<text text-anchor="middle" x="71" y="-52.2" font-family="Avenir-Book" font-size="11.00"> </text>
<polyline fill="none" stroke="black" points="0,-45 142,-45 "/>
<text text-anchor="start" x="8" y="-32.2" font-family="Avenir-Book" font-size="11.00">+ PosixSharedMemory()</text>
<text text-anchor="start" x="8" y="-20.2" font-family="Avenir-Book" font-size="11.00">+ ~PosixSharedMemory()</text>
<text text-anchor="start" x="8" y="-8.2" font-family="Avenir-Book" font-size="11.00">+ rawPointer()</text>
</g>
<!-- Node2 -->
<g id="node2" class="node"><title>Node2</title>
<g id="a_node2"><a xlink:href="classgrading_1_1_shared_memory.html" target="_top" xlink:title="A representation of a shared memory object. ">
<polygon fill="none" stroke="black" points="13.5,-123 13.5,-195 128.5,-195 128.5,-123 13.5,-123"/>
<text text-anchor="middle" x="71" y="-182.2" font-family="Avenir-Book" font-size="11.00">SharedMemory</text>
<polyline fill="none" stroke="black" points="13.5,-175 128.5,-175 "/>
<text text-anchor="middle" x="71" y="-162.2" font-family="Avenir-Book" font-size="11.00"> </text>
<polyline fill="none" stroke="black" points="13.5,-155 128.5,-155 "/>
<text text-anchor="start" x="21.5" y="-142.2" font-family="Avenir-Book" font-size="11.00">+ ~SharedMemory()</text>
<text text-anchor="start" x="21.5" y="-130.2" font-family="Avenir-Book" font-size="11.00">+ rawPointer()</text>
</a>
</g>
</g>
<!-- Node2&#45;&gt;Node1 -->
<g id="edge1" class="edge"><title>Node2&#45;&gt;Node1</title>
<path fill="none" stroke="midnightblue" d="M71,-112.815C71,-103.707 71,-94.1789 71,-85.2158"/>
<polygon fill="none" stroke="midnightblue" points="67.5001,-112.866 71,-122.866 74.5001,-112.866 67.5001,-112.866"/>
</g>
</g>
</svg>
