<?xml version="1.0" encoding="UTF-8" standalone="no"?>
<!DOCTYPE svg PUBLIC "-//W3C//DTD SVG 1.1//EN"
 "http://www.w3.org/Graphics/SVG/1.1/DTD/svg11.dtd">
<!-- Generated by graphviz version 2.36.0 (20140111.2315)
 -->
<!-- Title: cancel Pages: 1 -->
<svg width="306pt" height="67pt"
 viewBox="0.00 0.00 306.00 67.00" xmlns="http://www.w3.org/2000/svg" xmlns:xlink="http://www.w3.org/1999/xlink">
<g id="graph0" class="graph" transform="scale(1 1) rotate(0) translate(4 63)">
<title>cancel</title>
<!-- Node1 -->
<g id="node1" class="node"><title>Node1</title>
<polygon fill="#bfbfbf" stroke="black" points="0,-19 0,-39 48,-39 48,-19 0,-19"/>
<text text-anchor="middle" x="24" y="-26.2" font-family="Avenir-Book" font-size="11.00">cancel</text>
</g>
<!-- Node2 -->
<g id="node2" class="node"><title>Node2</title>
<g id="a_node2"><a xlink:href="namespacegrading.html#a2a2d0f24b23462f9b5e5dc59623029de" target="_top" xlink:title="Combine the results of two checks using a product (AND): both must pass. ">
<polygon fill="none" stroke="black" points="84.5,-39 84.5,-59 199.5,-59 199.5,-39 84.5,-39"/>
<text text-anchor="middle" x="142" y="-46.2" font-family="Avenir-Book" font-size="11.00">grading::operator&amp;&amp;</text>
</a>
</g>
</g>
<!-- Node1&#45;&gt;Node2 -->
<g id="edge1" class="edge"><title>Node1&#45;&gt;Node2</title>
<path fill="none" stroke="midnightblue" d="M58.0668,-34.7012C66.2568,-36.1132 75.266,-37.6666 84.2358,-39.2131"/>
<polygon fill="midnightblue" stroke="midnightblue" points="58.6448,-31.2493 48.1955,-32.9992 57.4554,-38.1475 58.6448,-31.2493"/>
</g>
<!-- Node4 -->
<g id="node4" class="node"><title>Node4</title>
<g id="a_node4"><a xlink:href="namespacegrading.html#afab8c0737ae99cfa595261baac5387af" target="_top" xlink:title="Combine the results of two checks using a sum (OR): at least one must pass. ">
<polygon fill="none" stroke="black" points="89,-0 89,-20 195,-20 195,-0 89,-0"/>
<text text-anchor="middle" x="142" y="-7.2" font-family="Avenir-Book" font-size="11.00">grading::operator||</text>
</a>
</g>
</g>
<!-- Node1&#45;&gt;Node4 -->
<g id="edge3" class="edge"><title>Node1&#45;&gt;Node4</title>
<path fill="none" stroke="midnightblue" d="M58.3366,-23.5397C67.7843,-21.9922 78.305,-20.269 88.5891,-18.5845"/>
<polygon fill="midnightblue" stroke="midnightblue" points="57.4983,-20.1303 48.1955,-25.2007 58.6298,-27.0382 57.4983,-20.1303"/>
</g>
<!-- Node3 -->
<g id="node3" class="node"><title>Node3</title>
<g id="a_node3"><a xlink:href="classgrading_1_1_check_result.html#a5679ca29245899bbe1dc3ccd6afe7222" target="_top" xlink:title="A message to display if the check fails. ">
<polygon fill="none" stroke="black" points="236.5,-19 236.5,-39 297.5,-39 297.5,-19 236.5,-19"/>
<text text-anchor="middle" x="267" y="-26.2" font-family="Avenir-Book" font-size="11.00">message</text>
</a>
</g>
</g>
<!-- Node2&#45;&gt;Node3 -->
<g id="edge2" class="edge"><title>Node2&#45;&gt;Node3</title>
<path fill="none" stroke="midnightblue" d="M209.867,-38.1273C219.105,-36.6252 228.18,-35.1496 236.25,-33.8375"/>
<polygon fill="midnightblue" stroke="midnightblue" points="209.128,-34.7014 199.819,-39.7611 210.252,-41.6107 209.128,-34.7014"/>
</g>
<!-- Node4&#45;&gt;Node3 -->
<g id="edge4" class="edge"><title>Node4&#45;&gt;Node3</title>
<path fill="none" stroke="midnightblue" d="M205.086,-19.5905C215.925,-21.2648 226.74,-22.9354 236.183,-24.3942"/>
<polygon fill="midnightblue" stroke="midnightblue" points="205.58,-16.1254 195.163,-18.0577 204.512,-23.0434 205.58,-16.1254"/>
</g>
</g>
</svg>
