<?xml version="1.0" encoding="UTF-8" standalone="no"?>
<!DOCTYPE svg PUBLIC "-//W3C//DTD SVG 1.1//EN"
 "http://www.w3.org/Graphics/SVG/1.1/DTD/svg11.dtd">
<!-- Generated by graphviz version 2.40.1 (20161225.0304)
 -->
<!-- Title: src/Formatter.cpp Pages: 1 -->
<svg width="584pt" height="200pt"
 viewBox="0.00 0.00 583.50 200.00" xmlns="http://www.w3.org/2000/svg" xmlns:xlink="http://www.w3.org/1999/xlink">
<g id="graph0" class="graph" transform="scale(1 1) rotate(0) translate(4 196)">
<title>src/Formatter.cpp</title>
<!-- Node0 -->
<g id="node1" class="node">
<title>Node0</title>
<g id="a_node1"><a xlink:title="Definitions of grading::Formatter.">
<polygon fill="#bfbfbf" stroke="#000000" points="261.5,-171.5 261.5,-191.5 377.5,-191.5 377.5,-171.5 261.5,-171.5"/>
<text text-anchor="middle" x="319.5" y="-178.7" font-family="Avenir-Book" font-size="11.00" fill="#000000">src/Formatter.cpp</text>
</a>
</g>
</g>
<!-- Node1 -->
<g id="node2" class="node">
<title>Node1</title>
<g id="a_node2"><a xlink:href="private_8h.html" target="_top" xlink:title="Internal header file for libgrading.">
<polygon fill="none" stroke="#000000" points="223.5,-114.5 223.5,-134.5 291.5,-134.5 291.5,-114.5 223.5,-114.5"/>
<text text-anchor="middle" x="257.5" y="-121.7" font-family="Avenir-Book" font-size="11.00" fill="#000000">private.h</text>
</a>
</g>
</g>
<!-- Node0&#45;&gt;Node1 -->
<g id="edge1" class="edge">
<title>Node0&#45;&gt;Node1</title>
<path fill="none" stroke="#191970" d="M308.4156,-171.3095C299.4228,-163.0419 286.5522,-151.2093 276.0016,-141.5096"/>
<polygon fill="#191970" stroke="#191970" points="278.2189,-138.7937 268.4884,-134.6022 273.4813,-143.9469 278.2189,-138.7937"/>
</g>
<!-- Node2 -->
<g id="node3" class="node">
<title>Node2</title>
<g id="a_node3"><a xlink:href="libgrading_8h.html" target="_top" xlink:title="A library for grading C&#45; and C++&#45;based assignments.">
<polygon fill="none" stroke="#000000" points="245.5,-57.5 245.5,-77.5 331.5,-77.5 331.5,-57.5 245.5,-57.5"/>
<text text-anchor="middle" x="288.5" y="-64.7" font-family="Avenir-Book" font-size="11.00" fill="#000000">libgrading.h</text>
</a>
</g>
</g>
<!-- Node0&#45;&gt;Node2 -->
<g id="edge10" class="edge">
<title>Node0&#45;&gt;Node2</title>
<path fill="none" stroke="#191970" d="M316.749,-171.3833C311.6374,-152.586 300.5907,-111.9627 293.9266,-87.4559"/>
<polygon fill="#191970" stroke="#191970" points="297.2909,-86.4891 291.2894,-77.7579 290.5362,-88.326 297.2909,-86.4891"/>
</g>
<!-- Node10 -->
<g id="node11" class="node">
<title>Node10</title>
<g id="a_node11"><a xlink:title=" ">
<polygon fill="none" stroke="#bfbfbf" points="348,-114.5 348,-134.5 405,-134.5 405,-114.5 348,-114.5"/>
<text text-anchor="middle" x="376.5" y="-121.7" font-family="Avenir-Book" font-size="11.00" fill="#000000">cassert</text>
</a>
</g>
</g>
<!-- Node0&#45;&gt;Node10 -->
<g id="edge11" class="edge">
<title>Node0&#45;&gt;Node10</title>
<path fill="none" stroke="#191970" d="M329.6905,-171.3095C337.8771,-163.1229 349.559,-151.441 359.2045,-141.7955"/>
<polygon fill="#191970" stroke="#191970" points="361.8016,-144.1482 366.3978,-134.6022 356.8518,-139.1984 361.8016,-144.1482"/>
</g>
<!-- Node1&#45;&gt;Node2 -->
<g id="edge2" class="edge">
<title>Node1&#45;&gt;Node2</title>
<path fill="none" stroke="#191970" d="M263.0422,-114.3095C267.23,-106.6093 273.0997,-95.8166 278.1477,-86.5349"/>
<polygon fill="#191970" stroke="#191970" points="281.3027,-88.0593 283.0058,-77.6022 275.1533,-84.7149 281.3027,-88.0593"/>
</g>
<!-- Node3 -->
<g id="node4" class="node">
<title>Node3</title>
<g id="a_node4"><a xlink:title=" ">
<polygon fill="none" stroke="#bfbfbf" points="0,-.5 0,-20.5 73,-20.5 73,-.5 0,-.5"/>
<text text-anchor="middle" x="36.5" y="-7.7" font-family="Avenir-Book" font-size="11.00" fill="#000000">functional</text>
</a>
</g>
</g>
<!-- Node2&#45;&gt;Node3 -->
<g id="edge3" class="edge">
<title>Node2&#45;&gt;Node3</title>
<path fill="none" stroke="#191970" d="M245.4874,-57.8225C205.9247,-48.9141 145.3537,-35.2575 83.1507,-21.144"/>
<polygon fill="#191970" stroke="#191970" points="83.6832,-17.6759 73.1565,-18.8756 82.1337,-24.5023 83.6832,-17.6759"/>
</g>
<!-- Node4 -->
<g id="node5" class="node">
<title>Node4</title>
<g id="a_node5"><a xlink:title=" ">
<polygon fill="none" stroke="#bfbfbf" points="91.5,-.5 91.5,-20.5 157.5,-20.5 157.5,-.5 91.5,-.5"/>
<text text-anchor="middle" x="124.5" y="-7.7" font-family="Avenir-Book" font-size="11.00" fill="#000000">iostream</text>
</a>
</g>
</g>
<!-- Node2&#45;&gt;Node4 -->
<g id="edge4" class="edge">
<title>Node2&#45;&gt;Node4</title>
<path fill="none" stroke="#191970" d="M259.5576,-57.4408C232.7074,-48.1087 192.5564,-34.1537 163.0081,-23.8839"/>
<polygon fill="#191970" stroke="#191970" points="164.0232,-20.5314 153.4284,-20.5544 161.7251,-27.1434 164.0232,-20.5314"/>
</g>
<!-- Node5 -->
<g id="node6" class="node">
<title>Node5</title>
<g id="a_node6"><a xlink:title=" ">
<polygon fill="none" stroke="#bfbfbf" points="175.5,-.5 175.5,-20.5 239.5,-20.5 239.5,-.5 175.5,-.5"/>
<text text-anchor="middle" x="207.5" y="-7.7" font-family="Avenir-Book" font-size="11.00" fill="#000000">memory</text>
</a>
</g>
</g>
<!-- Node2&#45;&gt;Node5 -->
<g id="edge5" class="edge">
<title>Node2&#45;&gt;Node5</title>
<path fill="none" stroke="#191970" d="M274.0188,-57.3095C261.8093,-48.7177 244.1287,-36.2758 230.0643,-26.3786"/>
<polygon fill="#191970" stroke="#191970" points="232.0481,-23.4949 221.8558,-20.6022 228.0196,-29.2195 232.0481,-23.4949"/>
</g>
<!-- Node6 -->
<g id="node7" class="node">
<title>Node6</title>
<g id="a_node7"><a xlink:title=" ">
<polygon fill="none" stroke="#bfbfbf" points="257.5,-.5 257.5,-20.5 319.5,-20.5 319.5,-.5 257.5,-.5"/>
<text text-anchor="middle" x="288.5" y="-7.7" font-family="Avenir-Book" font-size="11.00" fill="#000000">sstream</text>
</a>
</g>
</g>
<!-- Node2&#45;&gt;Node6 -->
<g id="edge6" class="edge">
<title>Node2&#45;&gt;Node6</title>
<path fill="none" stroke="#191970" d="M288.5,-57.3095C288.5,-49.9335 288.5,-39.72 288.5,-30.715"/>
<polygon fill="#191970" stroke="#191970" points="292.0001,-30.6022 288.5,-20.6022 285.0001,-30.6023 292.0001,-30.6022"/>
</g>
<!-- Node7 -->
<g id="node8" class="node">
<title>Node7</title>
<g id="a_node8"><a xlink:title=" ">
<polygon fill="none" stroke="#bfbfbf" points="337.5,-.5 337.5,-20.5 387.5,-20.5 387.5,-.5 337.5,-.5"/>
<text text-anchor="middle" x="362.5" y="-7.7" font-family="Avenir-Book" font-size="11.00" fill="#000000">string</text>
</a>
</g>
</g>
<!-- Node2&#45;&gt;Node7 -->
<g id="edge7" class="edge">
<title>Node2&#45;&gt;Node7</title>
<path fill="none" stroke="#191970" d="M301.7297,-57.3095C312.6736,-48.8798 328.429,-36.7439 341.1549,-26.9415"/>
<polygon fill="#191970" stroke="#191970" points="343.5984,-29.4773 349.3848,-20.6022 339.3267,-23.9318 343.5984,-29.4773"/>
</g>
<!-- Node8 -->
<g id="node9" class="node">
<title>Node8</title>
<g id="a_node9"><a xlink:title=" ">
<polygon fill="none" stroke="#bfbfbf" points="406,-.5 406,-20.5 505,-20.5 505,-.5 406,-.5"/>
<text text-anchor="middle" x="455.5" y="-7.7" font-family="Avenir-Book" font-size="11.00" fill="#000000">unordered_set</text>
</a>
</g>
</g>
<!-- Node2&#45;&gt;Node8 -->
<g id="edge8" class="edge">
<title>Node2&#45;&gt;Node8</title>
<path fill="none" stroke="#191970" d="M317.9718,-57.4408C345.3132,-48.1087 386.1987,-34.1537 416.2875,-23.8839"/>
<polygon fill="#191970" stroke="#191970" points="417.7091,-27.097 426.0424,-20.5544 415.4479,-20.4723 417.7091,-27.097"/>
</g>
<!-- Node9 -->
<g id="node10" class="node">
<title>Node9</title>
<g id="a_node10"><a xlink:title=" ">
<polygon fill="none" stroke="#bfbfbf" points="523.5,-.5 523.5,-20.5 575.5,-20.5 575.5,-.5 523.5,-.5"/>
<text text-anchor="middle" x="549.5" y="-7.7" font-family="Avenir-Book" font-size="11.00" fill="#000000">vector</text>
</a>
</g>
</g>
<!-- Node2&#45;&gt;Node9 -->
<g id="edge9" class="edge">
<title>Node2&#45;&gt;Node9</title>
<path fill="none" stroke="#191970" d="M331.6626,-59.7962C375.1935,-51.7654 444.5045,-38.268 513.086,-21.2063"/>
<polygon fill="#191970" stroke="#191970" points="514.3519,-24.497 523.1961,-18.6633 512.6444,-17.7084 514.3519,-24.497"/>
</g>
</g>
</svg>
