<?xml version="1.0" encoding="UTF-8" standalone="no"?>
<!DOCTYPE svg PUBLIC "-//W3C//DTD SVG 1.1//EN"
 "http://www.w3.org/Graphics/SVG/1.1/DTD/svg11.dtd">
<!-- Generated by graphviz version 2.40.1 (20161225.0304)
 -->
<!-- Title: Graph Legend Pages: 1 -->
<svg width="540pt" height="179pt"
 viewBox="0.00 0.00 540.12 179.13" xmlns="http://www.w3.org/2000/svg" xmlns:xlink="http://www.w3.org/1999/xlink">
<g id="graph0" class="graph" transform="scale(1 1) rotate(0) translate(4 175.1299)">
<title>Graph Legend</title>
<!-- Node9 -->
<g id="node1" class="node">
<title>Node9</title>
<polygon fill="#bfbfbf" stroke="#000000" points="308.62,-23.039 248.554,-23.039 248.554,.013 308.62,.013 308.62,-23.039"/>
<text text-anchor="middle" x="278.587" y="-10.226" font-family="Avenir-Book" font-size="11.00" fill="#000000">Inherited</text>
</g>
<!-- Node10 -->
<g id="node2" class="node">
<title>Node10</title>
<g id="a_node2"><a xlink:href="$classPublicBase.html" xlink:title="PublicBase">
<polygon fill="none" stroke="#000000" points="69.2612,-97.0909 -.0872,-97.0909 -.0872,-74.0389 69.2612,-74.0389 69.2612,-97.0909"/>
<text text-anchor="middle" x="34.587" y="-84.2779" font-family="Avenir-Book" font-size="11.00" fill="#000000">PublicBase</text>
</a>
</g>
</g>
<!-- Node10&#45;&gt;Node9 -->
<g id="edge1" class="edge">
<title>Node10&#45;&gt;Node9</title>
<path fill="none" stroke="#191970" d="M78.9963,-72.0871C128.0443,-57.2014 205.6924,-33.6359 248.2371,-20.7239"/>
<polygon fill="#191970" stroke="#191970" points="77.8397,-68.7804 69.2871,-75.0337 79.8726,-75.4787 77.8397,-68.7804"/>
</g>
<!-- Node11 -->
<g id="node3" class="node">
<title>Node11</title>
<g id="a_node3"><a xlink:href="$classTruncated.html" xlink:title="Truncated">
<polygon fill="none" stroke="#ff0000" points="66.7738,-171.1429 2.4002,-171.1429 2.4002,-148.0909 66.7738,-148.0909 66.7738,-171.1429"/>
<text text-anchor="middle" x="34.587" y="-158.3299" font-family="Avenir-Book" font-size="11.00" fill="#000000">Truncated</text>
</a>
</g>
</g>
<!-- Node11&#45;&gt;Node10 -->
<g id="edge2" class="edge">
<title>Node11&#45;&gt;Node10</title>
<path fill="none" stroke="#191970" d="M34.587,-137.8431C34.587,-124.5828 34.587,-108.1598 34.587,-97.2987"/>
<polygon fill="#191970" stroke="#191970" points="31.0871,-138.0462 34.587,-148.0463 38.0871,-138.0463 31.0871,-138.0462"/>
</g>
<!-- Node13 -->
<g id="node4" class="node">
<title>Node13</title>
<g id="a_node4"><a xlink:href="$classProtectedBase.html" xlink:title="ProtectedBase">
<polygon fill="none" stroke="#000000" points="174.3785,-97.0909 86.7955,-97.0909 86.7955,-74.0389 174.3785,-74.0389 174.3785,-97.0909"/>
<text text-anchor="middle" x="130.587" y="-84.2779" font-family="Avenir-Book" font-size="11.00" fill="#000000">ProtectedBase</text>
</a>
</g>
</g>
<!-- Node13&#45;&gt;Node9 -->
<g id="edge3" class="edge">
<title>Node13&#45;&gt;Node9</title>
<path fill="none" stroke="#006400" d="M162.6638,-69.5153C190.509,-55.5829 230.1729,-35.737 255.136,-23.2467"/>
<polygon fill="#006400" stroke="#006400" points="161.0889,-66.3895 153.712,-73.9943 164.2212,-72.6497 161.0889,-66.3895"/>
</g>
<!-- Node14 -->
<g id="node5" class="node">
<title>Node14</title>
<g id="a_node5"><a xlink:href="$classPrivateBase.html" xlink:title="PrivateBase">
<polygon fill="none" stroke="#000000" points="264.9132,-97.0909 192.2608,-97.0909 192.2608,-74.0389 264.9132,-74.0389 264.9132,-97.0909"/>
<text text-anchor="middle" x="228.587" y="-84.2779" font-family="Avenir-Book" font-size="11.00" fill="#000000">PrivateBase</text>
</a>
</g>
</g>
<!-- Node14&#45;&gt;Node9 -->
<g id="edge4" class="edge">
<title>Node14&#45;&gt;Node9</title>
<path fill="none" stroke="#8b1a1a" d="M242.2249,-65.3666C251.3489,-51.8536 263.0376,-34.5423 270.6644,-23.2467"/>
<polygon fill="#8b1a1a" stroke="#8b1a1a" points="239.0947,-63.748 236.3995,-73.9943 244.8961,-67.6652 239.0947,-63.748"/>
</g>
<!-- Node15 -->
<g id="node6" class="node">
<title>Node15</title>
<polygon fill="none" stroke="#bfbfbf" points="376.0049,-97.0909 283.1691,-97.0909 283.1691,-74.0389 376.0049,-74.0389 376.0049,-97.0909"/>
<text text-anchor="middle" x="329.587" y="-84.2779" font-family="Avenir-Book" font-size="11.00" fill="#000000">Undocumented</text>
</g>
<!-- Node15&#45;&gt;Node9 -->
<g id="edge5" class="edge">
<title>Node15&#45;&gt;Node9</title>
<path fill="none" stroke="#191970" d="M315.944,-65.7553C306.5995,-52.1871 294.5222,-34.6509 286.6681,-23.2467"/>
<polygon fill="#191970" stroke="#191970" points="313.0636,-67.7437 321.6183,-73.9943 318.8287,-63.7733 313.0636,-67.7437"/>
</g>
<!-- Node16 -->
<g id="node7" class="node">
<title>Node16</title>
<g id="a_node7"><a xlink:href="$classTempl.html" xlink:title="Templ&lt; int &gt;">
<polygon fill="none" stroke="#000000" points="473.2051,-97.0909 393.9689,-97.0909 393.9689,-74.0389 473.2051,-74.0389 473.2051,-97.0909"/>
<text text-anchor="middle" x="433.587" y="-84.2779" font-family="Avenir-Book" font-size="11.00" fill="#000000">Templ&lt; int &gt;</text>
</a>
</g>
</g>
<!-- Node16&#45;&gt;Node9 -->
<g id="edge6" class="edge">
<title>Node16&#45;&gt;Node9</title>
<path fill="none" stroke="#191970" d="M400.3449,-69.6834C371.0707,-55.6975 329.1238,-35.6572 302.8909,-23.1243"/>
<polygon fill="#191970" stroke="#191970" points="398.8363,-72.8415 409.3683,-73.9943 401.8539,-66.5253 398.8363,-72.8415"/>
</g>
<!-- Node17 -->
<g id="node8" class="node">
<title>Node17</title>
<g id="a_node8"><a xlink:href="$classTempl.html" xlink:title="Templ&lt; T &gt;">
<polygon fill="none" stroke="#000000" points="470.111,-171.1429 397.063,-171.1429 397.063,-148.0909 470.111,-148.0909 470.111,-171.1429"/>
<text text-anchor="middle" x="433.587" y="-158.3299" font-family="Avenir-Book" font-size="11.00" fill="#000000">Templ&lt; T &gt;</text>
</a>
</g>
</g>
<!-- Node17&#45;&gt;Node16 -->
<g id="edge7" class="edge">
<title>Node17&#45;&gt;Node16</title>
<path fill="none" stroke="#ffa500" stroke-dasharray="5,2" d="M433.587,-137.8431C433.587,-124.5828 433.587,-108.1598 433.587,-97.2987"/>
<polygon fill="#ffa500" stroke="#ffa500" points="430.0871,-138.0462 433.587,-148.0463 437.0871,-138.0463 430.0871,-138.0462"/>
<text text-anchor="middle" x="450.175" y="-121.3039" font-family="Avenir-Book" font-size="11.00" fill="#000000">&lt; int &gt;</text>
</g>
<!-- Node18 -->
<g id="node9" class="node">
<title>Node18</title>
<g id="a_node9"><a xlink:href="$classUsed.html" xlink:title="Used">
<polygon fill="none" stroke="#000000" points="532.1561,-97.0909 491.0179,-97.0909 491.0179,-74.0389 532.1561,-74.0389 532.1561,-97.0909"/>
<text text-anchor="middle" x="511.587" y="-84.2779" font-family="Avenir-Book" font-size="11.00" fill="#000000">Used</text>
</a>
</g>
</g>
<!-- Node18&#45;&gt;Node9 -->
<g id="edge8" class="edge">
<title>Node18&#45;&gt;Node9</title>
<path fill="none" stroke="#9a32cd" stroke-dasharray="5,2" d="M481.0092,-73.6484C414.8594,-50.6627 347.0901,-30.8248 308.9055,-19.9808"/>
<polygon fill="#9a32cd" stroke="#9a32cd" points="480.1587,-77.059 490.7536,-77.0619 482.473,-70.4526 480.1587,-77.059"/>
<text text-anchor="middle" x="458.575" y="-47.2519" font-family="Avenir-Book" font-size="11.00" fill="#000000">m_usedClass</text>
</g>
</g>
</svg>
