<?xml version="1.0" encoding="UTF-8" standalone="no"?>
<!DOCTYPE svg PUBLIC "-//W3C//DTD SVG 1.1//EN"
 "http://www.w3.org/Graphics/SVG/1.1/DTD/svg11.dtd">
<!-- Generated by graphviz version 2.40.1 (20161225.0304)
 -->
<!-- Title: Graph Legend Pages: 1 -->
<svg width="599pt" height="164pt"
 viewBox="0.00 0.00 599.00 164.00" xmlns="http://www.w3.org/2000/svg" xmlns:xlink="http://www.w3.org/1999/xlink">
<g id="graph0" class="graph" transform="scale(1 1) rotate(0) translate(4 160)">
<title>Graph Legend</title>
<!-- Node9 -->
<g id="node1" class="node">
<title>Node9</title>
<polygon fill="#bfbfbf" stroke="#000000" points="343.5,-20 275.5,-20 275.5,0 343.5,0 343.5,-20"/>
<text text-anchor="middle" x="309.5" y="-7.2" font-family="Avenir-Book" font-size="11.00" fill="#000000">Inherited</text>
</g>
<!-- Node10 -->
<g id="node2" class="node">
<title>Node10</title>
<g id="a_node2"><a xlink:href="$classPublicBase.html" xlink:title="PublicBase">
<polygon fill="none" stroke="#000000" points="77,-88 0,-88 0,-68 77,-68 77,-88"/>
<text text-anchor="middle" x="38.5" y="-75.2" font-family="Avenir-Book" font-size="11.00" fill="#000000">PublicBase</text>
</a>
</g>
</g>
<!-- Node10&#45;&gt;Node9 -->
<g id="edge1" class="edge">
<title>Node10&#45;&gt;Node9</title>
<path fill="none" stroke="#191970" d="M86.7758,-65.8865C141.0286,-52.2733 227.7274,-30.5186 275.3744,-18.5629"/>
<polygon fill="#191970" stroke="#191970" points="85.8874,-62.5009 77.0399,-68.3295 87.5911,-69.2904 85.8874,-62.5009"/>
</g>
<!-- Node11 -->
<g id="node3" class="node">
<title>Node11</title>
<g id="a_node3"><a xlink:href="$classTruncated.html" xlink:title="Truncated">
<polygon fill="none" stroke="#ff0000" points="75,-156 2,-156 2,-136 75,-136 75,-156"/>
<text text-anchor="middle" x="38.5" y="-143.2" font-family="Avenir-Book" font-size="11.00" fill="#000000">Truncated</text>
</a>
</g>
</g>
<!-- Node11&#45;&gt;Node10 -->
<g id="edge2" class="edge">
<title>Node11&#45;&gt;Node10</title>
<path fill="none" stroke="#191970" d="M38.5,-125.6329C38.5,-113.2328 38.5,-97.9332 38.5,-88.0748"/>
<polygon fill="#191970" stroke="#191970" points="35.0001,-125.9663 38.5,-135.9664 42.0001,-125.9664 35.0001,-125.9663"/>
</g>
<!-- Node13 -->
<g id="node4" class="node">
<title>Node13</title>
<g id="a_node4"><a xlink:href="$classProtectedBase.html" xlink:title="ProtectedBase">
<polygon fill="none" stroke="#000000" points="193.5,-88 95.5,-88 95.5,-68 193.5,-68 193.5,-88"/>
<text text-anchor="middle" x="144.5" y="-75.2" font-family="Avenir-Book" font-size="11.00" fill="#000000">ProtectedBase</text>
</a>
</g>
</g>
<!-- Node13&#45;&gt;Node9 -->
<g id="edge3" class="edge">
<title>Node13&#45;&gt;Node9</title>
<path fill="none" stroke="#006400" d="M178.1782,-64.1205C209.9257,-51.0367 256.7389,-31.744 285.0538,-20.0748"/>
<polygon fill="#006400" stroke="#006400" points="176.7583,-60.92 168.8463,-67.9664 179.4256,-67.392 176.7583,-60.92"/>
</g>
<!-- Node14 -->
<g id="node5" class="node">
<title>Node14</title>
<g id="a_node5"><a xlink:href="$classPrivateBase.html" xlink:title="PrivateBase">
<polygon fill="none" stroke="#000000" points="295,-88 212,-88 212,-68 295,-68 295,-88"/>
<text text-anchor="middle" x="253.5" y="-75.2" font-family="Avenir-Book" font-size="11.00" fill="#000000">PrivateBase</text>
</a>
</g>
</g>
<!-- Node14&#45;&gt;Node9 -->
<g id="edge4" class="edge">
<title>Node14&#45;&gt;Node9</title>
<path fill="none" stroke="#8b1a1a" d="M268.1237,-60.2427C278.6619,-47.4463 292.5045,-30.6374 301.2031,-20.0748"/>
<polygon fill="#8b1a1a" stroke="#8b1a1a" points="265.4183,-58.0221 261.763,-67.9664 270.8219,-62.472 265.4183,-58.0221"/>
</g>
<!-- Node15 -->
<g id="node6" class="node">
<title>Node15</title>
<polygon fill="none" stroke="#bfbfbf" points="417.5,-88 313.5,-88 313.5,-68 417.5,-68 417.5,-88"/>
<text text-anchor="middle" x="365.5" y="-75.2" font-family="Avenir-Book" font-size="11.00" fill="#000000">Undocumented</text>
</g>
<!-- Node15&#45;&gt;Node9 -->
<g id="edge5" class="edge">
<title>Node15&#45;&gt;Node9</title>
<path fill="none" stroke="#191970" d="M350.8763,-60.2427C340.3381,-47.4463 326.4955,-30.6374 317.7969,-20.0748"/>
<polygon fill="#191970" stroke="#191970" points="348.1781,-62.472 357.237,-67.9664 353.5817,-58.0221 348.1781,-62.472"/>
</g>
<!-- Node16 -->
<g id="node7" class="node">
<title>Node16</title>
<g id="a_node7"><a xlink:href="$classTempl.html" xlink:title="Templ&lt; int &gt;">
<polygon fill="none" stroke="#000000" points="527.5,-88 435.5,-88 435.5,-68 527.5,-68 527.5,-88"/>
<text text-anchor="middle" x="481.5" y="-75.2" font-family="Avenir-Book" font-size="11.00" fill="#000000">Templ&lt; int &gt;</text>
</a>
</g>
</g>
<!-- Node16&#45;&gt;Node9 -->
<g id="edge6" class="edge">
<title>Node16&#45;&gt;Node9</title>
<path fill="none" stroke="#191970" d="M446.8201,-64.2894C413.7197,-51.2031 364.6267,-31.7943 334.9833,-20.0748"/>
<polygon fill="#191970" stroke="#191970" points="445.5344,-67.5446 456.1208,-67.9664 448.108,-61.0348 445.5344,-67.5446"/>
</g>
<!-- Node17 -->
<g id="node8" class="node">
<title>Node17</title>
<g id="a_node8"><a xlink:href="$classTempl.html" xlink:title="Templ&lt; T &gt;">
<polygon fill="none" stroke="#000000" points="523.5,-156 439.5,-156 439.5,-136 523.5,-136 523.5,-156"/>
<text text-anchor="middle" x="481.5" y="-143.2" font-family="Avenir-Book" font-size="11.00" fill="#000000">Templ&lt; T &gt;</text>
</a>
</g>
</g>
<!-- Node17&#45;&gt;Node16 -->
<g id="edge7" class="edge">
<title>Node17&#45;&gt;Node16</title>
<path fill="none" stroke="#ffa500" stroke-dasharray="5,2" d="M481.5,-125.6329C481.5,-113.2328 481.5,-97.9332 481.5,-88.0748"/>
<polygon fill="#ffa500" stroke="#ffa500" points="478.0001,-125.9663 481.5,-135.9664 485.0001,-125.9664 478.0001,-125.9663"/>
<text text-anchor="middle" x="503" y="-109.2" font-family="Avenir-Book" font-size="11.00" fill="#000000">&lt; int &gt;</text>
</g>
<!-- Node18 -->
<g id="node9" class="node">
<title>Node18</title>
<g id="a_node9"><a xlink:href="$classUsed.html" xlink:title="Used">
<polygon fill="none" stroke="#000000" points="591,-88 546,-88 546,-68 591,-68 591,-88"/>
<text text-anchor="middle" x="568.5" y="-75.2" font-family="Avenir-Book" font-size="11.00" fill="#000000">Used</text>
</a>
</g>
</g>
<!-- Node18&#45;&gt;Node9 -->
<g id="edge8" class="edge">
<title>Node18&#45;&gt;Node9</title>
<path fill="none" stroke="#9a32cd" stroke-dasharray="5,2" d="M535.8526,-67.9247C461.7876,-47.0489 386.559,-28.4789 343.8778,-18.1855"/>
<polygon fill="#9a32cd" stroke="#9a32cd" points="535.2431,-71.3897 545.8186,-70.7499 537.1523,-64.6551 535.2431,-71.3897"/>
<text text-anchor="middle" x="505" y="-41.2" font-family="Avenir-Book" font-size="11.00" fill="#000000">m_usedClass</text>
</g>
</g>
</svg>
