<?xml version="1.0" encoding="UTF-8" standalone="no"?>
<!DOCTYPE svg PUBLIC "-//W3C//DTD SVG 1.1//EN"
 "http://www.w3.org/Graphics/SVG/1.1/DTD/svg11.dtd">
<!-- Generated by graphviz version 2.38.0 (20140413.2041)
 -->
<!-- Title: Graph Legend Pages: 1 -->
<svg width="540pt" height="179pt"
 viewBox="0.00 0.00 540.12 179.13" xmlns="http://www.w3.org/2000/svg" xmlns:xlink="http://www.w3.org/1999/xlink">
<g id="graph0" class="graph" transform="scale(1 1) rotate(0) translate(4 175.13)">
<title>Graph Legend</title>
<!-- Node9 -->
<g id="node1" class="node"><title>Node9</title>
<polygon fill="#bfbfbf" stroke="black" points="308.62,-23.039 248.554,-23.039 248.554,0.0129999 308.62,0.0129999 308.62,-23.039"/>
<text text-anchor="middle" x="278.587" y="-10.226" font-family="Avenir-Book" font-size="11.00">Inherited</text>
</g>
<!-- Node10 -->
<g id="node2" class="node"><title>Node10</title>
<g id="a_node2"><a xlink:href="$classPublicBase.html" xlink:title="PublicBase">
<polygon fill="none" stroke="black" points="69.2612,-97.0909 -0.0872194,-97.0909 -0.0872194,-74.0389 69.2612,-74.0389 69.2612,-97.0909"/>
<text text-anchor="middle" x="34.587" y="-84.2779" font-family="Avenir-Book" font-size="11.00">PublicBase</text>
</a>
</g>
</g>
<!-- Node10&#45;&gt;Node9 -->
<g id="edge1" class="edge"><title>Node10&#45;&gt;Node9</title>
<path fill="none" stroke="midnightblue" d="M78.9963,-71.4511C128.044,-56.9675 205.692,-34.0384 248.237,-21.4752"/>
<polygon fill="midnightblue" stroke="midnightblue" points="77.8865,-68.1293 69.2871,-74.3182 79.869,-74.8427 77.8865,-68.1293"/>
</g>
<!-- Node11 -->
<g id="node3" class="node"><title>Node11</title>
<g id="a_node3"><a xlink:href="$classTruncated.html" xlink:title="Truncated">
<polygon fill="none" stroke="red" points="66.7738,-171.143 2.40024,-171.143 2.40024,-148.091 66.7738,-148.091 66.7738,-171.143"/>
<text text-anchor="middle" x="34.587" y="-158.33" font-family="Avenir-Book" font-size="11.00">Truncated</text>
</a>
</g>
</g>
<!-- Node11&#45;&gt;Node10 -->
<g id="edge2" class="edge"><title>Node11&#45;&gt;Node10</title>
<path fill="none" stroke="midnightblue" d="M34.587,-137.837C34.587,-124.561 34.587,-107.899 34.587,-97.2401"/>
<polygon fill="midnightblue" stroke="midnightblue" points="31.0871,-137.985 34.587,-147.985 38.0871,-137.985 31.0871,-137.985"/>
</g>
<!-- Node13 -->
<g id="node4" class="node"><title>Node13</title>
<g id="a_node4"><a xlink:href="$classProtectedBase.html" xlink:title="ProtectedBase">
<polygon fill="none" stroke="black" points="174.378,-97.0909 86.7955,-97.0909 86.7955,-74.0389 174.378,-74.0389 174.378,-97.0909"/>
<text text-anchor="middle" x="130.587" y="-84.2779" font-family="Avenir-Book" font-size="11.00">ProtectedBase</text>
</a>
</g>
</g>
<!-- Node13&#45;&gt;Node9 -->
<g id="edge3" class="edge"><title>Node13&#45;&gt;Node9</title>
<path fill="none" stroke="darkgreen" d="M161.535,-69.4984C189.995,-55.6431 231.481,-35.446 256.659,-23.1881"/>
<polygon fill="darkgreen" stroke="darkgreen" points="159.884,-66.4093 152.425,-73.9334 162.948,-72.703 159.884,-66.4093"/>
</g>
<!-- Node14 -->
<g id="node5" class="node"><title>Node14</title>
<g id="a_node5"><a xlink:href="$classPrivateBase.html" xlink:title="PrivateBase">
<polygon fill="none" stroke="black" points="264.913,-97.0909 192.261,-97.0909 192.261,-74.0389 264.913,-74.0389 264.913,-97.0909"/>
<text text-anchor="middle" x="228.587" y="-84.2779" font-family="Avenir-Book" font-size="11.00">PrivateBase</text>
</a>
</g>
</g>
<!-- Node14&#45;&gt;Node9 -->
<g id="edge4" class="edge"><title>Node14&#45;&gt;Node9</title>
<path fill="none" stroke="#8b1a1a" d="M241.913,-65.361C251.288,-51.8519 263.486,-34.2735 271.179,-23.1881"/>
<polygon fill="#8b1a1a" stroke="#8b1a1a" points="238.79,-63.7223 235.965,-73.9334 244.541,-67.7132 238.79,-63.7223"/>
</g>
<!-- Node15 -->
<g id="node6" class="node"><title>Node15</title>
<polygon fill="none" stroke="#bfbfbf" points="376.005,-97.0909 283.169,-97.0909 283.169,-74.0389 376.005,-74.0389 376.005,-97.0909"/>
<text text-anchor="middle" x="329.587" y="-84.2779" font-family="Avenir-Book" font-size="11.00">Undocumented</text>
</g>
<!-- Node15&#45;&gt;Node9 -->
<g id="edge5" class="edge"><title>Node15&#45;&gt;Node9</title>
<path fill="none" stroke="midnightblue" d="M316.269,-65.7495C306.672,-52.1906 294.065,-34.3801 286.143,-23.1881"/>
<polygon fill="midnightblue" stroke="midnightblue" points="313.428,-67.7933 322.062,-73.9334 319.141,-63.7491 313.428,-67.7933"/>
</g>
<!-- Node16 -->
<g id="node7" class="node"><title>Node16</title>
<g id="a_node7"><a xlink:href="$classTempl.html" xlink:title="Templ&lt; int &gt;">
<polygon fill="none" stroke="black" points="473.205,-97.0909 393.969,-97.0909 393.969,-74.0389 473.205,-74.0389 473.205,-97.0909"/>
<text text-anchor="middle" x="433.587" y="-84.2779" font-family="Avenir-Book" font-size="11.00">Templ&lt; int &gt;</text>
</a>
</g>
</g>
<!-- Node16&#45;&gt;Node9 -->
<g id="edge6" class="edge"><title>Node16&#45;&gt;Node9</title>
<path fill="none" stroke="midnightblue" d="M401.536,-69.6658C371.626,-55.7621 327.749,-35.366 301.299,-23.0707"/>
<polygon fill="midnightblue" stroke="midnightblue" points="400.173,-72.8919 410.716,-73.9334 403.123,-66.5442 400.173,-72.8919"/>
</g>
<!-- Node17 -->
<g id="node8" class="node"><title>Node17</title>
<g id="a_node8"><a xlink:href="$classTempl.html" xlink:title="Templ&lt; T &gt;">
<polygon fill="none" stroke="black" points="470.111,-171.143 397.063,-171.143 397.063,-148.091 470.111,-148.091 470.111,-171.143"/>
<text text-anchor="middle" x="433.587" y="-158.33" font-family="Avenir-Book" font-size="11.00">Templ&lt; T &gt;</text>
</a>
</g>
</g>
<!-- Node17&#45;&gt;Node16 -->
<g id="edge7" class="edge"><title>Node17&#45;&gt;Node16</title>
<path fill="none" stroke="orange" stroke-dasharray="5,2" d="M433.587,-137.837C433.587,-124.561 433.587,-107.899 433.587,-97.2401"/>
<polygon fill="orange" stroke="orange" points="430.087,-137.985 433.587,-147.985 437.087,-137.985 430.087,-137.985"/>
<text text-anchor="middle" x="450.175" y="-121.304" font-family="Avenir-Book" font-size="11.00">&lt; int &gt;</text>
</g>
<!-- Node18 -->
<g id="node9" class="node"><title>Node18</title>
<g id="a_node9"><a xlink:href="$classUsed.html" xlink:title="Used">
<polygon fill="none" stroke="black" points="532.156,-97.0909 491.018,-97.0909 491.018,-74.0389 532.156,-74.0389 532.156,-97.0909"/>
<text text-anchor="middle" x="511.587" y="-84.2779" font-family="Avenir-Book" font-size="11.00">Used</text>
</a>
</g>
</g>
<!-- Node18&#45;&gt;Node9 -->
<g id="edge8" class="edge"><title>Node18&#45;&gt;Node9</title>
<path fill="none" stroke="#9a32cd" stroke-dasharray="5,2" d="M481.221,-73.7056C414.591,-51.7556 346.918,-31.9783 308.821,-21.0717"/>
<polygon fill="#9a32cd" stroke="#9a32cd" points="480.447,-77.1362 491.04,-76.959 482.649,-70.4914 480.447,-77.1362"/>
<text text-anchor="middle" x="453.575" y="-47.2519" font-family="Avenir-Book" font-size="11.00">m_usedClass</text>
</g>
</g>
</svg>
