<?xml version="1.0" encoding="UTF-8" standalone="no"?>
<!DOCTYPE svg PUBLIC "-//W3C//DTD SVG 1.1//EN"
 "http://www.w3.org/Graphics/SVG/1.1/DTD/svg11.dtd">
<!-- Generated by graphviz version 2.36.0 (20140111.2315)
 -->
<!-- Title: include/libgrading.h Pages: 1 -->
<svg width="682pt" height="146pt"
 viewBox="0.00 0.00 682.00 146.00" xmlns="http://www.w3.org/2000/svg" xmlns:xlink="http://www.w3.org/1999/xlink">
<g id="graph0" class="graph" transform="scale(1 1) rotate(0) translate(4 142)">
<title>include/libgrading.h</title>
<!-- Node1 -->
<g id="node1" class="node"><title>Node1</title>
<polygon fill="#bfbfbf" stroke="black" points="245.5,-117 245.5,-137 356.5,-137 356.5,-117 245.5,-117"/>
<text text-anchor="middle" x="301" y="-124.2" font-family="Avenir-Book" font-size="11.00">include/libgrading.h</text>
</g>
<!-- Node2 -->
<g id="node2" class="node"><title>Node2</title>
<g id="a_node2"><a xlink:href="private_8h.html" target="_top" xlink:title="Internal header file for libgrading. ">
<polygon fill="none" stroke="black" points="159,-59 159,-79 235,-79 235,-59 159,-59"/>
<text text-anchor="middle" x="197" y="-66.2" font-family="Avenir-Book" font-size="11.00">src/private.h</text>
</a>
</g>
</g>
<!-- Node1&#45;&gt;Node2 -->
<g id="edge1" class="edge"><title>Node1&#45;&gt;Node2</title>
<path fill="none" stroke="midnightblue" d="M275.006,-112.003C255.867,-101.698 230.399,-87.9841 213.854,-79.0752"/>
<polygon fill="midnightblue" stroke="midnightblue" points="273.362,-115.093 283.827,-116.753 276.681,-108.93 273.362,-115.093"/>
</g>
<!-- Node4 -->
<g id="node4" class="node"><title>Node4</title>
<g id="a_node4"><a xlink:href="posix_8cpp.html" target="_top" xlink:title="src/posix.cpp">
<polygon fill="none" stroke="black" points="-0.5,-1 -0.5,-21 80.5,-21 80.5,-1 -0.5,-1"/>
<text text-anchor="middle" x="40" y="-8.2" font-family="Avenir-Book" font-size="11.00">src/posix.cpp</text>
</a>
</g>
</g>
<!-- Node1&#45;&gt;Node4 -->
<g id="edge7" class="edge"><title>Node1&#45;&gt;Node4</title>
<path fill="none" stroke="midnightblue" d="M251.669,-114.42C221.586,-106.522 182.754,-94.8118 150,-80 112.359,-62.9782 72.0007,-35.2963 52.2767,-21.0717"/>
<polygon fill="midnightblue" stroke="midnightblue" points="250.957,-117.851 261.514,-116.951 252.7,-111.071 250.957,-117.851"/>
</g>
<!-- Node5 -->
<g id="node5" class="node"><title>Node5</title>
<g id="a_node5"><a xlink:href="_test_8cpp.html" target="_top" xlink:title="Definitions of grading::Test. ">
<polygon fill="none" stroke="black" points="225,-1 225,-21 301,-21 301,-1 225,-1"/>
<text text-anchor="middle" x="263" y="-8.2" font-family="Avenir-Book" font-size="11.00">src/Test.cpp</text>
</a>
</g>
</g>
<!-- Node1&#45;&gt;Node5 -->
<g id="edge8" class="edge"><title>Node1&#45;&gt;Node5</title>
<path fill="none" stroke="midnightblue" d="M294.646,-106.939C286.37,-82.1105 272.231,-39.692 266.046,-21.1394"/>
<polygon fill="midnightblue" stroke="midnightblue" points="291.408,-108.291 297.89,-116.671 298.048,-106.077 291.408,-108.291"/>
</g>
<!-- Node6 -->
<g id="node6" class="node"><title>Node6</title>
<g id="a_node6"><a xlink:href="_test_suite_8cpp.html" target="_top" xlink:title="Definitions of grading::TestSuite. ">
<polygon fill="none" stroke="black" points="319.5,-1 319.5,-21 420.5,-21 420.5,-1 319.5,-1"/>
<text text-anchor="middle" x="370" y="-8.2" font-family="Avenir-Book" font-size="11.00">src/TestSuite.cpp</text>
</a>
</g>
</g>
<!-- Node1&#45;&gt;Node6 -->
<g id="edge11" class="edge"><title>Node1&#45;&gt;Node6</title>
<path fill="none" stroke="midnightblue" d="M303.917,-106.419C306.69,-92.1859 311.842,-72.8864 321,-58 330.293,-42.894 345.825,-29.5095 356.911,-21.1278"/>
<polygon fill="midnightblue" stroke="midnightblue" points="300.418,-106.119 302.173,-116.567 307.316,-107.305 300.418,-106.119"/>
</g>
<!-- Node7 -->
<g id="node7" class="node"><title>Node7</title>
<g id="a_node7"><a xlink:href="checks_8cpp.html" target="_top" xlink:title="Implementation of various expectation checks. ">
<polygon fill="none" stroke="black" points="329.5,-59 329.5,-79 418.5,-79 418.5,-59 329.5,-59"/>
<text text-anchor="middle" x="374" y="-66.2" font-family="Avenir-Book" font-size="11.00">src/checks.cpp</text>
</a>
</g>
</g>
<!-- Node1&#45;&gt;Node7 -->
<g id="edge6" class="edge"><title>Node1&#45;&gt;Node7</title>
<path fill="none" stroke="midnightblue" d="M321.104,-110.578C334.292,-100.461 351.084,-87.5791 362.17,-79.0752"/>
<polygon fill="midnightblue" stroke="midnightblue" points="318.858,-107.889 313.054,-116.753 323.119,-113.443 318.858,-107.889"/>
</g>
<!-- Node8 -->
<g id="node8" class="node"><title>Node8</title>
<g id="a_node8"><a xlink:href="_test_builder_8cpp.html" target="_top" xlink:title="Definitions of grading::TestBuilder. ">
<polygon fill="none" stroke="black" points="436.5,-59 436.5,-79 547.5,-79 547.5,-59 436.5,-59"/>
<text text-anchor="middle" x="492" y="-66.2" font-family="Avenir-Book" font-size="11.00">src/TestBuilder.cpp</text>
</a>
</g>
</g>
<!-- Node1&#45;&gt;Node8 -->
<g id="edge9" class="edge"><title>Node1&#45;&gt;Node8</title>
<path fill="none" stroke="midnightblue" d="M341.764,-114.048C377.538,-103.56 428.782,-88.5351 461.217,-79.0253"/>
<polygon fill="midnightblue" stroke="midnightblue" points="340.724,-110.706 332.113,-116.878 342.693,-117.423 340.724,-110.706"/>
</g>
<!-- Node9 -->
<g id="node9" class="node"><title>Node9</title>
<g id="a_node9"><a xlink:href="_test_result_8cpp.html" target="_top" xlink:title="Definitions of grading::TestResult functions. ">
<polygon fill="none" stroke="black" points="566,-59 566,-79 674,-79 674,-59 566,-59"/>
<text text-anchor="middle" x="620" y="-66.2" font-family="Avenir-Book" font-size="11.00">src/TestResult.cpp</text>
</a>
</g>
</g>
<!-- Node1&#45;&gt;Node9 -->
<g id="edge10" class="edge"><title>Node1&#45;&gt;Node9</title>
<path fill="none" stroke="midnightblue" d="M362.697,-115.169C422.643,-104.646 512.608,-88.8526 568.731,-79.0002"/>
<polygon fill="midnightblue" stroke="midnightblue" points="361.852,-111.764 352.607,-116.94 363.062,-118.659 361.852,-111.764"/>
</g>
<!-- Node3 -->
<g id="node3" class="node"><title>Node3</title>
<g id="a_node3"><a xlink:href="_arguments_8cpp.html" target="_top" xlink:title="Implementation of grading::Arguments. ">
<polygon fill="none" stroke="black" points="99,-1 99,-21 207,-21 207,-1 99,-1"/>
<text text-anchor="middle" x="153" y="-8.2" font-family="Avenir-Book" font-size="11.00">src/Arguments.cpp</text>
</a>
</g>
</g>
<!-- Node2&#45;&gt;Node3 -->
<g id="edge2" class="edge"><title>Node2&#45;&gt;Node3</title>
<path fill="none" stroke="midnightblue" d="M183.5,-50.8177C175.788,-41.0032 166.43,-29.0932 160.131,-21.0752"/>
<polygon fill="midnightblue" stroke="midnightblue" points="180.804,-53.0519 189.734,-58.7527 186.308,-48.7271 180.804,-53.0519"/>
</g>
<!-- Node2&#45;&gt;Node4 -->
<g id="edge3" class="edge"><title>Node2&#45;&gt;Node4</title>
<path fill="none" stroke="midnightblue" d="M161.974,-55.5065C132.651,-45.0475 91.5087,-30.3725 65.3031,-21.0253"/>
<polygon fill="midnightblue" stroke="midnightblue" points="160.831,-58.8149 171.426,-58.878 163.183,-52.2218 160.831,-58.8149"/>
</g>
<!-- Node2&#45;&gt;Node5 -->
<g id="edge4" class="edge"><title>Node2&#45;&gt;Node5</title>
<path fill="none" stroke="midnightblue" d="M215.861,-51.9967C227.676,-41.9719 242.473,-29.4171 252.304,-21.0752"/>
<polygon fill="midnightblue" stroke="midnightblue" points="213.259,-49.6141 207.899,-58.7527 217.788,-54.9517 213.259,-49.6141"/>
</g>
<!-- Node2&#45;&gt;Node6 -->
<g id="edge5" class="edge"><title>Node2&#45;&gt;Node6</title>
<path fill="none" stroke="midnightblue" d="M234.756,-55.7784C267.117,-45.3032 312.991,-30.4538 342.118,-21.0253"/>
<polygon fill="midnightblue" stroke="midnightblue" points="233.617,-52.4684 225.18,-58.878 235.772,-59.1282 233.617,-52.4684"/>
</g>
</g>
</svg>
