<?xml version="1.0" encoding="UTF-8" standalone="no"?>
<!DOCTYPE svg PUBLIC "-//W3C//DTD SVG 1.1//EN"
 "http://www.w3.org/Graphics/SVG/1.1/DTD/svg11.dtd">
<!-- Generated by graphviz version 2.38.0 (20140413.2041)
 -->
<!-- Title: include/libgrading.h Pages: 1 -->
<svg width="208pt" height="92pt"
 viewBox="0.00 0.00 207.77 92.05" xmlns="http://www.w3.org/2000/svg" xmlns:xlink="http://www.w3.org/1999/xlink">
<g id="graph0" class="graph" transform="scale(1 1) rotate(0) translate(4 88.0519)">
<title>include/libgrading.h</title>
<!-- Node1 -->
<g id="node1" class="node"><title>Node1</title>
<polygon fill="#bfbfbf" stroke="black" points="52.447,-60.526 52.447,-83.5519 167.623,-83.5519 167.623,-60.526 52.447,-60.526"/>
<text text-anchor="middle" x="110.035" y="-70.7519" font-family="Avenir-Book" font-size="11.00">include/libgrading.h</text>
</g>
<!-- Node2 -->
<g id="node2" class="node"><title>Node2</title>
<polygon fill="none" stroke="#bfbfbf" points="-7.10543e-15,-0.5 -7.10543e-15,-23.526 64.07,-23.526 64.07,-0.5 -7.10543e-15,-0.5"/>
<text text-anchor="middle" x="32.035" y="-10.726" font-family="Avenir-Book" font-size="11.00">functional</text>
</g>
<!-- Node1&#45;&gt;Node2 -->
<g id="edge1" class="edge"><title>Node1&#45;&gt;Node2</title>
<path fill="none" stroke="midnightblue" d="M95.7286,-60.3961C84.1838,-51.8076 67.7346,-39.5707 54.4446,-29.684"/>
<polygon fill="midnightblue" stroke="midnightblue" points="56.3631,-26.749 46.2507,-23.5884 52.185,-32.3653 56.3631,-26.749"/>
</g>
<!-- Node3 -->
<g id="node3" class="node"><title>Node3</title>
<polygon fill="none" stroke="#bfbfbf" points="81.8665,-0.5 81.8665,-23.526 138.203,-23.526 138.203,-0.5 81.8665,-0.5"/>
<text text-anchor="middle" x="110.035" y="-10.726" font-family="Avenir-Book" font-size="11.00">memory</text>
</g>
<!-- Node1&#45;&gt;Node3 -->
<g id="edge2" class="edge"><title>Node1&#45;&gt;Node3</title>
<path fill="none" stroke="midnightblue" d="M110.035,-60.3961C110.035,-52.9528 110.035,-42.769 110.035,-33.7498"/>
<polygon fill="midnightblue" stroke="midnightblue" points="113.535,-33.5883 110.035,-23.5884 106.535,-33.5884 113.535,-33.5883"/>
</g>
<!-- Node4 -->
<g id="node4" class="node"><title>Node4</title>
<polygon fill="none" stroke="#bfbfbf" points="156.302,-0.5 156.302,-23.526 199.768,-23.526 199.768,-0.5 156.302,-0.5"/>
<text text-anchor="middle" x="178.035" y="-10.726" font-family="Avenir-Book" font-size="11.00">string</text>
</g>
<!-- Node1&#45;&gt;Node4 -->
<g id="edge3" class="edge"><title>Node1&#45;&gt;Node4</title>
<path fill="none" stroke="midnightblue" d="M122.507,-60.3961C132.38,-51.9712 146.368,-40.0356 157.833,-30.2515"/>
<polygon fill="midnightblue" stroke="midnightblue" points="160.307,-32.742 165.642,-23.5884 155.763,-27.4171 160.307,-32.742"/>
</g>
</g>
</svg>
