<?xml version="1.0" encoding="UTF-8" standalone="no"?>
<!DOCTYPE svg PUBLIC "-//W3C//DTD SVG 1.1//EN"
 "http://www.w3.org/Graphics/SVG/1.1/DTD/svg11.dtd">
<!-- Generated by graphviz version 2.38.0 (20140413.2041)
 -->
<!-- Title: /Users/jon/Documents/Dev/libgrading/include/libgrading.h Pages: 1 -->
<svg width="376pt" height="137pt"
 viewBox="0.00 0.00 375.95 137.13" xmlns="http://www.w3.org/2000/svg" xmlns:xlink="http://www.w3.org/1999/xlink">
<g id="graph0" class="graph" transform="scale(1 1) rotate(0) translate(4 133.13)">
<title>/Users/jon/Documents/Dev/libgrading/include/libgrading.h</title>
<!-- Node1 -->
<g id="node1" class="node"><title>Node1</title>
<polygon fill="#bfbfbf" stroke="black" points="110.768,-75.5519 110.768,-128.63 244.478,-128.63 244.478,-75.5519 110.768,-75.5519"/>
<text text-anchor="start" x="118.768" y="-115.83" font-family="Avenir-Book" font-size="11.00">/Users/jon/Documents</text>
<text text-anchor="start" x="118.768" y="-100.804" font-family="Avenir-Book" font-size="11.00">/Dev/libgrading/include</text>
<text text-anchor="middle" x="177.623" y="-85.7779" font-family="Avenir-Book" font-size="11.00">/libgrading.h</text>
</g>
<!-- Node2 -->
<g id="node2" class="node"><title>Node2</title>
<g id="a_node2"><a xlink:href="posix_8cpp.html" target="_top" xlink:title="POSIX implementation of grading::MapSharedData and grading::RunTest. ">
<polygon fill="none" stroke="black" points="0,-0.5 0,-38.5519 163.246,-38.5519 163.246,-0.5 0,-0.5"/>
<text text-anchor="start" x="8" y="-25.7519" font-family="Avenir-Book" font-size="11.00">/Users/jon/Documents</text>
<text text-anchor="middle" x="81.623" y="-10.726" font-family="Avenir-Book" font-size="11.00">/Dev/libgrading/src/posix.cpp</text>
</a>
</g>
</g>
<!-- Node1&#45;&gt;Node2 -->
<g id="edge1" class="edge"><title>Node1&#45;&gt;Node2</title>
<path fill="none" stroke="midnightblue" d="M139.099,-68.7612C126.86,-58.4896 113.764,-47.4995 103.169,-38.6079"/>
<polygon fill="midnightblue" stroke="midnightblue" points="137.074,-71.6307 146.984,-75.3781 141.574,-66.2687 137.074,-71.6307"/>
</g>
<!-- Node3 -->
<g id="node3" class="node"><title>Node3</title>
<g id="a_node3"><a xlink:href="_test_result_8cpp.html" target="_top" xlink:title="Definitions of grading::TestResult functions. ">
<polygon fill="none" stroke="black" points="181.296,-0.5 181.296,-38.5519 367.95,-38.5519 367.95,-0.5 181.296,-0.5"/>
<text text-anchor="start" x="189.296" y="-25.7519" font-family="Avenir-Book" font-size="11.00">/Users/jon/Documents</text>
<text text-anchor="middle" x="274.623" y="-10.726" font-family="Avenir-Book" font-size="11.00">/Dev/libgrading/src/TestResult.cpp</text>
</a>
</g>
</g>
<!-- Node1&#45;&gt;Node3 -->
<g id="edge2" class="edge"><title>Node1&#45;&gt;Node3</title>
<path fill="none" stroke="midnightblue" d="M216.548,-68.7612C228.915,-58.4896 242.147,-47.4995 252.852,-38.6079"/>
<polygon fill="midnightblue" stroke="midnightblue" points="214.038,-66.2964 208.581,-75.3781 218.51,-71.6813 214.038,-66.2964"/>
</g>
</g>
</svg>
