<?xml version="1.0" encoding="UTF-8" standalone="no"?>
<!DOCTYPE svg PUBLIC "-//W3C//DTD SVG 1.1//EN"
 "http://www.w3.org/Graphics/SVG/1.1/DTD/svg11.dtd">
<!-- Generated by graphviz version 2.38.0 (20140413.2041)
 -->
<!-- Title: /Users/jon/Documents/Dev/libgrading/include/libgrading.h Pages: 1 -->
<svg width="208pt" height="122pt"
 viewBox="0.00 0.00 207.77 122.10" xmlns="http://www.w3.org/2000/svg" xmlns:xlink="http://www.w3.org/1999/xlink">
<g id="graph0" class="graph" transform="scale(1 1) rotate(0) translate(4 118.104)">
<title>/Users/jon/Documents/Dev/libgrading/include/libgrading.h</title>
<!-- Node1 -->
<g id="node1" class="node"><title>Node1</title>
<polygon fill="#bfbfbf" stroke="black" points="43.1795,-60.526 43.1795,-113.604 176.89,-113.604 176.89,-60.526 43.1795,-60.526"/>
<text text-anchor="start" x="51.1795" y="-100.804" font-family="Avenir-Book" font-size="11.00">/Users/jon/Documents</text>
<text text-anchor="start" x="51.1795" y="-85.7779" font-family="Avenir-Book" font-size="11.00">/Dev/libgrading/include</text>
<text text-anchor="middle" x="110.035" y="-70.7519" font-family="Avenir-Book" font-size="11.00">/libgrading.h</text>
</g>
<!-- Node2 -->
<g id="node2" class="node"><title>Node2</title>
<polygon fill="none" stroke="#bfbfbf" points="-7.10543e-15,-0.5 -7.10543e-15,-23.526 64.07,-23.526 64.07,-0.5 -7.10543e-15,-0.5"/>
<text text-anchor="middle" x="32.035" y="-10.726" font-family="Avenir-Book" font-size="11.00">functional</text>
</g>
<!-- Node1&#45;&gt;Node2 -->
<g id="edge1" class="edge"><title>Node1&#45;&gt;Node2</title>
<path fill="none" stroke="midnightblue" d="M82.7544,-60.5149C72.1834,-50.6145 60.346,-39.528 50.7674,-30.557"/>
<polygon fill="midnightblue" stroke="midnightblue" points="53.0213,-27.8727 43.33,-23.5915 48.2363,-32.9818 53.0213,-27.8727"/>
</g>
<!-- Node3 -->
<g id="node3" class="node"><title>Node3</title>
<polygon fill="none" stroke="#bfbfbf" points="81.8665,-0.5 81.8665,-23.526 138.203,-23.526 138.203,-0.5 81.8665,-0.5"/>
<text text-anchor="middle" x="110.035" y="-10.726" font-family="Avenir-Book" font-size="11.00">memory</text>
</g>
<!-- Node1&#45;&gt;Node3 -->
<g id="edge2" class="edge"><title>Node1&#45;&gt;Node3</title>
<path fill="none" stroke="midnightblue" d="M110.035,-60.5149C110.035,-51.8025 110.035,-42.1717 110.035,-33.8723"/>
<polygon fill="midnightblue" stroke="midnightblue" points="113.535,-33.5914 110.035,-23.5915 106.535,-33.5915 113.535,-33.5914"/>
</g>
<!-- Node4 -->
<g id="node4" class="node"><title>Node4</title>
<polygon fill="none" stroke="#bfbfbf" points="156.302,-0.5 156.302,-23.526 199.768,-23.526 199.768,-0.5 156.302,-0.5"/>
<text text-anchor="middle" x="178.035" y="-10.726" font-family="Avenir-Book" font-size="11.00">string</text>
</g>
<!-- Node1&#45;&gt;Node4 -->
<g id="edge3" class="edge"><title>Node1&#45;&gt;Node4</title>
<path fill="none" stroke="midnightblue" d="M133.818,-60.5149C142.85,-50.8125 152.941,-39.971 161.201,-31.0978"/>
<polygon fill="midnightblue" stroke="midnightblue" points="163.937,-33.2958 168.188,-23.5915 158.813,-28.5264 163.937,-33.2958"/>
</g>
</g>
</svg>
