<?xml version="1.0" encoding="UTF-8" standalone="no"?>
<!DOCTYPE svg PUBLIC "-//W3C//DTD SVG 1.1//EN"
 "http://www.w3.org/Graphics/SVG/1.1/DTD/svg11.dtd">
<!-- Generated by graphviz version 2.40.1 (20161225.0304)
 -->
<!-- Title: include/libgrading.h Pages: 1 -->
<!--zoomable 152 -->
<svg id="main" version="1.1" xmlns="http://www.w3.org/2000/svg" xmlns:xlink="http://www.w3.org/1999/xlink" xml:space="preserve" onload="init(evt)">
<style type="text/css"><![CDATA[
.edge:hover path { stroke: red; }
.edge:hover polygon { stroke: red; fill: red; }
]]></style>
<script type="text/javascript"><![CDATA[
var edges = document.getElementsByTagName('g');
if (edges && edges.length) {
  for (var i=0;i<edges.length;i++) {
    if (edges[i].id.substr(0,4)=='edge') {
      edges[i].setAttribute('class','edge');
    }
  }
}
]]></script>
        <defs>
                <circle id="rim" cx="0" cy="0" r="7"/>
                <circle id="rim2" cx="0" cy="0" r="3.5"/>
                <g id="zoomPlus">
                        <use xlink:href="#rim" fill="#404040">
                                <set attributeName="fill" to="#808080" begin="zoomplus.mouseover" end="zoomplus.mouseout"/>
                        </use>
                        <path d="M-4,0h8M0,-4v8" fill="none" stroke="white" stroke-width="1.5" pointer-events="none"/>
                </g>
                <g id="zoomMin">
                        <use xlink:href="#rim" fill="#404040">
                                <set attributeName="fill" to="#808080" begin="zoomminus.mouseover" end="zoomminus.mouseout"/>
                        </use>
                        <path d="M-4,0h8" fill="none" stroke="white" stroke-width="1.5" pointer-events="none"/>
                </g>
                <g id="dirArrow">
                        <path fill="none" stroke="white" stroke-width="1.5" d="M0,-3.0v7 M-2.5,-0.5L0,-3.0L2.5,-0.5"/>
                </g>
               <g id="resetDef">
                       <use xlink:href="#rim2" fill="#404040">
                               <set attributeName="fill" to="#808080" begin="reset.mouseover" end="reset.mouseout"/>
                       </use>
               </g>
        </defs>

<script type="text/javascript">
var viewWidth = 770;
var viewHeight = 152;
var sectionId = 'dynsection-1';
</script>
<script xlink:href="svgpan.js"/>
<svg id="graph" class="graph">
<g id="viewport">
<title>include/libgrading.h</title>
<!-- Node8 -->
<g id="node1" class="node">
<title>Node8</title>
<g id="a_node1"><a xlink:title="A library for grading C&#45; and C++&#45;based assignments.">
<polygon fill="#bfbfbf" stroke="#000000" points="301.884,-120.5519 301.884,-143.5779 417.06,-143.5779 417.06,-120.5519 301.884,-120.5519"/>
<text text-anchor="middle" x="359.472" y="-130.7779" font-family="Avenir-Book" font-size="11.00" fill="#000000">include/libgrading.h</text>
</a>
</g>
</g>
<!-- Node9 -->
<g id="node2" class="node">
<title>Node9</title>
<g id="a_node2"><a xlink:href="private_8h.html" target="_top" xlink:title="Internal header file for libgrading.">
<polygon fill="none" stroke="#000000" points="236.233,-60.526 236.233,-83.5519 312.711,-83.5519 312.711,-60.526 236.233,-60.526"/>
<text text-anchor="middle" x="274.472" y="-70.7519" font-family="Avenir-Book" font-size="11.00" fill="#000000">src/private.h</text>
</a>
</g>
</g>
<!-- Node8&#45;&gt;Node9 -->
<g id="edge1" class="edge">
<title>Node8&#45;&gt;Node9</title>
<path fill="none" stroke="#191970" d="M334.7625,-114.6154C320.6166,-104.6257 303.2619,-92.3701 290.8105,-83.577"/>
<polygon fill="#191970" stroke="#191970" points="332.8956,-117.5818 343.0831,-120.4913 336.9336,-111.8638 332.8956,-117.5818"/>
</g>
<!-- Node11 -->
<g id="node4" class="node">
<title>Node11</title>
<g id="a_node4"><a xlink:href="_formatter_8cpp.html" target="_top" xlink:title="Definitions of grading::Formatter.">
<polygon fill="none" stroke="#000000" points="0,-.5 0,-23.526 102.944,-23.526 102.944,-.5 0,-.5"/>
<text text-anchor="middle" x="51.472" y="-10.726" font-family="Avenir-Book" font-size="11.00" fill="#000000">src/Formatter.cpp</text>
</a>
</g>
</g>
<!-- Node8&#45;&gt;Node11 -->
<g id="edge8" class="edge">
<title>Node8&#45;&gt;Node11</title>
<path fill="none" stroke="#191970" d="M302.7673,-117.8053C271.3078,-109.2632 231.7314,-97.4681 197.472,-84.0519 151.4142,-66.0155 100.1002,-38.9744 72.239,-23.6682"/>
<polygon fill="#191970" stroke="#191970" points="302.1139,-121.2536 312.6792,-120.4623 303.9264,-114.4923 302.1139,-121.2536"/>
</g>
<!-- Node12 -->
<g id="node5" class="node">
<title>Node12</title>
<g id="a_node5"><a xlink:href="posix_8cpp.html" target="_top" xlink:title=" ">
<polygon fill="none" stroke="#000000" points="120.879,-.5 120.879,-23.526 202.065,-23.526 202.065,-.5 120.879,-.5"/>
<text text-anchor="middle" x="161.472" y="-10.726" font-family="Avenir-Book" font-size="11.00" fill="#000000">src/posix.cpp</text>
</a>
</g>
</g>
<!-- Node8&#45;&gt;Node12 -->
<g id="edge9" class="edge">
<title>Node8&#45;&gt;Node12</title>
<path fill="none" stroke="#191970" d="M301.3158,-117.5396C277.2159,-109.8862 249.7486,-98.9348 227.472,-84.0519 202.5079,-67.3736 180.5136,-39.3206 169.3164,-23.5949"/>
<polygon fill="#191970" stroke="#191970" points="300.4767,-120.9429 311.063,-120.5169 302.5217,-114.2483 300.4767,-120.9429"/>
</g>
<!-- Node13 -->
<g id="node6" class="node">
<title>Node13</title>
<g id="a_node6"><a xlink:href="_test_8cpp.html" target="_top" xlink:title="Definitions of grading::Test.">
<polygon fill="none" stroke="#000000" points="347.0415,-.5 347.0415,-23.526 421.9025,-23.526 421.9025,-.5 347.0415,-.5"/>
<text text-anchor="middle" x="384.472" y="-10.726" font-family="Avenir-Book" font-size="11.00" fill="#000000">src/Test.cpp</text>
</a>
</g>
</g>
<!-- Node8&#45;&gt;Node13 -->
<g id="edge10" class="edge">
<title>Node8&#45;&gt;Node13</title>
<path fill="none" stroke="#191970" d="M359.1595,-110.014C359.4042,-95.61 360.5827,-76.4887 364.472,-60.026 367.5032,-47.1956 373.582,-33.3833 378.2464,-23.8823"/>
<polygon fill="#191970" stroke="#191970" points="355.6584,-110.4033 359.1294,-120.4134 362.6584,-110.4236 355.6584,-110.4033"/>
</g>
<!-- Node14 -->
<g id="node7" class="node">
<title>Node14</title>
<g id="a_node7"><a xlink:href="_test_suite_8cpp.html" target="_top" xlink:title="Definitions of grading::TestSuite.">
<polygon fill="none" stroke="#000000" points="439.7215,-.5 439.7215,-23.526 539.2225,-23.526 539.2225,-.5 439.7215,-.5"/>
<text text-anchor="middle" x="489.472" y="-10.726" font-family="Avenir-Book" font-size="11.00" fill="#000000">src/TestSuite.cpp</text>
</a>
</g>
</g>
<!-- Node8&#45;&gt;Node14 -->
<g id="edge13" class="edge">
<title>Node8&#45;&gt;Node14</title>
<path fill="none" stroke="#191970" d="M366.7717,-110.687C372.9648,-95.0987 383.1426,-74.2924 397.472,-60.026 413.9422,-43.6281 437.1743,-31.5647 456.1714,-23.6312"/>
<polygon fill="#191970" stroke="#191970" points="363.3271,-109.908 363.1186,-120.5008 369.8873,-112.35 363.3271,-109.908"/>
</g>
<!-- Node15 -->
<g id="node8" class="node">
<title>Node15</title>
<g id="a_node8"><a xlink:href="checks_8cpp.html" target="_top" xlink:title="Implementation of various expectation checks.">
<polygon fill="none" stroke="#000000" points="406.403,-60.526 406.403,-83.5519 494.541,-83.5519 494.541,-60.526 406.403,-60.526"/>
<text text-anchor="middle" x="450.472" y="-70.7519" font-family="Avenir-Book" font-size="11.00" fill="#000000">src/checks.cpp</text>
</a>
</g>
</g>
<!-- Node8&#45;&gt;Node15 -->
<g id="edge7" class="edge">
<title>Node8&#45;&gt;Node15</title>
<path fill="none" stroke="#191970" d="M385.498,-114.8975C400.7192,-104.8572 419.5241,-92.453 432.9801,-83.577"/>
<polygon fill="#191970" stroke="#191970" points="383.4381,-112.0634 377.0177,-120.4913 387.2925,-117.9067 383.4381,-112.0634"/>
</g>
<!-- Node16 -->
<g id="node9" class="node">
<title>Node16</title>
<g id="a_node9"><a xlink:href="_test_builder_8cpp.html" target="_top" xlink:title="Definitions of grading::TestBuilder.">
<polygon fill="none" stroke="#000000" points="512.14,-60.526 512.14,-83.5519 620.804,-83.5519 620.804,-60.526 512.14,-60.526"/>
<text text-anchor="middle" x="566.472" y="-70.7519" font-family="Avenir-Book" font-size="11.00" fill="#000000">src/TestBuilder.cpp</text>
</a>
</g>
</g>
<!-- Node8&#45;&gt;Node16 -->
<g id="edge11" class="edge">
<title>Node8&#45;&gt;Node16</title>
<path fill="none" stroke="#191970" d="M409.1966,-117.6458C445.1961,-107.2066 493.2133,-93.2825 526.6828,-83.577"/>
<polygon fill="#191970" stroke="#191970" points="408.0132,-114.3447 399.3837,-120.4913 409.9628,-121.0677 408.0132,-114.3447"/>
</g>
<!-- Node17 -->
<g id="node10" class="node">
<title>Node17</title>
<g id="a_node10"><a xlink:href="_test_exit_status_8cpp.html" target="_top" xlink:title="Definitions of grading::TestExitStatus functions.">
<polygon fill="none" stroke="#000000" points="639.0175,-60.526 639.0175,-83.5519 761.9265,-83.5519 761.9265,-60.526 639.0175,-60.526"/>
<text text-anchor="middle" x="700.472" y="-70.7519" font-family="Avenir-Book" font-size="11.00" fill="#000000">src/TestExitStatus.cpp</text>
</a>
</g>
</g>
<!-- Node8&#45;&gt;Node17 -->
<g id="edge12" class="edge">
<title>Node8&#45;&gt;Node17</title>
<path fill="none" stroke="#191970" d="M427.3436,-120.1175C489.0231,-109.2601 579.2399,-93.3794 638.8799,-82.881"/>
<polygon fill="#191970" stroke="#191970" points="426.5598,-116.7016 417.318,-121.8823 427.7734,-123.5956 426.5598,-116.7016"/>
</g>
<!-- Node10 -->
<g id="node3" class="node">
<title>Node10</title>
<g id="a_node3"><a xlink:href="_arguments_8cpp.html" target="_top" xlink:title="Implementation of grading::Arguments.">
<polygon fill="none" stroke="#000000" points="219.9255,-.5 219.9255,-23.526 329.0185,-23.526 329.0185,-.5 219.9255,-.5"/>
<text text-anchor="middle" x="274.472" y="-10.726" font-family="Avenir-Book" font-size="11.00" fill="#000000">src/Arguments.cpp</text>
</a>
</g>
</g>
<!-- Node9&#45;&gt;Node10 -->
<g id="edge2" class="edge">
<title>Node9&#45;&gt;Node10</title>
<path fill="none" stroke="#191970" d="M274.472,-50.2286C274.472,-41.2005 274.472,-31.0998 274.472,-23.5511"/>
<polygon fill="#191970" stroke="#191970" points="270.9721,-50.4653 274.472,-60.4653 277.9721,-50.4654 270.9721,-50.4653"/>
</g>
<!-- Node9&#45;&gt;Node11 -->
<g id="edge3" class="edge">
<title>Node9&#45;&gt;Node11</title>
<path fill="none" stroke="#191970" d="M226.2538,-59.0598C186.9609,-48.4832 131.9933,-33.6873 94.2491,-23.5275"/>
<polygon fill="#191970" stroke="#191970" points="225.5709,-62.5005 236.1369,-61.7201 227.3904,-55.7411 225.5709,-62.5005"/>
</g>
<!-- Node9&#45;&gt;Node12 -->
<g id="edge4" class="edge">
<title>Node9&#45;&gt;Node12</title>
<path fill="none" stroke="#191970" d="M243.733,-55.7103C224.5676,-45.5296 200.3703,-32.6759 183.1926,-23.5511"/>
<polygon fill="#191970" stroke="#191970" points="242.2112,-58.865 252.6845,-60.4653 245.4951,-52.6831 242.2112,-58.865"/>
</g>
<!-- Node9&#45;&gt;Node13 -->
<g id="edge5" class="edge">
<title>Node9&#45;&gt;Node13</title>
<path fill="none" stroke="#191970" d="M304.6496,-55.5713C323.2655,-45.4128 346.6824,-32.6344 363.328,-23.5511"/>
<polygon fill="#191970" stroke="#191970" points="302.7826,-52.6028 295.6811,-60.4653 306.1358,-58.7475 302.7826,-52.6028"/>
</g>
<!-- Node9&#45;&gt;Node14 -->
<g id="edge6" class="edge">
<title>Node9&#45;&gt;Node14</title>
<path fill="none" stroke="#191970" d="M322.6554,-58.5866C360.3547,-48.0613 412.2225,-33.5803 448.0676,-23.5727"/>
<polygon fill="#191970" stroke="#191970" points="321.6002,-55.2473 312.9097,-61.3075 323.4826,-61.9895 321.6002,-55.2473"/>
</g>
</g>
</svg>
        <g id="navigator" transform="translate(0 0)" fill="#404254">
                <rect fill="#f2f5e9" fill-opacity="0.5" stroke="#606060" stroke-width=".5" x="0" y="0" width="60" height="60"/>
                <use id="zoomplus" xlink:href="#zoomPlus" x="17" y="9" onmousedown="handleZoom(evt,'in')"/>
                <use id="zoomminus" xlink:href="#zoomMin" x="42" y="9" onmousedown="handleZoom(evt,'out')"/>
                <use id="reset" xlink:href="#resetDef" x="30" y="36" onmousedown="handleReset()"/>
                <g id="arrowUp" xlink:href="#dirArrow" transform="translate(30 24)" onmousedown="handlePan(0,-1)">
                  <use xlink:href="#rim" fill="#404040">
                        <set attributeName="fill" to="#808080" begin="arrowUp.mouseover" end="arrowUp.mouseout"/>
                  </use>
                  <path fill="none" stroke="white" stroke-width="1.5" d="M0,-3.0v7 M-2.5,-0.5L0,-3.0L2.5,-0.5"/>
                </g>
                <g id="arrowRight" xlink:href="#dirArrow" transform="rotate(90) translate(36 -43)" onmousedown="handlePan(1,0)">
                  <use xlink:href="#rim" fill="#404040">
                        <set attributeName="fill" to="#808080" begin="arrowRight.mouseover" end="arrowRight.mouseout"/>
                  </use>
                  <path fill="none" stroke="white" stroke-width="1.5" d="M0,-3.0v7 M-2.5,-0.5L0,-3.0L2.5,-0.5"/>
                </g>
                <g id="arrowDown" xlink:href="#dirArrow" transform="rotate(180) translate(-30 -48)" onmousedown="handlePan(0,1)">
                  <use xlink:href="#rim" fill="#404040">
                        <set attributeName="fill" to="#808080" begin="arrowDown.mouseover" end="arrowDown.mouseout"/>
                  </use>
                  <path fill="none" stroke="white" stroke-width="1.5" d="M0,-3.0v7 M-2.5,-0.5L0,-3.0L2.5,-0.5"/>
                </g>
                <g id="arrowLeft" xlink:href="#dirArrow" transform="rotate(270) translate(-36 17)" onmousedown="handlePan(-1,0)">
                  <use xlink:href="#rim" fill="#404040">
                        <set attributeName="fill" to="#808080" begin="arrowLeft.mouseover" end="arrowLeft.mouseout"/>
                  </use>
                  <path fill="none" stroke="white" stroke-width="1.5" d="M0,-3.0v7 M-2.5,-0.5L0,-3.0L2.5,-0.5"/>
                </g>
        </g>
        <svg viewBox="0 0 15 15" width="100%" height="30px" preserveAspectRatio="xMaxYMin meet">
         <g id="arrow_out" transform="scale(0.3 0.3)">
          <a xlink:href="libgrading_8h__dep__incl_org.svg" target="_base">
           <rect id="button" ry="5" rx="5" y="6" x="6" height="38" width="38"
                fill="#f2f5e9" fill-opacity="0.5" stroke="#606060" stroke-width="1.0"/>
           <path id="arrow"
             d="M 11.500037,31.436501 C 11.940474,20.09759 22.043105,11.32322 32.158766,21.979434 L 37.068811,17.246167 C 37.068811,17.246167 37.088388,32 37.088388,32 L 22.160133,31.978069 C 22.160133,31.978069 26.997745,27.140456 26.997745,27.140456 C 18.528582,18.264221 13.291696,25.230495 11.500037,31.436501 z"
             style="fill:#404040;"/>
          </a>
         </g>
        </svg>
</svg>
