<?xml version="1.0" encoding="UTF-8" standalone="no"?>
<!DOCTYPE svg PUBLIC "-//W3C//DTD SVG 1.1//EN"
 "http://www.w3.org/Graphics/SVG/1.1/DTD/svg11.dtd">
<!-- Generated by graphviz version 2.38.0 (20140413.2041)
 -->
<!-- Title: include/libgrading.h Pages: 1 -->
<svg width="318pt" height="92pt"
 viewBox="0.00 0.00 318.37 92.05" xmlns="http://www.w3.org/2000/svg" xmlns:xlink="http://www.w3.org/1999/xlink">
<g id="graph0" class="graph" transform="scale(1 1) rotate(0) translate(4 88.0519)">
<title>include/libgrading.h</title>
<!-- Node1 -->
<g id="node1" class="node"><title>Node1</title>
<polygon fill="#bfbfbf" stroke="black" points="89.481,-60.526 89.481,-83.5519 204.657,-83.5519 204.657,-60.526 89.481,-60.526"/>
<text text-anchor="middle" x="147.069" y="-70.7519" font-family="Avenir-Book" font-size="11.00">include/libgrading.h</text>
</g>
<!-- Node2 -->
<g id="node2" class="node"><title>Node2</title>
<g id="a_node2"><a xlink:href="checks_8cpp.html" target="_top" xlink:title="Implementation of various expectation checks. ">
<polygon fill="none" stroke="black" points="1.42109e-14,-0.5 1.42109e-14,-23.526 88.138,-23.526 88.138,-0.5 1.42109e-14,-0.5"/>
<text text-anchor="middle" x="44.069" y="-10.726" font-family="Avenir-Book" font-size="11.00">src/checks.cpp</text>
</a>
</g>
</g>
<!-- Node1&#45;&gt;Node2 -->
<g id="edge1" class="edge"><title>Node1&#45;&gt;Node2</title>
<path fill="none" stroke="midnightblue" d="M119.328,-55.4109C101.431,-45.3285 78.6316,-32.4841 62.841,-23.5884"/>
<polygon fill="midnightblue" stroke="midnightblue" points="117.747,-58.5372 128.177,-60.3961 121.183,-52.4384 117.747,-58.5372"/>
</g>
<!-- Node3 -->
<g id="node3" class="node"><title>Node3</title>
<g id="a_node3"><a xlink:href="posix_8cpp.html" target="_top" xlink:title="POSIX implementation of grading::MapSharedData and grading::RunTest. ">
<polygon fill="none" stroke="black" points="106.476,-0.5 106.476,-23.526 187.662,-23.526 187.662,-0.5 106.476,-0.5"/>
<text text-anchor="middle" x="147.069" y="-10.726" font-family="Avenir-Book" font-size="11.00">src/posix.cpp</text>
</a>
</g>
</g>
<!-- Node1&#45;&gt;Node3 -->
<g id="edge2" class="edge"><title>Node1&#45;&gt;Node3</title>
<path fill="none" stroke="midnightblue" d="M147.069,-50.2202C147.069,-41.194 147.069,-31.0151 147.069,-23.5884"/>
<polygon fill="midnightblue" stroke="midnightblue" points="143.569,-50.3961 147.069,-60.3961 150.569,-50.3961 143.569,-50.3961"/>
</g>
<!-- Node4 -->
<g id="node4" class="node"><title>Node4</title>
<g id="a_node4"><a xlink:href="_test_result_8cpp.html" target="_top" xlink:title="Definitions of grading::TestResult functions. ">
<polygon fill="none" stroke="black" points="205.772,-0.5 205.772,-23.526 310.366,-23.526 310.366,-0.5 205.772,-0.5"/>
<text text-anchor="middle" x="258.069" y="-10.726" font-family="Avenir-Book" font-size="11.00">src/TestResult.cpp</text>
</a>
</g>
</g>
<!-- Node1&#45;&gt;Node4 -->
<g id="edge3" class="edge"><title>Node1&#45;&gt;Node4</title>
<path fill="none" stroke="midnightblue" d="M176.435,-55.6877C195.8,-45.5645 220.666,-32.5657 237.839,-23.5884"/>
<polygon fill="midnightblue" stroke="midnightblue" points="174.669,-52.6615 167.428,-60.3961 177.912,-58.8651 174.669,-52.6615"/>
</g>
</g>
</svg>
