<?xml version="1.0" encoding="UTF-8" standalone="no"?>
<!DOCTYPE svg PUBLIC "-//W3C//DTD SVG 1.1//EN"
 "http://www.w3.org/Graphics/SVG/1.1/DTD/svg11.dtd">
<!-- Generated by graphviz version 2.40.1 (20161225.0304)
 -->
<!-- Title: include/libgrading.h Pages: 1 -->
<svg width="675pt" height="152pt"
 viewBox="0.00 0.00 674.89 152.08" xmlns="http://www.w3.org/2000/svg" xmlns:xlink="http://www.w3.org/1999/xlink">
<g id="graph0" class="graph" transform="scale(1 1) rotate(0) translate(4 148.0779)">
<title>include/libgrading.h</title>
<!-- Node8 -->
<g id="node1" class="node">
<title>Node8</title>
<polygon fill="#bfbfbf" stroke="#000000" points="244.005,-120.5519 244.005,-143.5779 359.181,-143.5779 359.181,-120.5519 244.005,-120.5519"/>
<text text-anchor="middle" x="301.593" y="-130.7779" font-family="Avenir-Book" font-size="11.00" fill="#000000">include/libgrading.h</text>
</g>
<!-- Node9 -->
<g id="node2" class="node">
<title>Node9</title>
<g id="a_node2"><a xlink:href="private_8h.html" target="_top" xlink:title="Internal header file for libgrading. ">
<polygon fill="none" stroke="#000000" points="159.354,-60.526 159.354,-83.5519 235.832,-83.5519 235.832,-60.526 159.354,-60.526"/>
<text text-anchor="middle" x="197.593" y="-70.7519" font-family="Avenir-Book" font-size="11.00" fill="#000000">src/private.h</text>
</a>
</g>
</g>
<!-- Node8&#45;&gt;Node9 -->
<g id="edge1" class="edge">
<title>Node8&#45;&gt;Node9</title>
<path fill="none" stroke="#191970" d="M272.8201,-115.458C255.2589,-105.3222 233.2495,-92.6189 217.5837,-83.577"/>
<polygon fill="#191970" stroke="#191970" points="271.1302,-118.5237 281.5408,-120.4913 274.6294,-112.4611 271.1302,-118.5237"/>
</g>
<!-- Node11 -->
<g id="node4" class="node">
<title>Node11</title>
<g id="a_node4"><a xlink:href="posix_8cpp.html" target="_top" xlink:title="src/posix.cpp">
<polygon fill="none" stroke="#000000" points="0,-.5 0,-23.526 81.186,-23.526 81.186,-.5 0,-.5"/>
<text text-anchor="middle" x="40.593" y="-10.726" font-family="Avenir-Book" font-size="11.00" fill="#000000">src/posix.cpp</text>
</a>
</g>
</g>
<!-- Node8&#45;&gt;Node11 -->
<g id="edge7" class="edge">
<title>Node8&#45;&gt;Node11</title>
<path fill="none" stroke="#191970" d="M244.1696,-117.7852C215.3694,-109.6371 180.372,-98.2111 150.593,-84.0519 114.3082,-66.7995 75.9228,-39.2195 55.4754,-23.6668"/>
<polygon fill="#191970" stroke="#191970" points="243.508,-121.2337 254.0794,-120.5297 245.3763,-114.4876 243.508,-121.2337"/>
</g>
<!-- Node12 -->
<g id="node5" class="node">
<title>Node12</title>
<g id="a_node5"><a xlink:href="_test_8cpp.html" target="_top" xlink:title="Definitions of grading::Test. ">
<polygon fill="none" stroke="#000000" points="226.1625,-.5 226.1625,-23.526 301.0235,-23.526 301.0235,-.5 226.1625,-.5"/>
<text text-anchor="middle" x="263.593" y="-10.726" font-family="Avenir-Book" font-size="11.00" fill="#000000">src/Test.cpp</text>
</a>
</g>
</g>
<!-- Node8&#45;&gt;Node12 -->
<g id="edge8" class="edge">
<title>Node8&#45;&gt;Node12</title>
<path fill="none" stroke="#191970" d="M294.6913,-110.2608C286.6213,-84.7655 273.5655,-43.5186 267.2485,-23.5615"/>
<polygon fill="#191970" stroke="#191970" points="291.4559,-111.6374 297.8105,-120.115 298.1295,-109.525 291.4559,-111.6374"/>
</g>
<!-- Node13 -->
<g id="node6" class="node">
<title>Node13</title>
<g id="a_node6"><a xlink:href="_test_suite_8cpp.html" target="_top" xlink:title="Definitions of grading::TestSuite. ">
<polygon fill="none" stroke="#000000" points="318.8425,-.5 318.8425,-23.526 418.3435,-23.526 418.3435,-.5 318.8425,-.5"/>
<text text-anchor="middle" x="368.593" y="-10.726" font-family="Avenir-Book" font-size="11.00" fill="#000000">src/TestSuite.cpp</text>
</a>
</g>
</g>
<!-- Node8&#45;&gt;Node13 -->
<g id="edge11" class="edge">
<title>Node8&#45;&gt;Node13</title>
<path fill="none" stroke="#191970" d="M304.3213,-110.0767C306.8831,-95.1866 311.7087,-75.4864 320.593,-60.026 328.8147,-45.7186 342.3994,-32.7006 353.0224,-23.8406"/>
<polygon fill="#191970" stroke="#191970" points="300.7986,-109.9668 302.7738,-120.3758 307.7209,-111.0069 300.7986,-109.9668"/>
</g>
<!-- Node14 -->
<g id="node7" class="node">
<title>Node14</title>
<g id="a_node7"><a xlink:href="checks_8cpp.html" target="_top" xlink:title="Implementation of various expectation checks. ">
<polygon fill="none" stroke="#000000" points="329.524,-60.526 329.524,-83.5519 417.662,-83.5519 417.662,-60.526 329.524,-60.526"/>
<text text-anchor="middle" x="373.593" y="-70.7519" font-family="Avenir-Book" font-size="11.00" fill="#000000">src/checks.cpp</text>
</a>
</g>
</g>
<!-- Node8&#45;&gt;Node14 -->
<g id="edge6" class="edge">
<title>Node8&#45;&gt;Node14</title>
<path fill="none" stroke="#191970" d="M323.2045,-114.0475C335.0591,-104.1644 349.4052,-92.2042 359.7533,-83.577"/>
<polygon fill="#191970" stroke="#191970" points="320.915,-111.3995 315.4753,-120.4913 325.3974,-116.7761 320.915,-111.3995"/>
</g>
<!-- Node15 -->
<g id="node8" class="node">
<title>Node15</title>
<g id="a_node8"><a xlink:href="_test_builder_8cpp.html" target="_top" xlink:title="Definitions of grading::TestBuilder. ">
<polygon fill="none" stroke="#000000" points="435.261,-60.526 435.261,-83.5519 543.925,-83.5519 543.925,-60.526 435.261,-60.526"/>
<text text-anchor="middle" x="489.593" y="-70.7519" font-family="Avenir-Book" font-size="11.00" fill="#000000">src/TestBuilder.cpp</text>
</a>
</g>
</g>
<!-- Node8&#45;&gt;Node15 -->
<g id="edge9" class="edge">
<title>Node8&#45;&gt;Node15</title>
<path fill="none" stroke="#191970" d="M347.5943,-117.3773C380.1932,-106.9689 423.3184,-93.1996 453.456,-83.577"/>
<polygon fill="#191970" stroke="#191970" points="346.3029,-114.1155 337.8413,-120.4913 348.4321,-120.7838 346.3029,-114.1155"/>
</g>
<!-- Node16 -->
<g id="node9" class="node">
<title>Node16</title>
<g id="a_node9"><a xlink:href="_test_result_8cpp.html" target="_top" xlink:title="Definitions of grading::TestResult functions. ">
<polygon fill="none" stroke="#000000" points="562.296,-60.526 562.296,-83.5519 666.89,-83.5519 666.89,-60.526 562.296,-60.526"/>
<text text-anchor="middle" x="614.593" y="-70.7519" font-family="Avenir-Book" font-size="11.00" fill="#000000">src/TestResult.cpp</text>
</a>
</g>
</g>
<!-- Node8&#45;&gt;Node16 -->
<g id="edge10" class="edge">
<title>Node8&#45;&gt;Node16</title>
<path fill="none" stroke="#191970" d="M369.249,-119.1684C419.7715,-109.5269 490.5108,-96.0041 552.593,-84.0519 555.7152,-83.4508 558.9257,-82.8318 562.1644,-82.2065"/>
<polygon fill="#191970" stroke="#191970" points="368.5894,-115.7311 359.4226,-121.0434 369.9014,-122.607 368.5894,-115.7311"/>
</g>
<!-- Node10 -->
<g id="node3" class="node">
<title>Node10</title>
<g id="a_node3"><a xlink:href="_arguments_8cpp.html" target="_top" xlink:title="Implementation of grading::Arguments. ">
<polygon fill="none" stroke="#000000" points="99.0465,-.5 99.0465,-23.526 208.1395,-23.526 208.1395,-.5 99.0465,-.5"/>
<text text-anchor="middle" x="153.593" y="-10.726" font-family="Avenir-Book" font-size="11.00" fill="#000000">src/Arguments.cpp</text>
</a>
</g>
</g>
<!-- Node9&#45;&gt;Node10 -->
<g id="edge2" class="edge">
<title>Node9&#45;&gt;Node10</title>
<path fill="none" stroke="#191970" d="M183.1177,-52.2913C176.138,-42.7695 168.0096,-31.6805 162.0506,-23.5511"/>
<polygon fill="#191970" stroke="#191970" points="180.3745,-54.4693 189.1094,-60.4653 186.0202,-50.3309 180.3745,-54.4693"/>
</g>
<!-- Node9&#45;&gt;Node11 -->
<g id="edge3" class="edge">
<title>Node9&#45;&gt;Node11</title>
<path fill="none" stroke="#191970" d="M157.7612,-56.81C130.7148,-46.4693 95.5054,-33.0077 70.7712,-23.5511"/>
<polygon fill="#191970" stroke="#191970" points="156.7313,-60.1633 167.3218,-60.4653 159.2312,-53.6249 156.7313,-60.1633"/>
</g>
<!-- Node9&#45;&gt;Node12 -->
<g id="edge4" class="edge">
<title>Node9&#45;&gt;Node12</title>
<path fill="none" stroke="#191970" d="M217.7177,-53.7359C228.5228,-43.9088 241.5121,-32.0952 250.9066,-23.5511"/>
<polygon fill="#191970" stroke="#191970" points="215.3615,-51.1477 210.3185,-60.4653 220.0714,-56.3263 215.3615,-51.1477"/>
</g>
<!-- Node9&#45;&gt;Node13 -->
<g id="edge5" class="edge">
<title>Node9&#45;&gt;Node13</title>
<path fill="none" stroke="#191970" d="M240.2035,-57.0814C269.7612,-46.7058 308.5476,-33.0907 335.7237,-23.5511"/>
<polygon fill="#191970" stroke="#191970" points="238.8398,-53.8507 230.5635,-60.4653 241.1584,-60.4556 238.8398,-53.8507"/>
</g>
</g>
</svg>
