<?xml version="1.0" encoding="UTF-8" standalone="no"?>
<!DOCTYPE svg PUBLIC "-//W3C//DTD SVG 1.1//EN"
 "http://www.w3.org/Graphics/SVG/1.1/DTD/svg11.dtd">
<!-- Generated by graphviz version 2.40.1 (20161225.0304)
 -->
<!-- Title: include/libgrading.h Pages: 1 -->
<svg width="856pt" height="143pt"
 viewBox="0.00 0.00 856.00 143.00" xmlns="http://www.w3.org/2000/svg" xmlns:xlink="http://www.w3.org/1999/xlink">
<g id="graph0" class="graph" transform="scale(1 1) rotate(0) translate(4 139)">
<title>include/libgrading.h</title>
<!-- Node8 -->
<g id="node1" class="node">
<title>Node8</title>
<g id="a_node1"><a xlink:title="A library for grading C&#45; and C++&#45;based assignments.">
<polygon fill="#bfbfbf" stroke="#000000" points="332.5,-114.5 332.5,-134.5 463.5,-134.5 463.5,-114.5 332.5,-114.5"/>
<text text-anchor="middle" x="398" y="-121.7" font-family="Avenir-Book" font-size="11.00" fill="#000000">include/libgrading.h</text>
</a>
</g>
</g>
<!-- Node9 -->
<g id="node2" class="node">
<title>Node9</title>
<g id="a_node2"><a xlink:href="private_8h.html" target="_top" xlink:title="Internal header file for libgrading.">
<polygon fill="none" stroke="#000000" points="263,-57.5 263,-77.5 351,-77.5 351,-57.5 263,-57.5"/>
<text text-anchor="middle" x="307" y="-64.7" font-family="Avenir-Book" font-size="11.00" fill="#000000">src/private.h</text>
</a>
</g>
</g>
<!-- Node8&#45;&gt;Node9 -->
<g id="edge1" class="edge">
<title>Node8&#45;&gt;Node9</title>
<path fill="none" stroke="#191970" d="M372.9342,-108.7994C357.034,-98.84 336.9317,-86.2484 323.1281,-77.6022"/>
<polygon fill="#191970" stroke="#191970" points="371.3983,-111.9673 381.731,-114.3095 375.1142,-106.035 371.3983,-111.9673"/>
</g>
<!-- Node11 -->
<g id="node4" class="node">
<title>Node11</title>
<g id="a_node4"><a xlink:href="Formatter_8cpp.html" target="_top" xlink:title="Definitions of grading::Formatter.">
<polygon fill="none" stroke="#000000" points="0,-.5 0,-20.5 116,-20.5 116,-.5 0,-.5"/>
<text text-anchor="middle" x="58" y="-7.7" font-family="Avenir-Book" font-size="11.00" fill="#000000">src/Formatter.cpp</text>
</a>
</g>
</g>
<!-- Node8&#45;&gt;Node11 -->
<g id="edge8" class="edge">
<title>Node8&#45;&gt;Node11</title>
<path fill="none" stroke="#191970" d="M343.3698,-112.0406C308.3377,-103.5678 262.0788,-91.4767 222,-78 170.0527,-60.5325 111.0573,-34.7222 79.9294,-20.6157"/>
<polygon fill="#191970" stroke="#191970" points="342.859,-115.5172 353.3992,-114.4418 344.489,-108.7096 342.859,-115.5172"/>
</g>
<!-- Node12 -->
<g id="node5" class="node">
<title>Node12</title>
<g id="a_node5"><a xlink:href="posix_8cpp.html" target="_top" xlink:title=" ">
<polygon fill="none" stroke="#000000" points="134,-.5 134,-20.5 226,-20.5 226,-.5 134,-.5"/>
<text text-anchor="middle" x="180" y="-7.7" font-family="Avenir-Book" font-size="11.00" fill="#000000">src/posix.cpp</text>
</a>
</g>
</g>
<!-- Node8&#45;&gt;Node12 -->
<g id="edge9" class="edge">
<title>Node8&#45;&gt;Node12</title>
<path fill="none" stroke="#191970" d="M340.0233,-111.8449C312.7649,-104.4073 280.5089,-93.3871 254,-78 226.9295,-62.2869 201.3424,-35.2994 188.5359,-20.6604"/>
<polygon fill="#191970" stroke="#191970" points="339.2583,-115.2627 349.8199,-114.4245 341.0408,-108.4935 339.2583,-115.2627"/>
</g>
<!-- Node13 -->
<g id="node6" class="node">
<title>Node13</title>
<g id="a_node6"><a xlink:href="Test_8cpp.html" target="_top" xlink:title="Definitions of grading::Test.">
<polygon fill="none" stroke="#000000" points="388,-.5 388,-20.5 472,-20.5 472,-.5 388,-.5"/>
<text text-anchor="middle" x="430" y="-7.7" font-family="Avenir-Book" font-size="11.00" fill="#000000">src/Test.cpp</text>
</a>
</g>
</g>
<!-- Node8&#45;&gt;Node13 -->
<g id="edge10" class="edge">
<title>Node8&#45;&gt;Node13</title>
<path fill="none" stroke="#191970" d="M397.1528,-103.9551C397.1623,-90.3468 398.2794,-72.2604 403,-57 407.1933,-43.4444 415.9256,-29.593 422.3286,-20.5759"/>
<polygon fill="#191970" stroke="#191970" points="393.6576,-104.2421 397.3505,-114.1725 400.6563,-104.1066 393.6576,-104.2421"/>
</g>
<!-- Node14 -->
<g id="node7" class="node">
<title>Node14</title>
<g id="a_node7"><a xlink:href="TestSuite_8cpp.html" target="_top" xlink:title="Definitions of grading::TestSuite.">
<polygon fill="none" stroke="#000000" points="490.5,-.5 490.5,-20.5 603.5,-20.5 603.5,-.5 490.5,-.5"/>
<text text-anchor="middle" x="547" y="-7.7" font-family="Avenir-Book" font-size="11.00" fill="#000000">src/TestSuite.cpp</text>
</a>
</g>
</g>
<!-- Node8&#45;&gt;Node14 -->
<g id="edge13" class="edge">
<title>Node8&#45;&gt;Node14</title>
<path fill="none" stroke="#191970" d="M405.1774,-105.1435C411.5505,-90.2643 422.1636,-70.1023 437,-57 456.8922,-39.4328 484.3922,-27.8078 506.9192,-20.5746"/>
<polygon fill="#191970" stroke="#191970" points="401.9193,-103.8646 401.4428,-114.4488 408.4156,-106.4719 401.9193,-103.8646"/>
</g>
<!-- Node15 -->
<g id="node8" class="node">
<title>Node15</title>
<g id="a_node8"><a xlink:href="checks_8cpp.html" target="_top" xlink:title="Implementation of various expectation checks.">
<polygon fill="none" stroke="#000000" points="445.5,-57.5 445.5,-77.5 546.5,-77.5 546.5,-57.5 445.5,-57.5"/>
<text text-anchor="middle" x="496" y="-64.7" font-family="Avenir-Book" font-size="11.00" fill="#000000">src/checks.cpp</text>
</a>
</g>
</g>
<!-- Node8&#45;&gt;Node15 -->
<g id="edge7" class="edge">
<title>Node8&#45;&gt;Node15</title>
<path fill="none" stroke="#191970" d="M424.515,-109.078C441.712,-99.0757 463.6269,-86.3293 478.6312,-77.6022"/>
<polygon fill="#191970" stroke="#191970" points="422.4049,-106.2563 415.5204,-114.3095 425.9244,-112.3072 422.4049,-106.2563"/>
</g>
<!-- Node16 -->
<g id="node9" class="node">
<title>Node16</title>
<g id="a_node9"><a xlink:href="TestBuilder_8cpp.html" target="_top" xlink:title="Definitions of grading::TestBuilder.">
<polygon fill="none" stroke="#000000" points="564.5,-57.5 564.5,-77.5 687.5,-77.5 687.5,-57.5 564.5,-57.5"/>
<text text-anchor="middle" x="626" y="-64.7" font-family="Avenir-Book" font-size="11.00" fill="#000000">src/TestBuilder.cpp</text>
</a>
</g>
</g>
<!-- Node8&#45;&gt;Node16 -->
<g id="edge11" class="edge">
<title>Node8&#45;&gt;Node16</title>
<path fill="none" stroke="#191970" d="M448.1099,-111.9725C489.4717,-101.6321 547.4057,-87.1486 585.7824,-77.5544"/>
<polygon fill="#191970" stroke="#191970" points="447.0895,-108.6198 438.237,-114.4408 448.7873,-115.4108 447.0895,-108.6198"/>
</g>
<!-- Node17 -->
<g id="node10" class="node">
<title>Node17</title>
<g id="a_node10"><a xlink:href="TestExitStatus_8cpp.html" target="_top" xlink:title="Definitions of grading::TestExitStatus functions.">
<polygon fill="none" stroke="#000000" points="706,-57.5 706,-77.5 848,-77.5 848,-57.5 706,-57.5"/>
<text text-anchor="middle" x="777" y="-64.7" font-family="Avenir-Book" font-size="11.00" fill="#000000">src/TestExitStatus.cpp</text>
</a>
</g>
</g>
<!-- Node8&#45;&gt;Node17 -->
<g id="edge12" class="edge">
<title>Node8&#45;&gt;Node17</title>
<path fill="none" stroke="#191970" d="M473.5465,-113.1381C542.7085,-102.7365 644.0854,-87.4898 710.3102,-77.5299"/>
<polygon fill="#191970" stroke="#191970" points="472.9523,-109.688 463.5841,-114.6364 473.9934,-116.6102 472.9523,-109.688"/>
</g>
<!-- Node10 -->
<g id="node3" class="node">
<title>Node10</title>
<g id="a_node3"><a xlink:href="Arguments_8cpp.html" target="_top" xlink:title="Implementation of grading::Arguments.">
<polygon fill="none" stroke="#000000" points="244.5,-.5 244.5,-20.5 369.5,-20.5 369.5,-.5 244.5,-.5"/>
<text text-anchor="middle" x="307" y="-7.7" font-family="Avenir-Book" font-size="11.00" fill="#000000">src/Arguments.cpp</text>
</a>
</g>
</g>
<!-- Node9&#45;&gt;Node10 -->
<g id="edge2" class="edge">
<title>Node9&#45;&gt;Node10</title>
<path fill="none" stroke="#191970" d="M307,-47.1771C307,-38.1625 307,-27.9556 307,-20.6022"/>
<polygon fill="#191970" stroke="#191970" points="303.5001,-47.3095 307,-57.3095 310.5001,-47.3096 303.5001,-47.3095"/>
</g>
<!-- Node9&#45;&gt;Node11 -->
<g id="edge3" class="edge">
<title>Node9&#45;&gt;Node11</title>
<path fill="none" stroke="#191970" d="M253.132,-55.1688C207.9067,-44.816 144.0991,-30.2094 101.9218,-20.5544"/>
<polygon fill="#191970" stroke="#191970" points="252.5281,-58.621 263.057,-57.4408 254.0901,-51.7975 252.5281,-58.621"/>
</g>
<!-- Node9&#45;&gt;Node12 -->
<g id="edge4" class="edge">
<title>Node9&#45;&gt;Node12</title>
<path fill="none" stroke="#191970" d="M275.3903,-53.313C252.774,-43.1624 222.8685,-29.7402 202.6158,-20.6504"/>
<polygon fill="#191970" stroke="#191970" points="274.0309,-56.5391 284.5873,-57.4408 276.8972,-50.1529 274.0309,-56.5391"/>
</g>
<!-- Node9&#45;&gt;Node13 -->
<g id="edge5" class="edge">
<title>Node9&#45;&gt;Node13</title>
<path fill="none" stroke="#191970" d="M337.9079,-53.1768C359.7765,-43.0426 388.5692,-29.6996 408.0965,-20.6504"/>
<polygon fill="#191970" stroke="#191970" points="336.3083,-50.0605 328.7068,-57.4408 339.2515,-56.4117 336.3083,-50.0605"/>
</g>
<!-- Node9&#45;&gt;Node14 -->
<g id="edge6" class="edge">
<title>Node9&#45;&gt;Node14</title>
<path fill="none" stroke="#191970" d="M359.1959,-55.1035C402.7699,-44.7547 464.0984,-30.1891 504.6657,-20.5544"/>
<polygon fill="#191970" stroke="#191970" points="358.2753,-51.7247 349.3547,-57.4408 359.8929,-58.5352 358.2753,-51.7247"/>
</g>
</g>
</svg>
