<?xml version="1.0" encoding="UTF-8" standalone="no"?>
<!DOCTYPE svg PUBLIC "-//W3C//DTD SVG 1.1//EN"
 "http://www.w3.org/Graphics/SVG/1.1/DTD/svg11.dtd">
<!-- Generated by graphviz version 2.38.0 (20140413.2041)
 -->
<!-- Title: include/libgrading.h Pages: 1 -->
<!--zoomable 143 -->
<svg id="main" version="1.1" xmlns="http://www.w3.org/2000/svg" xmlns:xlink="http://www.w3.org/1999/xlink" xml:space="preserve" onload="init(evt)">
<style type="text/css"><![CDATA[
.edge:hover path { stroke: red; }
.edge:hover polygon { stroke: red; fill: red; }
]]></style>
<script type="text/javascript"><![CDATA[
var edges = document.getElementsByTagName('g');
if (edges && edges.length) {
  for (var i=0;i<edges.length;i++) {
    if (edges[i].id.substr(0,4)=='edge') {
      edges[i].setAttribute('class','edge');
    }
  }
}
]]></script>
        <defs>
                <circle id="rim" cx="0" cy="0" r="7"/>
                <circle id="rim2" cx="0" cy="0" r="3.5"/>
                <g id="zoomPlus">
                        <use xlink:href="#rim" fill="#404040">
                                <set attributeName="fill" to="#808080" begin="zoomplus.mouseover" end="zoomplus.mouseout"/>
                        </use>
                        <path d="M-4,0h8M0,-4v8" fill="none" stroke="white" stroke-width="1.5" pointer-events="none"/>
                </g>
                <g id="zoomMin">
                        <use xlink:href="#rim" fill="#404040">
                                <set attributeName="fill" to="#808080" begin="zoomminus.mouseover" end="zoomminus.mouseout"/>
                        </use>
                        <path d="M-4,0h8" fill="none" stroke="white" stroke-width="1.5" pointer-events="none"/>
                </g>
                <g id="dirArrow">
                        <path fill="none" stroke="white" stroke-width="1.5" d="M0,-3.0v7 M-2.5,-0.5L0,-3.0L2.5,-0.5"/>
                </g>
               <g id="resetDef">
                       <use xlink:href="#rim2" fill="#404040">
                               <set attributeName="fill" to="#808080" begin="reset.mouseover" end="reset.mouseout"/>
                       </use>
               </g>
        </defs>

<script type="text/javascript">
var viewWidth = 729;
var viewHeight = 143;
var sectionId = 'dynsection-1';
</script>
<script xlink:href="svgpan.js"/>
<svg id="graph" class="graph">
<g id="viewport">
<title>include/libgrading.h</title>
<!-- Node1 -->
<g id="node1" class="node"><title>Node1</title>
<polygon fill="#bfbfbf" stroke="black" points="265.5,-114.5 265.5,-134.5 385.5,-134.5 385.5,-114.5 265.5,-114.5"/>
<text text-anchor="middle" x="325.5" y="-121.7" font-family="Avenir-Book" font-size="11.00">include/libgrading.h</text>
</g>
<!-- Node2 -->
<g id="node2" class="node"><title>Node2</title>
<g id="a_node2"><a xlink:href="private_8h.html" target="_top" xlink:title="Internal header file for libgrading. ">
<polygon fill="none" stroke="black" points="174,-57.5 174,-77.5 259,-77.5 259,-57.5 174,-57.5"/>
<text text-anchor="middle" x="216.5" y="-64.7" font-family="Avenir-Book" font-size="11.00">src/private.h</text>
</a>
</g>
</g>
<!-- Node1&#45;&gt;Node2 -->
<g id="edge1" class="edge"><title>Node1&#45;&gt;Node2</title>
<path fill="none" stroke="midnightblue" d="M298.315,-109.783C278.389,-99.7282 251.891,-86.3579 234.526,-77.5956"/>
<polygon fill="midnightblue" stroke="midnightblue" points="296.996,-113.038 307.501,-114.418 300.15,-106.788 296.996,-113.038"/>
</g>
<!-- Node4 -->
<g id="node4" class="node"><title>Node4</title>
<g id="a_node4"><a xlink:href="posix_8cpp.html" target="_top" xlink:title="POSIX implementation of grading::MapSharedData and grading::ForkTest. ">
<polygon fill="none" stroke="black" points="0,-0.5 0,-20.5 89,-20.5 89,-0.5 0,-0.5"/>
<text text-anchor="middle" x="44.5" y="-7.7" font-family="Avenir-Book" font-size="11.00">src/posix.cpp</text>
</a>
</g>
</g>
<!-- Node1&#45;&gt;Node4 -->
<g id="edge7" class="edge"><title>Node1&#45;&gt;Node4</title>
<path fill="none" stroke="midnightblue" d="M273.537,-112.048C241.485,-104.198 199.882,-92.5742 164.5,-78 124.197,-61.399 80.1948,-34.5506 58.3766,-20.5886"/>
<polygon fill="midnightblue" stroke="midnightblue" points="273.046,-115.53 283.587,-114.463 274.682,-108.724 273.046,-115.53"/>
</g>
<!-- Node5 -->
<g id="node5" class="node"><title>Node5</title>
<g id="a_node5"><a xlink:href="Test_8cpp.html" target="_top" xlink:title="Definitions of grading::Test. ">
<polygon fill="none" stroke="black" points="246.5,-0.5 246.5,-20.5 328.5,-20.5 328.5,-0.5 246.5,-0.5"/>
<text text-anchor="middle" x="287.5" y="-7.7" font-family="Avenir-Book" font-size="11.00">src/Test.cpp</text>
</a>
</g>
</g>
<!-- Node1&#45;&gt;Node5 -->
<g id="edge8" class="edge"><title>Node1&#45;&gt;Node5</title>
<path fill="none" stroke="midnightblue" d="M319.164,-104.827C310.938,-80.58 296.896,-39.1928 290.653,-20.7921"/>
<polygon fill="midnightblue" stroke="midnightblue" points="315.863,-105.989 322.39,-114.335 322.492,-103.74 315.863,-105.989"/>
</g>
<!-- Node6 -->
<g id="node6" class="node"><title>Node6</title>
<g id="a_node6"><a xlink:href="TestSuite_8cpp.html" target="_top" xlink:title="Definitions of grading::TestSuite. ">
<polygon fill="none" stroke="black" points="346.5,-0.5 346.5,-20.5 456.5,-20.5 456.5,-0.5 346.5,-0.5"/>
<text text-anchor="middle" x="401.5" y="-7.7" font-family="Avenir-Book" font-size="11.00">src/TestSuite.cpp</text>
</a>
</g>
</g>
<!-- Node1&#45;&gt;Node6 -->
<g id="edge11" class="edge"><title>Node1&#45;&gt;Node6</title>
<path fill="none" stroke="midnightblue" d="M327.822,-104.134C330.232,-90.1063 335.044,-71.1924 344.5,-57 354.89,-41.4046 372.318,-28.6339 385.173,-20.6344"/>
<polygon fill="midnightblue" stroke="midnightblue" points="324.341,-103.752 326.361,-114.153 331.267,-104.763 324.341,-103.752"/>
</g>
<!-- Node7 -->
<g id="node7" class="node"><title>Node7</title>
<g id="a_node7"><a xlink:href="checks_8cpp.html" target="_top" xlink:title="Implementation of various expectation checks. ">
<polygon fill="none" stroke="black" points="353.5,-57.5 353.5,-77.5 451.5,-77.5 451.5,-57.5 353.5,-57.5"/>
<text text-anchor="middle" x="402.5" y="-64.7" font-family="Avenir-Book" font-size="11.00">src/checks.cpp</text>
</a>
</g>
</g>
<!-- Node1&#45;&gt;Node7 -->
<g id="edge6" class="edge"><title>Node1&#45;&gt;Node7</title>
<path fill="none" stroke="midnightblue" d="M346.651,-108.392C360.469,-98.5222 378.057,-85.9596 389.766,-77.5956"/>
<polygon fill="midnightblue" stroke="midnightblue" points="344.318,-105.757 338.215,-114.418 348.387,-111.454 344.318,-105.757"/>
</g>
<!-- Node8 -->
<g id="node8" class="node"><title>Node8</title>
<g id="a_node8"><a xlink:href="TestBuilder_8cpp.html" target="_top" xlink:title="Definitions of grading::TestBuilder. ">
<polygon fill="none" stroke="black" points="469.5,-57.5 469.5,-77.5 587.5,-77.5 587.5,-57.5 469.5,-57.5"/>
<text text-anchor="middle" x="528.5" y="-64.7" font-family="Avenir-Book" font-size="11.00">src/TestBuilder.cpp</text>
</a>
</g>
</g>
<!-- Node1&#45;&gt;Node8 -->
<g id="edge9" class="edge"><title>Node1&#45;&gt;Node8</title>
<path fill="none" stroke="midnightblue" d="M368.748,-111.783C406.583,-101.532 460.744,-86.8575 495.266,-77.5042"/>
<polygon fill="midnightblue" stroke="midnightblue" points="367.758,-108.425 359.021,-114.418 369.589,-115.181 367.758,-108.425"/>
</g>
<!-- Node9 -->
<g id="node9" class="node"><title>Node9</title>
<g id="a_node9"><a xlink:href="TestResult_8cpp.html" target="_top" xlink:title="Definitions of grading::TestResult functions. ">
<polygon fill="none" stroke="black" points="606,-57.5 606,-77.5 721,-77.5 721,-57.5 606,-57.5"/>
<text text-anchor="middle" x="663.5" y="-64.7" font-family="Avenir-Book" font-size="11.00">src/TestResult.cpp</text>
</a>
</g>
</g>
<!-- Node1&#45;&gt;Node9 -->
<g id="edge10" class="edge"><title>Node1&#45;&gt;Node9</title>
<path fill="none" stroke="midnightblue" d="M391.174,-112.813C454.284,-102.544 548.591,-87.1982 608.034,-77.5255"/>
<polygon fill="midnightblue" stroke="midnightblue" points="390.243,-109.419 380.935,-114.479 391.368,-116.328 390.243,-109.419"/>
</g>
<!-- Node3 -->
<g id="node3" class="node"><title>Node3</title>
<g id="a_node3"><a xlink:href="Arguments_8cpp.html" target="_top" xlink:title="Implementation of grading::Arguments. ">
<polygon fill="none" stroke="black" points="107,-0.5 107,-20.5 228,-20.5 228,-0.5 107,-0.5"/>
<text text-anchor="middle" x="167.5" y="-7.7" font-family="Avenir-Book" font-size="11.00">src/Arguments.cpp</text>
</a>
</g>
</g>
<!-- Node2&#45;&gt;Node3 -->
<g id="edge2" class="edge"><title>Node2&#45;&gt;Node3</title>
<path fill="none" stroke="midnightblue" d="M201.555,-49.7253C193.082,-40.215 182.802,-28.6754 175.767,-20.7795"/>
<polygon fill="midnightblue" stroke="midnightblue" points="199.143,-52.2795 208.409,-57.4179 204.37,-47.623 199.143,-52.2795"/>
</g>
<!-- Node2&#45;&gt;Node4 -->
<g id="edge3" class="edge"><title>Node2&#45;&gt;Node4</title>
<path fill="none" stroke="midnightblue" d="M178.208,-54.2554C146.242,-44.0336 101.411,-29.6983 72.6586,-20.5042"/>
<polygon fill="midnightblue" stroke="midnightblue" points="177.507,-57.7058 188.098,-57.4179 179.639,-51.0383 177.507,-57.7058"/>
</g>
<!-- Node2&#45;&gt;Node5 -->
<g id="edge4" class="edge"><title>Node2&#45;&gt;Node5</title>
<path fill="none" stroke="midnightblue" d="M236.315,-51.15C248.915,-41.3899 264.813,-29.0742 275.521,-20.7795"/>
<polygon fill="midnightblue" stroke="midnightblue" points="233.986,-48.5269 228.224,-57.4179 238.273,-54.0608 233.986,-48.5269"/>
</g>
<!-- Node2&#45;&gt;Node6 -->
<g id="edge5" class="edge"><title>Node2&#45;&gt;Node6</title>
<path fill="none" stroke="midnightblue" d="M256.796,-54.52C291.232,-44.2822 340.02,-29.7779 371.213,-20.5042"/>
<polygon fill="midnightblue" stroke="midnightblue" points="255.637,-51.2132 247.049,-57.4179 257.632,-57.923 255.637,-51.2132"/>
</g>
</g>
</svg>
        <g id="navigator" transform="translate(0 0)" fill="#404254">
                <rect fill="#f2f5e9" fill-opacity="0.5" stroke="#606060" stroke-width=".5" x="0" y="0" width="60" height="60"/>
                <use id="zoomplus" xlink:href="#zoomPlus" x="17" y="9" onmousedown="handleZoom(evt,'in')"/>
                <use id="zoomminus" xlink:href="#zoomMin" x="42" y="9" onmousedown="handleZoom(evt,'out')"/>
                <use id="reset" xlink:href="#resetDef" x="30" y="36" onmousedown="handleReset()"/>
                <g id="arrowUp" xlink:href="#dirArrow" transform="translate(30 24)" onmousedown="handlePan(0,-1)">
                  <use xlink:href="#rim" fill="#404040">
                        <set attributeName="fill" to="#808080" begin="arrowUp.mouseover" end="arrowUp.mouseout"/>
                  </use>
                  <path fill="none" stroke="white" stroke-width="1.5" d="M0,-3.0v7 M-2.5,-0.5L0,-3.0L2.5,-0.5"/>
                </g>
                <g id="arrowRight" xlink:href="#dirArrow" transform="rotate(90) translate(36 -43)" onmousedown="handlePan(1,0)">
                  <use xlink:href="#rim" fill="#404040">
                        <set attributeName="fill" to="#808080" begin="arrowRight.mouseover" end="arrowRight.mouseout"/>
                  </use>
                  <path fill="none" stroke="white" stroke-width="1.5" d="M0,-3.0v7 M-2.5,-0.5L0,-3.0L2.5,-0.5"/>
                </g>
                <g id="arrowDown" xlink:href="#dirArrow" transform="rotate(180) translate(-30 -48)" onmousedown="handlePan(0,1)">
                  <use xlink:href="#rim" fill="#404040">
                        <set attributeName="fill" to="#808080" begin="arrowDown.mouseover" end="arrowDown.mouseout"/>
                  </use>
                  <path fill="none" stroke="white" stroke-width="1.5" d="M0,-3.0v7 M-2.5,-0.5L0,-3.0L2.5,-0.5"/>
                </g>
                <g id="arrowLeft" xlink:href="#dirArrow" transform="rotate(270) translate(-36 17)" onmousedown="handlePan(-1,0)">
                  <use xlink:href="#rim" fill="#404040">
                        <set attributeName="fill" to="#808080" begin="arrowLeft.mouseover" end="arrowLeft.mouseout"/>
                  </use>
                  <path fill="none" stroke="white" stroke-width="1.5" d="M0,-3.0v7 M-2.5,-0.5L0,-3.0L2.5,-0.5"/>
                </g>
        </g>
        <svg viewBox="0 0 15 15" width="100%" height="30px" preserveAspectRatio="xMaxYMin meet">
         <g id="arrow_out" transform="scale(0.3 0.3)">
          <a xlink:href="libgrading_8h__dep__incl_org.svg" target="_base">
           <rect id="button" ry="5" rx="5" y="6" x="6" height="38" width="38"
                fill="#f2f5e9" fill-opacity="0.5" stroke="#606060" stroke-width="1.0"/>
           <path id="arrow"
             d="M 11.500037,31.436501 C 11.940474,20.09759 22.043105,11.32322 32.158766,21.979434 L 37.068811,17.246167 C 37.068811,17.246167 37.088388,32 37.088388,32 L 22.160133,31.978069 C 22.160133,31.978069 26.997745,27.140456 26.997745,27.140456 C 18.528582,18.264221 13.291696,25.230495 11.500037,31.436501 z"
             style="fill:#404040;"/>
          </a>
         </g>
        </svg>
</svg>
