<?xml version="1.0" encoding="UTF-8" standalone="no"?>
<!DOCTYPE svg PUBLIC "-//W3C//DTD SVG 1.1//EN"
 "http://www.w3.org/Graphics/SVG/1.1/DTD/svg11.dtd">
<!-- Generated by graphviz version 2.38.0 (20140413.2041)
 -->
<!-- Title: include/libgrading.h Pages: 1 -->
<svg width="571pt" height="86pt"
 viewBox="0.00 0.00 571.00 86.00" xmlns="http://www.w3.org/2000/svg" xmlns:xlink="http://www.w3.org/1999/xlink">
<g id="graph0" class="graph" transform="scale(1 1) rotate(0) translate(4 82)">
<title>include/libgrading.h</title>
<!-- Node1 -->
<g id="node1" class="node"><title>Node1</title>
<polygon fill="#bfbfbf" stroke="black" points="222.5,-57.5 222.5,-77.5 342.5,-77.5 342.5,-57.5 222.5,-57.5"/>
<text text-anchor="middle" x="282.5" y="-64.7" font-family="Avenir-Book" font-size="11.00">include/libgrading.h</text>
</g>
<!-- Node2 -->
<g id="node2" class="node"><title>Node2</title>
<polygon fill="none" stroke="#bfbfbf" points="0,-0.5 0,-20.5 69,-20.5 69,-0.5 0,-0.5"/>
<text text-anchor="middle" x="34.5" y="-7.7" font-family="Avenir-Book" font-size="11.00">functional</text>
</g>
<!-- Node1&#45;&gt;Node2 -->
<g id="edge1" class="edge"><title>Node1&#45;&gt;Node2</title>
<path fill="none" stroke="midnightblue" d="M241.826,-57.4795C197.112,-47.5631 125.494,-31.68 79.2279,-21.4195"/>
<polygon fill="midnightblue" stroke="midnightblue" points="79.7089,-17.9412 69.1883,-19.193 78.1933,-24.7752 79.7089,-17.9412"/>
</g>
<!-- Node3 -->
<g id="node3" class="node"><title>Node3</title>
<polygon fill="none" stroke="#bfbfbf" points="87,-0.5 87,-20.5 152,-20.5 152,-0.5 87,-0.5"/>
<text text-anchor="middle" x="119.5" y="-7.7" font-family="Avenir-Book" font-size="11.00">iostream</text>
</g>
<!-- Node1&#45;&gt;Node3 -->
<g id="edge2" class="edge"><title>Node1&#45;&gt;Node3</title>
<path fill="none" stroke="midnightblue" d="M255.584,-57.4179C228.369,-48.2348 186.125,-33.9807 155.926,-23.7909"/>
<polygon fill="midnightblue" stroke="midnightblue" points="156.779,-20.3851 146.185,-20.5042 154.541,-27.0177 156.779,-20.3851"/>
</g>
<!-- Node4 -->
<g id="node4" class="node"><title>Node4</title>
<polygon fill="none" stroke="#bfbfbf" points="170,-0.5 170,-20.5 233,-20.5 233,-0.5 170,-0.5"/>
<text text-anchor="middle" x="201.5" y="-7.7" font-family="Avenir-Book" font-size="11.00">memory</text>
</g>
<!-- Node1&#45;&gt;Node4 -->
<g id="edge3" class="edge"><title>Node1&#45;&gt;Node4</title>
<path fill="none" stroke="midnightblue" d="M269.124,-57.4179C256.696,-48.9788 237.96,-36.257 223.359,-26.3426"/>
<polygon fill="midnightblue" stroke="midnightblue" points="225.135,-23.3176 214.895,-20.5956 221.202,-29.1088 225.135,-23.3176"/>
</g>
<!-- Node5 -->
<g id="node5" class="node"><title>Node5</title>
<polygon fill="none" stroke="#bfbfbf" points="251.5,-0.5 251.5,-20.5 313.5,-20.5 313.5,-0.5 251.5,-0.5"/>
<text text-anchor="middle" x="282.5" y="-7.7" font-family="Avenir-Book" font-size="11.00">sstream</text>
</g>
<!-- Node1&#45;&gt;Node5 -->
<g id="edge4" class="edge"><title>Node1&#45;&gt;Node5</title>
<path fill="none" stroke="midnightblue" d="M282.5,-57.4179C282.5,-50.2164 282.5,-39.8962 282.5,-30.8632"/>
<polygon fill="midnightblue" stroke="midnightblue" points="286,-30.7794 282.5,-20.7795 279,-30.7795 286,-30.7794"/>
</g>
<!-- Node6 -->
<g id="node6" class="node"><title>Node6</title>
<polygon fill="none" stroke="#bfbfbf" points="332,-0.5 332,-20.5 379,-20.5 379,-0.5 332,-0.5"/>
<text text-anchor="middle" x="355.5" y="-7.7" font-family="Avenir-Book" font-size="11.00">string</text>
</g>
<!-- Node1&#45;&gt;Node6 -->
<g id="edge5" class="edge"><title>Node1&#45;&gt;Node6</title>
<path fill="none" stroke="midnightblue" d="M294.554,-57.4179C305.583,-49.1084 322.123,-36.6469 335.191,-26.8015"/>
<polygon fill="midnightblue" stroke="midnightblue" points="337.303,-29.5924 343.184,-20.7795 333.091,-24.0016 337.303,-29.5924"/>
</g>
<!-- Node7 -->
<g id="node7" class="node"><title>Node7</title>
<polygon fill="none" stroke="#bfbfbf" points="397.5,-0.5 397.5,-20.5 493.5,-20.5 493.5,-0.5 397.5,-0.5"/>
<text text-anchor="middle" x="445.5" y="-7.7" font-family="Avenir-Book" font-size="11.00">unordered_set</text>
</g>
<!-- Node1&#45;&gt;Node7 -->
<g id="edge6" class="edge"><title>Node1&#45;&gt;Node7</title>
<path fill="none" stroke="midnightblue" d="M309.416,-57.4179C336.631,-48.2348 378.875,-33.9807 409.074,-23.7909"/>
<polygon fill="midnightblue" stroke="midnightblue" points="410.459,-27.0177 418.815,-20.5042 408.221,-20.3851 410.459,-27.0177"/>
</g>
<!-- Node8 -->
<g id="node8" class="node"><title>Node8</title>
<polygon fill="none" stroke="#bfbfbf" points="512,-0.5 512,-20.5 563,-20.5 563,-0.5 512,-0.5"/>
<text text-anchor="middle" x="537.5" y="-7.7" font-family="Avenir-Book" font-size="11.00">vector</text>
</g>
<!-- Node1&#45;&gt;Node8 -->
<g id="edge7" class="edge"><title>Node1&#45;&gt;Node8</title>
<path fill="none" stroke="midnightblue" d="M330.322,-57.4841C372.83,-49.2735 436.878,-36.4234 501.912,-21.0248"/>
<polygon fill="midnightblue" stroke="midnightblue" points="503.018,-24.3592 511.932,-18.6335 501.393,-17.5504 503.018,-24.3592"/>
</g>
</g>
</svg>
