<?xml version="1.0" encoding="UTF-8" standalone="no"?>
<!DOCTYPE svg PUBLIC "-//W3C//DTD SVG 1.1//EN"
 "http://www.w3.org/Graphics/SVG/1.1/DTD/svg11.dtd">
<!-- Generated by graphviz version 2.38.0 (20140413.2041)
 -->
<!-- Title: include/libgrading.h Pages: 1 -->
<svg width="212pt" height="92pt"
 viewBox="0.00 0.00 211.89 92.05" xmlns="http://www.w3.org/2000/svg" xmlns:xlink="http://www.w3.org/1999/xlink">
<g id="graph0" class="graph" transform="scale(1 1) rotate(0) translate(4 88.0519)">
<title>include/libgrading.h</title>
<!-- Node1 -->
<g id="node1" class="node"><title>Node1</title>
<polygon fill="#bfbfbf" stroke="black" points="38.005,-60.526 38.005,-83.5519 153.181,-83.5519 153.181,-60.526 38.005,-60.526"/>
<text text-anchor="middle" x="95.593" y="-70.7519" font-family="Avenir-Book" font-size="11.00">include/libgrading.h</text>
</g>
<!-- Node2 -->
<g id="node2" class="node"><title>Node2</title>
<g id="a_node2"><a xlink:href="posix_8cpp.html" target="_top" xlink:title="POSIX implementation of grading::MapSharedData and grading::RunTest. ">
<polygon fill="none" stroke="black" points="0,-0.5 0,-23.526 81.186,-23.526 81.186,-0.5 0,-0.5"/>
<text text-anchor="middle" x="40.593" y="-10.726" font-family="Avenir-Book" font-size="11.00">src/posix.cpp</text>
</a>
</g>
</g>
<!-- Node1&#45;&gt;Node2 -->
<g id="edge1" class="edge"><title>Node1&#45;&gt;Node2</title>
<path fill="none" stroke="midnightblue" d="M78.3628,-52.8607C69.2384,-43.2343 58.3525,-31.7496 50.6169,-23.5884"/>
<polygon fill="midnightblue" stroke="midnightblue" points="76.0856,-55.5461 85.5052,-60.3961 81.1661,-50.7305 76.0856,-55.5461"/>
</g>
<!-- Node3 -->
<g id="node3" class="node"><title>Node3</title>
<g id="a_node3"><a xlink:href="_test_result_8cpp.html" target="_top" xlink:title="Definitions of grading::TestResult functions. ">
<polygon fill="none" stroke="black" points="99.296,-0.5 99.296,-23.526 203.89,-23.526 203.89,-0.5 99.296,-0.5"/>
<text text-anchor="middle" x="151.593" y="-10.726" font-family="Avenir-Book" font-size="11.00">src/TestResult.cpp</text>
</a>
</g>
</g>
<!-- Node1&#45;&gt;Node3 -->
<g id="edge2" class="edge"><title>Node1&#45;&gt;Node3</title>
<path fill="none" stroke="midnightblue" d="M112.858,-53.149C122.205,-43.4644 133.432,-31.8312 141.387,-23.5884"/>
<polygon fill="midnightblue" stroke="midnightblue" points="110.29,-50.77 105.864,-60.3961 115.327,-55.631 110.29,-50.77"/>
</g>
</g>
</svg>
