<?xml version="1.0" encoding="UTF-8" standalone="no"?>
<!DOCTYPE svg PUBLIC "-//W3C//DTD SVG 1.1//EN"
 "http://www.w3.org/Graphics/SVG/1.1/DTD/svg11.dtd">
<!-- Generated by graphviz version 2.40.1 (20161225.0304)
 -->
<!-- Title: include/libgrading.h Pages: 1 -->
<svg width="525pt" height="92pt"
 viewBox="0.00 0.00 525.31 92.05" xmlns="http://www.w3.org/2000/svg" xmlns:xlink="http://www.w3.org/1999/xlink">
<g id="graph0" class="graph" transform="scale(1 1) rotate(0) translate(4 88.0519)">
<title>include/libgrading.h</title>
<!-- Node0 -->
<g id="node1" class="node">
<title>Node0</title>
<polygon fill="#bfbfbf" stroke="#000000" points="201.447,-60.526 201.447,-83.5519 316.623,-83.5519 316.623,-60.526 201.447,-60.526"/>
<text text-anchor="middle" x="259.035" y="-70.7519" font-family="Avenir-Book" font-size="11.00" fill="#000000">include/libgrading.h</text>
</g>
<!-- Node1 -->
<g id="node2" class="node">
<title>Node1</title>
<polygon fill="none" stroke="#bfbfbf" points="0,-.5 0,-23.526 64.07,-23.526 64.07,-.5 0,-.5"/>
<text text-anchor="middle" x="32.035" y="-10.726" font-family="Avenir-Book" font-size="11.00" fill="#000000">functional</text>
</g>
<!-- Node0&#45;&gt;Node1 -->
<g id="edge1" class="edge">
<title>Node0&#45;&gt;Node1</title>
<path fill="none" stroke="#191970" d="M212.6793,-60.5165C177.1909,-51.595 126.7913,-38.7102 74.0984,-24.2688"/>
<polygon fill="#191970" stroke="#191970" points="74.8061,-20.8336 64.2359,-21.5548 72.9488,-27.5827 74.8061,-20.8336"/>
</g>
<!-- Node2 -->
<g id="node3" class="node">
<title>Node2</title>
<polygon fill="none" stroke="#bfbfbf" points="81.959,-.5 81.959,-23.526 140.111,-23.526 140.111,-.5 81.959,-.5"/>
<text text-anchor="middle" x="111.035" y="-10.726" font-family="Avenir-Book" font-size="11.00" fill="#000000">iostream</text>
</g>
<!-- Node0&#45;&gt;Node2 -->
<g id="edge2" class="edge">
<title>Node0&#45;&gt;Node2</title>
<path fill="none" stroke="#191970" d="M230.4991,-60.4653C207.2605,-51.0402 174.2554,-37.654 148.8234,-27.3392"/>
<polygon fill="#191970" stroke="#191970" points="150.0656,-24.0662 139.4833,-23.5511 147.4346,-30.553 150.0656,-24.0662"/>
</g>
<!-- Node3 -->
<g id="node4" class="node">
<title>Node3</title>
<polygon fill="none" stroke="#bfbfbf" points="157.8665,-.5 157.8665,-23.526 214.2035,-23.526 214.2035,-.5 157.8665,-.5"/>
<text text-anchor="middle" x="186.035" y="-10.726" font-family="Avenir-Book" font-size="11.00" fill="#000000">memory</text>
</g>
<!-- Node0&#45;&gt;Node3 -->
<g id="edge3" class="edge">
<title>Node0&#45;&gt;Node3</title>
<path fill="none" stroke="#191970" d="M244.9599,-60.4653C234.457,-51.8291 219.9095,-39.8671 207.8972,-29.9897"/>
<polygon fill="#191970" stroke="#191970" points="210.014,-27.199 200.0669,-23.5511 205.568,-32.6058 210.014,-27.199"/>
</g>
<!-- Node4 -->
<g id="node5" class="node">
<title>Node4</title>
<polygon fill="none" stroke="#bfbfbf" points="232.1975,-.5 232.1975,-23.526 285.8725,-23.526 285.8725,-.5 232.1975,-.5"/>
<text text-anchor="middle" x="259.035" y="-10.726" font-family="Avenir-Book" font-size="11.00" fill="#000000">sstream</text>
</g>
<!-- Node0&#45;&gt;Node4 -->
<g id="edge4" class="edge">
<title>Node0&#45;&gt;Node4</title>
<path fill="none" stroke="#191970" d="M259.035,-60.4653C259.035,-52.9086 259.035,-42.8056 259.035,-33.7809"/>
<polygon fill="#191970" stroke="#191970" points="262.5351,-33.551 259.035,-23.5511 255.5351,-33.5511 262.5351,-33.551"/>
</g>
<!-- Node5 -->
<g id="node6" class="node">
<title>Node5</title>
<polygon fill="none" stroke="#bfbfbf" points="304.3015,-.5 304.3015,-23.526 347.7685,-23.526 347.7685,-.5 304.3015,-.5"/>
<text text-anchor="middle" x="326.035" y="-10.726" font-family="Avenir-Book" font-size="11.00" fill="#000000">string</text>
</g>
<!-- Node0&#45;&gt;Node5 -->
<g id="edge5" class="edge">
<title>Node0&#45;&gt;Node5</title>
<path fill="none" stroke="#191970" d="M271.9533,-60.4653C281.5002,-51.9121 294.6883,-40.0968 305.651,-30.2752"/>
<polygon fill="#191970" stroke="#191970" points="308.0438,-32.8307 313.1564,-23.5511 303.3728,-27.6171 308.0438,-32.8307"/>
</g>
<!-- Node6 -->
<g id="node7" class="node">
<title>Node6</title>
<polygon fill="none" stroke="#bfbfbf" points="365.3895,-.5 365.3895,-23.526 452.6805,-23.526 452.6805,-.5 365.3895,-.5"/>
<text text-anchor="middle" x="409.035" y="-10.726" font-family="Avenir-Book" font-size="11.00" fill="#000000">unordered_set</text>
</g>
<!-- Node0&#45;&gt;Node6 -->
<g id="edge6" class="edge">
<title>Node0&#45;&gt;Node6</title>
<path fill="none" stroke="#191970" d="M287.9565,-60.4653C311.5092,-51.0402 344.9603,-37.654 370.7359,-27.3392"/>
<polygon fill="#191970" stroke="#191970" points="372.2184,-30.5159 380.2023,-23.5511 369.6177,-24.0169 372.2184,-30.5159"/>
</g>
<!-- Node7 -->
<g id="node8" class="node">
<title>Node7</title>
<polygon fill="none" stroke="#bfbfbf" points="470.7615,-.5 470.7615,-23.526 517.3085,-23.526 517.3085,-.5 470.7615,-.5"/>
<text text-anchor="middle" x="494.035" y="-10.726" font-family="Avenir-Book" font-size="11.00" fill="#000000">vector</text>
</g>
<!-- Node0&#45;&gt;Node7 -->
<g id="edge7" class="edge">
<title>Node0&#45;&gt;Node7</title>
<path fill="none" stroke="#191970" d="M316.4282,-60.499C355.0502,-52.2687 407.2202,-40.2564 461.0269,-24.1048"/>
<polygon fill="#191970" stroke="#191970" points="462.1861,-27.4106 470.7339,-21.1507 460.148,-20.7138 462.1861,-27.4106"/>
</g>
</g>
</svg>
