<?xml version="1.0" encoding="UTF-8" standalone="no"?>
<!DOCTYPE svg PUBLIC "-//W3C//DTD SVG 1.1//EN"
 "http://www.w3.org/Graphics/SVG/1.1/DTD/svg11.dtd">
<!-- Generated by graphviz version 2.36.0 (20140111.2315)
 -->
<!-- Title: include/libgrading.h Pages: 1 -->
<svg width="529pt" height="88pt"
 viewBox="0.00 0.00 529.00 88.00" xmlns="http://www.w3.org/2000/svg" xmlns:xlink="http://www.w3.org/1999/xlink">
<g id="graph0" class="graph" transform="scale(1 1) rotate(0) translate(4 84)">
<title>include/libgrading.h</title>
<!-- Node1 -->
<g id="node1" class="node"><title>Node1</title>
<polygon fill="#bfbfbf" stroke="black" points="206.5,-59 206.5,-79 317.5,-79 317.5,-59 206.5,-59"/>
<text text-anchor="middle" x="262" y="-66.2" font-family="Avenir-Book" font-size="11.00">include/libgrading.h</text>
</g>
<!-- Node2 -->
<g id="node2" class="node"><title>Node2</title>
<polygon fill="none" stroke="#bfbfbf" points="0,-1 0,-21 64,-21 64,-1 0,-1"/>
<text text-anchor="middle" x="32" y="-8.2" font-family="Avenir-Book" font-size="11.00">functional</text>
</g>
<!-- Node1&#45;&gt;Node2 -->
<g id="edge1" class="edge"><title>Node1&#45;&gt;Node2</title>
<path fill="none" stroke="midnightblue" d="M224.703,-58.9282C188.665,-50.1612 132.256,-36.4353 74.2991,-22.3158"/>
<polygon fill="midnightblue" stroke="midnightblue" points="74.7729,-18.8289 64.2286,-19.8622 73.1159,-25.6299 74.7729,-18.8289"/>
</g>
<!-- Node3 -->
<g id="node3" class="node"><title>Node3</title>
<polygon fill="none" stroke="#bfbfbf" points="82.5,-1 82.5,-21 141.5,-21 141.5,-1 82.5,-1"/>
<text text-anchor="middle" x="112" y="-8.2" font-family="Avenir-Book" font-size="11.00">iostream</text>
</g>
<!-- Node1&#45;&gt;Node3 -->
<g id="edge2" class="edge"><title>Node1&#45;&gt;Node3</title>
<path fill="none" stroke="midnightblue" d="M237.566,-58.878C212.723,-49.6034 174.026,-35.1564 146.156,-24.7515"/>
<polygon fill="midnightblue" stroke="midnightblue" points="147.016,-21.3368 136.423,-21.1181 144.568,-27.8946 147.016,-21.3368"/>
</g>
<!-- Node4 -->
<g id="node4" class="node"><title>Node4</title>
<polygon fill="none" stroke="#bfbfbf" points="160,-1 160,-21 216,-21 216,-1 160,-1"/>
<text text-anchor="middle" x="188" y="-8.2" font-family="Avenir-Book" font-size="11.00">memory</text>
</g>
<!-- Node1&#45;&gt;Node4 -->
<g id="edge3" class="edge"><title>Node1&#45;&gt;Node4</title>
<path fill="none" stroke="midnightblue" d="M249.78,-58.7527C238.466,-50.1903 221.429,-37.2978 208.11,-27.2186"/>
<polygon fill="midnightblue" stroke="midnightblue" points="210.078,-24.3187 199.992,-21.0752 205.854,-29.9006 210.078,-24.3187"/>
</g>
<!-- Node5 -->
<g id="node5" class="node"><title>Node5</title>
<polygon fill="none" stroke="#bfbfbf" points="234,-1 234,-21 290,-21 290,-1 234,-1"/>
<text text-anchor="middle" x="262" y="-8.2" font-family="Avenir-Book" font-size="11.00">sstream</text>
</g>
<!-- Node1&#45;&gt;Node5 -->
<g id="edge4" class="edge"><title>Node1&#45;&gt;Node5</title>
<path fill="none" stroke="midnightblue" d="M262,-58.7527C262,-51.2504 262,-40.4238 262,-31.0781"/>
<polygon fill="midnightblue" stroke="midnightblue" points="265.5,-31.0752 262,-21.0752 258.5,-31.0752 265.5,-31.0752"/>
</g>
<!-- Node6 -->
<g id="node6" class="node"><title>Node6</title>
<polygon fill="none" stroke="#bfbfbf" points="308.5,-1 308.5,-21 351.5,-21 351.5,-1 308.5,-1"/>
<text text-anchor="middle" x="330" y="-8.2" font-family="Avenir-Book" font-size="11.00">string</text>
</g>
<!-- Node1&#45;&gt;Node6 -->
<g id="edge5" class="edge"><title>Node1&#45;&gt;Node6</title>
<path fill="none" stroke="midnightblue" d="M273.229,-58.7527C283.527,-50.2718 298.984,-37.543 311.17,-27.5073"/>
<polygon fill="midnightblue" stroke="midnightblue" points="313.486,-30.1341 318.98,-21.0752 309.036,-24.7305 313.486,-30.1341"/>
</g>
<!-- Node7 -->
<g id="node7" class="node"><title>Node7</title>
<polygon fill="none" stroke="#bfbfbf" points="369.5,-1 369.5,-21 456.5,-21 456.5,-1 369.5,-1"/>
<text text-anchor="middle" x="413" y="-8.2" font-family="Avenir-Book" font-size="11.00">unordered_set</text>
</g>
<!-- Node1&#45;&gt;Node7 -->
<g id="edge6" class="edge"><title>Node1&#45;&gt;Node7</title>
<path fill="none" stroke="midnightblue" d="M286.597,-58.878C311.715,-49.5628 350.902,-35.0296 378.985,-24.6149"/>
<polygon fill="midnightblue" stroke="midnightblue" points="380.255,-27.8769 388.414,-21.1181 377.821,-21.3138 380.255,-27.8769"/>
</g>
<!-- Node8 -->
<g id="node8" class="node"><title>Node8</title>
<polygon fill="none" stroke="#bfbfbf" points="475,-1 475,-21 521,-21 521,-1 475,-1"/>
<text text-anchor="middle" x="498" y="-8.2" font-family="Avenir-Book" font-size="11.00">vector</text>
</g>
<!-- Node1&#45;&gt;Node8 -->
<g id="edge7" class="edge"><title>Node1&#45;&gt;Node8</title>
<path fill="none" stroke="midnightblue" d="M306.176,-58.9404C347.447,-50.2521 410.675,-36.3665 465,-22 465.101,-21.9732 465.203,-21.9463 465.304,-21.9193"/>
<polygon fill="midnightblue" stroke="midnightblue" points="466.298,-25.2757 474.981,-19.2044 464.407,-18.536 466.298,-25.2757"/>
</g>
</g>
</svg>
