<?xml version="1.0" encoding="UTF-8" standalone="no"?>
<!DOCTYPE svg PUBLIC "-//W3C//DTD SVG 1.1//EN"
 "http://www.w3.org/Graphics/SVG/1.1/DTD/svg11.dtd">
<!-- Generated by graphviz version 2.40.1 (20161225.0304)
 -->
<!-- Title: ForkTest Pages: 1 -->
<svg width="197pt" height="74pt"
 viewBox="0.00 0.00 196.81 74.03" xmlns="http://www.w3.org/2000/svg" xmlns:xlink="http://www.w3.org/1999/xlink">
<g id="graph0" class="graph" transform="scale(1 1) rotate(0) translate(4 70.026)">
<title>ForkTest</title>
<!-- Node18 -->
<g id="node1" class="node">
<title>Node18</title>
<g id="a_node1"><a xlink:title="Run a test in another process.">
<polygon fill="#bfbfbf" stroke="#000000" points="0,-21.5 0,-44.526 57.14,-44.526 57.14,-21.5 0,-21.5"/>
<text text-anchor="middle" x="28.57" y="-31.726" font-family="Avenir-Book" font-size="11.00" fill="#000000">ForkTest</text>
</a>
</g>
</g>
<!-- Node19 -->
<g id="node2" class="node">
<title>Node19</title>
<g id="a_node2"><a xlink:href="namespacegrading.html#a125c5e8b85f83dcab13826e5da373d54" target="_top" xlink:title="Map data into the address space that can be shared with other processes.">
<polygon fill="none" stroke="#000000" points="93.14,-42.5 93.14,-65.526 188.813,-65.526 188.813,-42.5 93.14,-42.5"/>
<text text-anchor="middle" x="140.9765" y="-52.726" font-family="Avenir-Book" font-size="11.00" fill="#000000">MapSharedData</text>
</a>
</g>
</g>
<!-- Node18&#45;&gt;Node19 -->
<g id="edge1" class="edge">
<title>Node18&#45;&gt;Node19</title>
<path fill="none" stroke="#191970" d="M57.2257,-38.3665C65.0708,-39.8321 73.8673,-41.4755 82.7315,-43.1315"/>
<polygon fill="#191970" stroke="#191970" points="82.2485,-46.6018 92.7213,-44.9978 83.5341,-39.7208 82.2485,-46.6018"/>
</g>
<!-- Node20 -->
<g id="node3" class="node">
<title>Node20</title>
<g id="a_node3"><a xlink:href="namespacegrading.html#a4cb6923cc6515542df2609ad10e79e2c" target="_top" xlink:title="Run a test in the current process, catching all exceptions.">
<polygon fill="none" stroke="#000000" points="100.5485,-.5 100.5485,-23.526 181.4045,-23.526 181.4045,-.5 100.5485,-.5"/>
<text text-anchor="middle" x="140.9765" y="-10.726" font-family="Avenir-Book" font-size="11.00" fill="#000000">RunInProcess</text>
</a>
</g>
</g>
<!-- Node18&#45;&gt;Node20 -->
<g id="edge2" class="edge">
<title>Node18&#45;&gt;Node20</title>
<path fill="none" stroke="#191970" d="M57.2257,-27.6595C67.3881,-25.7609 79.1468,-23.5641 90.5813,-21.4279"/>
<polygon fill="#191970" stroke="#191970" points="91.311,-24.8522 100.4982,-19.5752 90.0255,-17.9713 91.311,-24.8522"/>
</g>
</g>
</svg>
