<?xml version="1.0" encoding="UTF-8" standalone="no"?>
<!DOCTYPE svg PUBLIC "-//W3C//DTD SVG 1.1//EN"
 "http://www.w3.org/Graphics/SVG/1.1/DTD/svg11.dtd">
<!-- Generated by graphviz version 2.40.1 (20161225.0304)
 -->
<!-- Title: MapSharedData Pages: 1 -->
<svg width="371pt" height="29pt"
 viewBox="0.00 0.00 371.00 29.00" xmlns="http://www.w3.org/2000/svg" xmlns:xlink="http://www.w3.org/1999/xlink">
<g id="graph0" class="graph" transform="scale(1 1) rotate(0) translate(4 25)">
<title>MapSharedData</title>
<!-- Node24 -->
<g id="node1" class="node">
<title>Node24</title>
<g id="a_node1"><a xlink:title="Map data into the address space that can be shared with other processes.">
<polygon fill="#bfbfbf" stroke="#000000" points="255,-.5 255,-20.5 363,-20.5 363,-.5 255,-.5"/>
<text text-anchor="middle" x="309" y="-7.7" font-family="Avenir-Book" font-size="11.00" fill="#000000">MapSharedData</text>
</a>
</g>
</g>
<!-- Node25 -->
<g id="node2" class="node">
<title>Node25</title>
<g id="a_node2"><a xlink:href="namespacegrading.html#a33c566b4173ebd55bf3df8db7c018a90" target="_top" xlink:title="Run a test in another process.">
<polygon fill="none" stroke="#000000" points="156,-.5 156,-20.5 219,-20.5 219,-.5 156,-.5"/>
<text text-anchor="middle" x="187.5" y="-7.7" font-family="Avenir-Book" font-size="11.00" fill="#000000">ForkTest</text>
</a>
</g>
</g>
<!-- Node24&#45;&gt;Node25 -->
<g id="edge1" class="edge">
<title>Node24&#45;&gt;Node25</title>
<path fill="none" stroke="#191970" d="M244.373,-10.5C235.6262,-10.5 226.987,-10.5 219.1847,-10.5"/>
<polygon fill="#191970" stroke="#191970" points="244.6467,-14.0001 254.6467,-10.5 244.6466,-7.0001 244.6467,-14.0001"/>
</g>
<!-- Node26 -->
<g id="node3" class="node">
<title>Node26</title>
<g id="a_node3"><a xlink:href="classgrading_1_1Test.html#a35f66472a58c538166b8325967fc5c00" target="_top" xlink:title="Run this test.">
<polygon fill="none" stroke="#000000" points="0,-.5 0,-20.5 120,-20.5 120,-.5 0,-.5"/>
<text text-anchor="middle" x="60" y="-7.7" font-family="Avenir-Book" font-size="11.00" fill="#000000">grading::Test::Run</text>
</a>
</g>
</g>
<!-- Node25&#45;&gt;Node26 -->
<g id="edge2" class="edge">
<title>Node25&#45;&gt;Node26</title>
<path fill="none" stroke="#191970" d="M145.8604,-10.5C137.5902,-10.5 128.7534,-10.5 120.0107,-10.5"/>
<polygon fill="#191970" stroke="#191970" points="145.9832,-14.0001 155.9831,-10.5 145.9831,-7.0001 145.9832,-14.0001"/>
</g>
</g>
</svg>
