<?xml version="1.0" encoding="UTF-8" standalone="no"?>
<!DOCTYPE svg PUBLIC "-//W3C//DTD SVG 1.1//EN"
 "http://www.w3.org/Graphics/SVG/1.1/DTD/svg11.dtd">
<!-- Generated by graphviz version 2.38.0 (20140413.2041)
 -->
<!-- Title: operator&amp;&amp; Pages: 1 -->
<svg width="255pt" height="92pt"
 viewBox="0.00 0.00 255.00 92.00" xmlns="http://www.w3.org/2000/svg" xmlns:xlink="http://www.w3.org/1999/xlink">
<g id="graph0" class="graph" transform="scale(1 1) rotate(0) translate(4 88)">
<title>operator&amp;&amp;</title>
<!-- Node1 -->
<g id="node1" class="node"><title>Node1</title>
<polygon fill="#bfbfbf" stroke="black" points="0,-31.5 0,-51.5 80,-51.5 80,-31.5 0,-31.5"/>
<text text-anchor="middle" x="40" y="-38.7" font-family="Avenir-Book" font-size="11.00">operator&amp;&amp;</text>
</g>
<!-- Node2 -->
<g id="node2" class="node"><title>Node2</title>
<g id="a_node2"><a xlink:href="classgrading_1_1CheckResult.html#a02d5fa6b14e221f3012a794b905be166" target="_top" xlink:title="Cancel the error: the result is actually ok (e.g., because of a logical OR) or else the error&#39;s owner...">
<polygon fill="none" stroke="black" points="116,-51.5 116,-83.5 247,-83.5 247,-51.5 116,-51.5"/>
<text text-anchor="start" x="124" y="-70.7" font-family="Avenir-Book" font-size="11.00">grading::CheckResult</text>
<text text-anchor="middle" x="181.5" y="-58.7" font-family="Avenir-Book" font-size="11.00">::cancel</text>
</a>
</g>
</g>
<!-- Node1&#45;&gt;Node2 -->
<g id="edge1" class="edge"><title>Node1&#45;&gt;Node2</title>
<path fill="none" stroke="midnightblue" d="M80.2298,-48.8116C88.3099,-50.3176 97.0707,-51.9504 105.936,-53.6027"/>
<polygon fill="midnightblue" stroke="midnightblue" points="105.486,-57.0791 115.958,-55.4707 106.769,-50.1976 105.486,-57.0791"/>
</g>
<!-- Node3 -->
<g id="node3" class="node"><title>Node3</title>
<g id="a_node3"><a xlink:href="classgrading_1_1CheckResult.html#a5679ca29245899bbe1dc3ccd6afe7222" target="_top" xlink:title="A message to display if the check fails. ">
<polygon fill="none" stroke="black" points="116,-0.5 116,-32.5 247,-32.5 247,-0.5 116,-0.5"/>
<text text-anchor="start" x="124" y="-19.7" font-family="Avenir-Book" font-size="11.00">grading::CheckResult</text>
<text text-anchor="middle" x="181.5" y="-7.7" font-family="Avenir-Book" font-size="11.00">::message</text>
</a>
</g>
</g>
<!-- Node1&#45;&gt;Node3 -->
<g id="edge2" class="edge"><title>Node1&#45;&gt;Node3</title>
<path fill="none" stroke="midnightblue" d="M80.2298,-34.4696C88.3099,-33.0215 97.0707,-31.4515 105.936,-29.8628"/>
<polygon fill="midnightblue" stroke="midnightblue" points="106.732,-33.2759 115.958,-28.0666 105.497,-26.3856 106.732,-33.2759"/>
</g>
</g>
</svg>
