<?xml version="1.0" encoding="UTF-8" standalone="no"?>
<!DOCTYPE svg PUBLIC "-//W3C//DTD SVG 1.1//EN"
 "http://www.w3.org/Graphics/SVG/1.1/DTD/svg11.dtd">
<!-- Generated by graphviz version 2.38.0 (20140413.2041)
 -->
<!-- Title: grading::operator&amp;&amp; Pages: 1 -->
<svg width="303pt" height="92pt"
 viewBox="0.00 0.00 303.00 92.00" xmlns="http://www.w3.org/2000/svg" xmlns:xlink="http://www.w3.org/1999/xlink">
<g id="graph0" class="graph" transform="scale(1 1) rotate(0) translate(4 88)">
<title>grading::operator&amp;&amp;</title>
<!-- Node1 -->
<g id="node1" class="node"><title>Node1</title>
<polygon fill="#bfbfbf" stroke="black" points="0,-31.5 0,-51.5 128,-51.5 128,-31.5 0,-31.5"/>
<text text-anchor="middle" x="64" y="-38.7" font-family="Avenir-Book" font-size="11.00">grading::operator&amp;&amp;</text>
</g>
<!-- Node2 -->
<g id="node2" class="node"><title>Node2</title>
<g id="a_node2"><a xlink:href="classgrading_1_1CheckResult.html#ad02c8fb5c001080578f1486b436cb901" target="_top" xlink:title="Cancel the error: the result is actually ok (e.g., because of a logical OR) or else the error&#39;s owner...">
<polygon fill="none" stroke="black" points="164,-51.5 164,-83.5 295,-83.5 295,-51.5 164,-51.5"/>
<text text-anchor="start" x="172" y="-70.7" font-family="Avenir-Book" font-size="11.00">grading::CheckResult</text>
<text text-anchor="middle" x="229.5" y="-58.7" font-family="Avenir-Book" font-size="11.00">::cancel</text>
</a>
</g>
</g>
<!-- Node1&#45;&gt;Node2 -->
<g id="edge1" class="edge"><title>Node1&#45;&gt;Node2</title>
<path fill="none" stroke="midnightblue" d="M128.213,-51.5523C136.61,-52.8875 145.282,-54.2665 153.849,-55.6288"/>
<polygon fill="midnightblue" stroke="midnightblue" points="153.409,-59.1028 163.835,-57.2168 154.508,-52.1897 153.409,-59.1028"/>
</g>
<!-- Node3 -->
<g id="node3" class="node"><title>Node3</title>
<g id="a_node3"><a xlink:href="classgrading_1_1CheckResult.html#ac18139025d3746382c1dd44a4a5b363a" target="_top" xlink:title="A message to display if the check fails. ">
<polygon fill="none" stroke="black" points="164,-0.5 164,-32.5 295,-32.5 295,-0.5 164,-0.5"/>
<text text-anchor="start" x="172" y="-19.7" font-family="Avenir-Book" font-size="11.00">grading::CheckResult</text>
<text text-anchor="middle" x="229.5" y="-7.7" font-family="Avenir-Book" font-size="11.00">::message</text>
</a>
</g>
</g>
<!-- Node1&#45;&gt;Node3 -->
<g id="edge2" class="edge"><title>Node1&#45;&gt;Node3</title>
<path fill="none" stroke="midnightblue" d="M128.213,-31.8343C136.61,-30.5505 145.282,-29.2245 153.849,-27.9146"/>
<polygon fill="midnightblue" stroke="midnightblue" points="154.479,-31.359 163.835,-26.3877 153.42,-24.4395 154.479,-31.359"/>
</g>
</g>
</svg>
