<?xml version="1.0" encoding="UTF-8" standalone="no"?>
<!DOCTYPE svg PUBLIC "-//W3C//DTD SVG 1.1//EN"
 "http://www.w3.org/Graphics/SVG/1.1/DTD/svg11.dtd">
<!-- Generated by graphviz version 2.36.0 (20140111.2315)
 -->
<!-- Title: operator&lt;&lt; Pages: 1 -->
<svg width="306pt" height="40pt"
 viewBox="0.00 0.00 306.00 40.00" xmlns="http://www.w3.org/2000/svg" xmlns:xlink="http://www.w3.org/1999/xlink">
<g id="graph0" class="graph" transform="scale(1 1) rotate(0) translate(4 36)">
<title>operator&lt;&lt;</title>
<!-- Node1 -->
<g id="node1" class="node"><title>Node1</title>
<polygon fill="#bfbfbf" stroke="black" points="0,-6 0,-26 70,-26 70,-6 0,-6"/>
<text text-anchor="middle" x="35" y="-13.2" font-family="Avenir-Book" font-size="11.00">operator&lt;&lt;</text>
</g>
<!-- Node2 -->
<g id="node2" class="node"><title>Node2</title>
<g id="a_node2"><a xlink:href="namespacegrading.html#a395448d7484928cd96ef99470b0d9109" target="_top" xlink:title="Fail the current test. ">
<polygon fill="none" stroke="black" points="106,-6 106,-26 140,-26 140,-6 106,-6"/>
<text text-anchor="middle" x="123" y="-13.2" font-family="Avenir-Book" font-size="11.00">Fail</text>
</a>
</g>
</g>
<!-- Node1&#45;&gt;Node2 -->
<g id="edge1" class="edge"><title>Node1&#45;&gt;Node2</title>
<path fill="none" stroke="midnightblue" d="M70.484,-16C78.837,-16 87.6366,-16 95.5529,-16"/>
<polygon fill="midnightblue" stroke="midnightblue" points="95.6755,-19.5001 105.675,-16 95.6755,-12.5001 95.6755,-19.5001"/>
</g>
<!-- Node3 -->
<g id="node3" class="node"><title>Node3</title>
<g id="a_node3"><a xlink:href="classgrading_1_1_check_result.html#aa40a4ffbd2ed79d36078a96dab3e2197" target="_top" xlink:title="&quot;All&#39;s&#45;well&quot; constructor (i.e., the check passed). ">
<polygon fill="none" stroke="black" points="176,-0 176,-32 298,-32 298,-0 176,-0"/>
<text text-anchor="start" x="184" y="-19.2" font-family="Avenir-Book" font-size="11.00">grading::CheckResult</text>
<text text-anchor="middle" x="237" y="-7.2" font-family="Avenir-Book" font-size="11.00">::CheckResult</text>
</a>
</g>
</g>
<!-- Node2&#45;&gt;Node3 -->
<g id="edge2" class="edge"><title>Node2&#45;&gt;Node3</title>
<path fill="none" stroke="midnightblue" d="M140.047,-16C147.14,-16 156.017,-16 165.489,-16"/>
<polygon fill="midnightblue" stroke="midnightblue" points="165.526,-19.5001 175.526,-16 165.526,-12.5001 165.526,-19.5001"/>
</g>
</g>
</svg>
