<?xml version="1.0" encoding="UTF-8" standalone="no"?>
<!DOCTYPE svg PUBLIC "-//W3C//DTD SVG 1.1//EN"
 "http://www.w3.org/Graphics/SVG/1.1/DTD/svg11.dtd">
<!-- Generated by graphviz version 2.36.0 (20140111.2315)
 -->
<!-- Title: ForkTest Pages: 1 -->
<svg width="340pt" height="67pt"
 viewBox="0.00 0.00 340.00 67.00" xmlns="http://www.w3.org/2000/svg" xmlns:xlink="http://www.w3.org/1999/xlink">
<g id="graph0" class="graph" transform="scale(1 1) rotate(0) translate(4 63)">
<title>ForkTest</title>
<!-- Node1 -->
<g id="node1" class="node"><title>Node1</title>
<polygon fill="#bfbfbf" stroke="black" points="0,-19 0,-39 60,-39 60,-19 0,-19"/>
<text text-anchor="middle" x="30" y="-26.2" font-family="Avenir-Book" font-size="11.00">ForkTest</text>
</g>
<!-- Node2 -->
<g id="node2" class="node"><title>Node2</title>
<g id="a_node2"><a xlink:href="namespacegrading.html#aed77613e7ee73c012e02edbcbcb9ec7d" target="_top" xlink:title="Enter unprivileged testing sandbox, if supported. ">
<polygon fill="none" stroke="black" points="96,-39 96,-59 182,-59 182,-39 96,-39"/>
<text text-anchor="middle" x="139" y="-46.2" font-family="Avenir-Book" font-size="11.00">EnterSandbox</text>
</a>
</g>
</g>
<!-- Node1&#45;&gt;Node2 -->
<g id="edge1" class="edge"><title>Node1&#45;&gt;Node2</title>
<path fill="none" stroke="midnightblue" d="M60.2382,-34.4651C68.2406,-35.9609 77.1617,-37.6284 86.0269,-39.2854"/>
<polygon fill="midnightblue" stroke="midnightblue" points="85.4875,-42.7451 95.9603,-41.1421 86.7736,-35.8643 85.4875,-42.7451"/>
</g>
<!-- Node3 -->
<g id="node3" class="node"><title>Node3</title>
<g id="a_node3"><a xlink:href="namespacegrading.html#a9cdfc5dd1e8d1d603833c8a9def1af77" target="_top" xlink:title="Run a test in the current process, catching all exceptions. ">
<polygon fill="none" stroke="black" points="96,-0 96,-20 182,-20 182,-0 96,-0"/>
<text text-anchor="middle" x="139" y="-7.2" font-family="Avenir-Book" font-size="11.00">RunInProcess</text>
</a>
</g>
</g>
<!-- Node1&#45;&gt;Node3 -->
<g id="edge2" class="edge"><title>Node1&#45;&gt;Node3</title>
<path fill="none" stroke="midnightblue" d="M60.2382,-23.8082C68.2406,-22.3872 77.1617,-20.8031 86.0269,-19.2289"/>
<polygon fill="midnightblue" stroke="midnightblue" points="86.7263,-22.6595 95.9603,-17.465 85.5024,-15.7673 86.7263,-22.6595"/>
</g>
<!-- Node4 -->
<g id="node4" class="node"><title>Node4</title>
<g id="a_node4"><a xlink:href="classgrading_1_1_test.html#a37627d5d5bba7f4a8690c71c2ab3cb07" target="_top" xlink:title="User&#45;meaningful test name (ideally a single line or less). ">
<polygon fill="none" stroke="black" points="218,-0 218,-20 332,-20 332,-0 218,-0"/>
<text text-anchor="middle" x="275" y="-7.2" font-family="Avenir-Book" font-size="11.00">grading::Test::name</text>
</a>
</g>
</g>
<!-- Node3&#45;&gt;Node4 -->
<g id="edge3" class="edge"><title>Node3&#45;&gt;Node4</title>
<path fill="none" stroke="midnightblue" d="M182.031,-10C190.195,-10 198.937,-10 207.664,-10"/>
<polygon fill="midnightblue" stroke="midnightblue" points="207.867,-13.5001 217.867,-10 207.866,-6.5001 207.867,-13.5001"/>
</g>
</g>
</svg>
