<?xml version="1.0" encoding="UTF-8" standalone="no"?>
<!DOCTYPE svg PUBLIC "-//W3C//DTD SVG 1.1//EN"
 "http://www.w3.org/Graphics/SVG/1.1/DTD/svg11.dtd">
<!-- Generated by graphviz version 2.40.1 (20161225.0304)
 -->
<!-- Title: operator &amp;&amp; Pages: 1 -->
<svg width="267pt" height="92pt"
 viewBox="0.00 0.00 267.00 92.00" xmlns="http://www.w3.org/2000/svg" xmlns:xlink="http://www.w3.org/1999/xlink">
<g id="graph0" class="graph" transform="scale(1 1) rotate(0) translate(4 88)">
<title>operator &amp;&amp;</title>
<!-- Node27 -->
<g id="node1" class="node">
<title>Node27</title>
<g id="a_node1"><a xlink:title="Combine the results of two checks using a product (AND): both must pass.">
<polygon fill="#bfbfbf" stroke="#000000" points="0,-31.5 0,-51.5 86,-51.5 86,-31.5 0,-31.5"/>
<text text-anchor="middle" x="43" y="-38.7" font-family="Avenir-Book" font-size="11.00" fill="#000000">operator &amp;&amp;</text>
</a>
</g>
</g>
<!-- Node28 -->
<g id="node2" class="node">
<title>Node28</title>
<g id="a_node2"><a xlink:href="classgrading_1_1CheckResult.html#a02d5fa6b14e221f3012a794b905be166" target="_top" xlink:title="Cancel the error: the result is actually ok (e.g., because of a logical OR) or else the error&#39;s owner...">
<polygon fill="none" stroke="#000000" points="122,-51.5 122,-83.5 259,-83.5 259,-51.5 122,-51.5"/>
<text text-anchor="start" x="130" y="-70.7" font-family="Avenir-Book" font-size="11.00" fill="#000000">grading::CheckResult</text>
<text text-anchor="middle" x="190.5" y="-58.7" font-family="Avenir-Book" font-size="11.00" fill="#000000">::cancel</text>
</a>
</g>
</g>
<!-- Node27&#45;&gt;Node28 -->
<g id="edge1" class="edge">
<title>Node27&#45;&gt;Node28</title>
<path fill="none" stroke="#191970" d="M86.0596,-49.0902C94.2148,-50.5277 102.9793,-52.0726 111.8387,-53.6343"/>
<polygon fill="#191970" stroke="#191970" points="111.3985,-57.1106 121.8543,-55.3997 112.6137,-50.2168 111.3985,-57.1106"/>
</g>
<!-- Node29 -->
<g id="node3" class="node">
<title>Node29</title>
<g id="a_node3"><a xlink:href="classgrading_1_1CheckResult.html#a9fc62bb96c3174d6d9945644308ecc8c" target="_top" xlink:title="A message to display if the check fails.">
<polygon fill="none" stroke="#000000" points="122,-.5 122,-32.5 259,-32.5 259,-.5 122,-.5"/>
<text text-anchor="start" x="130" y="-19.7" font-family="Avenir-Book" font-size="11.00" fill="#000000">grading::CheckResult</text>
<text text-anchor="middle" x="190.5" y="-7.7" font-family="Avenir-Book" font-size="11.00" fill="#000000">::message</text>
</a>
</g>
</g>
<!-- Node27&#45;&gt;Node29 -->
<g id="edge2" class="edge">
<title>Node27&#45;&gt;Node29</title>
<path fill="none" stroke="#191970" d="M86.0596,-34.2018C94.2148,-32.8195 102.9793,-31.334 111.8387,-29.8324"/>
<polygon fill="#191970" stroke="#191970" points="112.5798,-33.2568 121.8543,-28.1349 111.41,-26.3552 112.5798,-33.2568"/>
</g>
</g>
</svg>
