<?xml version="1.0" encoding="UTF-8" standalone="no"?>
<!DOCTYPE svg PUBLIC "-//W3C//DTD SVG 1.1//EN"
 "http://www.w3.org/Graphics/SVG/1.1/DTD/svg11.dtd">
<!-- Generated by graphviz version 2.36.0 (20140111.2315)
 -->
<!-- Title: CheckFloat Pages: 1 -->
<svg width="238pt" height="91pt"
 viewBox="0.00 0.00 238.00 91.00" xmlns="http://www.w3.org/2000/svg" xmlns:xlink="http://www.w3.org/1999/xlink">
<g id="graph0" class="graph" transform="scale(1 1) rotate(0) translate(4 87)">
<title>CheckFloat</title>
<!-- Node1 -->
<g id="node1" class="node"><title>Node1</title>
<polygon fill="#bfbfbf" stroke="black" points="0,-31 0,-51 72,-51 72,-31 0,-31"/>
<text text-anchor="middle" x="36" y="-38.2" font-family="Avenir-Book" font-size="11.00">CheckFloat</text>
</g>
<!-- Node2 -->
<g id="node2" class="node"><title>Node2</title>
<g id="a_node2"><a xlink:href="classgrading_1_1_check_result.html#aa40a4ffbd2ed79d36078a96dab3e2197" target="_top" xlink:title="&quot;All&#39;s&#45;well&quot; constructor (i.e., the check passed). ">
<polygon fill="none" stroke="black" points="108,-51 108,-83 230,-83 230,-51 108,-51"/>
<text text-anchor="start" x="116" y="-70.2" font-family="Avenir-Book" font-size="11.00">grading::CheckResult</text>
<text text-anchor="middle" x="169" y="-58.2" font-family="Avenir-Book" font-size="11.00">::CheckResult</text>
</a>
</g>
</g>
<!-- Node1&#45;&gt;Node2 -->
<g id="edge1" class="edge"><title>Node1&#45;&gt;Node2</title>
<path fill="none" stroke="midnightblue" d="M72.1056,-47.9675C80.09,-49.5522 88.8487,-51.2906 97.725,-53.0523"/>
<polygon fill="midnightblue" stroke="midnightblue" points="97.2715,-56.5305 107.762,-55.0443 98.6343,-49.6644 97.2715,-56.5305"/>
</g>
<!-- Node3 -->
<g id="node3" class="node"><title>Node3</title>
<g id="a_node3"><a xlink:href="classgrading_1_1_check_result.html#a38cc0cf6cb8c20b57ae92558f887569e" target="_top" xlink:title="Whether or not the check result is erroneous. ">
<polygon fill="none" stroke="black" points="108,-0 108,-32 230,-32 230,-0 108,-0"/>
<text text-anchor="start" x="116" y="-19.2" font-family="Avenir-Book" font-size="11.00">grading::CheckResult</text>
<text text-anchor="middle" x="169" y="-7.2" font-family="Avenir-Book" font-size="11.00">::error</text>
</a>
</g>
</g>
<!-- Node1&#45;&gt;Node3 -->
<g id="edge2" class="edge"><title>Node1&#45;&gt;Node3</title>
<path fill="none" stroke="midnightblue" d="M72.1056,-34.3005C80.09,-32.7767 88.8487,-31.1052 97.725,-29.4113"/>
<polygon fill="midnightblue" stroke="midnightblue" points="98.595,-32.8085 107.762,-27.4959 97.2827,-25.9326 98.595,-32.8085"/>
</g>
</g>
</svg>
