<?xml version="1.0" encoding="UTF-8" standalone="no"?>
<!DOCTYPE svg PUBLIC "-//W3C//DTD SVG 1.1//EN"
 "http://www.w3.org/Graphics/SVG/1.1/DTD/svg11.dtd">
<!-- Generated by graphviz version 2.40.1 (20161225.0304)
 -->
<!-- Title: RunInProcess Pages: 1 -->
<svg width="323pt" height="32pt"
 viewBox="0.00 0.00 322.81 32.03" xmlns="http://www.w3.org/2000/svg" xmlns:xlink="http://www.w3.org/1999/xlink">
<g id="graph0" class="graph" transform="scale(1 1) rotate(0) translate(4 28.026)">
<title>RunInProcess</title>
<!-- Node45 -->
<g id="node1" class="node">
<title>Node45</title>
<polygon fill="#bfbfbf" stroke="#000000" points="0,-.5 0,-23.526 80.856,-23.526 80.856,-.5 0,-.5"/>
<text text-anchor="middle" x="40.428" y="-10.726" font-family="Avenir-Book" font-size="11.00" fill="#000000">RunInProcess</text>
</g>
<!-- Node46 -->
<g id="node2" class="node">
<title>Node46</title>
<g id="a_node2"><a xlink:href="namespacegrading.html#a33c566b4173ebd55bf3df8db7c018a90" target="_top" xlink:title="Run a test in another process. ">
<polygon fill="none" stroke="#000000" points="116.856,-.5 116.856,-23.526 173.996,-23.526 173.996,-.5 116.856,-.5"/>
<text text-anchor="middle" x="145.426" y="-10.726" font-family="Avenir-Book" font-size="11.00" fill="#000000">ForkTest</text>
</a>
</g>
</g>
<!-- Node45&#45;&gt;Node46 -->
<g id="edge1" class="edge">
<title>Node45&#45;&gt;Node46</title>
<path fill="none" stroke="#191970" d="M91.1991,-12.013C99.9423,-12.013 108.7494,-12.013 116.6491,-12.013"/>
<polygon fill="#191970" stroke="#191970" points="91.023,-8.5131 81.023,-12.013 91.0229,-15.5131 91.023,-8.5131"/>
</g>
<!-- Node47 -->
<g id="node3" class="node">
<title>Node47</title>
<g id="a_node3"><a xlink:href="classgrading_1_1_test.html#a35f66472a58c538166b8325967fc5c00" target="_top" xlink:title="Run this test. ">
<polygon fill="none" stroke="#000000" points="209.996,-.5 209.996,-23.526 314.81,-23.526 314.81,-.5 209.996,-.5"/>
<text text-anchor="middle" x="262.403" y="-10.726" font-family="Avenir-Book" font-size="11.00" fill="#000000">grading::Test::Run</text>
</a>
</g>
</g>
<!-- Node46&#45;&gt;Node47 -->
<g id="edge2" class="edge">
<title>Node46&#45;&gt;Node47</title>
<path fill="none" stroke="#191970" d="M184.1153,-12.013C192.3655,-12.013 201.2117,-12.013 209.8812,-12.013"/>
<polygon fill="#191970" stroke="#191970" points="184.0418,-8.5131 174.0418,-12.013 184.0418,-15.5131 184.0418,-8.5131"/>
</g>
</g>
</svg>
