<?xml version="1.0" encoding="UTF-8" standalone="no"?>
<!DOCTYPE svg PUBLIC "-//W3C//DTD SVG 1.1//EN"
 "http://www.w3.org/Graphics/SVG/1.1/DTD/svg11.dtd">
<!-- Generated by graphviz version 2.36.0 (20140111.2315)
 -->
<!-- Title: grading::RunTest Pages: 1 -->
<svg width="286pt" height="118pt"
 viewBox="0.00 0.00 286.00 118.00" xmlns="http://www.w3.org/2000/svg" xmlns:xlink="http://www.w3.org/1999/xlink">
<g id="graph0" class="graph" transform="scale(1 1) rotate(0) translate(4 114)">
<title>grading::RunTest</title>
<!-- Node1 -->
<g id="node1" class="node"><title>Node1</title>
<polygon fill="#bfbfbf" stroke="black" points="0.5,-45 0.5,-65 101.5,-65 101.5,-45 0.5,-45"/>
<text text-anchor="middle" x="51" y="-52.2" font-family="Avenir-Book" font-size="11.00">grading::RunTest</text>
</g>
<!-- Node2 -->
<g id="node2" class="node"><title>Node2</title>
<g id="a_node2"><a xlink:href="namespacegrading.html#a7e1850cba45d8bced4b418e9eb36163a" target="_top" xlink:title="Map data into the address space that can be shared with other processes. ">
<polygon fill="none" stroke="black" points="138.5,-90 138.5,-110 277.5,-110 277.5,-90 138.5,-90"/>
<text text-anchor="middle" x="208" y="-97.2" font-family="Avenir-Book" font-size="11.00">grading::MapSharedData</text>
</a>
</g>
</g>
<!-- Node1&#45;&gt;Node2 -->
<g id="edge1" class="edge"><title>Node1&#45;&gt;Node2</title>
<path fill="none" stroke="midnightblue" d="M86.7291,-65.1023C102.393,-69.6571 121.127,-75.102 138,-80 145.919,-82.2988 154.351,-84.7443 162.501,-87.1073"/>
<polygon fill="midnightblue" stroke="midnightblue" points="161.671,-90.5107 172.25,-89.9333 163.62,-83.7875 161.671,-90.5107"/>
</g>
<!-- Node3 -->
<g id="node3" class="node"><title>Node3</title>
<g id="a_node3"><a xlink:href="classgrading_1_1_shared_memory.html#aec3102de425f4ff2f692e8f28d53b01a" target="_top" xlink:title="A pointer to the shared memory, which will be invalidated after this object is destructed. ">
<polygon fill="none" stroke="black" points="140.5,-39 140.5,-71 275.5,-71 275.5,-39 140.5,-39"/>
<text text-anchor="start" x="148.5" y="-58.2" font-family="Avenir-Book" font-size="11.00">grading::SharedMemory</text>
<text text-anchor="middle" x="208" y="-46.2" font-family="Avenir-Book" font-size="11.00">::rawPointer</text>
</a>
</g>
</g>
<!-- Node1&#45;&gt;Node3 -->
<g id="edge2" class="edge"><title>Node1&#45;&gt;Node3</title>
<path fill="none" stroke="midnightblue" d="M101.896,-55C110.96,-55 120.604,-55 130.233,-55"/>
<polygon fill="midnightblue" stroke="midnightblue" points="130.236,-58.5001 140.236,-55 130.236,-51.5001 130.236,-58.5001"/>
</g>
<!-- Node4 -->
<g id="node4" class="node"><title>Node4</title>
<g id="a_node4"><a xlink:href="namespacegrading.html#ae7891f559b352cc4063d6170ac537e30" target="_top" xlink:title="Run a test closure in a separate process, capturing segmentation faults and other errors that lead to...">
<polygon fill="none" stroke="black" points="157.5,-0 157.5,-20 258.5,-20 258.5,-0 157.5,-0"/>
<text text-anchor="middle" x="208" y="-7.2" font-family="Avenir-Book" font-size="11.00">grading::RunTest</text>
</a>
</g>
</g>
<!-- Node1&#45;&gt;Node4 -->
<g id="edge3" class="edge"><title>Node1&#45;&gt;Node4</title>
<path fill="none" stroke="midnightblue" d="M86.7291,-44.8977C102.393,-40.3429 121.127,-34.898 138,-30 145.919,-27.7012 154.351,-25.2557 162.501,-22.8927"/>
<polygon fill="midnightblue" stroke="midnightblue" points="163.62,-26.2125 172.25,-20.0667 161.671,-19.4893 163.62,-26.2125"/>
</g>
</g>
</svg>
