<?xml version="1.0" encoding="UTF-8" standalone="no"?>
<!DOCTYPE svg PUBLIC "-//W3C//DTD SVG 1.1//EN"
 "http://www.w3.org/Graphics/SVG/1.1/DTD/svg11.dtd">
<!-- Generated by graphviz version 2.40.1 (20161225.0304)
 -->
<!-- Title: RunInProcess Pages: 1 -->
<svg width="355pt" height="29pt"
 viewBox="0.00 0.00 355.00 29.00" xmlns="http://www.w3.org/2000/svg" xmlns:xlink="http://www.w3.org/1999/xlink">
<g id="graph0" class="graph" transform="scale(1 1) rotate(0) translate(4 25)">
<title>RunInProcess</title>
<!-- Node42 -->
<g id="node1" class="node">
<title>Node42</title>
<g id="a_node1"><a xlink:title="Run a test in the current process, catching all exceptions.">
<polygon fill="#bfbfbf" stroke="#000000" points="255,-.5 255,-20.5 347,-20.5 347,-.5 255,-.5"/>
<text text-anchor="middle" x="301" y="-7.7" font-family="Avenir-Book" font-size="11.00" fill="#000000">RunInProcess</text>
</a>
</g>
</g>
<!-- Node43 -->
<g id="node2" class="node">
<title>Node43</title>
<g id="a_node2"><a xlink:href="namespacegrading.html#a33c566b4173ebd55bf3df8db7c018a90" target="_top" xlink:title="Run a test in another process.">
<polygon fill="none" stroke="#000000" points="156,-.5 156,-20.5 219,-20.5 219,-.5 156,-.5"/>
<text text-anchor="middle" x="187.5" y="-7.7" font-family="Avenir-Book" font-size="11.00" fill="#000000">ForkTest</text>
</a>
</g>
</g>
<!-- Node42&#45;&gt;Node43 -->
<g id="edge1" class="edge">
<title>Node42&#45;&gt;Node43</title>
<path fill="none" stroke="#191970" d="M244.5799,-10.5C235.7969,-10.5 227.0033,-10.5 219.0407,-10.5"/>
<polygon fill="#191970" stroke="#191970" points="244.8352,-14.0001 254.8352,-10.5 244.8352,-7.0001 244.8352,-14.0001"/>
</g>
<!-- Node44 -->
<g id="node3" class="node">
<title>Node44</title>
<g id="a_node3"><a xlink:href="classgrading_1_1Test.html#a35f66472a58c538166b8325967fc5c00" target="_top" xlink:title="Run this test.">
<polygon fill="none" stroke="#000000" points="0,-.5 0,-20.5 120,-20.5 120,-.5 0,-.5"/>
<text text-anchor="middle" x="60" y="-7.7" font-family="Avenir-Book" font-size="11.00" fill="#000000">grading::Test::Run</text>
</a>
</g>
</g>
<!-- Node43&#45;&gt;Node44 -->
<g id="edge2" class="edge">
<title>Node43&#45;&gt;Node44</title>
<path fill="none" stroke="#191970" d="M145.8604,-10.5C137.5902,-10.5 128.7534,-10.5 120.0107,-10.5"/>
<polygon fill="#191970" stroke="#191970" points="145.9832,-14.0001 155.9831,-10.5 145.9831,-7.0001 145.9832,-14.0001"/>
</g>
</g>
</svg>
