<?xml version="1.0" encoding="UTF-8" standalone="no"?>
<!DOCTYPE svg PUBLIC "-//W3C//DTD SVG 1.1//EN"
 "http://www.w3.org/Graphics/SVG/1.1/DTD/svg11.dtd">
<!-- Generated by graphviz version 2.36.0 (20140111.2315)
 -->
<!-- Title: operator|| Pages: 1 -->
<svg width="230pt" height="142pt"
 viewBox="0.00 0.00 230.00 142.00" xmlns="http://www.w3.org/2000/svg" xmlns:xlink="http://www.w3.org/1999/xlink">
<g id="graph0" class="graph" transform="scale(1 1) rotate(0) translate(4 138)">
<title>operator||</title>
<!-- Node1 -->
<g id="node1" class="node"><title>Node1</title>
<polygon fill="#bfbfbf" stroke="black" points="0.5,-57 0.5,-77 63.5,-77 63.5,-57 0.5,-57"/>
<text text-anchor="middle" x="32" y="-64.2" font-family="Avenir-Book" font-size="11.00">operator||</text>
</g>
<!-- Node2 -->
<g id="node2" class="node"><title>Node2</title>
<g id="a_node2"><a xlink:href="classgrading_1_1_check_result.html#a872287484e02407a364d921d96496825" target="_top" xlink:title="Value test expected to see (user&#45;readable representation). ">
<polygon fill="none" stroke="black" points="100,-102 100,-134 222,-134 222,-102 100,-102"/>
<text text-anchor="start" x="108" y="-121.2" font-family="Avenir-Book" font-size="11.00">grading::CheckResult</text>
<text text-anchor="middle" x="161" y="-109.2" font-family="Avenir-Book" font-size="11.00">::actual</text>
</a>
</g>
</g>
<!-- Node1&#45;&gt;Node2 -->
<g id="edge1" class="edge"><title>Node1&#45;&gt;Node2</title>
<path fill="none" stroke="midnightblue" d="M58.0911,-77.076C72.9735,-83.0523 92.3645,-90.8393 110.232,-98.0145"/>
<polygon fill="midnightblue" stroke="midnightblue" points="109.379,-101.444 119.963,-101.922 111.988,-94.9479 109.379,-101.444"/>
</g>
<!-- Node3 -->
<g id="node3" class="node"><title>Node3</title>
<g id="a_node3"><a xlink:href="classgrading_1_1_check_result.html#a02d5fa6b14e221f3012a794b905be166" target="_top" xlink:title="Cancel the error: the result is actually ok (e.g., because of a logical OR) or else the error&#39;s owner...">
<polygon fill="none" stroke="black" points="100,-51 100,-83 222,-83 222,-51 100,-51"/>
<text text-anchor="start" x="108" y="-70.2" font-family="Avenir-Book" font-size="11.00">grading::CheckResult</text>
<text text-anchor="middle" x="161" y="-58.2" font-family="Avenir-Book" font-size="11.00">::cancel</text>
</a>
</g>
</g>
<!-- Node1&#45;&gt;Node3 -->
<g id="edge2" class="edge"><title>Node1&#45;&gt;Node3</title>
<path fill="none" stroke="midnightblue" d="M63.7432,-67C71.6904,-67 80.5803,-67 89.6588,-67"/>
<polygon fill="midnightblue" stroke="midnightblue" points="89.9489,-70.5001 99.9489,-67 89.9488,-63.5001 89.9489,-70.5001"/>
</g>
<!-- Node4 -->
<g id="node4" class="node"><title>Node4</title>
<g id="a_node4"><a xlink:href="classgrading_1_1_check_result.html#aa40a4ffbd2ed79d36078a96dab3e2197" target="_top" xlink:title="&quot;All&#39;s&#45;well&quot; constructor (i.e., the check passed). ">
<polygon fill="none" stroke="black" points="100,-0 100,-32 222,-32 222,-0 100,-0"/>
<text text-anchor="start" x="108" y="-19.2" font-family="Avenir-Book" font-size="11.00">grading::CheckResult</text>
<text text-anchor="middle" x="161" y="-7.2" font-family="Avenir-Book" font-size="11.00">::CheckResult</text>
</a>
</g>
</g>
<!-- Node1&#45;&gt;Node4 -->
<g id="edge3" class="edge"><title>Node1&#45;&gt;Node4</title>
<path fill="none" stroke="midnightblue" d="M58.0911,-56.924C72.9735,-50.9477 92.3645,-43.1607 110.232,-35.9855"/>
<polygon fill="midnightblue" stroke="midnightblue" points="111.988,-39.0521 119.963,-32.0777 109.379,-32.5563 111.988,-39.0521"/>
</g>
</g>
</svg>
