<?xml version="1.0" encoding="UTF-8" standalone="no"?>
<!DOCTYPE svg PUBLIC "-//W3C//DTD SVG 1.1//EN"
 "http://www.w3.org/Graphics/SVG/1.1/DTD/svg11.dtd">
<!-- Generated by graphviz version 2.36.0 (20140111.2315)
 -->
<!-- Title: EnterSandbox Pages: 1 -->
<svg width="334pt" height="49pt"
 viewBox="0.00 0.00 334.00 49.00" xmlns="http://www.w3.org/2000/svg" xmlns:xlink="http://www.w3.org/1999/xlink">
<g id="graph0" class="graph" transform="scale(1 1) rotate(0) translate(4 45)">
<title>EnterSandbox</title>
<!-- Node1 -->
<g id="node1" class="node"><title>Node1</title>
<polygon fill="#bfbfbf" stroke="black" points="0,-1 0,-21 86,-21 86,-1 0,-1"/>
<text text-anchor="middle" x="43" y="-8.2" font-family="Avenir-Book" font-size="11.00">EnterSandbox</text>
</g>
<!-- Node2 -->
<g id="node2" class="node"><title>Node2</title>
<g id="a_node2"><a xlink:href="namespacegrading.html#a33c566b4173ebd55bf3df8db7c018a90" target="_top" xlink:title="Run a test in another process. ">
<polygon fill="none" stroke="black" points="122,-21 122,-41 182,-41 182,-21 122,-21"/>
<text text-anchor="middle" x="152" y="-28.2" font-family="Avenir-Book" font-size="11.00">ForkTest</text>
</a>
</g>
</g>
<!-- Node1&#45;&gt;Node2 -->
<g id="edge1" class="edge"><title>Node1&#45;&gt;Node2</title>
<path fill="none" stroke="midnightblue" d="M96.1875,-20.7547C105.018,-22.4052 113.896,-24.0647 121.859,-25.5531"/>
<polygon fill="midnightblue" stroke="midnightblue" points="96.7621,-17.3015 86.2892,-18.9045 95.4759,-24.1824 96.7621,-17.3015"/>
</g>
<!-- Node3 -->
<g id="node3" class="node"><title>Node3</title>
<g id="a_node3"><a xlink:href="classgrading_1_1_test.html#ac9a3c81c2bd6eec42a015fbef89e0822" target="_top" xlink:title="Run this test. ">
<polygon fill="none" stroke="black" points="218.5,-1 218.5,-21 325.5,-21 325.5,-1 218.5,-1"/>
<text text-anchor="middle" x="272" y="-8.2" font-family="Avenir-Book" font-size="11.00">grading::Test::Run</text>
</a>
</g>
</g>
<!-- Node1&#45;&gt;Node3 -->
<g id="edge3" class="edge"><title>Node1&#45;&gt;Node3</title>
<path fill="none" stroke="midnightblue" d="M96.6173,-11C133.172,-11 181.693,-11 218.272,-11"/>
<polygon fill="midnightblue" stroke="midnightblue" points="96.165,-7.5001 86.165,-11 96.1649,-14.5001 96.165,-7.5001"/>
</g>
<!-- Node2&#45;&gt;Node3 -->
<g id="edge2" class="edge"><title>Node2&#45;&gt;Node3</title>
<path fill="none" stroke="midnightblue" d="M192.048,-24.3817C200.44,-22.9594 209.442,-21.4336 218.255,-19.9398"/>
<polygon fill="midnightblue" stroke="midnightblue" points="191.443,-20.9342 182.169,-26.0562 192.613,-27.8358 191.443,-20.9342"/>
</g>
</g>
</svg>
