<?xml version="1.0" encoding="UTF-8" standalone="no"?>
<!DOCTYPE svg PUBLIC "-//W3C//DTD SVG 1.1//EN"
 "http://www.w3.org/Graphics/SVG/1.1/DTD/svg11.dtd">
<!-- Generated by graphviz version 2.38.0 (20140413.2041)
 -->
<!-- Title: RunInProcess Pages: 1 -->
<svg width="345pt" height="29pt"
 viewBox="0.00 0.00 345.00 29.00" xmlns="http://www.w3.org/2000/svg" xmlns:xlink="http://www.w3.org/1999/xlink">
<g id="graph0" class="graph" transform="scale(1 1) rotate(0) translate(4 25)">
<title>RunInProcess</title>
<!-- Node1 -->
<g id="node1" class="node"><title>Node1</title>
<polygon fill="#bfbfbf" stroke="black" points="0,-0.5 0,-20.5 89,-20.5 89,-0.5 0,-0.5"/>
<text text-anchor="middle" x="44.5" y="-7.7" font-family="Avenir-Book" font-size="11.00">RunInProcess</text>
</g>
<!-- Node2 -->
<g id="node2" class="node"><title>Node2</title>
<g id="a_node2"><a xlink:href="namespacegrading.html#a33c566b4173ebd55bf3df8db7c018a90" target="_top" xlink:title="Run a test in another process. ">
<polygon fill="none" stroke="black" points="125,-0.5 125,-20.5 187,-20.5 187,-0.5 125,-0.5"/>
<text text-anchor="middle" x="156" y="-7.7" font-family="Avenir-Book" font-size="11.00">ForkTest</text>
</a>
</g>
</g>
<!-- Node1&#45;&gt;Node2 -->
<g id="edge1" class="edge"><title>Node1&#45;&gt;Node2</title>
<path fill="none" stroke="midnightblue" d="M99.2781,-10.5C108.014,-10.5 116.782,-10.5 124.694,-10.5"/>
<polygon fill="midnightblue" stroke="midnightblue" points="99.092,-7.0001 89.0919,-10.5 99.0919,-14.0001 99.092,-7.0001"/>
</g>
<!-- Node3 -->
<g id="node3" class="node"><title>Node3</title>
<g id="a_node3"><a xlink:href="classgrading_1_1Test.html#ac9a3c81c2bd6eec42a015fbef89e0822" target="_top" xlink:title="Run this test. ">
<polygon fill="none" stroke="black" points="223,-0.5 223,-20.5 337,-20.5 337,-0.5 223,-0.5"/>
<text text-anchor="middle" x="280" y="-7.7" font-family="Avenir-Book" font-size="11.00">grading::Test::Run</text>
</a>
</g>
</g>
<!-- Node2&#45;&gt;Node3 -->
<g id="edge2" class="edge"><title>Node2&#45;&gt;Node3</title>
<path fill="none" stroke="midnightblue" d="M197.386,-10.5C205.448,-10.5 214.054,-10.5 222.542,-10.5"/>
<polygon fill="midnightblue" stroke="midnightblue" points="197.157,-7.0001 187.157,-10.5 197.157,-14.0001 197.157,-7.0001"/>
</g>
</g>
</svg>
