<?xml version="1.0" encoding="UTF-8" standalone="no"?>
<!DOCTYPE svg PUBLIC "-//W3C//DTD SVG 1.1//EN"
 "http://www.w3.org/Graphics/SVG/1.1/DTD/svg11.dtd">
<!-- Generated by graphviz version 2.36.0 (20140111.2315)
 -->
<!-- Title: Fail Pages: 1 -->
<svg width="306pt" height="40pt"
 viewBox="0.00 0.00 306.00 40.00" xmlns="http://www.w3.org/2000/svg" xmlns:xlink="http://www.w3.org/1999/xlink">
<g id="graph0" class="graph" transform="scale(1 1) rotate(0) translate(4 36)">
<title>Fail</title>
<!-- Node1 -->
<g id="node1" class="node"><title>Node1</title>
<polygon fill="#bfbfbf" stroke="black" points="0,-6 0,-26 34,-26 34,-6 0,-6"/>
<text text-anchor="middle" x="17" y="-13.2" font-family="Avenir-Book" font-size="11.00">Fail</text>
</g>
<!-- Node2 -->
<g id="node2" class="node"><title>Node2</title>
<g id="a_node2"><a xlink:href="namespacegrading.html#ab60215986fc07d2b182735c01cee0656" target="_top" xlink:title="Output a human&#45;readable representation of a TestResult. ">
<polygon fill="none" stroke="black" points="70,-6 70,-26 140,-26 140,-6 70,-6"/>
<text text-anchor="middle" x="105" y="-13.2" font-family="Avenir-Book" font-size="11.00">operator&lt;&lt;</text>
</a>
</g>
</g>
<!-- Node1&#45;&gt;Node2 -->
<g id="edge1" class="edge"><title>Node1&#45;&gt;Node2</title>
<path fill="none" stroke="midnightblue" d="M44.3922,-16C52.3905,-16 61.2945,-16 69.7306,-16"/>
<polygon fill="midnightblue" stroke="midnightblue" points="44.176,-12.5001 34.1759,-16 44.1759,-19.5001 44.176,-12.5001"/>
</g>
<!-- Node3 -->
<g id="node3" class="node"><title>Node3</title>
<g id="a_node3"><a xlink:href="classgrading_1_1_check_result.html#a5679ca29245899bbe1dc3ccd6afe7222" target="_top" xlink:title="A message to display if the check fails. ">
<polygon fill="none" stroke="black" points="176,-0 176,-32 298,-32 298,-0 176,-0"/>
<text text-anchor="start" x="184" y="-19.2" font-family="Avenir-Book" font-size="11.00">grading::CheckResult</text>
<text text-anchor="middle" x="237" y="-7.2" font-family="Avenir-Book" font-size="11.00">::message</text>
</a>
</g>
</g>
<!-- Node2&#45;&gt;Node3 -->
<g id="edge2" class="edge"><title>Node2&#45;&gt;Node3</title>
<path fill="none" stroke="midnightblue" d="M150.296,-16C158.548,-16 167.297,-16 175.929,-16"/>
<polygon fill="midnightblue" stroke="midnightblue" points="150.156,-12.5001 140.156,-16 150.156,-19.5001 150.156,-12.5001"/>
</g>
</g>
</svg>
