<?xml version="1.0" encoding="UTF-8" standalone="no"?>
<!DOCTYPE svg PUBLIC "-//W3C//DTD SVG 1.1//EN"
 "http://www.w3.org/Graphics/SVG/1.1/DTD/svg11.dtd">
<!-- Generated by graphviz version 2.40.1 (20161225.0304)
 -->
<!-- Title: MapSharedData Pages: 1 -->
<svg width="338pt" height="32pt"
 viewBox="0.00 0.00 337.63 32.03" xmlns="http://www.w3.org/2000/svg" xmlns:xlink="http://www.w3.org/1999/xlink">
<g id="graph0" class="graph" transform="scale(1 1) rotate(0) translate(4 28.026)">
<title>MapSharedData</title>
<!-- Node24 -->
<g id="node1" class="node">
<title>Node24</title>
<g id="a_node1"><a xlink:title="Map data into the address space that can be shared with other processes.">
<polygon fill="#bfbfbf" stroke="#000000" points="233.954,-.5 233.954,-23.526 329.627,-23.526 329.627,-.5 233.954,-.5"/>
<text text-anchor="middle" x="281.7905" y="-10.726" font-family="Avenir-Book" font-size="11.00" fill="#000000">MapSharedData</text>
</a>
</g>
</g>
<!-- Node25 -->
<g id="node2" class="node">
<title>Node25</title>
<g id="a_node2"><a xlink:href="namespacegrading.html#a33c566b4173ebd55bf3df8db7c018a90" target="_top" xlink:title="Run a test in another process.">
<polygon fill="none" stroke="#000000" points="140.814,-.5 140.814,-23.526 197.954,-23.526 197.954,-.5 140.814,-.5"/>
<text text-anchor="middle" x="169.384" y="-10.726" font-family="Avenir-Book" font-size="11.00" fill="#000000">ForkTest</text>
</a>
</g>
</g>
<!-- Node24&#45;&gt;Node25 -->
<g id="edge1" class="edge">
<title>Node24&#45;&gt;Node25</title>
<path fill="none" stroke="#191970" d="M223.7387,-12.013C214.8134,-12.013 205.9503,-12.013 198.0511,-12.013"/>
<polygon fill="#191970" stroke="#191970" points="223.794,-15.5131 233.794,-12.013 223.7939,-8.5131 223.794,-15.5131"/>
</g>
<!-- Node26 -->
<g id="node3" class="node">
<title>Node26</title>
<g id="a_node3"><a xlink:href="classgrading_1_1_test.html#a35f66472a58c538166b8325967fc5c00" target="_top" xlink:title="Run this test.">
<polygon fill="none" stroke="#000000" points="0,-.5 0,-23.526 104.814,-23.526 104.814,-.5 0,-.5"/>
<text text-anchor="middle" x="52.407" y="-10.726" font-family="Avenir-Book" font-size="11.00" fill="#000000">grading::Test::Run</text>
</a>
</g>
</g>
<!-- Node25&#45;&gt;Node26 -->
<g id="edge2" class="edge">
<title>Node25&#45;&gt;Node26</title>
<path fill="none" stroke="#191970" d="M130.6947,-12.013C122.4445,-12.013 113.5983,-12.013 104.9288,-12.013"/>
<polygon fill="#191970" stroke="#191970" points="130.7682,-15.5131 140.7682,-12.013 130.7682,-8.5131 130.7682,-15.5131"/>
</g>
</g>
</svg>
