<?xml version="1.0" encoding="UTF-8" standalone="no"?>
<!DOCTYPE svg PUBLIC "-//W3C//DTD SVG 1.1//EN"
 "http://www.w3.org/Graphics/SVG/1.1/DTD/svg11.dtd">
<!-- Generated by graphviz version 2.36.0 (20140111.2315)
 -->
<!-- Title: operator&amp;&amp; Pages: 1 -->
<svg width="238pt" height="142pt"
 viewBox="0.00 0.00 238.00 142.00" xmlns="http://www.w3.org/2000/svg" xmlns:xlink="http://www.w3.org/1999/xlink">
<g id="graph0" class="graph" transform="scale(1 1) rotate(0) translate(4 138)">
<title>operator&amp;&amp;</title>
<!-- Node1 -->
<g id="node1" class="node"><title>Node1</title>
<polygon fill="#bfbfbf" stroke="black" points="0,-57 0,-77 72,-77 72,-57 0,-57"/>
<text text-anchor="middle" x="36" y="-64.2" font-family="Avenir-Book" font-size="11.00">operator&amp;&amp;</text>
</g>
<!-- Node2 -->
<g id="node2" class="node"><title>Node2</title>
<g id="a_node2"><a xlink:href="classgrading_1_1_check_result.html#a872287484e02407a364d921d96496825" target="_top" xlink:title="Value test expected to see (user&#45;readable representation). ">
<polygon fill="none" stroke="black" points="108,-102 108,-134 230,-134 230,-102 108,-102"/>
<text text-anchor="start" x="116" y="-121.2" font-family="Avenir-Book" font-size="11.00">grading::CheckResult</text>
<text text-anchor="middle" x="169" y="-109.2" font-family="Avenir-Book" font-size="11.00">::actual</text>
</a>
</g>
</g>
<!-- Node1&#45;&gt;Node2 -->
<g id="edge1" class="edge"><title>Node1&#45;&gt;Node2</title>
<path fill="none" stroke="midnightblue" d="M62.8814,-77.076C78.3746,-83.1077 98.6051,-90.9837 117.176,-98.2136"/>
<polygon fill="midnightblue" stroke="midnightblue" points="116.114,-101.556 126.703,-101.922 118.654,-95.0328 116.114,-101.556"/>
</g>
<!-- Node3 -->
<g id="node3" class="node"><title>Node3</title>
<g id="a_node3"><a xlink:href="classgrading_1_1_check_result.html#a02d5fa6b14e221f3012a794b905be166" target="_top" xlink:title="Cancel the error: the result is actually ok (e.g., because of a logical OR) or else the error&#39;s owner...">
<polygon fill="none" stroke="black" points="108,-51 108,-83 230,-83 230,-51 108,-51"/>
<text text-anchor="start" x="116" y="-70.2" font-family="Avenir-Book" font-size="11.00">grading::CheckResult</text>
<text text-anchor="middle" x="169" y="-58.2" font-family="Avenir-Book" font-size="11.00">::cancel</text>
</a>
</g>
</g>
<!-- Node1&#45;&gt;Node3 -->
<g id="edge2" class="edge"><title>Node1&#45;&gt;Node3</title>
<path fill="none" stroke="midnightblue" d="M72.1056,-67C80.09,-67 88.8487,-67 97.725,-67"/>
<polygon fill="midnightblue" stroke="midnightblue" points="97.7616,-70.5001 107.762,-67 97.7615,-63.5001 97.7616,-70.5001"/>
</g>
<!-- Node4 -->
<g id="node4" class="node"><title>Node4</title>
<g id="a_node4"><a xlink:href="classgrading_1_1_check_result.html#aa40a4ffbd2ed79d36078a96dab3e2197" target="_top" xlink:title="&quot;All&#39;s&#45;well&quot; constructor (i.e., the check passed). ">
<polygon fill="none" stroke="black" points="108,-0 108,-32 230,-32 230,-0 108,-0"/>
<text text-anchor="start" x="116" y="-19.2" font-family="Avenir-Book" font-size="11.00">grading::CheckResult</text>
<text text-anchor="middle" x="169" y="-7.2" font-family="Avenir-Book" font-size="11.00">::CheckResult</text>
</a>
</g>
</g>
<!-- Node1&#45;&gt;Node4 -->
<g id="edge3" class="edge"><title>Node1&#45;&gt;Node4</title>
<path fill="none" stroke="midnightblue" d="M62.8814,-56.924C78.3746,-50.8923 98.6051,-43.0163 117.176,-35.7864"/>
<polygon fill="midnightblue" stroke="midnightblue" points="118.654,-38.9672 126.703,-32.0777 116.114,-32.4441 118.654,-38.9672"/>
</g>
</g>
</svg>
