<?xml version="1.0" encoding="UTF-8" standalone="no"?>
<!DOCTYPE svg PUBLIC "-//W3C//DTD SVG 1.1//EN"
 "http://www.w3.org/Graphics/SVG/1.1/DTD/svg11.dtd">
<!-- Generated by graphviz version 2.38.0 (20140413.2041)
 -->
<!-- Title: grading::RunTest Pages: 1 -->
<svg width="283pt" height="132pt"
 viewBox="0.00 0.00 282.77 132.03" xmlns="http://www.w3.org/2000/svg" xmlns:xlink="http://www.w3.org/1999/xlink">
<g id="graph0" class="graph" transform="scale(1 1) rotate(0) translate(4 128.026)">
<title>grading::RunTest</title>
<!-- Node1 -->
<g id="node1" class="node"><title>Node1</title>
<polygon fill="#bfbfbf" stroke="black" points="-7.10543e-15,-50.5 -7.10543e-15,-73.526 98.698,-73.526 98.698,-50.5 -7.10543e-15,-50.5"/>
<text text-anchor="middle" x="49.349" y="-60.726" font-family="Avenir-Book" font-size="11.00">grading::RunTest</text>
</g>
<!-- Node2 -->
<g id="node2" class="node"><title>Node2</title>
<g id="a_node2"><a xlink:href="namespacegrading.html#a7e1850cba45d8bced4b418e9eb36163a" target="_top" xlink:title="Map data into the address space that can be shared with other processes. ">
<polygon fill="none" stroke="black" points="134.698,-100.5 134.698,-123.526 274.767,-123.526 274.767,-100.5 134.698,-100.5"/>
<text text-anchor="middle" x="204.732" y="-110.726" font-family="Avenir-Book" font-size="11.00">grading::MapSharedData</text>
</a>
</g>
</g>
<!-- Node1&#45;&gt;Node2 -->
<g id="edge1" class="edge"><title>Node1&#45;&gt;Node2</title>
<path fill="none" stroke="midnightblue" d="M83.1045,-73.5801C98.6883,-79.0049 117.609,-85.4781 134.698,-91.013 141.264,-93.1396 148.201,-95.3236 155.046,-97.4416"/>
<polygon fill="midnightblue" stroke="midnightblue" points="154.367,-100.894 164.954,-100.483 156.421,-94.2025 154.367,-100.894"/>
</g>
<!-- Node3 -->
<g id="node3" class="node"><title>Node3</title>
<g id="a_node3"><a xlink:href="classgrading_1_1_shared_memory.html#aed4149f33e92951014d8dd8c0d1b3b89" target="_top" xlink:title="A pointer to the shared memory, which will be invalidated after this object is destructed. ">
<polygon fill="none" stroke="black" points="137.041,-42.987 137.041,-81.039 272.424,-81.039 272.424,-42.987 137.041,-42.987"/>
<text text-anchor="start" x="145.041" y="-68.239" font-family="Avenir-Book" font-size="11.00">grading::SharedMemory</text>
<text text-anchor="middle" x="204.732" y="-53.213" font-family="Avenir-Book" font-size="11.00">::rawPointer</text>
</a>
</g>
</g>
<!-- Node1&#45;&gt;Node3 -->
<g id="edge2" class="edge"><title>Node1&#45;&gt;Node3</title>
<path fill="none" stroke="midnightblue" d="M98.8805,-62.013C107.775,-62.013 117.257,-62.013 126.744,-62.013"/>
<polygon fill="midnightblue" stroke="midnightblue" points="127.014,-65.5131 137.014,-62.013 127.014,-58.5131 127.014,-65.5131"/>
</g>
<!-- Node4 -->
<g id="node4" class="node"><title>Node4</title>
<g id="a_node4"><a xlink:href="namespacegrading.html#acbaf9da1bcc399da922d5ed6d1d70466" target="_top" xlink:title="Run a test closure in a separate process, capturing segmentation faults and other errors that lead to...">
<polygon fill="none" stroke="black" points="155.383,-0.5 155.383,-23.526 254.081,-23.526 254.081,-0.5 155.383,-0.5"/>
<text text-anchor="middle" x="204.732" y="-10.726" font-family="Avenir-Book" font-size="11.00">grading::RunTest</text>
</a>
</g>
</g>
<!-- Node1&#45;&gt;Node4 -->
<g id="edge3" class="edge"><title>Node1&#45;&gt;Node4</title>
<path fill="none" stroke="midnightblue" d="M83.1045,-50.4459C98.6883,-45.0211 117.609,-38.5479 134.698,-33.013 141.264,-30.8863 148.201,-28.7024 155.046,-26.5844"/>
<polygon fill="midnightblue" stroke="midnightblue" points="156.421,-29.8235 164.954,-23.5427 154.367,-23.1317 156.421,-29.8235"/>
</g>
</g>
</svg>
