<?xml version="1.0" encoding="UTF-8" standalone="no"?>
<!DOCTYPE svg PUBLIC "-//W3C//DTD SVG 1.1//EN"
 "http://www.w3.org/Graphics/SVG/1.1/DTD/svg11.dtd">
<!-- Generated by graphviz version 2.38.0 (20140413.2041)
 -->
<!-- Title: grading::RunInProcess Pages: 1 -->
<svg width="441pt" height="29pt"
 viewBox="0.00 0.00 441.00 29.00" xmlns="http://www.w3.org/2000/svg" xmlns:xlink="http://www.w3.org/1999/xlink">
<g id="graph0" class="graph" transform="scale(1 1) rotate(0) translate(4 25)">
<title>grading::RunInProcess</title>
<!-- Node1 -->
<g id="node1" class="node"><title>Node1</title>
<polygon fill="#bfbfbf" stroke="black" points="0,-0.5 0,-20.5 137,-20.5 137,-0.5 0,-0.5"/>
<text text-anchor="middle" x="68.5" y="-7.7" font-family="Avenir-Book" font-size="11.00">grading::RunInProcess</text>
</g>
<!-- Node2 -->
<g id="node2" class="node"><title>Node2</title>
<g id="a_node2"><a xlink:href="namespacegrading.html#a37c099580cc9e671911f5366b6ae9db5" target="_top" xlink:title="Run a test in another process. ">
<polygon fill="none" stroke="black" points="173,-0.5 173,-20.5 283,-20.5 283,-0.5 173,-0.5"/>
<text text-anchor="middle" x="228" y="-7.7" font-family="Avenir-Book" font-size="11.00">grading::ForkTest</text>
</a>
</g>
</g>
<!-- Node1&#45;&gt;Node2 -->
<g id="edge1" class="edge"><title>Node1&#45;&gt;Node2</title>
<path fill="none" stroke="midnightblue" d="M147.254,-10.5C155.838,-10.5 164.438,-10.5 172.646,-10.5"/>
<polygon fill="midnightblue" stroke="midnightblue" points="147.208,-7.0001 137.208,-10.5 147.208,-14.0001 147.208,-7.0001"/>
</g>
<!-- Node3 -->
<g id="node3" class="node"><title>Node3</title>
<g id="a_node3"><a xlink:href="classgrading_1_1Test.html#a06d32f69216f34a87b0b0917d1ddea1e" target="_top" xlink:title="Run this test. ">
<polygon fill="none" stroke="black" points="319,-0.5 319,-20.5 433,-20.5 433,-0.5 319,-0.5"/>
<text text-anchor="middle" x="376" y="-7.7" font-family="Avenir-Book" font-size="11.00">grading::Test::Run</text>
</a>
</g>
</g>
<!-- Node2&#45;&gt;Node3 -->
<g id="edge2" class="edge"><title>Node2&#45;&gt;Node3</title>
<path fill="none" stroke="midnightblue" d="M293.484,-10.5C301.867,-10.5 310.401,-10.5 318.637,-10.5"/>
<polygon fill="midnightblue" stroke="midnightblue" points="293.365,-7.0001 283.365,-10.5 293.365,-14.0001 293.365,-7.0001"/>
</g>
</g>
</svg>
