<?xml version="1.0" encoding="UTF-8" standalone="no"?>
<!DOCTYPE svg PUBLIC "-//W3C//DTD SVG 1.1//EN"
 "http://www.w3.org/Graphics/SVG/1.1/DTD/svg11.dtd">
<!-- Generated by graphviz version 2.36.0 (20140111.2315)
 -->
<!-- Title: RunInProcess Pages: 1 -->
<svg width="334pt" height="28pt"
 viewBox="0.00 0.00 334.00 28.00" xmlns="http://www.w3.org/2000/svg" xmlns:xlink="http://www.w3.org/1999/xlink">
<g id="graph0" class="graph" transform="scale(1 1) rotate(0) translate(4 24)">
<title>RunInProcess</title>
<!-- Node1 -->
<g id="node1" class="node"><title>Node1</title>
<polygon fill="#bfbfbf" stroke="black" points="0,-0 0,-20 86,-20 86,-0 0,-0"/>
<text text-anchor="middle" x="43" y="-7.2" font-family="Avenir-Book" font-size="11.00">RunInProcess</text>
</g>
<!-- Node2 -->
<g id="node2" class="node"><title>Node2</title>
<g id="a_node2"><a xlink:href="namespacegrading.html#a33c566b4173ebd55bf3df8db7c018a90" target="_top" xlink:title="Run a test in another process. ">
<polygon fill="none" stroke="black" points="122,-0 122,-20 182,-20 182,-0 122,-0"/>
<text text-anchor="middle" x="152" y="-7.2" font-family="Avenir-Book" font-size="11.00">ForkTest</text>
</a>
</g>
</g>
<!-- Node1&#45;&gt;Node2 -->
<g id="edge1" class="edge"><title>Node1&#45;&gt;Node2</title>
<path fill="none" stroke="midnightblue" d="M96.4724,-10C105.209,-10 113.982,-10 121.859,-10"/>
<polygon fill="midnightblue" stroke="midnightblue" points="96.2893,-6.5001 86.2892,-10 96.2892,-13.5001 96.2893,-6.5001"/>
</g>
<!-- Node3 -->
<g id="node3" class="node"><title>Node3</title>
<g id="a_node3"><a xlink:href="classgrading_1_1_test.html#ac9a3c81c2bd6eec42a015fbef89e0822" target="_top" xlink:title="Run this test. ">
<polygon fill="none" stroke="black" points="218.5,-0 218.5,-20 325.5,-20 325.5,-0 218.5,-0"/>
<text text-anchor="middle" x="272" y="-7.2" font-family="Avenir-Book" font-size="11.00">grading::Test::Run</text>
</a>
</g>
</g>
<!-- Node2&#45;&gt;Node3 -->
<g id="edge2" class="edge"><title>Node2&#45;&gt;Node3</title>
<path fill="none" stroke="midnightblue" d="M192.325,-10C200.638,-10 209.539,-10 218.255,-10"/>
<polygon fill="midnightblue" stroke="midnightblue" points="192.169,-6.5001 182.169,-10 192.169,-13.5001 192.169,-6.5001"/>
</g>
</g>
</svg>
