<?xml version="1.0" encoding="UTF-8" standalone="no"?>
<!DOCTYPE svg PUBLIC "-//W3C//DTD SVG 1.1//EN"
 "http://www.w3.org/Graphics/SVG/1.1/DTD/svg11.dtd">
<!-- Generated by graphviz version 2.40.1 (20161225.0304)
 -->
<!-- Title: operator&amp;&amp; Pages: 1 -->
<svg width="239pt" height="104pt"
 viewBox="0.00 0.00 238.74 104.05" xmlns="http://www.w3.org/2000/svg" xmlns:xlink="http://www.w3.org/1999/xlink">
<g id="graph0" class="graph" transform="scale(1 1) rotate(0) translate(4 100.0519)">
<title>operator&amp;&amp;</title>
<!-- Node24 -->
<g id="node1" class="node">
<title>Node24</title>
<polygon fill="#bfbfbf" stroke="#000000" points="0,-36.013 0,-59.039 74.036,-59.039 74.036,-36.013 0,-36.013"/>
<text text-anchor="middle" x="37.018" y="-46.239" font-family="Avenir-Book" font-size="11.00" fill="#000000">operator&amp;&amp;</text>
</g>
<!-- Node25 -->
<g id="node2" class="node">
<title>Node25</title>
<g id="a_node2"><a xlink:href="classgrading_1_1_check_result.html#a02d5fa6b14e221f3012a794b905be166" target="_top" xlink:title="Cancel the error: the result is actually ok (e.g., because of a logical OR) or else the error&#39;s owner...">
<polygon fill="none" stroke="#000000" points="110.036,-57.5 110.036,-95.5519 230.745,-95.5519 230.745,-57.5 110.036,-57.5"/>
<text text-anchor="start" x="118.036" y="-82.7519" font-family="Avenir-Book" font-size="11.00" fill="#000000">grading::CheckResult</text>
<text text-anchor="middle" x="170.3905" y="-67.726" font-family="Avenir-Book" font-size="11.00" fill="#000000">::cancel</text>
</a>
</g>
</g>
<!-- Node24&#45;&gt;Node25 -->
<g id="edge1" class="edge">
<title>Node24&#45;&gt;Node25</title>
<path fill="none" stroke="#191970" d="M74.1697,-55.6041C82.2339,-57.3576 91.0203,-59.268 99.897,-61.1981"/>
<polygon fill="#191970" stroke="#191970" points="99.4083,-64.6736 109.9236,-63.3783 100.8956,-57.8334 99.4083,-64.6736"/>
</g>
<!-- Node26 -->
<g id="node3" class="node">
<title>Node26</title>
<g id="a_node3"><a xlink:href="classgrading_1_1_check_result.html#a9fc62bb96c3174d6d9945644308ecc8c" target="_top" xlink:title="A message to display if the check fails. ">
<polygon fill="none" stroke="#000000" points="110.036,-.5 110.036,-38.5519 230.745,-38.5519 230.745,-.5 110.036,-.5"/>
<text text-anchor="start" x="118.036" y="-25.7519" font-family="Avenir-Book" font-size="11.00" fill="#000000">grading::CheckResult</text>
<text text-anchor="middle" x="170.3905" y="-10.726" font-family="Avenir-Book" font-size="11.00" fill="#000000">::message</text>
</a>
</g>
</g>
<!-- Node24&#45;&gt;Node26 -->
<g id="edge2" class="edge">
<title>Node24&#45;&gt;Node26</title>
<path fill="none" stroke="#191970" d="M74.1697,-39.7264C82.2339,-38.0334 91.0203,-36.1888 99.897,-34.3253"/>
<polygon fill="#191970" stroke="#191970" points="100.8561,-37.7003 109.9236,-32.2203 99.4178,-30.8496 100.8561,-37.7003"/>
</g>
</g>
</svg>
