<?xml version="1.0" encoding="UTF-8" standalone="no"?>
<!DOCTYPE svg PUBLIC "-//W3C//DTD SVG 1.1//EN"
 "http://www.w3.org/Graphics/SVG/1.1/DTD/svg11.dtd">
<!-- Generated by graphviz version 2.40.1 (20161225.0304)
 -->
<!-- Title: ForkTest Pages: 1 -->
<svg width="215pt" height="68pt"
 viewBox="0.00 0.00 215.00 68.00" xmlns="http://www.w3.org/2000/svg" xmlns:xlink="http://www.w3.org/1999/xlink">
<g id="graph0" class="graph" transform="scale(1 1) rotate(0) translate(4 64)">
<title>ForkTest</title>
<!-- Node18 -->
<g id="node1" class="node">
<title>Node18</title>
<g id="a_node1"><a xlink:title="Run a test in another process.">
<polygon fill="#bfbfbf" stroke="#000000" points="0,-19.5 0,-39.5 63,-39.5 63,-19.5 0,-19.5"/>
<text text-anchor="middle" x="31.5" y="-26.7" font-family="Avenir-Book" font-size="11.00" fill="#000000">ForkTest</text>
</a>
</g>
</g>
<!-- Node19 -->
<g id="node2" class="node">
<title>Node19</title>
<g id="a_node2"><a xlink:href="namespacegrading.html#a125c5e8b85f83dcab13826e5da373d54" target="_top" xlink:title="Map data into the address space that can be shared with other processes.">
<polygon fill="none" stroke="#000000" points="99,-39.5 99,-59.5 207,-59.5 207,-39.5 99,-39.5"/>
<text text-anchor="middle" x="153" y="-46.7" font-family="Avenir-Book" font-size="11.00" fill="#000000">MapSharedData</text>
</a>
</g>
</g>
<!-- Node18&#45;&gt;Node19 -->
<g id="edge1" class="edge">
<title>Node18&#45;&gt;Node19</title>
<path fill="none" stroke="#191970" d="M63.1055,-34.7026C71.075,-36.0144 79.9214,-37.4706 88.8659,-38.943"/>
<polygon fill="#191970" stroke="#191970" points="88.5291,-42.4345 98.9648,-40.6053 89.6661,-35.5275 88.5291,-42.4345"/>
</g>
<!-- Node20 -->
<g id="node3" class="node">
<title>Node20</title>
<g id="a_node3"><a xlink:href="namespacegrading.html#a4cb6923cc6515542df2609ad10e79e2c" target="_top" xlink:title="Run a test in the current process, catching all exceptions.">
<polygon fill="none" stroke="#000000" points="107,-.5 107,-20.5 199,-20.5 199,-.5 107,-.5"/>
<text text-anchor="middle" x="153" y="-7.7" font-family="Avenir-Book" font-size="11.00" fill="#000000">RunInProcess</text>
</a>
</g>
</g>
<!-- Node18&#45;&gt;Node20 -->
<g id="edge2" class="edge">
<title>Node18&#45;&gt;Node20</title>
<path fill="none" stroke="#191970" d="M63.1055,-24.5576C73.4381,-22.9418 85.2449,-21.0954 96.8284,-19.284"/>
<polygon fill="#191970" stroke="#191970" points="97.5686,-22.7109 106.9077,-17.7078 96.487,-15.795 97.5686,-22.7109"/>
</g>
</g>
</svg>
