<?xml version="1.0" encoding="UTF-8" standalone="no"?>
<!DOCTYPE svg PUBLIC "-//W3C//DTD SVG 1.1//EN"
 "http://www.w3.org/Graphics/SVG/1.1/DTD/svg11.dtd">
<!-- Generated by graphviz version 2.40.1 (20161225.0304)
 -->
<!-- Title: operator &amp;&amp; Pages: 1 -->
<svg width="242pt" height="104pt"
 viewBox="0.00 0.00 241.80 104.05" xmlns="http://www.w3.org/2000/svg" xmlns:xlink="http://www.w3.org/1999/xlink">
<g id="graph0" class="graph" transform="scale(1 1) rotate(0) translate(4 100.0519)">
<title>operator &amp;&amp;</title>
<!-- Node27 -->
<g id="node1" class="node">
<title>Node27</title>
<g id="a_node1"><a xlink:title="Combine the results of two checks using a product (AND): both must pass.">
<polygon fill="#bfbfbf" stroke="#000000" points="0,-36.013 0,-59.039 77.094,-59.039 77.094,-36.013 0,-36.013"/>
<text text-anchor="middle" x="38.547" y="-46.239" font-family="Avenir-Book" font-size="11.00" fill="#000000">operator &amp;&amp;</text>
</a>
</g>
</g>
<!-- Node28 -->
<g id="node2" class="node">
<title>Node28</title>
<g id="a_node2"><a xlink:href="classgrading_1_1_check_result.html#a02d5fa6b14e221f3012a794b905be166" target="_top" xlink:title="Cancel the error: the result is actually ok (e.g., because of a logical OR) or else the error&#39;s owner...">
<polygon fill="none" stroke="#000000" points="113.094,-57.5 113.094,-95.5519 233.803,-95.5519 233.803,-57.5 113.094,-57.5"/>
<text text-anchor="start" x="121.094" y="-82.7519" font-family="Avenir-Book" font-size="11.00" fill="#000000">grading::CheckResult</text>
<text text-anchor="middle" x="173.4485" y="-67.726" font-family="Avenir-Book" font-size="11.00" fill="#000000">::cancel</text>
</a>
</g>
</g>
<!-- Node27&#45;&gt;Node28 -->
<g id="edge1" class="edge">
<title>Node27&#45;&gt;Node28</title>
<path fill="none" stroke="#191970" d="M77.2044,-55.8362C85.2936,-57.5752 94.0631,-59.4604 102.9036,-61.3608"/>
<polygon fill="#191970" stroke="#191970" points="102.3703,-64.8261 112.8826,-63.506 103.8415,-57.9824 102.3703,-64.8261"/>
</g>
<!-- Node29 -->
<g id="node3" class="node">
<title>Node29</title>
<g id="a_node3"><a xlink:href="classgrading_1_1_check_result.html#a9fc62bb96c3174d6d9945644308ecc8c" target="_top" xlink:title="A message to display if the check fails.">
<polygon fill="none" stroke="#000000" points="113.094,-.5 113.094,-38.5519 233.803,-38.5519 233.803,-.5 113.094,-.5"/>
<text text-anchor="start" x="121.094" y="-25.7519" font-family="Avenir-Book" font-size="11.00" fill="#000000">grading::CheckResult</text>
<text text-anchor="middle" x="173.4485" y="-10.726" font-family="Avenir-Book" font-size="11.00" fill="#000000">::message</text>
</a>
</g>
</g>
<!-- Node27&#45;&gt;Node29 -->
<g id="edge2" class="edge">
<title>Node27&#45;&gt;Node29</title>
<path fill="none" stroke="#191970" d="M77.2044,-39.5023C85.2936,-37.8233 94.0631,-36.0031 102.9036,-34.1682"/>
<polygon fill="#191970" stroke="#191970" points="103.8026,-37.5563 112.8826,-32.097 102.3799,-30.7024 103.8026,-37.5563"/>
</g>
</g>
</svg>
