<?xml version="1.0" encoding="UTF-8" standalone="no"?>
<!DOCTYPE svg PUBLIC "-//W3C//DTD SVG 1.1//EN"
 "http://www.w3.org/Graphics/SVG/1.1/DTD/svg11.dtd">
<!-- Generated by graphviz version 2.36.0 (20140111.2315)
 -->
<!-- Title: src/posix.cpp Pages: 1 -->
<!--zoomable 204 -->
<svg id="main" version="1.1" xmlns="http://www.w3.org/2000/svg" xmlns:xlink="http://www.w3.org/1999/xlink" xml:space="preserve" onload="init(evt)">
<style type="text/css"><![CDATA[
.edge:hover path { stroke: red; }
.edge:hover polygon { stroke: red; fill: red; }
]]></style>
<script type="text/javascript"><![CDATA[
var edges = document.getElementsByTagName('g');
if (edges && edges.length) {
  for (var i=0;i<edges.length;i++) {
    if (edges[i].id.substr(0,4)=='edge') {
      edges[i].setAttribute('class','edge');
    }
  }
}
]]></script>
        <defs>
                <circle id="rim" cx="0" cy="0" r="7"/>
                <circle id="rim2" cx="0" cy="0" r="3.5"/>
                <g id="zoomPlus">
                        <use xlink:href="#rim" fill="#404040">
                                <set attributeName="fill" to="#808080" begin="zoomplus.mouseover" end="zoomplus.mouseout"/>
                        </use>
                        <path d="M-4,0h8M0,-4v8" fill="none" stroke="white" stroke-width="1.5" pointer-events="none"/>
                </g>
                <g id="zoomMin">
                        <use xlink:href="#rim" fill="#404040">
                                <set attributeName="fill" to="#808080" begin="zoomminus.mouseover" end="zoomminus.mouseout"/>
                        </use>
                        <path d="M-4,0h8" fill="none" stroke="white" stroke-width="1.5" pointer-events="none"/>
                </g>
                <g id="dirArrow">
                        <path fill="none" stroke="white" stroke-width="1.5" d="M0,-3.0v7 M-2.5,-0.5L0,-3.0L2.5,-0.5"/>
                </g>
               <g id="resetDef">
                       <use xlink:href="#rim2" fill="#404040">
                               <set attributeName="fill" to="#808080" begin="reset.mouseover" end="reset.mouseout"/>
                       </use>
               </g>
        </defs>

<script type="text/javascript">
var viewWidth = 846;
var viewHeight = 204;
var sectionId = 'dynsection-0';
</script>
<script xlink:href="svgpan.js"/>
<svg id="graph" class="graph">
<g id="viewport">
<title>src/posix.cpp</title>
<!-- Node1 -->
<g id="node1" class="node"><title>Node1</title>
<polygon fill="#bfbfbf" stroke="black" points="429.5,-175 429.5,-195 510.5,-195 510.5,-175 429.5,-175"/>
<text text-anchor="middle" x="470" y="-182.2" font-family="Avenir-Book" font-size="11.00">src/posix.cpp</text>
</g>
<!-- Node2 -->
<g id="node2" class="node"><title>Node2</title>
<g id="a_node2"><a xlink:href="libgrading_8h.html" target="_top" xlink:title="A library for grading C&#45; and C++&#45;based assignments. ">
<polygon fill="none" stroke="black" points="188.5,-59 188.5,-79 261.5,-79 261.5,-59 188.5,-59"/>
<text text-anchor="middle" x="225" y="-66.2" font-family="Avenir-Book" font-size="11.00">libgrading.h</text>
</a>
</g>
</g>
<!-- Node1&#45;&gt;Node2 -->
<g id="edge1" class="edge"><title>Node1&#45;&gt;Node2</title>
<path fill="none" stroke="midnightblue" d="M429.236,-183.61C358.297,-181.971 216.754,-174.136 186,-138 172.33,-121.937 189.506,-100.4 205.189,-85.9046"/>
<polygon fill="midnightblue" stroke="midnightblue" points="207.839,-88.2383 213.084,-79.0325 203.243,-82.9586 207.839,-88.2383"/>
</g>
<!-- Node3 -->
<g id="node3" class="node"><title>Node3</title>
<polygon fill="none" stroke="#bfbfbf" points="0,-1 0,-21 64,-21 64,-1 0,-1"/>
<text text-anchor="middle" x="32" y="-8.2" font-family="Avenir-Book" font-size="11.00">functional</text>
</g>
<!-- Node1&#45;&gt;Node3 -->
<g id="edge12" class="edge"><title>Node1&#45;&gt;Node3</title>
<path fill="none" stroke="midnightblue" d="M429.26,-184.506C370.896,-183.733 261.341,-176.639 178,-138 121.293,-111.709 69.6496,-56.7563 45.8417,-28.9264"/>
<polygon fill="midnightblue" stroke="midnightblue" points="48.483,-26.6292 39.3718,-21.222 43.1224,-31.1308 48.483,-26.6292"/>
</g>
<!-- Node10 -->
<g id="node10" class="node"><title>Node10</title>
<g id="a_node10"><a xlink:href="private_8h.html" target="_top" xlink:title="Internal header file for libgrading. ">
<polygon fill="none" stroke="black" points="195.5,-117 195.5,-137 254.5,-137 254.5,-117 195.5,-117"/>
<text text-anchor="middle" x="225" y="-124.2" font-family="Avenir-Book" font-size="11.00">private.h</text>
</a>
</g>
</g>
<!-- Node1&#45;&gt;Node10 -->
<g id="edge9" class="edge"><title>Node1&#45;&gt;Node10</title>
<path fill="none" stroke="midnightblue" d="M429.263,-175.297C389.676,-166.752 327.624,-153.127 264.512,-138.07"/>
<polygon fill="midnightblue" stroke="midnightblue" points="265.327,-134.666 254.787,-135.74 263.696,-141.473 265.327,-134.666"/>
</g>
<!-- Node11 -->
<g id="node11" class="node"><title>Node11</title>
<polygon fill="none" stroke="#bfbfbf" points="273,-117 273,-137 325,-137 325,-117 273,-117"/>
<text text-anchor="middle" x="299" y="-124.2" font-family="Avenir-Book" font-size="11.00">cassert</text>
</g>
<!-- Node1&#45;&gt;Node11 -->
<g id="edge11" class="edge"><title>Node1&#45;&gt;Node11</title>
<path fill="none" stroke="midnightblue" d="M442.145,-174.878C412.94,-165.314 366.937,-150.248 334.996,-139.788"/>
<polygon fill="midnightblue" stroke="midnightblue" points="335.751,-136.353 325.159,-136.567 333.573,-143.005 335.751,-136.353"/>
</g>
<!-- Node12 -->
<g id="node12" class="node"><title>Node12</title>
<polygon fill="none" stroke="#bfbfbf" points="343,-117 343,-137 419,-137 419,-117 343,-117"/>
<text text-anchor="middle" x="381" y="-124.2" font-family="Avenir-Book" font-size="11.00">sys/mman.h</text>
</g>
<!-- Node1&#45;&gt;Node12 -->
<g id="edge13" class="edge"><title>Node1&#45;&gt;Node12</title>
<path fill="none" stroke="midnightblue" d="M455.303,-174.753C441.436,-166.027 420.422,-152.805 404.276,-142.646"/>
<polygon fill="midnightblue" stroke="midnightblue" points="405.751,-139.438 395.423,-137.075 402.023,-145.363 405.751,-139.438"/>
</g>
<!-- Node13 -->
<g id="node13" class="node"><title>Node13</title>
<polygon fill="none" stroke="#bfbfbf" points="437.5,-117 437.5,-137 502.5,-137 502.5,-117 437.5,-117"/>
<text text-anchor="middle" x="470" y="-124.2" font-family="Avenir-Book" font-size="11.00">sys/wait.h</text>
</g>
<!-- Node1&#45;&gt;Node13 -->
<g id="edge14" class="edge"><title>Node1&#45;&gt;Node13</title>
<path fill="none" stroke="midnightblue" d="M470,-174.753C470,-167.25 470,-156.424 470,-147.078"/>
<polygon fill="midnightblue" stroke="midnightblue" points="473.5,-147.075 470,-137.075 466.5,-147.075 473.5,-147.075"/>
</g>
<!-- Node14 -->
<g id="node14" class="node"><title>Node14</title>
<polygon fill="none" stroke="#bfbfbf" points="520.5,-117 520.5,-137 559.5,-137 559.5,-117 520.5,-117"/>
<text text-anchor="middle" x="540" y="-124.2" font-family="Avenir-Book" font-size="11.00">err.h</text>
</g>
<!-- Node1&#45;&gt;Node14 -->
<g id="edge15" class="edge"><title>Node1&#45;&gt;Node14</title>
<path fill="none" stroke="midnightblue" d="M481.559,-174.753C492.16,-166.272 508.071,-153.543 520.616,-143.507"/>
<polygon fill="midnightblue" stroke="midnightblue" points="523.034,-146.055 528.656,-137.075 518.661,-140.589 523.034,-146.055"/>
</g>
<!-- Node15 -->
<g id="node15" class="node"><title>Node15</title>
<polygon fill="none" stroke="#bfbfbf" points="577.5,-117 577.5,-137 628.5,-137 628.5,-117 577.5,-117"/>
<text text-anchor="middle" x="603" y="-124.2" font-family="Avenir-Book" font-size="11.00">errno.h</text>
</g>
<!-- Node1&#45;&gt;Node15 -->
<g id="edge16" class="edge"><title>Node1&#45;&gt;Node15</title>
<path fill="none" stroke="midnightblue" d="M491.665,-174.878C513.499,-165.685 547.403,-151.409 572.063,-141.026"/>
<polygon fill="midnightblue" stroke="midnightblue" points="573.486,-144.224 581.345,-137.118 570.77,-137.773 573.486,-144.224"/>
</g>
<!-- Node16 -->
<g id="node16" class="node"><title>Node16</title>
<polygon fill="none" stroke="#bfbfbf" points="647,-117 647,-137 693,-137 693,-117 647,-117"/>
<text text-anchor="middle" x="670" y="-124.2" font-family="Avenir-Book" font-size="11.00">fcntl.h</text>
</g>
<!-- Node1&#45;&gt;Node16 -->
<g id="edge17" class="edge"><title>Node1&#45;&gt;Node16</title>
<path fill="none" stroke="midnightblue" d="M503.657,-174.999C537.434,-165.903 590.922,-151.325 637,-138 637.101,-137.971 637.201,-137.942 637.302,-137.912"/>
<polygon fill="midnightblue" stroke="midnightblue" points="638.342,-141.255 646.943,-135.069 636.362,-134.541 638.342,-141.255"/>
</g>
<!-- Node17 -->
<g id="node17" class="node"><title>Node17</title>
<polygon fill="none" stroke="#bfbfbf" points="711,-117 711,-137 765,-137 765,-117 711,-117"/>
<text text-anchor="middle" x="738" y="-124.2" font-family="Avenir-Book" font-size="11.00">signal.h</text>
</g>
<!-- Node1&#45;&gt;Node17 -->
<g id="edge18" class="edge"><title>Node1&#45;&gt;Node17</title>
<path fill="none" stroke="midnightblue" d="M510.853,-176.861C555.355,-168.871 628.829,-155.061 701.192,-138.063"/>
<polygon fill="midnightblue" stroke="midnightblue" points="702.007,-141.467 710.93,-135.755 700.392,-134.656 702.007,-141.467"/>
</g>
<!-- Node18 -->
<g id="node18" class="node"><title>Node18</title>
<polygon fill="none" stroke="#bfbfbf" points="783.5,-117 783.5,-137 838.5,-137 838.5,-117 783.5,-117"/>
<text text-anchor="middle" x="811" y="-124.2" font-family="Avenir-Book" font-size="11.00">unistd.h</text>
</g>
<!-- Node1&#45;&gt;Node18 -->
<g id="edge19" class="edge"><title>Node1&#45;&gt;Node18</title>
<path fill="none" stroke="midnightblue" d="M510.585,-179.35C567.236,-172.534 673.37,-158.581 773.247,-137.959"/>
<polygon fill="midnightblue" stroke="midnightblue" points="774.13,-141.35 783.202,-135.877 772.697,-134.499 774.13,-141.35"/>
</g>
<!-- Node2&#45;&gt;Node3 -->
<g id="edge2" class="edge"><title>Node2&#45;&gt;Node3</title>
<path fill="none" stroke="midnightblue" d="M193.562,-58.878C160.659,-49.331 108.867,-34.3033 72.8244,-23.8454"/>
<polygon fill="midnightblue" stroke="midnightblue" points="73.6843,-20.4506 63.1051,-21.0253 71.7336,-27.1734 73.6843,-20.4506"/>
</g>
<!-- Node4 -->
<g id="node4" class="node"><title>Node4</title>
<polygon fill="none" stroke="#bfbfbf" points="82.5,-1 82.5,-21 141.5,-21 141.5,-1 82.5,-1"/>
<text text-anchor="middle" x="112" y="-8.2" font-family="Avenir-Book" font-size="11.00">iostream</text>
</g>
<!-- Node2&#45;&gt;Node4 -->
<g id="edge3" class="edge"><title>Node2&#45;&gt;Node4</title>
<path fill="none" stroke="midnightblue" d="M206.593,-58.878C188.371,-49.8475 160.253,-35.9132 139.405,-25.5812"/>
<polygon fill="midnightblue" stroke="midnightblue" points="140.913,-22.4225 130.399,-21.1181 137.805,-28.6946 140.913,-22.4225"/>
</g>
<!-- Node5 -->
<g id="node5" class="node"><title>Node5</title>
<polygon fill="none" stroke="#bfbfbf" points="160,-1 160,-21 216,-21 216,-1 160,-1"/>
<text text-anchor="middle" x="188" y="-8.2" font-family="Avenir-Book" font-size="11.00">memory</text>
</g>
<!-- Node2&#45;&gt;Node5 -->
<g id="edge4" class="edge"><title>Node2&#45;&gt;Node5</title>
<path fill="none" stroke="midnightblue" d="M218.89,-58.7527C213.664,-50.8427 205.996,-39.2372 199.608,-29.5683"/>
<polygon fill="midnightblue" stroke="midnightblue" points="202.429,-27.4891 193.996,-21.0752 196.589,-31.348 202.429,-27.4891"/>
</g>
<!-- Node6 -->
<g id="node6" class="node"><title>Node6</title>
<polygon fill="none" stroke="#bfbfbf" points="234,-1 234,-21 290,-21 290,-1 234,-1"/>
<text text-anchor="middle" x="262" y="-8.2" font-family="Avenir-Book" font-size="11.00">sstream</text>
</g>
<!-- Node2&#45;&gt;Node6 -->
<g id="edge5" class="edge"><title>Node2&#45;&gt;Node6</title>
<path fill="none" stroke="midnightblue" d="M231.11,-58.7527C236.336,-50.8427 244.004,-39.2372 250.392,-29.5683"/>
<polygon fill="midnightblue" stroke="midnightblue" points="253.411,-31.348 256.004,-21.0752 247.571,-27.4891 253.411,-31.348"/>
</g>
<!-- Node7 -->
<g id="node7" class="node"><title>Node7</title>
<polygon fill="none" stroke="#bfbfbf" points="308.5,-1 308.5,-21 351.5,-21 351.5,-1 308.5,-1"/>
<text text-anchor="middle" x="330" y="-8.2" font-family="Avenir-Book" font-size="11.00">string</text>
</g>
<!-- Node2&#45;&gt;Node7 -->
<g id="edge6" class="edge"><title>Node2&#45;&gt;Node7</title>
<path fill="none" stroke="midnightblue" d="M242.339,-58.7527C259.158,-49.7826 284.887,-36.0601 304.128,-25.7986"/>
<polygon fill="midnightblue" stroke="midnightblue" points="305.808,-28.8694 312.984,-21.0752 302.513,-22.6929 305.808,-28.8694"/>
</g>
<!-- Node8 -->
<g id="node8" class="node"><title>Node8</title>
<polygon fill="none" stroke="#bfbfbf" points="369.5,-1 369.5,-21 456.5,-21 456.5,-1 369.5,-1"/>
<text text-anchor="middle" x="413" y="-8.2" font-family="Avenir-Book" font-size="11.00">unordered_set</text>
</g>
<!-- Node2&#45;&gt;Node8 -->
<g id="edge7" class="edge"><title>Node2&#45;&gt;Node8</title>
<path fill="none" stroke="midnightblue" d="M255.624,-58.878C287.537,-49.3718 337.694,-34.4317 372.782,-23.9798"/>
<polygon fill="midnightblue" stroke="midnightblue" points="374.116,-27.2345 382.701,-21.0253 372.118,-20.5258 374.116,-27.2345"/>
</g>
<!-- Node9 -->
<g id="node9" class="node"><title>Node9</title>
<polygon fill="none" stroke="#bfbfbf" points="475,-1 475,-21 521,-21 521,-1 475,-1"/>
<text text-anchor="middle" x="498" y="-8.2" font-family="Avenir-Book" font-size="11.00">vector</text>
</g>
<!-- Node2&#45;&gt;Node9 -->
<g id="edge8" class="edge"><title>Node2&#45;&gt;Node9</title>
<path fill="none" stroke="midnightblue" d="M261.854,-62.1715C307.247,-54.722 386.867,-40.7793 464.677,-21.8615"/>
<polygon fill="midnightblue" stroke="midnightblue" points="465.775,-25.1959 474.648,-19.407 464.101,-18.3988 465.775,-25.1959"/>
</g>
<!-- Node10&#45;&gt;Node2 -->
<g id="edge10" class="edge"><title>Node10&#45;&gt;Node2</title>
<path fill="none" stroke="midnightblue" d="M225,-116.753C225,-109.25 225,-98.4238 225,-89.0781"/>
<polygon fill="midnightblue" stroke="midnightblue" points="228.5,-89.0752 225,-79.0752 221.5,-89.0752 228.5,-89.0752"/>
</g>
</g>
</svg>
        <g id="navigator" transform="translate(0 0)" fill="#404254">
                <rect fill="#f2f5e9" fill-opacity="0.5" stroke="#606060" stroke-width=".5" x="0" y="0" width="60" height="60"/>
                <use id="zoomplus" xlink:href="#zoomPlus" x="17" y="9" onmousedown="handleZoom(evt,'in')"/>
                <use id="zoomminus" xlink:href="#zoomMin" x="42" y="9" onmousedown="handleZoom(evt,'out')"/>
                <use id="reset" xlink:href="#resetDef" x="30" y="36" onmousedown="handleReset()"/>
                <g id="arrowUp" xlink:href="#dirArrow" transform="translate(30 24)" onmousedown="handlePan(0,-1)">
                  <use xlink:href="#rim" fill="#404040">
                        <set attributeName="fill" to="#808080" begin="arrowUp.mouseover" end="arrowUp.mouseout"/>
                  </use>
                  <path fill="none" stroke="white" stroke-width="1.5" d="M0,-3.0v7 M-2.5,-0.5L0,-3.0L2.5,-0.5"/>
                </g>
                <g id="arrowRight" xlink:href="#dirArrow" transform="rotate(90) translate(36 -43)" onmousedown="handlePan(1,0)">
                  <use xlink:href="#rim" fill="#404040">
                        <set attributeName="fill" to="#808080" begin="arrowRight.mouseover" end="arrowRight.mouseout"/>
                  </use>
                  <path fill="none" stroke="white" stroke-width="1.5" d="M0,-3.0v7 M-2.5,-0.5L0,-3.0L2.5,-0.5"/>
                </g>
                <g id="arrowDown" xlink:href="#dirArrow" transform="rotate(180) translate(-30 -48)" onmousedown="handlePan(0,1)">
                  <use xlink:href="#rim" fill="#404040">
                        <set attributeName="fill" to="#808080" begin="arrowDown.mouseover" end="arrowDown.mouseout"/>
                  </use>
                  <path fill="none" stroke="white" stroke-width="1.5" d="M0,-3.0v7 M-2.5,-0.5L0,-3.0L2.5,-0.5"/>
                </g>
                <g id="arrowLeft" xlink:href="#dirArrow" transform="rotate(270) translate(-36 17)" onmousedown="handlePan(-1,0)">
                  <use xlink:href="#rim" fill="#404040">
                        <set attributeName="fill" to="#808080" begin="arrowLeft.mouseover" end="arrowLeft.mouseout"/>
                  </use>
                  <path fill="none" stroke="white" stroke-width="1.5" d="M0,-3.0v7 M-2.5,-0.5L0,-3.0L2.5,-0.5"/>
                </g>
        </g>
        <svg viewBox="0 0 15 15" width="100%" height="30px" preserveAspectRatio="xMaxYMin meet">
         <g id="arrow_out" transform="scale(0.3 0.3)">
          <a xlink:href="posix_8cpp__incl_org.svg" target="_base">
           <rect id="button" ry="5" rx="5" y="6" x="6" height="38" width="38"
                fill="#f2f5e9" fill-opacity="0.5" stroke="#606060" stroke-width="1.0"/>
           <path id="arrow"
             d="M 11.500037,31.436501 C 11.940474,20.09759 22.043105,11.32322 32.158766,21.979434 L 37.068811,17.246167 C 37.068811,17.246167 37.088388,32 37.088388,32 L 22.160133,31.978069 C 22.160133,31.978069 26.997745,27.140456 26.997745,27.140456 C 18.528582,18.264221 13.291696,25.230495 11.500037,31.436501 z"
             style="fill:#404040;"/>
          </a>
         </g>
        </svg>
</svg>
