<?xml version="1.0" encoding="UTF-8" standalone="no"?>
<!DOCTYPE svg PUBLIC "-//W3C//DTD SVG 1.1//EN"
 "http://www.w3.org/Graphics/SVG/1.1/DTD/svg11.dtd">
<!-- Generated by graphviz version 2.40.1 (20161225.0304)
 -->
<!-- Title: src/posix.cpp Pages: 1 -->
<!--zoomable 212 -->
<svg id="main" version="1.1" xmlns="http://www.w3.org/2000/svg" xmlns:xlink="http://www.w3.org/1999/xlink" xml:space="preserve" onload="init(evt)">
<style type="text/css"><![CDATA[
.edge:hover path { stroke: red; }
.edge:hover polygon { stroke: red; fill: red; }
]]></style>
<script type="text/javascript"><![CDATA[
var edges = document.getElementsByTagName('g');
if (edges && edges.length) {
  for (var i=0;i<edges.length;i++) {
    if (edges[i].id.substr(0,4)=='edge') {
      edges[i].setAttribute('class','edge');
    }
  }
}
]]></script>
        <defs>
                <circle id="rim" cx="0" cy="0" r="7"/>
                <circle id="rim2" cx="0" cy="0" r="3.5"/>
                <g id="zoomPlus">
                        <use xlink:href="#rim" fill="#404040">
                                <set attributeName="fill" to="#808080" begin="zoomplus.mouseover" end="zoomplus.mouseout"/>
                        </use>
                        <path d="M-4,0h8M0,-4v8" fill="none" stroke="white" stroke-width="1.5" pointer-events="none"/>
                </g>
                <g id="zoomMin">
                        <use xlink:href="#rim" fill="#404040">
                                <set attributeName="fill" to="#808080" begin="zoomminus.mouseover" end="zoomminus.mouseout"/>
                        </use>
                        <path d="M-4,0h8" fill="none" stroke="white" stroke-width="1.5" pointer-events="none"/>
                </g>
                <g id="dirArrow">
                        <path fill="none" stroke="white" stroke-width="1.5" d="M0,-3.0v7 M-2.5,-0.5L0,-3.0L2.5,-0.5"/>
                </g>
               <g id="resetDef">
                       <use xlink:href="#rim2" fill="#404040">
                               <set attributeName="fill" to="#808080" begin="reset.mouseover" end="reset.mouseout"/>
                       </use>
               </g>
        </defs>

<script type="text/javascript">
var viewWidth = 836;
var viewHeight = 212;
var sectionId = 'dynsection-0';
</script>
<script xlink:href="svgpan.js"/>
<svg id="graph" class="graph">
<g id="viewport">
<title>src/posix.cpp</title>
<!-- Node0 -->
<g id="node1" class="node">
<title>Node0</title>
<polygon fill="#bfbfbf" stroke="#000000" points="420.442,-180.5779 420.442,-203.6039 501.628,-203.6039 501.628,-180.5779 420.442,-180.5779"/>
<text text-anchor="middle" x="461.035" y="-190.8039" font-family="Avenir-Book" font-size="11.00" fill="#000000">src/posix.cpp</text>
</g>
<!-- Node1 -->
<g id="node2" class="node">
<title>Node1</title>
<g id="a_node2"><a xlink:href="libgrading_8h.html" target="_top" xlink:title="A library for grading C&#45; and C++&#45;based assignments. ">
<polygon fill="none" stroke="#000000" points="184.3075,-60.526 184.3075,-83.5519 259.7625,-83.5519 259.7625,-60.526 184.3075,-60.526"/>
<text text-anchor="middle" x="222.035" y="-70.7519" font-family="Avenir-Book" font-size="11.00" fill="#000000">libgrading.h</text>
</a>
</g>
</g>
<!-- Node0&#45;&gt;Node1 -->
<g id="edge1" class="edge">
<title>Node0&#45;&gt;Node1</title>
<path fill="none" stroke="#191970" d="M420.4243,-191.2075C350.9239,-188.7442 213.7728,-179.4137 184.035,-144.0779 170.4205,-127.9005 185.6755,-106.0435 200.7192,-90.6613"/>
<polygon fill="#191970" stroke="#191970" points="203.1881,-93.1428 207.96,-83.6834 198.3307,-88.1024 203.1881,-93.1428"/>
</g>
<!-- Node2 -->
<g id="node3" class="node">
<title>Node2</title>
<polygon fill="none" stroke="#bfbfbf" points="0,-.5 0,-23.526 64.07,-23.526 64.07,-.5 0,-.5"/>
<text text-anchor="middle" x="32.035" y="-10.726" font-family="Avenir-Book" font-size="11.00" fill="#000000">functional</text>
</g>
<!-- Node0&#45;&gt;Node2 -->
<g id="edge12" class="edge">
<title>Node0&#45;&gt;Node2</title>
<path fill="none" stroke="#191970" d="M420.3349,-188.1953C351.8085,-181.1567 216.6965,-165.0797 174.035,-144.0779 118.7775,-116.8752 69.9799,-61.1092 46.6281,-31.4952"/>
<polygon fill="#191970" stroke="#191970" points="49.3625,-29.3097 40.4749,-23.5425 43.8262,-33.5933 49.3625,-29.3097"/>
</g>
<!-- Node9 -->
<g id="node10" class="node">
<title>Node9</title>
<g id="a_node10"><a xlink:href="private_8h.html" target="_top" xlink:title="Internal header file for libgrading. ">
<polygon fill="none" stroke="#000000" points="192.552,-120.5519 192.552,-143.5779 251.518,-143.5779 251.518,-120.5519 192.552,-120.5519"/>
<text text-anchor="middle" x="222.035" y="-130.7779" font-family="Avenir-Book" font-size="11.00" fill="#000000">private.h</text>
</a>
</g>
</g>
<!-- Node0&#45;&gt;Node9 -->
<g id="edge9" class="edge">
<title>Node0&#45;&gt;Node9</title>
<path fill="none" stroke="#191970" d="M420.3926,-183.2817C381.7056,-174.6964 321.6665,-160.8559 261.4997,-144.378"/>
<polygon fill="#191970" stroke="#191970" points="262.4164,-141.0002 251.8455,-141.7112 260.5525,-147.7475 262.4164,-141.0002"/>
</g>
<!-- Node10 -->
<g id="node11" class="node">
<title>Node10</title>
<polygon fill="none" stroke="#bfbfbf" points="269.1335,-120.5519 269.1335,-143.5779 318.9365,-143.5779 318.9365,-120.5519 269.1335,-120.5519"/>
<text text-anchor="middle" x="294.035" y="-130.7779" font-family="Avenir-Book" font-size="11.00" fill="#000000">cassert</text>
</g>
<!-- Node0&#45;&gt;Node10 -->
<g id="edge11" class="edge">
<title>Node0&#45;&gt;Node10</title>
<path fill="none" stroke="#191970" d="M428.8357,-180.5173C400.0532,-170.1718 357.993,-155.0538 328.5305,-144.4639"/>
<polygon fill="#191970" stroke="#191970" points="329.6536,-141.1484 319.0592,-141.0595 327.2858,-147.7358 329.6536,-141.1484"/>
</g>
<!-- Node11 -->
<g id="node12" class="node">
<title>Node11</title>
<polygon fill="none" stroke="#bfbfbf" points="336.7915,-120.5519 336.7915,-143.5779 411.2785,-143.5779 411.2785,-120.5519 336.7915,-120.5519"/>
<text text-anchor="middle" x="374.035" y="-130.7779" font-family="Avenir-Book" font-size="11.00" fill="#000000">sys/mman.h</text>
</g>
<!-- Node0&#45;&gt;Node11 -->
<g id="edge13" class="edge">
<title>Node0&#45;&gt;Node11</title>
<path fill="none" stroke="#191970" d="M444.2605,-180.5173C431.5027,-171.7149 413.7374,-159.4577 399.2675,-149.4742"/>
<polygon fill="#191970" stroke="#191970" points="400.9766,-146.4012 390.758,-143.603 397.0013,-152.1629 400.9766,-146.4012"/>
</g>
<!-- Node12 -->
<g id="node13" class="node">
<title>Node12</title>
<polygon fill="none" stroke="#bfbfbf" points="429.1045,-120.5519 429.1045,-143.5779 492.9655,-143.5779 492.9655,-120.5519 429.1045,-120.5519"/>
<text text-anchor="middle" x="461.035" y="-130.7779" font-family="Avenir-Book" font-size="11.00" fill="#000000">sys/wait.h</text>
</g>
<!-- Node0&#45;&gt;Node12 -->
<g id="edge14" class="edge">
<title>Node0&#45;&gt;Node12</title>
<path fill="none" stroke="#191970" d="M461.035,-180.5173C461.035,-172.9606 461.035,-162.8576 461.035,-153.8328"/>
<polygon fill="#191970" stroke="#191970" points="464.5351,-153.603 461.035,-143.603 457.5351,-153.603 464.5351,-153.603"/>
</g>
<!-- Node13 -->
<g id="node14" class="node">
<title>Node13</title>
<polygon fill="none" stroke="#bfbfbf" points="511.244,-120.5519 511.244,-143.5779 548.826,-143.5779 548.826,-120.5519 511.244,-120.5519"/>
<text text-anchor="middle" x="530.035" y="-130.7779" font-family="Avenir-Book" font-size="11.00" fill="#000000">err.h</text>
</g>
<!-- Node0&#45;&gt;Node13 -->
<g id="edge15" class="edge">
<title>Node0&#45;&gt;Node13</title>
<path fill="none" stroke="#191970" d="M474.3389,-180.5173C484.1708,-171.9641 497.7526,-160.1488 509.0425,-150.3272"/>
<polygon fill="#191970" stroke="#191970" points="511.5245,-152.8071 516.7719,-143.603 506.9301,-147.5258 511.5245,-152.8071"/>
</g>
<!-- Node14 -->
<g id="node15" class="node">
<title>Node14</title>
<polygon fill="none" stroke="#bfbfbf" points="567.3195,-120.5519 567.3195,-143.5779 618.7505,-143.5779 618.7505,-120.5519 567.3195,-120.5519"/>
<text text-anchor="middle" x="593.035" y="-130.7779" font-family="Avenir-Book" font-size="11.00" fill="#000000">errno.h</text>
</g>
<!-- Node0&#45;&gt;Node14 -->
<g id="edge16" class="edge">
<title>Node0&#45;&gt;Node14</title>
<path fill="none" stroke="#191970" d="M486.4859,-180.5173C506.9384,-171.2167 535.8727,-158.059 558.429,-147.8017"/>
<polygon fill="#191970" stroke="#191970" points="560.0081,-150.9286 567.6622,-143.603 557.1104,-144.5565 560.0081,-150.9286"/>
</g>
<!-- Node15 -->
<g id="node16" class="node">
<title>Node15</title>
<polygon fill="none" stroke="#bfbfbf" points="636.965,-120.5519 636.965,-143.5779 683.105,-143.5779 683.105,-120.5519 636.965,-120.5519"/>
<text text-anchor="middle" x="660.035" y="-130.7779" font-family="Avenir-Book" font-size="11.00" fill="#000000">fcntl.h</text>
</g>
<!-- Node0&#45;&gt;Node15 -->
<g id="edge17" class="edge">
<title>Node0&#45;&gt;Node15</title>
<path fill="none" stroke="#191970" d="M501.8052,-181.3394C533.665,-172.7208 579.2252,-159.9229 627.0916,-144.2451"/>
<polygon fill="#191970" stroke="#191970" points="628.296,-147.5333 636.6922,-141.0716 626.099,-140.887 628.296,-147.5333"/>
</g>
<!-- Node16 -->
<g id="node17" class="node">
<title>Node16</title>
<polygon fill="none" stroke="#bfbfbf" points="701.192,-120.5519 701.192,-143.5779 754.878,-143.5779 754.878,-120.5519 701.192,-120.5519"/>
<text text-anchor="middle" x="728.035" y="-130.7779" font-family="Avenir-Book" font-size="11.00" fill="#000000">signal.h</text>
</g>
<!-- Node0&#45;&gt;Node16 -->
<g id="edge18" class="edge">
<title>Node0&#45;&gt;Node16</title>
<path fill="none" stroke="#191970" d="M501.8515,-185.1025C546.2841,-177.1649 619.5513,-163.1156 691.3521,-144.0573"/>
<polygon fill="#191970" stroke="#191970" points="692.2634,-147.4366 701.0116,-141.46 690.4458,-140.6767 692.2634,-147.4366"/>
</g>
<!-- Node17 -->
<g id="node18" class="node">
<title>Node17</title>
<polygon fill="none" stroke="#bfbfbf" points="772.4825,-120.5519 772.4825,-143.5779 827.5875,-143.5779 827.5875,-120.5519 772.4825,-120.5519"/>
<text text-anchor="middle" x="800.035" y="-130.7779" font-family="Avenir-Book" font-size="11.00" fill="#000000">unistd.h</text>
</g>
<!-- Node0&#45;&gt;Node17 -->
<g id="edge19" class="edge">
<title>Node0&#45;&gt;Node17</title>
<path fill="none" stroke="#191970" d="M501.6457,-187.8136C558.2975,-181.377 664.3076,-167.6276 762.4804,-144.2089"/>
<polygon fill="#191970" stroke="#191970" points="763.3663,-147.5956 772.2596,-141.8372 761.7163,-140.7928 763.3663,-147.5956"/>
</g>
<!-- Node1&#45;&gt;Node2 -->
<g id="edge2" class="edge">
<title>Node1&#45;&gt;Node2</title>
<path fill="none" stroke="#191970" d="M185.4011,-60.4653C153.5424,-50.4004 107.3857,-35.8182 74.0392,-25.2832"/>
<polygon fill="#191970" stroke="#191970" points="74.7214,-21.8283 64.1316,-22.1531 72.6126,-28.5031 74.7214,-21.8283"/>
</g>
<!-- Node3 -->
<g id="node4" class="node">
<title>Node3</title>
<polygon fill="none" stroke="#bfbfbf" points="81.959,-.5 81.959,-23.526 140.111,-23.526 140.111,-.5 81.959,-.5"/>
<text text-anchor="middle" x="111.035" y="-10.726" font-family="Avenir-Book" font-size="11.00" fill="#000000">iostream</text>
</g>
<!-- Node1&#45;&gt;Node3 -->
<g id="edge3" class="edge">
<title>Node1&#45;&gt;Node3</title>
<path fill="none" stroke="#191970" d="M200.6331,-60.4653C183.8183,-51.3724 160.186,-38.5926 141.4135,-28.4409"/>
<polygon fill="#191970" stroke="#191970" points="142.8323,-25.2292 132.3712,-23.5511 139.5025,-31.3866 142.8323,-25.2292"/>
</g>
<!-- Node4 -->
<g id="node5" class="node">
<title>Node4</title>
<polygon fill="none" stroke="#bfbfbf" points="157.8665,-.5 157.8665,-23.526 214.2035,-23.526 214.2035,-.5 157.8665,-.5"/>
<text text-anchor="middle" x="186.035" y="-10.726" font-family="Avenir-Book" font-size="11.00" fill="#000000">memory</text>
</g>
<!-- Node1&#45;&gt;Node4 -->
<g id="edge4" class="edge">
<title>Node1&#45;&gt;Node4</title>
<path fill="none" stroke="#191970" d="M215.0938,-60.4653C210.3128,-52.4934 203.8321,-41.6877 198.2041,-32.3037"/>
<polygon fill="#191970" stroke="#191970" points="201.0998,-30.3268 192.9549,-23.5511 195.0966,-33.9272 201.0998,-30.3268"/>
</g>
<!-- Node5 -->
<g id="node6" class="node">
<title>Node5</title>
<polygon fill="none" stroke="#bfbfbf" points="232.1975,-.5 232.1975,-23.526 285.8725,-23.526 285.8725,-.5 232.1975,-.5"/>
<text text-anchor="middle" x="259.035" y="-10.726" font-family="Avenir-Book" font-size="11.00" fill="#000000">sstream</text>
</g>
<!-- Node1&#45;&gt;Node5 -->
<g id="edge5" class="edge">
<title>Node1&#45;&gt;Node5</title>
<path fill="none" stroke="#191970" d="M229.169,-60.4653C234.0829,-52.4934 240.7435,-41.6877 246.5278,-32.3037"/>
<polygon fill="#191970" stroke="#191970" points="249.6551,-33.9004 251.9229,-23.5511 243.6962,-30.2273 249.6551,-33.9004"/>
</g>
<!-- Node6 -->
<g id="node7" class="node">
<title>Node6</title>
<polygon fill="none" stroke="#bfbfbf" points="304.3015,-.5 304.3015,-23.526 347.7685,-23.526 347.7685,-.5 304.3015,-.5"/>
<text text-anchor="middle" x="326.035" y="-10.726" font-family="Avenir-Book" font-size="11.00" fill="#000000">string</text>
</g>
<!-- Node1&#45;&gt;Node6 -->
<g id="edge6" class="edge">
<title>Node1&#45;&gt;Node6</title>
<path fill="none" stroke="#191970" d="M242.0872,-60.4653C257.7697,-51.4139 279.7816,-38.7092 297.331,-28.5801"/>
<polygon fill="#191970" stroke="#191970" points="299.133,-31.5813 306.0443,-23.5511 295.6338,-25.5186 299.133,-31.5813"/>
</g>
<!-- Node7 -->
<g id="node8" class="node">
<title>Node7</title>
<polygon fill="none" stroke="#bfbfbf" points="365.3895,-.5 365.3895,-23.526 452.6805,-23.526 452.6805,-.5 365.3895,-.5"/>
<text text-anchor="middle" x="409.035" y="-10.726" font-family="Avenir-Book" font-size="11.00" fill="#000000">unordered_set</text>
</g>
<!-- Node1&#45;&gt;Node7 -->
<g id="edge7" class="edge">
<title>Node1&#45;&gt;Node7</title>
<path fill="none" stroke="#191970" d="M258.0905,-60.4653C288.0995,-50.8326 330.9983,-37.0624 363.3981,-26.6622"/>
<polygon fill="#191970" stroke="#191970" points="364.6385,-29.94 373.0902,-23.5511 362.499,-23.275 364.6385,-29.94"/>
</g>
<!-- Node8 -->
<g id="node9" class="node">
<title>Node8</title>
<polygon fill="none" stroke="#bfbfbf" points="470.7615,-.5 470.7615,-23.526 517.3085,-23.526 517.3085,-.5 470.7615,-.5"/>
<text text-anchor="middle" x="494.035" y="-10.726" font-family="Avenir-Book" font-size="11.00" fill="#000000">vector</text>
</g>
<!-- Node1&#45;&gt;Node8 -->
<g id="edge8" class="edge">
<title>Node1&#45;&gt;Node8</title>
<path fill="none" stroke="#191970" d="M259.8985,-66.4083C305.6217,-59.1847 384.9159,-45.3031 460.7093,-24.1251"/>
<polygon fill="#191970" stroke="#191970" points="461.7499,-27.4681 470.4122,-21.3677 459.8363,-20.7347 461.7499,-27.4681"/>
</g>
<!-- Node9&#45;&gt;Node1 -->
<g id="edge10" class="edge">
<title>Node9&#45;&gt;Node1</title>
<path fill="none" stroke="#191970" d="M222.035,-120.4913C222.035,-112.9346 222.035,-102.8316 222.035,-93.8068"/>
<polygon fill="#191970" stroke="#191970" points="225.5351,-93.577 222.035,-83.577 218.5351,-93.5771 225.5351,-93.577"/>
</g>
</g>
</svg>
        <g id="navigator" transform="translate(0 0)" fill="#404254">
                <rect fill="#f2f5e9" fill-opacity="0.5" stroke="#606060" stroke-width=".5" x="0" y="0" width="60" height="60"/>
                <use id="zoomplus" xlink:href="#zoomPlus" x="17" y="9" onmousedown="handleZoom(evt,'in')"/>
                <use id="zoomminus" xlink:href="#zoomMin" x="42" y="9" onmousedown="handleZoom(evt,'out')"/>
                <use id="reset" xlink:href="#resetDef" x="30" y="36" onmousedown="handleReset()"/>
                <g id="arrowUp" xlink:href="#dirArrow" transform="translate(30 24)" onmousedown="handlePan(0,-1)">
                  <use xlink:href="#rim" fill="#404040">
                        <set attributeName="fill" to="#808080" begin="arrowUp.mouseover" end="arrowUp.mouseout"/>
                  </use>
                  <path fill="none" stroke="white" stroke-width="1.5" d="M0,-3.0v7 M-2.5,-0.5L0,-3.0L2.5,-0.5"/>
                </g>
                <g id="arrowRight" xlink:href="#dirArrow" transform="rotate(90) translate(36 -43)" onmousedown="handlePan(1,0)">
                  <use xlink:href="#rim" fill="#404040">
                        <set attributeName="fill" to="#808080" begin="arrowRight.mouseover" end="arrowRight.mouseout"/>
                  </use>
                  <path fill="none" stroke="white" stroke-width="1.5" d="M0,-3.0v7 M-2.5,-0.5L0,-3.0L2.5,-0.5"/>
                </g>
                <g id="arrowDown" xlink:href="#dirArrow" transform="rotate(180) translate(-30 -48)" onmousedown="handlePan(0,1)">
                  <use xlink:href="#rim" fill="#404040">
                        <set attributeName="fill" to="#808080" begin="arrowDown.mouseover" end="arrowDown.mouseout"/>
                  </use>
                  <path fill="none" stroke="white" stroke-width="1.5" d="M0,-3.0v7 M-2.5,-0.5L0,-3.0L2.5,-0.5"/>
                </g>
                <g id="arrowLeft" xlink:href="#dirArrow" transform="rotate(270) translate(-36 17)" onmousedown="handlePan(-1,0)">
                  <use xlink:href="#rim" fill="#404040">
                        <set attributeName="fill" to="#808080" begin="arrowLeft.mouseover" end="arrowLeft.mouseout"/>
                  </use>
                  <path fill="none" stroke="white" stroke-width="1.5" d="M0,-3.0v7 M-2.5,-0.5L0,-3.0L2.5,-0.5"/>
                </g>
        </g>
        <svg viewBox="0 0 15 15" width="100%" height="30px" preserveAspectRatio="xMaxYMin meet">
         <g id="arrow_out" transform="scale(0.3 0.3)">
          <a xlink:href="posix_8cpp__incl_org.svg" target="_base">
           <rect id="button" ry="5" rx="5" y="6" x="6" height="38" width="38"
                fill="#f2f5e9" fill-opacity="0.5" stroke="#606060" stroke-width="1.0"/>
           <path id="arrow"
             d="M 11.500037,31.436501 C 11.940474,20.09759 22.043105,11.32322 32.158766,21.979434 L 37.068811,17.246167 C 37.068811,17.246167 37.088388,32 37.088388,32 L 22.160133,31.978069 C 22.160133,31.978069 26.997745,27.140456 26.997745,27.140456 C 18.528582,18.264221 13.291696,25.230495 11.500037,31.436501 z"
             style="fill:#404040;"/>
          </a>
         </g>
        </svg>
</svg>
