<?xml version="1.0" encoding="UTF-8" standalone="no"?>
<!DOCTYPE svg PUBLIC "-//W3C//DTD SVG 1.1//EN"
 "http://www.w3.org/Graphics/SVG/1.1/DTD/svg11.dtd">
<!-- Generated by graphviz version 2.40.1 (20161225.0304)
 -->
<!-- Title: src/posix.cpp Pages: 1 -->
<svg width="935pt" height="200pt"
 viewBox="0.00 0.00 934.50 200.00" xmlns="http://www.w3.org/2000/svg" xmlns:xlink="http://www.w3.org/1999/xlink">
<g id="graph0" class="graph" transform="scale(1 1) rotate(0) translate(4 196)">
<title>src/posix.cpp</title>
<!-- Node0 -->
<g id="node1" class="node">
<title>Node0</title>
<g id="a_node1"><a xlink:title=" ">
<polygon fill="#bfbfbf" stroke="#000000" points="471.5,-171.5 471.5,-191.5 563.5,-191.5 563.5,-171.5 471.5,-171.5"/>
<text text-anchor="middle" x="517.5" y="-178.7" font-family="Avenir-Book" font-size="11.00" fill="#000000">src/posix.cpp</text>
</a>
</g>
</g>
<!-- Node1 -->
<g id="node2" class="node">
<title>Node1</title>
<g id="a_node2"><a xlink:href="libgrading_8h.html" target="_top" xlink:title="A library for grading C&#45; and C++&#45;based assignments.">
<polygon fill="none" stroke="#000000" points="204.5,-57.5 204.5,-77.5 290.5,-77.5 290.5,-57.5 204.5,-57.5"/>
<text text-anchor="middle" x="247.5" y="-64.7" font-family="Avenir-Book" font-size="11.00" fill="#000000">libgrading.h</text>
</a>
</g>
</g>
<!-- Node0&#45;&gt;Node1 -->
<g id="edge1" class="edge">
<title>Node0&#45;&gt;Node1</title>
<path fill="none" stroke="#191970" d="M471.4995,-177.9518C388.7375,-171.0987 221.6993,-154.9432 204.5,-135 190.775,-119.0853 208.2779,-98.4139 224.8996,-84.1619"/>
<polygon fill="#191970" stroke="#191970" points="227.2759,-86.7414 232.8479,-77.7301 222.8725,-81.2998 227.2759,-86.7414"/>
</g>
<!-- Node2 -->
<g id="node3" class="node">
<title>Node2</title>
<g id="a_node3"><a xlink:title=" ">
<polygon fill="none" stroke="#bfbfbf" points="0,-.5 0,-20.5 73,-20.5 73,-.5 0,-.5"/>
<text text-anchor="middle" x="36.5" y="-7.7" font-family="Avenir-Book" font-size="11.00" fill="#000000">functional</text>
</a>
</g>
</g>
<!-- Node0&#45;&gt;Node2 -->
<g id="edge12" class="edge">
<title>Node0&#45;&gt;Node2</title>
<path fill="none" stroke="#191970" d="M471.4399,-177.7901C394.6928,-171.1212 244.2575,-155.8365 195.5,-135 135.9344,-109.5446 79.5277,-55.9823 52.7471,-28.1435"/>
<polygon fill="#191970" stroke="#191970" points="55.123,-25.5619 45.7079,-20.7031 50.038,-30.3727 55.123,-25.5619"/>
</g>
<!-- Node9 -->
<g id="node10" class="node">
<title>Node9</title>
<g id="a_node10"><a xlink:href="private_8h.html" target="_top" xlink:title="Internal header file for libgrading.">
<polygon fill="none" stroke="#000000" points="213.5,-114.5 213.5,-134.5 281.5,-134.5 281.5,-114.5 213.5,-114.5"/>
<text text-anchor="middle" x="247.5" y="-121.7" font-family="Avenir-Book" font-size="11.00" fill="#000000">private.h</text>
</a>
</g>
</g>
<!-- Node0&#45;&gt;Node9 -->
<g id="edge9" class="edge">
<title>Node0&#45;&gt;Node9</title>
<path fill="none" stroke="#191970" d="M471.0961,-172.3942C425.3459,-163.3127 353.4811,-148.7683 291.5,-135 291.3994,-134.9776 291.2986,-134.9552 291.1978,-134.9328"/>
<polygon fill="#191970" stroke="#191970" points="292.1128,-131.5516 281.5854,-132.7454 290.5595,-138.3771 292.1128,-131.5516"/>
</g>
<!-- Node10 -->
<g id="node11" class="node">
<title>Node10</title>
<g id="a_node11"><a xlink:title=" ">
<polygon fill="none" stroke="#bfbfbf" points="300,-114.5 300,-134.5 357,-134.5 357,-114.5 300,-114.5"/>
<text text-anchor="middle" x="328.5" y="-121.7" font-family="Avenir-Book" font-size="11.00" fill="#000000">cassert</text>
</a>
</g>
</g>
<!-- Node0&#45;&gt;Node10 -->
<g id="edge11" class="edge">
<title>Node0&#45;&gt;Node10</title>
<path fill="none" stroke="#191970" d="M484.1457,-171.4408C451.352,-161.5506 401.342,-146.4682 366.9063,-136.0828"/>
<polygon fill="#191970" stroke="#191970" points="367.7801,-132.6907 357.1954,-133.1542 365.7589,-139.3926 367.7801,-132.6907"/>
</g>
<!-- Node11 -->
<g id="node12" class="node">
<title>Node11</title>
<g id="a_node12"><a xlink:title=" ">
<polygon fill="none" stroke="#bfbfbf" points="375,-114.5 375,-134.5 462,-134.5 462,-114.5 375,-114.5"/>
<text text-anchor="middle" x="418.5" y="-121.7" font-family="Avenir-Book" font-size="11.00" fill="#000000">sys/mman.h</text>
</a>
</g>
</g>
<!-- Node0&#45;&gt;Node11 -->
<g id="edge13" class="edge">
<title>Node0&#45;&gt;Node11</title>
<path fill="none" stroke="#191970" d="M499.8008,-171.3095C484.5965,-162.5556 462.4506,-149.8049 445.1104,-139.8211"/>
<polygon fill="#191970" stroke="#191970" points="446.4586,-136.5587 436.046,-134.6022 442.9658,-142.6251 446.4586,-136.5587"/>
</g>
<!-- Node12 -->
<g id="node13" class="node">
<title>Node12</title>
<g id="a_node13"><a xlink:title=" ">
<polygon fill="none" stroke="#bfbfbf" points="480.5,-114.5 480.5,-134.5 554.5,-134.5 554.5,-114.5 480.5,-114.5"/>
<text text-anchor="middle" x="517.5" y="-121.7" font-family="Avenir-Book" font-size="11.00" fill="#000000">sys/wait.h</text>
</a>
</g>
</g>
<!-- Node0&#45;&gt;Node12 -->
<g id="edge14" class="edge">
<title>Node0&#45;&gt;Node12</title>
<path fill="none" stroke="#191970" d="M517.5,-171.3095C517.5,-163.9335 517.5,-153.72 517.5,-144.715"/>
<polygon fill="#191970" stroke="#191970" points="521.0001,-144.6022 517.5,-134.6022 514.0001,-144.6023 521.0001,-144.6022"/>
</g>
<!-- Node13 -->
<g id="node14" class="node">
<title>Node13</title>
<g id="a_node14"><a xlink:title=" ">
<polygon fill="none" stroke="#bfbfbf" points="573,-114.5 573,-134.5 616,-134.5 616,-114.5 573,-114.5"/>
<text text-anchor="middle" x="594.5" y="-121.7" font-family="Avenir-Book" font-size="11.00" fill="#000000">err.h</text>
</a>
</g>
</g>
<!-- Node0&#45;&gt;Node13 -->
<g id="edge15" class="edge">
<title>Node0&#45;&gt;Node13</title>
<path fill="none" stroke="#191970" d="M531.2661,-171.3095C542.7631,-162.7987 559.3634,-150.5102 572.6707,-140.6594"/>
<polygon fill="#191970" stroke="#191970" points="574.8981,-143.3652 580.8531,-134.6022 570.7332,-137.7389 574.8981,-143.3652"/>
</g>
<!-- Node14 -->
<g id="node15" class="node">
<title>Node14</title>
<g id="a_node15"><a xlink:title=" ">
<polygon fill="none" stroke="#bfbfbf" points="634.5,-114.5 634.5,-134.5 692.5,-134.5 692.5,-114.5 634.5,-114.5"/>
<text text-anchor="middle" x="663.5" y="-121.7" font-family="Avenir-Book" font-size="11.00" fill="#000000">errno.h</text>
</a>
</g>
</g>
<!-- Node0&#45;&gt;Node14 -->
<g id="edge16" class="edge">
<title>Node0&#45;&gt;Node14</title>
<path fill="none" stroke="#191970" d="M543.2658,-171.4408C566.7847,-162.2587 601.7668,-148.6013 627.9422,-138.3822"/>
<polygon fill="#191970" stroke="#191970" points="629.4583,-141.5476 637.5007,-134.6504 626.9125,-135.0269 629.4583,-141.5476"/>
</g>
<!-- Node15 -->
<g id="node16" class="node">
<title>Node15</title>
<g id="a_node16"><a xlink:title=" ">
<polygon fill="none" stroke="#bfbfbf" points="711,-114.5 711,-134.5 764,-134.5 764,-114.5 711,-114.5"/>
<text text-anchor="middle" x="737.5" y="-121.7" font-family="Avenir-Book" font-size="11.00" fill="#000000">fcntl.h</text>
</a>
</g>
</g>
<!-- Node0&#45;&gt;Node15 -->
<g id="edge17" class="edge">
<title>Node0&#45;&gt;Node15</title>
<path fill="none" stroke="#191970" d="M558.9008,-171.4921C594.1501,-162.8694 646.3665,-149.8572 700.9415,-135.0853"/>
<polygon fill="#191970" stroke="#191970" points="702.063,-138.4075 710.7941,-132.4061 700.2261,-131.6528 702.063,-138.4075"/>
</g>
<!-- Node16 -->
<g id="node17" class="node">
<title>Node16</title>
<g id="a_node17"><a xlink:title=" ">
<polygon fill="none" stroke="#bfbfbf" points="782.5,-114.5 782.5,-134.5 844.5,-134.5 844.5,-114.5 782.5,-114.5"/>
<text text-anchor="middle" x="813.5" y="-121.7" font-family="Avenir-Book" font-size="11.00" fill="#000000">signal.h</text>
</a>
</g>
</g>
<!-- Node0&#45;&gt;Node16 -->
<g id="edge18" class="edge">
<title>Node0&#45;&gt;Node16</title>
<path fill="none" stroke="#191970" d="M563.9621,-174.1663C613.3096,-166.131 693.7925,-152.3255 772.082,-135.1989"/>
<polygon fill="#191970" stroke="#191970" points="773.1029,-138.5578 782.1127,-132.9833 771.5931,-131.7226 773.1029,-138.5578"/>
</g>
<!-- Node17 -->
<g id="node18" class="node">
<title>Node17</title>
<g id="a_node18"><a xlink:title=" ">
<polygon fill="none" stroke="#bfbfbf" points="862.5,-114.5 862.5,-134.5 926.5,-134.5 926.5,-114.5 862.5,-114.5"/>
<text text-anchor="middle" x="894.5" y="-121.7" font-family="Avenir-Book" font-size="11.00" fill="#000000">unistd.h</text>
</a>
</g>
</g>
<!-- Node0&#45;&gt;Node17 -->
<g id="edge19" class="edge">
<title>Node0&#45;&gt;Node17</title>
<path fill="none" stroke="#191970" d="M563.6981,-176.7819C626.8191,-169.9672 743.6868,-156.0389 852.519,-135.0225"/>
<polygon fill="#191970" stroke="#191970" points="853.207,-138.4543 862.3494,-133.1002 851.8636,-131.5844 853.207,-138.4543"/>
</g>
<!-- Node1&#45;&gt;Node2 -->
<g id="edge2" class="edge">
<title>Node1&#45;&gt;Node2</title>
<path fill="none" stroke="#191970" d="M210.2631,-57.4408C174.7498,-47.8471 121.1513,-33.3679 82.8804,-23.0293"/>
<polygon fill="#191970" stroke="#191970" points="83.5783,-19.5924 73.0116,-20.3633 81.7527,-26.3502 83.5783,-19.5924"/>
</g>
<!-- Node3 -->
<g id="node4" class="node">
<title>Node3</title>
<g id="a_node4"><a xlink:title=" ">
<polygon fill="none" stroke="#bfbfbf" points="91.5,-.5 91.5,-20.5 157.5,-20.5 157.5,-.5 91.5,-.5"/>
<text text-anchor="middle" x="124.5" y="-7.7" font-family="Avenir-Book" font-size="11.00" fill="#000000">iostream</text>
</a>
</g>
</g>
<!-- Node1&#45;&gt;Node3 -->
<g id="edge3" class="edge">
<title>Node1&#45;&gt;Node3</title>
<path fill="none" stroke="#191970" d="M225.7932,-57.4408C206.3285,-48.4205 177.5438,-35.0813 155.6288,-24.9255"/>
<polygon fill="#191970" stroke="#191970" points="156.9483,-21.6795 146.4035,-20.6504 154.005,-28.0307 156.9483,-21.6795"/>
</g>
<!-- Node4 -->
<g id="node5" class="node">
<title>Node4</title>
<g id="a_node5"><a xlink:title=" ">
<polygon fill="none" stroke="#bfbfbf" points="175.5,-.5 175.5,-20.5 239.5,-20.5 239.5,-.5 175.5,-.5"/>
<text text-anchor="middle" x="207.5" y="-7.7" font-family="Avenir-Book" font-size="11.00" fill="#000000">memory</text>
</a>
</g>
</g>
<!-- Node1&#45;&gt;Node4 -->
<g id="edge4" class="edge">
<title>Node1&#45;&gt;Node4</title>
<path fill="none" stroke="#191970" d="M240.3488,-57.3095C234.8313,-49.4472 227.0514,-38.3608 220.4479,-28.9507"/>
<polygon fill="#191970" stroke="#191970" points="223.1985,-26.7773 214.5893,-20.6022 217.4686,-30.7983 223.1985,-26.7773"/>
</g>
<!-- Node5 -->
<g id="node6" class="node">
<title>Node5</title>
<g id="a_node6"><a xlink:title=" ">
<polygon fill="none" stroke="#bfbfbf" points="257.5,-.5 257.5,-20.5 319.5,-20.5 319.5,-.5 257.5,-.5"/>
<text text-anchor="middle" x="288.5" y="-7.7" font-family="Avenir-Book" font-size="11.00" fill="#000000">sstream</text>
</a>
</g>
</g>
<!-- Node1&#45;&gt;Node5 -->
<g id="edge5" class="edge">
<title>Node1&#45;&gt;Node5</title>
<path fill="none" stroke="#191970" d="M254.83,-57.3095C260.4854,-49.4472 268.4598,-38.3608 275.2284,-28.9507"/>
<polygon fill="#191970" stroke="#191970" points="278.2355,-30.7641 281.2335,-20.6022 272.5528,-26.6765 278.2355,-30.7641"/>
</g>
<!-- Node6 -->
<g id="node7" class="node">
<title>Node6</title>
<g id="a_node7"><a xlink:title=" ">
<polygon fill="none" stroke="#bfbfbf" points="337.5,-.5 337.5,-20.5 387.5,-20.5 387.5,-.5 337.5,-.5"/>
<text text-anchor="middle" x="362.5" y="-7.7" font-family="Avenir-Book" font-size="11.00" fill="#000000">string</text>
</a>
</g>
</g>
<!-- Node1&#45;&gt;Node6 -->
<g id="edge6" class="edge">
<title>Node1&#45;&gt;Node6</title>
<path fill="none" stroke="#191970" d="M267.795,-57.4408C285.8305,-48.5014 312.4242,-35.3202 332.843,-25.1996"/>
<polygon fill="#191970" stroke="#191970" points="334.6156,-28.2273 342.0211,-20.6504 331.5069,-21.9555 334.6156,-28.2273"/>
</g>
<!-- Node7 -->
<g id="node8" class="node">
<title>Node7</title>
<g id="a_node8"><a xlink:title=" ">
<polygon fill="none" stroke="#bfbfbf" points="406,-.5 406,-20.5 505,-20.5 505,-.5 406,-.5"/>
<text text-anchor="middle" x="455.5" y="-7.7" font-family="Avenir-Book" font-size="11.00" fill="#000000">unordered_set</text>
</a>
</g>
</g>
<!-- Node1&#45;&gt;Node7 -->
<g id="edge7" class="edge">
<title>Node1&#45;&gt;Node7</title>
<path fill="none" stroke="#191970" d="M284.2074,-57.4408C319.0017,-47.9058 371.4066,-33.5448 409.0851,-23.2195"/>
<polygon fill="#191970" stroke="#191970" points="410.0909,-26.573 418.8103,-20.5544 408.2408,-19.8219 410.0909,-26.573"/>
</g>
<!-- Node8 -->
<g id="node9" class="node">
<title>Node8</title>
<g id="a_node9"><a xlink:title=" ">
<polygon fill="none" stroke="#bfbfbf" points="523.5,-.5 523.5,-20.5 575.5,-20.5 575.5,-.5 523.5,-.5"/>
<text text-anchor="middle" x="549.5" y="-7.7" font-family="Avenir-Book" font-size="11.00" fill="#000000">vector</text>
</a>
</g>
</g>
<!-- Node1&#45;&gt;Node8 -->
<g id="edge8" class="edge">
<title>Node1&#45;&gt;Node8</title>
<path fill="none" stroke="#191970" d="M290.8273,-61.575C341.8913,-54.2348 429.4352,-40.5356 513.2783,-21.0877"/>
<polygon fill="#191970" stroke="#191970" points="514.2841,-24.4467 523.2174,-18.7506 512.6818,-17.6325 514.2841,-24.4467"/>
</g>
<!-- Node9&#45;&gt;Node1 -->
<g id="edge10" class="edge">
<title>Node9&#45;&gt;Node1</title>
<path fill="none" stroke="#191970" d="M247.5,-114.3095C247.5,-106.9335 247.5,-96.72 247.5,-87.715"/>
<polygon fill="#191970" stroke="#191970" points="251.0001,-87.6022 247.5,-77.6022 244.0001,-87.6023 251.0001,-87.6022"/>
</g>
</g>
</svg>
