<?xml version="1.0" encoding="UTF-8" standalone="no"?>
<!DOCTYPE svg PUBLIC "-//W3C//DTD SVG 1.1//EN"
 "http://www.w3.org/Graphics/SVG/1.1/DTD/svg11.dtd">
<!-- Generated by graphviz version 2.38.0 (20140413.2041)
 -->
<!-- Title: src/posix.cpp Pages: 1 -->
<svg width="906pt" height="200pt"
 viewBox="0.00 0.00 906.50 200.00" xmlns="http://www.w3.org/2000/svg" xmlns:xlink="http://www.w3.org/1999/xlink">
<g id="graph0" class="graph" transform="scale(1 1) rotate(0) translate(4 196)">
<title>src/posix.cpp</title>
<!-- Node1 -->
<g id="node1" class="node"><title>Node1</title>
<polygon fill="#bfbfbf" stroke="black" points="462,-171.5 462,-191.5 551,-191.5 551,-171.5 462,-171.5"/>
<text text-anchor="middle" x="506.5" y="-178.7" font-family="Avenir-Book" font-size="11.00">src/posix.cpp</text>
</g>
<!-- Node2 -->
<g id="node2" class="node"><title>Node2</title>
<g id="a_node2"><a xlink:href="libgrading_8h.html" target="_top" xlink:title="A library for grading C&#45; and C++&#45;based assignments. ">
<polygon fill="none" stroke="black" points="202,-57.5 202,-77.5 281,-77.5 281,-57.5 202,-57.5"/>
<text text-anchor="middle" x="241.5" y="-64.7" font-family="Avenir-Book" font-size="11.00">libgrading.h</text>
</a>
</g>
</g>
<!-- Node1&#45;&gt;Node2 -->
<g id="edge1" class="edge"><title>Node1&#45;&gt;Node2</title>
<path fill="none" stroke="midnightblue" d="M461.866,-180.709C385.045,-180.014 232.848,-173.655 199.5,-135 185.702,-119.007 203.914,-98.061 220.49,-83.9873"/>
<polygon fill="midnightblue" stroke="midnightblue" points="222.738,-86.6703 228.348,-77.6823 218.358,-81.2105 222.738,-86.6703"/>
</g>
<!-- Node3 -->
<g id="node3" class="node"><title>Node3</title>
<polygon fill="none" stroke="#bfbfbf" points="0,-0.5 0,-20.5 69,-20.5 69,-0.5 0,-0.5"/>
<text text-anchor="middle" x="34.5" y="-7.7" font-family="Avenir-Book" font-size="11.00">functional</text>
</g>
<!-- Node1&#45;&gt;Node3 -->
<g id="edge12" class="edge"><title>Node1&#45;&gt;Node3</title>
<path fill="none" stroke="midnightblue" d="M461.767,-181.195C398.876,-180.612 281.898,-173.753 191.5,-135 131.995,-109.491 75.7849,-55.5091 49.7089,-28.1477"/>
<polygon fill="midnightblue" stroke="midnightblue" points="52.0039,-25.4781 42.6135,-20.5719 46.8948,-30.2632 52.0039,-25.4781"/>
</g>
<!-- Node10 -->
<g id="node10" class="node"><title>Node10</title>
<g id="a_node10"><a xlink:href="private_8h.html" target="_top" xlink:title="Internal header file for libgrading. ">
<polygon fill="none" stroke="black" points="209,-114.5 209,-134.5 274,-134.5 274,-114.5 209,-114.5"/>
<text text-anchor="middle" x="241.5" y="-121.7" font-family="Avenir-Book" font-size="11.00">private.h</text>
</a>
</g>
</g>
<!-- Node1&#45;&gt;Node10 -->
<g id="edge9" class="edge"><title>Node1&#45;&gt;Node10</title>
<path fill="none" stroke="midnightblue" d="M461.593,-171.628C418.63,-163.074 351.75,-149.591 284.038,-135.08"/>
<polygon fill="midnightblue" stroke="midnightblue" points="284.557,-131.612 274.044,-132.933 283.086,-138.456 284.557,-131.612"/>
</g>
<!-- Node11 -->
<g id="node11" class="node"><title>Node11</title>
<polygon fill="none" stroke="#bfbfbf" points="292,-114.5 292,-134.5 349,-134.5 349,-114.5 292,-114.5"/>
<text text-anchor="middle" x="320.5" y="-121.7" font-family="Avenir-Book" font-size="11.00">cassert</text>
</g>
<!-- Node1&#45;&gt;Node11 -->
<g id="edge11" class="edge"><title>Node1&#45;&gt;Node11</title>
<path fill="none" stroke="midnightblue" d="M475.786,-171.418C443.762,-161.948 393.502,-147.087 358.882,-136.85"/>
<polygon fill="midnightblue" stroke="midnightblue" points="359.702,-133.442 349.12,-133.963 357.717,-140.155 359.702,-133.442"/>
</g>
<!-- Node12 -->
<g id="node12" class="node"><title>Node12</title>
<polygon fill="none" stroke="#bfbfbf" points="367,-114.5 367,-134.5 452,-134.5 452,-114.5 367,-114.5"/>
<text text-anchor="middle" x="409.5" y="-121.7" font-family="Avenir-Book" font-size="11.00">sys/mman.h</text>
</g>
<!-- Node1&#45;&gt;Node12 -->
<g id="edge13" class="edge"><title>Node1&#45;&gt;Node12</title>
<path fill="none" stroke="midnightblue" d="M490.482,-171.418C475.318,-162.82 452.313,-149.775 434.693,-139.784"/>
<polygon fill="midnightblue" stroke="midnightblue" points="435.967,-136.483 425.541,-134.596 432.514,-142.573 435.967,-136.483"/>
</g>
<!-- Node13 -->
<g id="node13" class="node"><title>Node13</title>
<polygon fill="none" stroke="#bfbfbf" points="470.5,-114.5 470.5,-134.5 542.5,-134.5 542.5,-114.5 470.5,-114.5"/>
<text text-anchor="middle" x="506.5" y="-121.7" font-family="Avenir-Book" font-size="11.00">sys/wait.h</text>
</g>
<!-- Node1&#45;&gt;Node13 -->
<g id="edge14" class="edge"><title>Node1&#45;&gt;Node13</title>
<path fill="none" stroke="midnightblue" d="M506.5,-171.418C506.5,-164.216 506.5,-153.896 506.5,-144.863"/>
<polygon fill="midnightblue" stroke="midnightblue" points="510,-144.779 506.5,-134.779 503,-144.779 510,-144.779"/>
</g>
<!-- Node14 -->
<g id="node14" class="node"><title>Node14</title>
<polygon fill="none" stroke="#bfbfbf" points="560.5,-114.5 560.5,-134.5 602.5,-134.5 602.5,-114.5 560.5,-114.5"/>
<text text-anchor="middle" x="581.5" y="-121.7" font-family="Avenir-Book" font-size="11.00">err.h</text>
</g>
<!-- Node1&#45;&gt;Node14 -->
<g id="edge15" class="edge"><title>Node1&#45;&gt;Node14</title>
<path fill="none" stroke="midnightblue" d="M518.885,-171.418C530.284,-163.058 547.414,-150.497 560.876,-140.624"/>
<polygon fill="midnightblue" stroke="midnightblue" points="563.103,-143.332 569.097,-134.596 558.963,-137.687 563.103,-143.332"/>
</g>
<!-- Node15 -->
<g id="node15" class="node"><title>Node15</title>
<polygon fill="none" stroke="#bfbfbf" points="620.5,-114.5 620.5,-134.5 676.5,-134.5 676.5,-114.5 620.5,-114.5"/>
<text text-anchor="middle" x="648.5" y="-121.7" font-family="Avenir-Book" font-size="11.00">errno.h</text>
</g>
<!-- Node1&#45;&gt;Node15 -->
<g id="edge16" class="edge"><title>Node1&#45;&gt;Node15</title>
<path fill="none" stroke="midnightblue" d="M529.948,-171.418C553.278,-162.382 589.285,-148.435 615.497,-138.283"/>
<polygon fill="midnightblue" stroke="midnightblue" points="616.956,-141.471 625.017,-134.596 614.428,-134.944 616.956,-141.471"/>
</g>
<!-- Node16 -->
<g id="node16" class="node"><title>Node16</title>
<polygon fill="none" stroke="#bfbfbf" points="694.5,-114.5 694.5,-134.5 744.5,-134.5 744.5,-114.5 694.5,-114.5"/>
<text text-anchor="middle" x="719.5" y="-121.7" font-family="Avenir-Book" font-size="11.00">fcntl.h</text>
</g>
<!-- Node1&#45;&gt;Node16 -->
<g id="edge17" class="edge"><title>Node1&#45;&gt;Node16</title>
<path fill="none" stroke="midnightblue" d="M543.247,-171.428C577.426,-162.93 630.014,-149.705 684.446,-135.24"/>
<polygon fill="midnightblue" stroke="midnightblue" points="685.506,-138.579 694.267,-132.622 683.703,-131.816 685.506,-138.579"/>
</g>
<!-- Node17 -->
<g id="node17" class="node"><title>Node17</title>
<polygon fill="none" stroke="#bfbfbf" points="762.5,-114.5 762.5,-134.5 820.5,-134.5 820.5,-114.5 762.5,-114.5"/>
<text text-anchor="middle" x="791.5" y="-121.7" font-family="Avenir-Book" font-size="11.00">signal.h</text>
</g>
<!-- Node1&#45;&gt;Node17 -->
<g id="edge18" class="edge"><title>Node1&#45;&gt;Node17</title>
<path fill="none" stroke="midnightblue" d="M551.29,-173.12C598.772,-165.103 676.178,-151.483 752.261,-135.164"/>
<polygon fill="midnightblue" stroke="midnightblue" points="753.464,-138.485 762.498,-132.95 751.984,-131.643 753.464,-138.485"/>
</g>
<!-- Node18 -->
<g id="node18" class="node"><title>Node18</title>
<polygon fill="none" stroke="#bfbfbf" points="838.5,-114.5 838.5,-134.5 898.5,-134.5 898.5,-114.5 838.5,-114.5"/>
<text text-anchor="middle" x="868.5" y="-121.7" font-family="Avenir-Book" font-size="11.00">unistd.h</text>
</g>
<!-- Node1&#45;&gt;Node18 -->
<g id="edge19" class="edge"><title>Node1&#45;&gt;Node18</title>
<path fill="none" stroke="midnightblue" d="M551.14,-175.628C611.721,-168.706 723.514,-154.831 828.222,-135.09"/>
<polygon fill="midnightblue" stroke="midnightblue" points="829.164,-138.474 838.331,-133.161 827.852,-131.598 829.164,-138.474"/>
</g>
<!-- Node2&#45;&gt;Node3 -->
<g id="edge2" class="edge"><title>Node2&#45;&gt;Node3</title>
<path fill="none" stroke="midnightblue" d="M207.318,-57.4179C172.005,-48.0352 116.768,-33.3586 78.2793,-23.1322"/>
<polygon fill="midnightblue" stroke="midnightblue" points="78.952,-19.6896 68.3886,-20.5042 77.1545,-26.4548 78.952,-19.6896"/>
</g>
<!-- Node4 -->
<g id="node4" class="node"><title>Node4</title>
<polygon fill="none" stroke="#bfbfbf" points="87,-0.5 87,-20.5 152,-20.5 152,-0.5 87,-0.5"/>
<text text-anchor="middle" x="119.5" y="-7.7" font-family="Avenir-Book" font-size="11.00">iostream</text>
</g>
<!-- Node2&#45;&gt;Node4 -->
<g id="edge3" class="edge"><title>Node2&#45;&gt;Node4</title>
<path fill="none" stroke="midnightblue" d="M221.354,-57.4179C201.663,-48.5409 171.461,-34.9253 149.053,-24.823"/>
<polygon fill="midnightblue" stroke="midnightblue" points="150.231,-21.5148 139.676,-20.5956 147.354,-27.8963 150.231,-21.5148"/>
</g>
<!-- Node5 -->
<g id="node5" class="node"><title>Node5</title>
<polygon fill="none" stroke="#bfbfbf" points="170,-0.5 170,-20.5 233,-20.5 233,-0.5 170,-0.5"/>
<text text-anchor="middle" x="201.5" y="-7.7" font-family="Avenir-Book" font-size="11.00">memory</text>
</g>
<!-- Node2&#45;&gt;Node5 -->
<g id="edge4" class="edge"><title>Node2&#45;&gt;Node5</title>
<path fill="none" stroke="midnightblue" d="M234.895,-57.4179C229.312,-49.7415 221.152,-38.5217 214.296,-29.0945"/>
<polygon fill="midnightblue" stroke="midnightblue" points="216.961,-26.8082 208.249,-20.7795 211.3,-30.9255 216.961,-26.8082"/>
</g>
<!-- Node6 -->
<g id="node6" class="node"><title>Node6</title>
<polygon fill="none" stroke="#bfbfbf" points="251.5,-0.5 251.5,-20.5 313.5,-20.5 313.5,-0.5 251.5,-0.5"/>
<text text-anchor="middle" x="282.5" y="-7.7" font-family="Avenir-Book" font-size="11.00">sstream</text>
</g>
<!-- Node2&#45;&gt;Node6 -->
<g id="edge5" class="edge"><title>Node2&#45;&gt;Node6</title>
<path fill="none" stroke="midnightblue" d="M248.27,-57.4179C254.052,-49.6624 262.529,-38.29 269.601,-28.8035"/>
<polygon fill="midnightblue" stroke="midnightblue" points="272.412,-30.8888 275.583,-20.7795 266.8,-26.7051 272.412,-30.8888"/>
</g>
<!-- Node7 -->
<g id="node7" class="node"><title>Node7</title>
<polygon fill="none" stroke="#bfbfbf" points="332,-0.5 332,-20.5 379,-20.5 379,-0.5 332,-0.5"/>
<text text-anchor="middle" x="355.5" y="-7.7" font-family="Avenir-Book" font-size="11.00">string</text>
</g>
<!-- Node2&#45;&gt;Node7 -->
<g id="edge6" class="edge"><title>Node2&#45;&gt;Node7</title>
<path fill="none" stroke="midnightblue" d="M260.325,-57.4179C278.642,-48.5807 306.693,-35.0473 327.603,-24.9591"/>
<polygon fill="midnightblue" stroke="midnightblue" points="329.162,-28.0933 336.647,-20.5956 326.12,-21.7887 329.162,-28.0933"/>
</g>
<!-- Node8 -->
<g id="node8" class="node"><title>Node8</title>
<polygon fill="none" stroke="#bfbfbf" points="397.5,-0.5 397.5,-20.5 493.5,-20.5 493.5,-0.5 397.5,-0.5"/>
<text text-anchor="middle" x="445.5" y="-7.7" font-family="Avenir-Book" font-size="11.00">unordered_set</text>
</g>
<!-- Node2&#45;&gt;Node8 -->
<g id="edge7" class="edge"><title>Node2&#45;&gt;Node8</title>
<path fill="none" stroke="midnightblue" d="M275.186,-57.4179C309.988,-48.0352 364.424,-33.3586 402.355,-23.1322"/>
<polygon fill="midnightblue" stroke="midnightblue" points="403.358,-26.4867 412.103,-20.5042 401.536,-19.7281 403.358,-26.4867"/>
</g>
<!-- Node9 -->
<g id="node9" class="node"><title>Node9</title>
<polygon fill="none" stroke="#bfbfbf" points="512,-0.5 512,-20.5 563,-20.5 563,-0.5 512,-0.5"/>
<text text-anchor="middle" x="537.5" y="-7.7" font-family="Avenir-Book" font-size="11.00">vector</text>
</g>
<!-- Node2&#45;&gt;Node9 -->
<g id="edge8" class="edge"><title>Node2&#45;&gt;Node9</title>
<path fill="none" stroke="midnightblue" d="M281.077,-60.7668C330.453,-53.358 417.637,-39.436 501.954,-20.9447"/>
<polygon fill="midnightblue" stroke="midnightblue" points="502.949,-24.3092 511.954,-18.7269 501.433,-17.4753 502.949,-24.3092"/>
</g>
<!-- Node10&#45;&gt;Node2 -->
<g id="edge10" class="edge"><title>Node10&#45;&gt;Node2</title>
<path fill="none" stroke="midnightblue" d="M241.5,-114.418C241.5,-107.216 241.5,-96.8962 241.5,-87.8632"/>
<polygon fill="midnightblue" stroke="midnightblue" points="245,-87.7794 241.5,-77.7795 238,-87.7795 245,-87.7794"/>
</g>
</g>
</svg>
