<?xml version="1.0" encoding="UTF-8" standalone="no"?>
<!DOCTYPE svg PUBLIC "-//W3C//DTD SVG 1.1//EN"
 "http://www.w3.org/Graphics/SVG/1.1/DTD/svg11.dtd">
<!-- Generated by graphviz version 2.38.0 (20140413.2041)
 -->
<!-- Title: src/posix.cpp Pages: 1 -->
<!--zoomable 152 -->
<svg id="main" version="1.1" xmlns="http://www.w3.org/2000/svg" xmlns:xlink="http://www.w3.org/1999/xlink" xml:space="preserve" onload="init(evt)">
<style type="text/css"><![CDATA[
.edge:hover path { stroke: red; }
.edge:hover polygon { stroke: red; fill: red; }
]]></style>
<script type="text/javascript"><![CDATA[
var edges = document.getElementsByTagName('g');
if (edges && edges.length) {
  for (var i=0;i<edges.length;i++) {
    if (edges[i].id.substr(0,4)=='edge') {
      edges[i].setAttribute('class','edge');
    }
  }
}
]]></script>
        <defs>
                <circle id="rim" cx="0" cy="0" r="7"/>
                <circle id="rim2" cx="0" cy="0" r="3.5"/>
                <g id="zoomPlus">
                        <use xlink:href="#rim" fill="#404040">
                                <set attributeName="fill" to="#808080" begin="zoomplus.mouseover" end="zoomplus.mouseout"/>
                        </use>
                        <path d="M-4,0h8M0,-4v8" fill="none" stroke="white" stroke-width="1.5" pointer-events="none"/>
                </g>
                <g id="zoomMin">
                        <use xlink:href="#rim" fill="#404040">
                                <set attributeName="fill" to="#808080" begin="zoomminus.mouseover" end="zoomminus.mouseout"/>
                        </use>
                        <path d="M-4,0h8" fill="none" stroke="white" stroke-width="1.5" pointer-events="none"/>
                </g>
                <g id="dirArrow">
                        <path fill="none" stroke="white" stroke-width="1.5" d="M0,-3.0v7 M-2.5,-0.5L0,-3.0L2.5,-0.5"/>
                </g>
               <g id="resetDef">
                       <use xlink:href="#rim2" fill="#404040">
                               <set attributeName="fill" to="#808080" begin="reset.mouseover" end="reset.mouseout"/>
                       </use>
               </g>
        </defs>

<script type="text/javascript">
var viewWidth = 577;
var viewHeight = 152;
var sectionId = 'dynsection-0';
</script>
<script xlink:href="svgpan.js"/>
<svg id="graph" class="graph">
<g id="viewport">
<title>src/posix.cpp</title>
<!-- Node1 -->
<g id="node1" class="node"><title>Node1</title>
<polygon fill="#bfbfbf" stroke="black" points="264.442,-120.552 264.442,-143.578 345.628,-143.578 345.628,-120.552 264.442,-120.552"/>
<text text-anchor="middle" x="305.035" y="-130.778" font-family="Avenir-Book" font-size="11.00">src/posix.cpp</text>
</g>
<!-- Node2 -->
<g id="node2" class="node"><title>Node2</title>
<g id="a_node2"><a xlink:href="libgrading_8h.html" target="_top" xlink:title="A library for grading C&#45; and C++&#45;based assignments. ">
<polygon fill="none" stroke="black" points="69.3075,-60.526 69.3075,-83.5519 144.762,-83.5519 144.762,-60.526 69.3075,-60.526"/>
<text text-anchor="middle" x="107.035" y="-70.7519" font-family="Avenir-Book" font-size="11.00">libgrading.h</text>
</a>
</g>
</g>
<!-- Node1&#45;&gt;Node2 -->
<g id="edge1" class="edge"><title>Node1&#45;&gt;Node2</title>
<path fill="none" stroke="midnightblue" d="M268.719,-120.422C236.203,-110.893 188.361,-96.8725 153.152,-86.5539"/>
<polygon fill="midnightblue" stroke="midnightblue" points="153.702,-83.068 143.121,-83.6143 151.733,-89.7855 153.702,-83.068"/>
</g>
<!-- Node3 -->
<g id="node3" class="node"><title>Node3</title>
<polygon fill="none" stroke="#bfbfbf" points="-7.10543e-15,-0.5 -7.10543e-15,-23.526 64.07,-23.526 64.07,-0.5 -7.10543e-15,-0.5"/>
<text text-anchor="middle" x="32.035" y="-10.726" font-family="Avenir-Book" font-size="11.00">functional</text>
</g>
<!-- Node1&#45;&gt;Node3 -->
<g id="edge6" class="edge"><title>Node1&#45;&gt;Node3</title>
<path fill="none" stroke="midnightblue" d="M264.323,-127.971C202.932,-122.541 90.5784,-109.387 60.035,-84.0519 44.9469,-71.5366 37.9471,-49.7767 34.7257,-33.6282"/>
<polygon fill="midnightblue" stroke="midnightblue" points="38.1392,-32.818 33.0463,-23.5276 31.234,-33.9662 38.1392,-32.818"/>
</g>
<!-- Node6 -->
<g id="node6" class="node"><title>Node6</title>
<polygon fill="none" stroke="#bfbfbf" points="163.133,-60.526 163.133,-83.5519 212.936,-83.5519 212.936,-60.526 163.133,-60.526"/>
<text text-anchor="middle" x="188.035" y="-70.7519" font-family="Avenir-Book" font-size="11.00">cassert</text>
</g>
<!-- Node1&#45;&gt;Node6 -->
<g id="edge5" class="edge"><title>Node1&#45;&gt;Node6</title>
<path fill="none" stroke="midnightblue" d="M283.575,-120.422C265.351,-111.384 238.979,-98.3047 218.558,-88.1766"/>
<polygon fill="midnightblue" stroke="midnightblue" points="219.872,-84.9219 209.359,-83.6143 216.762,-91.193 219.872,-84.9219"/>
</g>
<!-- Node7 -->
<g id="node7" class="node"><title>Node7</title>
<polygon fill="none" stroke="#bfbfbf" points="230.791,-60.526 230.791,-83.5519 305.278,-83.5519 305.278,-60.526 230.791,-60.526"/>
<text text-anchor="middle" x="268.035" y="-70.7519" font-family="Avenir-Book" font-size="11.00">sys/mman.h</text>
</g>
<!-- Node1&#45;&gt;Node7 -->
<g id="edge7" class="edge"><title>Node1&#45;&gt;Node7</title>
<path fill="none" stroke="midnightblue" d="M298.249,-120.422C293.242,-112.57 286.29,-101.668 280.317,-92.3003"/>
<polygon fill="midnightblue" stroke="midnightblue" points="283.106,-90.1643 274.778,-83.6143 277.204,-93.9278 283.106,-90.1643"/>
</g>
<!-- Node8 -->
<g id="node8" class="node"><title>Node8</title>
<polygon fill="none" stroke="#bfbfbf" points="323.244,-60.526 323.244,-83.5519 360.826,-83.5519 360.826,-60.526 323.244,-60.526"/>
<text text-anchor="middle" x="342.035" y="-70.7519" font-family="Avenir-Book" font-size="11.00">err.h</text>
</g>
<!-- Node1&#45;&gt;Node8 -->
<g id="edge8" class="edge"><title>Node1&#45;&gt;Node8</title>
<path fill="none" stroke="midnightblue" d="M311.821,-120.422C316.828,-112.57 323.78,-101.668 329.753,-92.3003"/>
<polygon fill="midnightblue" stroke="midnightblue" points="332.866,-93.9278 335.292,-83.6143 326.964,-90.1643 332.866,-93.9278"/>
</g>
<!-- Node9 -->
<g id="node9" class="node"><title>Node9</title>
<polygon fill="none" stroke="#bfbfbf" points="379.319,-60.526 379.319,-83.5519 430.75,-83.5519 430.75,-60.526 379.319,-60.526"/>
<text text-anchor="middle" x="405.035" y="-70.7519" font-family="Avenir-Book" font-size="11.00">errno.h</text>
</g>
<!-- Node1&#45;&gt;Node9 -->
<g id="edge9" class="edge"><title>Node1&#45;&gt;Node9</title>
<path fill="none" stroke="midnightblue" d="M323.377,-120.422C338.601,-111.588 360.476,-98.8945 377.755,-88.8684"/>
<polygon fill="midnightblue" stroke="midnightblue" points="379.917,-91.6605 386.81,-83.6143 376.404,-85.606 379.917,-91.6605"/>
</g>
<!-- Node10 -->
<g id="node10" class="node"><title>Node10</title>
<polygon fill="none" stroke="#bfbfbf" points="448.965,-60.526 448.965,-83.5519 495.105,-83.5519 495.105,-60.526 448.965,-60.526"/>
<text text-anchor="middle" x="472.035" y="-70.7519" font-family="Avenir-Book" font-size="11.00">fcntl.h</text>
</g>
<!-- Node1&#45;&gt;Node10 -->
<g id="edge10" class="edge"><title>Node1&#45;&gt;Node10</title>
<path fill="none" stroke="midnightblue" d="M335.665,-120.422C365.021,-110.222 409.188,-94.8758 439.245,-84.4322"/>
<polygon fill="midnightblue" stroke="midnightblue" points="440.558,-87.6812 448.856,-81.0929 438.261,-81.069 440.558,-87.6812"/>
</g>
<!-- Node11 -->
<g id="node11" class="node"><title>Node11</title>
<polygon fill="none" stroke="#bfbfbf" points="513.482,-60.526 513.482,-83.5519 568.587,-83.5519 568.587,-60.526 513.482,-60.526"/>
<text text-anchor="middle" x="541.035" y="-70.7519" font-family="Avenir-Book" font-size="11.00">unistd.h</text>
</g>
<!-- Node1&#45;&gt;Node11 -->
<g id="edge11" class="edge"><title>Node1&#45;&gt;Node11</title>
<path fill="none" stroke="midnightblue" d="M345.986,-122.111C384.29,-113.575 443.296,-100.017 503.529,-84.0859"/>
<polygon fill="midnightblue" stroke="midnightblue" points="504.441,-87.4651 513.203,-81.5091 502.639,-80.7009 504.441,-87.4651"/>
</g>
<!-- Node2&#45;&gt;Node3 -->
<g id="edge2" class="edge"><title>Node2&#45;&gt;Node3</title>
<path fill="none" stroke="midnightblue" d="M93.2788,-60.3961C82.2838,-51.8894 66.6624,-39.8035 53.9486,-29.9671"/>
<polygon fill="midnightblue" stroke="midnightblue" points="55.7549,-26.9394 45.7039,-23.5884 51.4714,-32.4758 55.7549,-26.9394"/>
</g>
<!-- Node4 -->
<g id="node4" class="node"><title>Node4</title>
<polygon fill="none" stroke="#bfbfbf" points="81.8665,-0.5 81.8665,-23.526 138.203,-23.526 138.203,-0.5 81.8665,-0.5"/>
<text text-anchor="middle" x="110.035" y="-10.726" font-family="Avenir-Book" font-size="11.00">memory</text>
</g>
<!-- Node2&#45;&gt;Node4 -->
<g id="edge3" class="edge"><title>Node2&#45;&gt;Node4</title>
<path fill="none" stroke="midnightblue" d="M107.585,-60.3961C107.97,-52.9528 108.497,-42.769 108.963,-33.7498"/>
<polygon fill="midnightblue" stroke="midnightblue" points="112.467,-33.7558 109.488,-23.5884 105.476,-33.3943 112.467,-33.7558"/>
</g>
<!-- Node5 -->
<g id="node5" class="node"><title>Node5</title>
<polygon fill="none" stroke="#bfbfbf" points="156.302,-0.5 156.302,-23.526 199.768,-23.526 199.768,-0.5 156.302,-0.5"/>
<text text-anchor="middle" x="178.035" y="-10.726" font-family="Avenir-Book" font-size="11.00">string</text>
</g>
<!-- Node2&#45;&gt;Node5 -->
<g id="edge4" class="edge"><title>Node2&#45;&gt;Node5</title>
<path fill="none" stroke="midnightblue" d="M120.057,-60.3961C130.466,-51.8894 145.254,-39.8035 157.29,-29.9671"/>
<polygon fill="midnightblue" stroke="midnightblue" points="159.567,-32.6266 165.095,-23.5884 155.137,-27.2065 159.567,-32.6266"/>
</g>
</g>
</svg>
        <g id="navigator" transform="translate(0 0)" fill="#404254">
                <rect fill="#f2f5e9" fill-opacity="0.5" stroke="#606060" stroke-width=".5" x="0" y="0" width="60" height="60"/>
                <use id="zoomplus" xlink:href="#zoomPlus" x="17" y="9" onmousedown="handleZoom(evt,'in')"/>
                <use id="zoomminus" xlink:href="#zoomMin" x="42" y="9" onmousedown="handleZoom(evt,'out')"/>
                <use id="reset" xlink:href="#resetDef" x="30" y="36" onmousedown="handleReset()"/>
                <g id="arrowUp" xlink:href="#dirArrow" transform="translate(30 24)" onmousedown="handlePan(0,-1)">
                  <use xlink:href="#rim" fill="#404040">
                        <set attributeName="fill" to="#808080" begin="arrowUp.mouseover" end="arrowUp.mouseout"/>
                  </use>
                  <path fill="none" stroke="white" stroke-width="1.5" d="M0,-3.0v7 M-2.5,-0.5L0,-3.0L2.5,-0.5"/>
                </g>
                <g id="arrowRight" xlink:href="#dirArrow" transform="rotate(90) translate(36 -43)" onmousedown="handlePan(1,0)">
                  <use xlink:href="#rim" fill="#404040">
                        <set attributeName="fill" to="#808080" begin="arrowRight.mouseover" end="arrowRight.mouseout"/>
                  </use>
                  <path fill="none" stroke="white" stroke-width="1.5" d="M0,-3.0v7 M-2.5,-0.5L0,-3.0L2.5,-0.5"/>
                </g>
                <g id="arrowDown" xlink:href="#dirArrow" transform="rotate(180) translate(-30 -48)" onmousedown="handlePan(0,1)">
                  <use xlink:href="#rim" fill="#404040">
                        <set attributeName="fill" to="#808080" begin="arrowDown.mouseover" end="arrowDown.mouseout"/>
                  </use>
                  <path fill="none" stroke="white" stroke-width="1.5" d="M0,-3.0v7 M-2.5,-0.5L0,-3.0L2.5,-0.5"/>
                </g>
                <g id="arrowLeft" xlink:href="#dirArrow" transform="rotate(270) translate(-36 17)" onmousedown="handlePan(-1,0)">
                  <use xlink:href="#rim" fill="#404040">
                        <set attributeName="fill" to="#808080" begin="arrowLeft.mouseover" end="arrowLeft.mouseout"/>
                  </use>
                  <path fill="none" stroke="white" stroke-width="1.5" d="M0,-3.0v7 M-2.5,-0.5L0,-3.0L2.5,-0.5"/>
                </g>
        </g>
        <svg viewBox="0 0 15 15" width="100%" height="30px" preserveAspectRatio="xMaxYMin meet">
         <g id="arrow_out" transform="scale(0.3 0.3)">
          <a xlink:href="posix_8cpp__incl_org.svg" target="_base">
           <rect id="button" ry="5" rx="5" y="6" x="6" height="38" width="38"
                fill="#f2f5e9" fill-opacity="0.5" stroke="#606060" stroke-width="1.0"/>
           <path id="arrow"
             d="M 11.500037,31.436501 C 11.940474,20.09759 22.043105,11.32322 32.158766,21.979434 L 37.068811,17.246167 C 37.068811,17.246167 37.088388,32 37.088388,32 L 22.160133,31.978069 C 22.160133,31.978069 26.997745,27.140456 26.997745,27.140456 C 18.528582,18.264221 13.291696,25.230495 11.500037,31.436501 z"
             style="fill:#404040;"/>
          </a>
         </g>
        </svg>
</svg>
