<?xml version="1.0" encoding="UTF-8" standalone="no"?>
<!DOCTYPE svg PUBLIC "-//W3C//DTD SVG 1.1//EN"
 "http://www.w3.org/Graphics/SVG/1.1/DTD/svg11.dtd">
<!-- Generated by graphviz version 2.38.0 (20140413.2041)
 -->
<!-- Title: src/posix.cpp Pages: 1 -->
<!--zoomable 152 -->
<svg id="main" version="1.1" xmlns="http://www.w3.org/2000/svg" xmlns:xlink="http://www.w3.org/1999/xlink" xml:space="preserve" onload="init(evt)">
<style type="text/css"><![CDATA[
.edge:hover path { stroke: red; }
.edge:hover polygon { stroke: red; fill: red; }
]]></style>
<script type="text/javascript"><![CDATA[
var edges = document.getElementsByTagName('g');
if (edges && edges.length) {
  for (var i=0;i<edges.length;i++) {
    if (edges[i].id.substr(0,4)=='edge') {
      edges[i].setAttribute('class','edge');
    }
  }
}
]]></script>
        <defs>
                <circle id="rim" cx="0" cy="0" r="7"/>
                <circle id="rim2" cx="0" cy="0" r="3.5"/>
                <g id="zoomPlus">
                        <use xlink:href="#rim" fill="#404040">
                                <set attributeName="fill" to="#808080" begin="zoomplus.mouseover" end="zoomplus.mouseout"/>
                        </use>
                        <path d="M-4,0h8M0,-4v8" fill="none" stroke="white" stroke-width="1.5" pointer-events="none"/>
                </g>
                <g id="zoomMin">
                        <use xlink:href="#rim" fill="#404040">
                                <set attributeName="fill" to="#808080" begin="zoomminus.mouseover" end="zoomminus.mouseout"/>
                        </use>
                        <path d="M-4,0h8" fill="none" stroke="white" stroke-width="1.5" pointer-events="none"/>
                </g>
                <g id="dirArrow">
                        <path fill="none" stroke="white" stroke-width="1.5" d="M0,-3.0v7 M-2.5,-0.5L0,-3.0L2.5,-0.5"/>
                </g>
               <g id="resetDef">
                       <use xlink:href="#rim2" fill="#404040">
                               <set attributeName="fill" to="#808080" begin="reset.mouseover" end="reset.mouseout"/>
                       </use>
               </g>
        </defs>

<script type="text/javascript">
var viewWidth = 727;
var viewHeight = 152;
var sectionId = 'dynsection-0';
</script>
<script xlink:href="svgpan.js"/>
<svg id="graph" class="graph">
<g id="viewport">
<title>src/posix.cpp</title>
<!-- Node1 -->
<g id="node1" class="node"><title>Node1</title>
<polygon fill="#bfbfbf" stroke="black" points="380.442,-120.552 380.442,-143.578 461.628,-143.578 461.628,-120.552 380.442,-120.552"/>
<text text-anchor="middle" x="421.035" y="-130.778" font-family="Avenir-Book" font-size="11.00">src/posix.cpp</text>
</g>
<!-- Node2 -->
<g id="node2" class="node"><title>Node2</title>
<g id="a_node2"><a xlink:href="libgrading_8h.html" target="_top" xlink:title="A library for grading C&#45; and C++&#45;based assignments. ">
<polygon fill="none" stroke="black" points="148.308,-60.526 148.308,-83.5519 223.762,-83.5519 223.762,-60.526 148.308,-60.526"/>
<text text-anchor="middle" x="186.035" y="-70.7519" font-family="Avenir-Book" font-size="11.00">libgrading.h</text>
</a>
</g>
</g>
<!-- Node1&#45;&gt;Node2 -->
<g id="edge1" class="edge"><title>Node1&#45;&gt;Node2</title>
<path fill="none" stroke="midnightblue" d="M380.369,-121.024C339.628,-110.964 276.939,-95.4849 233.84,-84.843"/>
<polygon fill="midnightblue" stroke="midnightblue" points="234.421,-81.3814 223.874,-82.3821 232.743,-88.1773 234.421,-81.3814"/>
</g>
<!-- Node3 -->
<g id="node3" class="node"><title>Node3</title>
<polygon fill="none" stroke="#bfbfbf" points="-7.10543e-15,-0.5 -7.10543e-15,-23.526 64.07,-23.526 64.07,-0.5 -7.10543e-15,-0.5"/>
<text text-anchor="middle" x="32.035" y="-10.726" font-family="Avenir-Book" font-size="11.00">functional</text>
</g>
<!-- Node1&#45;&gt;Node3 -->
<g id="edge9" class="edge"><title>Node1&#45;&gt;Node3</title>
<path fill="none" stroke="midnightblue" d="M380.393,-129.605C324.284,-126.418 220.761,-116.282 139.035,-84.0519 106.002,-71.0246 72.6606,-46.7151 52.1775,-30.2012"/>
<polygon fill="midnightblue" stroke="midnightblue" points="54.1703,-27.3084 44.2247,-23.6567 49.7224,-32.7135 54.1703,-27.3084"/>
</g>
<!-- Node9 -->
<g id="node9" class="node"><title>Node9</title>
<polygon fill="none" stroke="#bfbfbf" points="242.133,-60.526 242.133,-83.5519 291.936,-83.5519 291.936,-60.526 242.133,-60.526"/>
<text text-anchor="middle" x="267.035" y="-70.7519" font-family="Avenir-Book" font-size="11.00">cassert</text>
</g>
<!-- Node1&#45;&gt;Node9 -->
<g id="edge8" class="edge"><title>Node1&#45;&gt;Node9</title>
<path fill="none" stroke="midnightblue" d="M392.789,-120.422C367.114,-110.748 329.152,-96.4442 301.659,-86.0849"/>
<polygon fill="midnightblue" stroke="midnightblue" points="302.637,-82.7134 292.045,-82.4627 300.169,-89.2639 302.637,-82.7134"/>
</g>
<!-- Node10 -->
<g id="node10" class="node"><title>Node10</title>
<polygon fill="none" stroke="#bfbfbf" points="309.791,-60.526 309.791,-83.5519 384.278,-83.5519 384.278,-60.526 309.791,-60.526"/>
<text text-anchor="middle" x="347.035" y="-70.7519" font-family="Avenir-Book" font-size="11.00">sys/mman.h</text>
</g>
<!-- Node1&#45;&gt;Node10 -->
<g id="edge10" class="edge"><title>Node1&#45;&gt;Node10</title>
<path fill="none" stroke="midnightblue" d="M407.462,-120.422C396.614,-111.915 381.201,-99.8295 368.656,-89.9931"/>
<polygon fill="midnightblue" stroke="midnightblue" points="370.551,-87.0307 360.522,-83.6143 366.231,-92.5391 370.551,-87.0307"/>
</g>
<!-- Node11 -->
<g id="node11" class="node"><title>Node11</title>
<polygon fill="none" stroke="#bfbfbf" points="402.244,-60.526 402.244,-83.5519 439.826,-83.5519 439.826,-60.526 402.244,-60.526"/>
<text text-anchor="middle" x="421.035" y="-70.7519" font-family="Avenir-Book" font-size="11.00">err.h</text>
</g>
<!-- Node1&#45;&gt;Node11 -->
<g id="edge11" class="edge"><title>Node1&#45;&gt;Node11</title>
<path fill="none" stroke="midnightblue" d="M421.035,-120.422C421.035,-112.979 421.035,-102.795 421.035,-93.7758"/>
<polygon fill="midnightblue" stroke="midnightblue" points="424.535,-93.6143 421.035,-83.6143 417.535,-93.6144 424.535,-93.6143"/>
</g>
<!-- Node12 -->
<g id="node12" class="node"><title>Node12</title>
<polygon fill="none" stroke="#bfbfbf" points="458.319,-60.526 458.319,-83.5519 509.75,-83.5519 509.75,-60.526 458.319,-60.526"/>
<text text-anchor="middle" x="484.035" y="-70.7519" font-family="Avenir-Book" font-size="11.00">errno.h</text>
</g>
<!-- Node1&#45;&gt;Node12 -->
<g id="edge12" class="edge"><title>Node1&#45;&gt;Node12</title>
<path fill="none" stroke="midnightblue" d="M432.59,-120.422C441.648,-112.079 454.445,-100.293 465.009,-90.563"/>
<polygon fill="midnightblue" stroke="midnightblue" points="467.569,-92.9635 472.553,-83.6143 462.826,-87.8147 467.569,-92.9635"/>
</g>
<!-- Node13 -->
<g id="node13" class="node"><title>Node13</title>
<polygon fill="none" stroke="#bfbfbf" points="527.965,-60.526 527.965,-83.5519 574.105,-83.5519 574.105,-60.526 527.965,-60.526"/>
<text text-anchor="middle" x="551.035" y="-70.7519" font-family="Avenir-Book" font-size="11.00">fcntl.h</text>
</g>
<!-- Node1&#45;&gt;Node13 -->
<g id="edge13" class="edge"><title>Node1&#45;&gt;Node13</title>
<path fill="none" stroke="midnightblue" d="M444.879,-120.422C465.531,-111.204 495.601,-97.7823 518.468,-87.5752"/>
<polygon fill="midnightblue" stroke="midnightblue" points="520.075,-90.6912 527.78,-83.4191 517.221,-84.299 520.075,-90.6912"/>
</g>
<!-- Node14 -->
<g id="node14" class="node"><title>Node14</title>
<polygon fill="none" stroke="#bfbfbf" points="592.192,-60.526 592.192,-83.5519 645.878,-83.5519 645.878,-60.526 592.192,-60.526"/>
<text text-anchor="middle" x="619.035" y="-70.7519" font-family="Avenir-Book" font-size="11.00">signal.h</text>
</g>
<!-- Node1&#45;&gt;Node14 -->
<g id="edge14" class="edge"><title>Node1&#45;&gt;Node14</title>
<path fill="none" stroke="midnightblue" d="M458.076,-120.48C488.886,-111.639 534.138,-98.5695 582.261,-84.2575"/>
<polygon fill="midnightblue" stroke="midnightblue" points="583.337,-87.5892 591.921,-81.3794 581.338,-80.8806 583.337,-87.5892"/>
</g>
<!-- Node15 -->
<g id="node15" class="node"><title>Node15</title>
<polygon fill="none" stroke="#bfbfbf" points="663.482,-60.526 663.482,-83.5519 718.587,-83.5519 718.587,-60.526 663.482,-60.526"/>
<text text-anchor="middle" x="691.035" y="-70.7519" font-family="Avenir-Book" font-size="11.00">unistd.h</text>
</g>
<!-- Node1&#45;&gt;Node15 -->
<g id="edge15" class="edge"><title>Node1&#45;&gt;Node15</title>
<path fill="none" stroke="midnightblue" d="M461.891,-124.118C506.792,-116.204 581.204,-102.273 653.483,-84.2954"/>
<polygon fill="midnightblue" stroke="midnightblue" points="654.36,-87.6841 663.203,-81.8497 652.651,-80.8957 654.36,-87.6841"/>
</g>
<!-- Node2&#45;&gt;Node3 -->
<g id="edge2" class="edge"><title>Node2&#45;&gt;Node3</title>
<path fill="none" stroke="midnightblue" d="M157.789,-60.3961C133.042,-51.0715 96.8803,-37.4462 69.6799,-27.1973"/>
<polygon fill="midnightblue" stroke="midnightblue" points="70.6938,-23.8391 60.1019,-23.5884 68.2256,-30.3896 70.6938,-23.8391"/>
</g>
<!-- Node4 -->
<g id="node4" class="node"><title>Node4</title>
<polygon fill="none" stroke="#bfbfbf" points="81.959,-0.5 81.959,-23.526 140.111,-23.526 140.111,-0.5 81.959,-0.5"/>
<text text-anchor="middle" x="111.035" y="-10.726" font-family="Avenir-Book" font-size="11.00">iostream</text>
</g>
<!-- Node2&#45;&gt;Node4 -->
<g id="edge3" class="edge"><title>Node2&#45;&gt;Node4</title>
<path fill="none" stroke="midnightblue" d="M172.279,-60.3961C161.284,-51.8894 145.662,-39.8035 132.949,-29.9671"/>
<polygon fill="midnightblue" stroke="midnightblue" points="134.755,-26.9394 124.704,-23.5884 130.471,-32.4758 134.755,-26.9394"/>
</g>
<!-- Node5 -->
<g id="node5" class="node"><title>Node5</title>
<polygon fill="none" stroke="#bfbfbf" points="157.867,-0.5 157.867,-23.526 214.203,-23.526 214.203,-0.5 157.867,-0.5"/>
<text text-anchor="middle" x="186.035" y="-10.726" font-family="Avenir-Book" font-size="11.00">memory</text>
</g>
<!-- Node2&#45;&gt;Node5 -->
<g id="edge4" class="edge"><title>Node2&#45;&gt;Node5</title>
<path fill="none" stroke="midnightblue" d="M186.035,-60.3961C186.035,-52.9528 186.035,-42.769 186.035,-33.7498"/>
<polygon fill="midnightblue" stroke="midnightblue" points="189.535,-33.5883 186.035,-23.5884 182.535,-33.5884 189.535,-33.5883"/>
</g>
<!-- Node6 -->
<g id="node6" class="node"><title>Node6</title>
<polygon fill="none" stroke="#bfbfbf" points="232.197,-0.5 232.197,-23.526 285.872,-23.526 285.872,-0.5 232.197,-0.5"/>
<text text-anchor="middle" x="259.035" y="-10.726" font-family="Avenir-Book" font-size="11.00">sstream</text>
</g>
<!-- Node2&#45;&gt;Node6 -->
<g id="edge5" class="edge"><title>Node2&#45;&gt;Node6</title>
<path fill="none" stroke="midnightblue" d="M199.424,-60.3961C210.126,-51.8894 225.331,-39.8035 237.706,-29.9671"/>
<polygon fill="midnightblue" stroke="midnightblue" points="240.08,-32.5508 245.731,-23.5884 235.724,-27.071 240.08,-32.5508"/>
</g>
<!-- Node7 -->
<g id="node7" class="node"><title>Node7</title>
<polygon fill="none" stroke="#bfbfbf" points="304.301,-0.5 304.301,-23.526 347.768,-23.526 347.768,-0.5 304.301,-0.5"/>
<text text-anchor="middle" x="326.035" y="-10.726" font-family="Avenir-Book" font-size="11.00">string</text>
</g>
<!-- Node2&#45;&gt;Node7 -->
<g id="edge6" class="edge"><title>Node2&#45;&gt;Node7</title>
<path fill="none" stroke="midnightblue" d="M211.713,-60.3961C235.128,-50.6911 269.784,-36.3275 294.796,-25.9605"/>
<polygon fill="midnightblue" stroke="midnightblue" points="296.301,-29.1258 304.198,-22.0636 293.62,-22.6593 296.301,-29.1258"/>
</g>
<!-- Node8 -->
<g id="node8" class="node"><title>Node8</title>
<polygon fill="none" stroke="#bfbfbf" points="365.761,-0.5 365.761,-23.526 412.308,-23.526 412.308,-0.5 365.761,-0.5"/>
<text text-anchor="middle" x="389.035" y="-10.726" font-family="Avenir-Book" font-size="11.00">vector</text>
</g>
<!-- Node2&#45;&gt;Node8 -->
<g id="edge7" class="edge"><title>Node2&#45;&gt;Node8</title>
<path fill="none" stroke="midnightblue" d="M223.93,-61.355C256.608,-52.8412 305.252,-39.7805 355.866,-24.2724"/>
<polygon fill="midnightblue" stroke="midnightblue" points="357.15,-27.5388 365.672,-21.244 355.085,-20.8505 357.15,-27.5388"/>
</g>
</g>
</svg>
        <g id="navigator" transform="translate(0 0)" fill="#404254">
                <rect fill="#f2f5e9" fill-opacity="0.5" stroke="#606060" stroke-width=".5" x="0" y="0" width="60" height="60"/>
                <use id="zoomplus" xlink:href="#zoomPlus" x="17" y="9" onmousedown="handleZoom(evt,'in')"/>
                <use id="zoomminus" xlink:href="#zoomMin" x="42" y="9" onmousedown="handleZoom(evt,'out')"/>
                <use id="reset" xlink:href="#resetDef" x="30" y="36" onmousedown="handleReset()"/>
                <g id="arrowUp" xlink:href="#dirArrow" transform="translate(30 24)" onmousedown="handlePan(0,-1)">
                  <use xlink:href="#rim" fill="#404040">
                        <set attributeName="fill" to="#808080" begin="arrowUp.mouseover" end="arrowUp.mouseout"/>
                  </use>
                  <path fill="none" stroke="white" stroke-width="1.5" d="M0,-3.0v7 M-2.5,-0.5L0,-3.0L2.5,-0.5"/>
                </g>
                <g id="arrowRight" xlink:href="#dirArrow" transform="rotate(90) translate(36 -43)" onmousedown="handlePan(1,0)">
                  <use xlink:href="#rim" fill="#404040">
                        <set attributeName="fill" to="#808080" begin="arrowRight.mouseover" end="arrowRight.mouseout"/>
                  </use>
                  <path fill="none" stroke="white" stroke-width="1.5" d="M0,-3.0v7 M-2.5,-0.5L0,-3.0L2.5,-0.5"/>
                </g>
                <g id="arrowDown" xlink:href="#dirArrow" transform="rotate(180) translate(-30 -48)" onmousedown="handlePan(0,1)">
                  <use xlink:href="#rim" fill="#404040">
                        <set attributeName="fill" to="#808080" begin="arrowDown.mouseover" end="arrowDown.mouseout"/>
                  </use>
                  <path fill="none" stroke="white" stroke-width="1.5" d="M0,-3.0v7 M-2.5,-0.5L0,-3.0L2.5,-0.5"/>
                </g>
                <g id="arrowLeft" xlink:href="#dirArrow" transform="rotate(270) translate(-36 17)" onmousedown="handlePan(-1,0)">
                  <use xlink:href="#rim" fill="#404040">
                        <set attributeName="fill" to="#808080" begin="arrowLeft.mouseover" end="arrowLeft.mouseout"/>
                  </use>
                  <path fill="none" stroke="white" stroke-width="1.5" d="M0,-3.0v7 M-2.5,-0.5L0,-3.0L2.5,-0.5"/>
                </g>
        </g>
        <svg viewBox="0 0 15 15" width="100%" height="30px" preserveAspectRatio="xMaxYMin meet">
         <g id="arrow_out" transform="scale(0.3 0.3)">
          <a xlink:href="posix_8cpp__incl_org.svg" target="_base">
           <rect id="button" ry="5" rx="5" y="6" x="6" height="38" width="38"
                fill="#f2f5e9" fill-opacity="0.5" stroke="#606060" stroke-width="1.0"/>
           <path id="arrow"
             d="M 11.500037,31.436501 C 11.940474,20.09759 22.043105,11.32322 32.158766,21.979434 L 37.068811,17.246167 C 37.068811,17.246167 37.088388,32 37.088388,32 L 22.160133,31.978069 C 22.160133,31.978069 26.997745,27.140456 26.997745,27.140456 C 18.528582,18.264221 13.291696,25.230495 11.500037,31.436501 z"
             style="fill:#404040;"/>
          </a>
         </g>
        </svg>
</svg>
