<?xml version="1.0" encoding="UTF-8" standalone="no"?>
<!DOCTYPE svg PUBLIC "-//W3C//DTD SVG 1.1//EN"
 "http://www.w3.org/Graphics/SVG/1.1/DTD/svg11.dtd">
<!-- Generated by graphviz version 2.38.0 (20140413.2041)
 -->
<!-- Title: src/posix.cpp Pages: 1 -->
<!--zoomable 152 -->
<svg id="main" version="1.1" xmlns="http://www.w3.org/2000/svg" xmlns:xlink="http://www.w3.org/1999/xlink" xml:space="preserve" onload="init(evt)">
<style type="text/css"><![CDATA[
.edge:hover path { stroke: red; }
.edge:hover polygon { stroke: red; fill: red; }
]]></style>
<script type="text/javascript"><![CDATA[
var edges = document.getElementsByTagName('g');
if (edges && edges.length) {
  for (var i=0;i<edges.length;i++) {
    if (edges[i].id.substr(0,4)=='edge') {
      edges[i].setAttribute('class','edge');
    }
  }
}
]]></script>
        <defs>
                <circle id="rim" cx="0" cy="0" r="7"/>
                <circle id="rim2" cx="0" cy="0" r="3.5"/>
                <g id="zoomPlus">
                        <use xlink:href="#rim" fill="#404040">
                                <set attributeName="fill" to="#808080" begin="zoomplus.mouseover" end="zoomplus.mouseout"/>
                        </use>
                        <path d="M-4,0h8M0,-4v8" fill="none" stroke="white" stroke-width="1.5" pointer-events="none"/>
                </g>
                <g id="zoomMin">
                        <use xlink:href="#rim" fill="#404040">
                                <set attributeName="fill" to="#808080" begin="zoomminus.mouseover" end="zoomminus.mouseout"/>
                        </use>
                        <path d="M-4,0h8" fill="none" stroke="white" stroke-width="1.5" pointer-events="none"/>
                </g>
                <g id="dirArrow">
                        <path fill="none" stroke="white" stroke-width="1.5" d="M0,-3.0v7 M-2.5,-0.5L0,-3.0L2.5,-0.5"/>
                </g>
               <g id="resetDef">
                       <use xlink:href="#rim2" fill="#404040">
                               <set attributeName="fill" to="#808080" begin="reset.mouseover" end="reset.mouseout"/>
                       </use>
               </g>
        </defs>

<script type="text/javascript">
var viewWidth = 656;
var viewHeight = 152;
var sectionId = 'dynsection-0';
</script>
<script xlink:href="svgpan.js"/>
<svg id="graph" class="graph">
<g id="viewport">
<title>src/posix.cpp</title>
<!-- Node1 -->
<g id="node1" class="node"><title>Node1</title>
<polygon fill="#bfbfbf" stroke="black" points="343.442,-120.552 343.442,-143.578 424.628,-143.578 424.628,-120.552 343.442,-120.552"/>
<text text-anchor="middle" x="384.035" y="-130.778" font-family="Avenir-Book" font-size="11.00">src/posix.cpp</text>
</g>
<!-- Node2 -->
<g id="node2" class="node"><title>Node2</title>
<g id="a_node2"><a xlink:href="libgrading_8h.html" target="_top" xlink:title="A library for grading C&#45; and C++&#45;based assignments. ">
<polygon fill="none" stroke="black" points="148.308,-60.526 148.308,-83.5519 223.762,-83.5519 223.762,-60.526 148.308,-60.526"/>
<text text-anchor="middle" x="186.035" y="-70.7519" font-family="Avenir-Book" font-size="11.00">libgrading.h</text>
</a>
</g>
</g>
<!-- Node1&#45;&gt;Node2 -->
<g id="edge1" class="edge"><title>Node1&#45;&gt;Node2</title>
<path fill="none" stroke="midnightblue" d="M347.719,-120.422C315.203,-110.893 267.361,-96.8725 232.152,-86.5539"/>
<polygon fill="midnightblue" stroke="midnightblue" points="232.702,-83.068 222.121,-83.6143 230.733,-89.7855 232.702,-83.068"/>
</g>
<!-- Node3 -->
<g id="node3" class="node"><title>Node3</title>
<polygon fill="none" stroke="#bfbfbf" points="-7.10543e-15,-0.5 -7.10543e-15,-23.526 64.07,-23.526 64.07,-0.5 -7.10543e-15,-0.5"/>
<text text-anchor="middle" x="32.035" y="-10.726" font-family="Avenir-Book" font-size="11.00">functional</text>
</g>
<!-- Node1&#45;&gt;Node3 -->
<g id="edge9" class="edge"><title>Node1&#45;&gt;Node3</title>
<path fill="none" stroke="midnightblue" d="M343.18,-128.181C293.374,-123.56 207.395,-111.979 139.035,-84.0519 106.163,-70.6227 72.7826,-46.4113 52.2467,-30.029"/>
<polygon fill="midnightblue" stroke="midnightblue" points="54.2372,-27.1364 44.2709,-23.5416 49.8201,-32.5669 54.2372,-27.1364"/>
</g>
<!-- Node9 -->
<g id="node9" class="node"><title>Node9</title>
<polygon fill="none" stroke="#bfbfbf" points="242.133,-60.526 242.133,-83.5519 291.936,-83.5519 291.936,-60.526 242.133,-60.526"/>
<text text-anchor="middle" x="267.035" y="-70.7519" font-family="Avenir-Book" font-size="11.00">cassert</text>
</g>
<!-- Node1&#45;&gt;Node9 -->
<g id="edge8" class="edge"><title>Node1&#45;&gt;Node9</title>
<path fill="none" stroke="midnightblue" d="M362.575,-120.422C344.351,-111.384 317.979,-98.3047 297.558,-88.1766"/>
<polygon fill="midnightblue" stroke="midnightblue" points="298.872,-84.9219 288.359,-83.6143 295.762,-91.193 298.872,-84.9219"/>
</g>
<!-- Node10 -->
<g id="node10" class="node"><title>Node10</title>
<polygon fill="none" stroke="#bfbfbf" points="309.791,-60.526 309.791,-83.5519 384.278,-83.5519 384.278,-60.526 309.791,-60.526"/>
<text text-anchor="middle" x="347.035" y="-70.7519" font-family="Avenir-Book" font-size="11.00">sys/mman.h</text>
</g>
<!-- Node1&#45;&gt;Node10 -->
<g id="edge10" class="edge"><title>Node1&#45;&gt;Node10</title>
<path fill="none" stroke="midnightblue" d="M377.249,-120.422C372.242,-112.57 365.29,-101.668 359.317,-92.3003"/>
<polygon fill="midnightblue" stroke="midnightblue" points="362.106,-90.1643 353.778,-83.6143 356.204,-93.9278 362.106,-90.1643"/>
</g>
<!-- Node11 -->
<g id="node11" class="node"><title>Node11</title>
<polygon fill="none" stroke="#bfbfbf" points="402.244,-60.526 402.244,-83.5519 439.826,-83.5519 439.826,-60.526 402.244,-60.526"/>
<text text-anchor="middle" x="421.035" y="-70.7519" font-family="Avenir-Book" font-size="11.00">err.h</text>
</g>
<!-- Node1&#45;&gt;Node11 -->
<g id="edge11" class="edge"><title>Node1&#45;&gt;Node11</title>
<path fill="none" stroke="midnightblue" d="M390.821,-120.422C395.828,-112.57 402.78,-101.668 408.753,-92.3003"/>
<polygon fill="midnightblue" stroke="midnightblue" points="411.866,-93.9278 414.292,-83.6143 405.964,-90.1643 411.866,-93.9278"/>
</g>
<!-- Node12 -->
<g id="node12" class="node"><title>Node12</title>
<polygon fill="none" stroke="#bfbfbf" points="458.319,-60.526 458.319,-83.5519 509.75,-83.5519 509.75,-60.526 458.319,-60.526"/>
<text text-anchor="middle" x="484.035" y="-70.7519" font-family="Avenir-Book" font-size="11.00">errno.h</text>
</g>
<!-- Node1&#45;&gt;Node12 -->
<g id="edge12" class="edge"><title>Node1&#45;&gt;Node12</title>
<path fill="none" stroke="midnightblue" d="M402.377,-120.422C417.601,-111.588 439.476,-98.8945 456.755,-88.8684"/>
<polygon fill="midnightblue" stroke="midnightblue" points="458.917,-91.6605 465.81,-83.6143 455.404,-85.606 458.917,-91.6605"/>
</g>
<!-- Node13 -->
<g id="node13" class="node"><title>Node13</title>
<polygon fill="none" stroke="#bfbfbf" points="527.965,-60.526 527.965,-83.5519 574.105,-83.5519 574.105,-60.526 527.965,-60.526"/>
<text text-anchor="middle" x="551.035" y="-70.7519" font-family="Avenir-Book" font-size="11.00">fcntl.h</text>
</g>
<!-- Node1&#45;&gt;Node13 -->
<g id="edge13" class="edge"><title>Node1&#45;&gt;Node13</title>
<path fill="none" stroke="midnightblue" d="M414.665,-120.422C444.021,-110.222 488.188,-94.8758 518.245,-84.4322"/>
<polygon fill="midnightblue" stroke="midnightblue" points="519.558,-87.6812 527.856,-81.0929 517.261,-81.069 519.558,-87.6812"/>
</g>
<!-- Node14 -->
<g id="node14" class="node"><title>Node14</title>
<polygon fill="none" stroke="#bfbfbf" points="592.482,-60.526 592.482,-83.5519 647.587,-83.5519 647.587,-60.526 592.482,-60.526"/>
<text text-anchor="middle" x="620.035" y="-70.7519" font-family="Avenir-Book" font-size="11.00">unistd.h</text>
</g>
<!-- Node1&#45;&gt;Node14 -->
<g id="edge14" class="edge"><title>Node1&#45;&gt;Node14</title>
<path fill="none" stroke="midnightblue" d="M424.986,-122.111C463.29,-113.575 522.296,-100.017 582.529,-84.0859"/>
<polygon fill="midnightblue" stroke="midnightblue" points="583.441,-87.4651 592.203,-81.5091 581.639,-80.7009 583.441,-87.4651"/>
</g>
<!-- Node2&#45;&gt;Node3 -->
<g id="edge2" class="edge"><title>Node2&#45;&gt;Node3</title>
<path fill="none" stroke="midnightblue" d="M157.789,-60.3961C133.042,-51.0715 96.8803,-37.4462 69.6799,-27.1973"/>
<polygon fill="midnightblue" stroke="midnightblue" points="70.6938,-23.8391 60.1019,-23.5884 68.2256,-30.3896 70.6938,-23.8391"/>
</g>
<!-- Node4 -->
<g id="node4" class="node"><title>Node4</title>
<polygon fill="none" stroke="#bfbfbf" points="81.959,-0.5 81.959,-23.526 140.111,-23.526 140.111,-0.5 81.959,-0.5"/>
<text text-anchor="middle" x="111.035" y="-10.726" font-family="Avenir-Book" font-size="11.00">iostream</text>
</g>
<!-- Node2&#45;&gt;Node4 -->
<g id="edge3" class="edge"><title>Node2&#45;&gt;Node4</title>
<path fill="none" stroke="midnightblue" d="M172.279,-60.3961C161.284,-51.8894 145.662,-39.8035 132.949,-29.9671"/>
<polygon fill="midnightblue" stroke="midnightblue" points="134.755,-26.9394 124.704,-23.5884 130.471,-32.4758 134.755,-26.9394"/>
</g>
<!-- Node5 -->
<g id="node5" class="node"><title>Node5</title>
<polygon fill="none" stroke="#bfbfbf" points="157.867,-0.5 157.867,-23.526 214.203,-23.526 214.203,-0.5 157.867,-0.5"/>
<text text-anchor="middle" x="186.035" y="-10.726" font-family="Avenir-Book" font-size="11.00">memory</text>
</g>
<!-- Node2&#45;&gt;Node5 -->
<g id="edge4" class="edge"><title>Node2&#45;&gt;Node5</title>
<path fill="none" stroke="midnightblue" d="M186.035,-60.3961C186.035,-52.9528 186.035,-42.769 186.035,-33.7498"/>
<polygon fill="midnightblue" stroke="midnightblue" points="189.535,-33.5883 186.035,-23.5884 182.535,-33.5884 189.535,-33.5883"/>
</g>
<!-- Node6 -->
<g id="node6" class="node"><title>Node6</title>
<polygon fill="none" stroke="#bfbfbf" points="232.197,-0.5 232.197,-23.526 285.872,-23.526 285.872,-0.5 232.197,-0.5"/>
<text text-anchor="middle" x="259.035" y="-10.726" font-family="Avenir-Book" font-size="11.00">sstream</text>
</g>
<!-- Node2&#45;&gt;Node6 -->
<g id="edge5" class="edge"><title>Node2&#45;&gt;Node6</title>
<path fill="none" stroke="midnightblue" d="M199.424,-60.3961C210.126,-51.8894 225.331,-39.8035 237.706,-29.9671"/>
<polygon fill="midnightblue" stroke="midnightblue" points="240.08,-32.5508 245.731,-23.5884 235.724,-27.071 240.08,-32.5508"/>
</g>
<!-- Node7 -->
<g id="node7" class="node"><title>Node7</title>
<polygon fill="none" stroke="#bfbfbf" points="304.301,-0.5 304.301,-23.526 347.768,-23.526 347.768,-0.5 304.301,-0.5"/>
<text text-anchor="middle" x="326.035" y="-10.726" font-family="Avenir-Book" font-size="11.00">string</text>
</g>
<!-- Node2&#45;&gt;Node7 -->
<g id="edge6" class="edge"><title>Node2&#45;&gt;Node7</title>
<path fill="none" stroke="midnightblue" d="M211.713,-60.3961C235.128,-50.6911 269.784,-36.3275 294.796,-25.9605"/>
<polygon fill="midnightblue" stroke="midnightblue" points="296.301,-29.1258 304.198,-22.0636 293.62,-22.6593 296.301,-29.1258"/>
</g>
<!-- Node8 -->
<g id="node8" class="node"><title>Node8</title>
<polygon fill="none" stroke="#bfbfbf" points="365.761,-0.5 365.761,-23.526 412.308,-23.526 412.308,-0.5 365.761,-0.5"/>
<text text-anchor="middle" x="389.035" y="-10.726" font-family="Avenir-Book" font-size="11.00">vector</text>
</g>
<!-- Node2&#45;&gt;Node8 -->
<g id="edge7" class="edge"><title>Node2&#45;&gt;Node8</title>
<path fill="none" stroke="midnightblue" d="M223.93,-61.355C256.608,-52.8412 305.252,-39.7805 355.866,-24.2724"/>
<polygon fill="midnightblue" stroke="midnightblue" points="357.15,-27.5388 365.672,-21.244 355.085,-20.8505 357.15,-27.5388"/>
</g>
</g>
</svg>
        <g id="navigator" transform="translate(0 0)" fill="#404254">
                <rect fill="#f2f5e9" fill-opacity="0.5" stroke="#606060" stroke-width=".5" x="0" y="0" width="60" height="60"/>
                <use id="zoomplus" xlink:href="#zoomPlus" x="17" y="9" onmousedown="handleZoom(evt,'in')"/>
                <use id="zoomminus" xlink:href="#zoomMin" x="42" y="9" onmousedown="handleZoom(evt,'out')"/>
                <use id="reset" xlink:href="#resetDef" x="30" y="36" onmousedown="handleReset()"/>
                <g id="arrowUp" xlink:href="#dirArrow" transform="translate(30 24)" onmousedown="handlePan(0,-1)">
                  <use xlink:href="#rim" fill="#404040">
                        <set attributeName="fill" to="#808080" begin="arrowUp.mouseover" end="arrowUp.mouseout"/>
                  </use>
                  <path fill="none" stroke="white" stroke-width="1.5" d="M0,-3.0v7 M-2.5,-0.5L0,-3.0L2.5,-0.5"/>
                </g>
                <g id="arrowRight" xlink:href="#dirArrow" transform="rotate(90) translate(36 -43)" onmousedown="handlePan(1,0)">
                  <use xlink:href="#rim" fill="#404040">
                        <set attributeName="fill" to="#808080" begin="arrowRight.mouseover" end="arrowRight.mouseout"/>
                  </use>
                  <path fill="none" stroke="white" stroke-width="1.5" d="M0,-3.0v7 M-2.5,-0.5L0,-3.0L2.5,-0.5"/>
                </g>
                <g id="arrowDown" xlink:href="#dirArrow" transform="rotate(180) translate(-30 -48)" onmousedown="handlePan(0,1)">
                  <use xlink:href="#rim" fill="#404040">
                        <set attributeName="fill" to="#808080" begin="arrowDown.mouseover" end="arrowDown.mouseout"/>
                  </use>
                  <path fill="none" stroke="white" stroke-width="1.5" d="M0,-3.0v7 M-2.5,-0.5L0,-3.0L2.5,-0.5"/>
                </g>
                <g id="arrowLeft" xlink:href="#dirArrow" transform="rotate(270) translate(-36 17)" onmousedown="handlePan(-1,0)">
                  <use xlink:href="#rim" fill="#404040">
                        <set attributeName="fill" to="#808080" begin="arrowLeft.mouseover" end="arrowLeft.mouseout"/>
                  </use>
                  <path fill="none" stroke="white" stroke-width="1.5" d="M0,-3.0v7 M-2.5,-0.5L0,-3.0L2.5,-0.5"/>
                </g>
        </g>
        <svg viewBox="0 0 15 15" width="100%" height="30px" preserveAspectRatio="xMaxYMin meet">
         <g id="arrow_out" transform="scale(0.3 0.3)">
          <a xlink:href="posix_8cpp__incl_org.svg" target="_base">
           <rect id="button" ry="5" rx="5" y="6" x="6" height="38" width="38"
                fill="#f2f5e9" fill-opacity="0.5" stroke="#606060" stroke-width="1.0"/>
           <path id="arrow"
             d="M 11.500037,31.436501 C 11.940474,20.09759 22.043105,11.32322 32.158766,21.979434 L 37.068811,17.246167 C 37.068811,17.246167 37.088388,32 37.088388,32 L 22.160133,31.978069 C 22.160133,31.978069 26.997745,27.140456 26.997745,27.140456 C 18.528582,18.264221 13.291696,25.230495 11.500037,31.436501 z"
             style="fill:#404040;"/>
          </a>
         </g>
        </svg>
</svg>
