<?xml version="1.0" encoding="UTF-8" standalone="no"?>
<!DOCTYPE svg PUBLIC "-//W3C//DTD SVG 1.1//EN"
 "http://www.w3.org/Graphics/SVG/1.1/DTD/svg11.dtd">
<!-- Generated by graphviz version 2.36.0 (20140111.2315)
 -->
<!-- Title: src/private.h Pages: 1 -->
<svg width="429pt" height="88pt"
 viewBox="0.00 0.00 429.00 88.00" xmlns="http://www.w3.org/2000/svg" xmlns:xlink="http://www.w3.org/1999/xlink">
<g id="graph0" class="graph" transform="scale(1 1) rotate(0) translate(4 84)">
<title>src/private.h</title>
<!-- Node1 -->
<g id="node1" class="node"><title>Node1</title>
<polygon fill="#bfbfbf" stroke="black" points="177,-59 177,-79 253,-79 253,-59 177,-59"/>
<text text-anchor="middle" x="215" y="-66.2" font-family="Avenir-Book" font-size="11.00">src/private.h</text>
</g>
<!-- Node2 -->
<g id="node2" class="node"><title>Node2</title>
<g id="a_node2"><a xlink:href="_arguments_8cpp.html" target="_top" xlink:title="Implementation of grading::Arguments. ">
<polygon fill="none" stroke="black" points="0,-1 0,-21 108,-21 108,-1 0,-1"/>
<text text-anchor="middle" x="54" y="-8.2" font-family="Avenir-Book" font-size="11.00">src/Arguments.cpp</text>
</a>
</g>
</g>
<!-- Node1&#45;&gt;Node2 -->
<g id="edge1" class="edge"><title>Node1&#45;&gt;Node2</title>
<path fill="none" stroke="midnightblue" d="M179.081,-55.5065C149.012,-45.0475 106.821,-30.3725 79.9478,-21.0253"/>
<polygon fill="midnightblue" stroke="midnightblue" points="178.179,-58.8985 188.774,-58.878 180.479,-52.287 178.179,-58.8985"/>
</g>
<!-- Node3 -->
<g id="node3" class="node"><title>Node3</title>
<g id="a_node3"><a xlink:href="posix_8cpp.html" target="_top" xlink:title="POSIX implementation of grading::MapSharedData and grading::ForkTest. ">
<polygon fill="none" stroke="black" points="126.5,-1 126.5,-21 207.5,-21 207.5,-1 126.5,-1"/>
<text text-anchor="middle" x="167" y="-8.2" font-family="Avenir-Book" font-size="11.00">src/posix.cpp</text>
</a>
</g>
</g>
<!-- Node1&#45;&gt;Node3 -->
<g id="edge2" class="edge"><title>Node1&#45;&gt;Node3</title>
<path fill="none" stroke="midnightblue" d="M200.527,-51.1145C192.066,-41.2442 181.721,-29.1742 174.779,-21.0752"/>
<polygon fill="midnightblue" stroke="midnightblue" points="197.908,-53.4379 207.074,-58.7527 203.223,-48.8824 197.908,-53.4379"/>
</g>
<!-- Node4 -->
<g id="node4" class="node"><title>Node4</title>
<g id="a_node4"><a xlink:href="_test_8cpp.html" target="_top" xlink:title="Definitions of grading::Test. ">
<polygon fill="none" stroke="black" points="226,-1 226,-21 302,-21 302,-1 226,-1"/>
<text text-anchor="middle" x="264" y="-8.2" font-family="Avenir-Book" font-size="11.00">src/Test.cpp</text>
</a>
</g>
</g>
<!-- Node1&#45;&gt;Node4 -->
<g id="edge3" class="edge"><title>Node1&#45;&gt;Node4</title>
<path fill="none" stroke="midnightblue" d="M229.775,-51.1145C238.411,-41.2442 248.973,-29.1742 256.059,-21.0752"/>
<polygon fill="midnightblue" stroke="midnightblue" points="227.042,-48.9222 223.091,-58.7527 232.31,-53.5317 227.042,-48.9222"/>
</g>
<!-- Node5 -->
<g id="node5" class="node"><title>Node5</title>
<g id="a_node5"><a xlink:href="_test_suite_8cpp.html" target="_top" xlink:title="Definitions of grading::TestSuite. ">
<polygon fill="none" stroke="black" points="320.5,-1 320.5,-21 421.5,-21 421.5,-1 320.5,-1"/>
<text text-anchor="middle" x="371" y="-8.2" font-family="Avenir-Book" font-size="11.00">src/TestSuite.cpp</text>
</a>
</g>
</g>
<!-- Node1&#45;&gt;Node5 -->
<g id="edge4" class="edge"><title>Node1&#45;&gt;Node5</title>
<path fill="none" stroke="midnightblue" d="M250.184,-55.3698C279.294,-44.92 319.933,-30.3319 345.858,-21.0253"/>
<polygon fill="midnightblue" stroke="midnightblue" points="248.641,-52.2051 240.411,-58.878 251.006,-58.7935 248.641,-52.2051"/>
</g>
</g>
</svg>
