<?xml version="1.0" encoding="UTF-8" standalone="no"?>
<!DOCTYPE svg PUBLIC "-//W3C//DTD SVG 1.1//EN"
 "http://www.w3.org/Graphics/SVG/1.1/DTD/svg11.dtd">
<!-- Generated by graphviz version 2.40.1 (20161225.0304)
 -->
<!-- Title: src/private.h Pages: 1 -->
<svg width="426pt" height="92pt"
 viewBox="0.00 0.00 426.30 92.05" xmlns="http://www.w3.org/2000/svg" xmlns:xlink="http://www.w3.org/1999/xlink">
<g id="graph0" class="graph" transform="scale(1 1) rotate(0) translate(4 88.0519)">
<title>src/private.h</title>
<!-- Node9 -->
<g id="node1" class="node">
<title>Node9</title>
<polygon fill="#bfbfbf" stroke="#000000" points="177.3075,-60.526 177.3075,-83.5519 253.7855,-83.5519 253.7855,-60.526 177.3075,-60.526"/>
<text text-anchor="middle" x="215.5465" y="-70.7519" font-family="Avenir-Book" font-size="11.00" fill="#000000">src/private.h</text>
</g>
<!-- Node10 -->
<g id="node2" class="node">
<title>Node10</title>
<g id="a_node2"><a xlink:href="_arguments_8cpp.html" target="_top" xlink:title="Implementation of grading::Arguments. ">
<polygon fill="none" stroke="#000000" points="0,-.5 0,-23.526 109.093,-23.526 109.093,-.5 0,-.5"/>
<text text-anchor="middle" x="54.5465" y="-10.726" font-family="Avenir-Book" font-size="11.00" fill="#000000">src/Arguments.cpp</text>
</a>
</g>
</g>
<!-- Node9&#45;&gt;Node10 -->
<g id="edge1" class="edge">
<title>Node9&#45;&gt;Node10</title>
<path fill="none" stroke="#191970" d="M175.0643,-56.9459C147.2813,-46.5875 110.9692,-33.0492 85.4936,-23.5511"/>
<polygon fill="#191970" stroke="#191970" points="173.9114,-60.2513 184.5041,-60.4653 176.3568,-53.6924 173.9114,-60.2513"/>
</g>
<!-- Node11 -->
<g id="node3" class="node">
<title>Node11</title>
<g id="a_node3"><a xlink:href="posix_8cpp.html" target="_top" xlink:title="src/posix.cpp">
<polygon fill="none" stroke="#000000" points="126.9535,-.5 126.9535,-23.526 208.1395,-23.526 208.1395,-.5 126.9535,-.5"/>
<text text-anchor="middle" x="167.5465" y="-10.726" font-family="Avenir-Book" font-size="11.00" fill="#000000">src/posix.cpp</text>
</a>
</g>
</g>
<!-- Node9&#45;&gt;Node11 -->
<g id="edge2" class="edge">
<title>Node9&#45;&gt;Node11</title>
<path fill="none" stroke="#191970" d="M199.9879,-52.5823C192.3223,-42.9961 183.34,-31.7634 176.773,-23.5511"/>
<polygon fill="#191970" stroke="#191970" points="197.3128,-54.8412 206.2916,-60.4653 202.7798,-50.4694 197.3128,-54.8412"/>
</g>
<!-- Node12 -->
<g id="node4" class="node">
<title>Node12</title>
<g id="a_node4"><a xlink:href="_test_8cpp.html" target="_top" xlink:title="Definitions of grading::Test. ">
<polygon fill="none" stroke="#000000" points="226.116,-.5 226.116,-23.526 300.977,-23.526 300.977,-.5 226.116,-.5"/>
<text text-anchor="middle" x="263.5465" y="-10.726" font-family="Avenir-Book" font-size="11.00" fill="#000000">src/Test.cpp</text>
</a>
</g>
</g>
<!-- Node9&#45;&gt;Node12 -->
<g id="edge3" class="edge">
<title>Node9&#45;&gt;Node12</title>
<path fill="none" stroke="#191970" d="M231.1051,-52.5823C238.7707,-42.9961 247.753,-31.7634 254.32,-23.5511"/>
<polygon fill="#191970" stroke="#191970" points="228.3132,-50.4694 224.8014,-60.4653 233.7802,-54.8412 228.3132,-50.4694"/>
</g>
<!-- Node13 -->
<g id="node5" class="node">
<title>Node13</title>
<g id="a_node5"><a xlink:href="_test_suite_8cpp.html" target="_top" xlink:title="Definitions of grading::TestSuite. ">
<polygon fill="none" stroke="#000000" points="318.796,-.5 318.796,-23.526 418.297,-23.526 418.297,-.5 318.796,-.5"/>
<text text-anchor="middle" x="368.5465" y="-10.726" font-family="Avenir-Book" font-size="11.00" fill="#000000">src/TestSuite.cpp</text>
</a>
</g>
</g>
<!-- Node9&#45;&gt;Node13 -->
<g id="edge4" class="edge">
<title>Node9&#45;&gt;Node13</title>
<path fill="none" stroke="#191970" d="M254.3635,-56.81C280.7208,-46.4693 315.0331,-33.0077 339.1371,-23.5511"/>
<polygon fill="#191970" stroke="#191970" points="253.0773,-53.5548 245.0464,-60.4653 255.6339,-60.0713 253.0773,-53.5548"/>
</g>
</g>
</svg>
