<?xml version="1.0" encoding="UTF-8" standalone="no"?>
<!DOCTYPE svg PUBLIC "-//W3C//DTD SVG 1.1//EN"
 "http://www.w3.org/Graphics/SVG/1.1/DTD/svg11.dtd">
<!-- Generated by graphviz version 2.40.1 (20161225.0304)
 -->
<!-- Title: src/private.h Pages: 1 -->
<!--zoomable 92 -->
<svg id="main" version="1.1" xmlns="http://www.w3.org/2000/svg" xmlns:xlink="http://www.w3.org/1999/xlink" xml:space="preserve" onload="init(evt)">
<style type="text/css"><![CDATA[
.edge:hover path { stroke: red; }
.edge:hover polygon { stroke: red; fill: red; }
]]></style>
<script type="text/javascript"><![CDATA[
var edges = document.getElementsByTagName('g');
if (edges && edges.length) {
  for (var i=0;i<edges.length;i++) {
    if (edges[i].id.substr(0,4)=='edge') {
      edges[i].setAttribute('class','edge');
    }
  }
}
]]></script>
        <defs>
                <circle id="rim" cx="0" cy="0" r="7"/>
                <circle id="rim2" cx="0" cy="0" r="3.5"/>
                <g id="zoomPlus">
                        <use xlink:href="#rim" fill="#404040">
                                <set attributeName="fill" to="#808080" begin="zoomplus.mouseover" end="zoomplus.mouseout"/>
                        </use>
                        <path d="M-4,0h8M0,-4v8" fill="none" stroke="white" stroke-width="1.5" pointer-events="none"/>
                </g>
                <g id="zoomMin">
                        <use xlink:href="#rim" fill="#404040">
                                <set attributeName="fill" to="#808080" begin="zoomminus.mouseover" end="zoomminus.mouseout"/>
                        </use>
                        <path d="M-4,0h8" fill="none" stroke="white" stroke-width="1.5" pointer-events="none"/>
                </g>
                <g id="dirArrow">
                        <path fill="none" stroke="white" stroke-width="1.5" d="M0,-3.0v7 M-2.5,-0.5L0,-3.0L2.5,-0.5"/>
                </g>
               <g id="resetDef">
                       <use xlink:href="#rim2" fill="#404040">
                               <set attributeName="fill" to="#808080" begin="reset.mouseover" end="reset.mouseout"/>
                       </use>
               </g>
        </defs>

<script type="text/javascript">
var viewWidth = 547;
var viewHeight = 92;
var sectionId = 'dynsection-1';
</script>
<script xlink:href="svgpan.js"/>
<svg id="graph" class="graph">
<g id="viewport">
<title>src/private.h</title>
<!-- Node9 -->
<g id="node1" class="node">
<title>Node9</title>
<g id="a_node1"><a xlink:title="Internal header file for libgrading.">
<polygon fill="#bfbfbf" stroke="#000000" points="250.3075,-60.526 250.3075,-83.5519 326.7855,-83.5519 326.7855,-60.526 250.3075,-60.526"/>
<text text-anchor="middle" x="288.5465" y="-70.7519" font-family="Avenir-Book" font-size="11.00" fill="#000000">src/private.h</text>
</a>
</g>
</g>
<!-- Node10 -->
<g id="node2" class="node">
<title>Node10</title>
<g id="a_node2"><a xlink:href="_arguments_8cpp.html" target="_top" xlink:title="Implementation of grading::Arguments.">
<polygon fill="none" stroke="#000000" points="0,-.5 0,-23.526 109.093,-23.526 109.093,-.5 0,-.5"/>
<text text-anchor="middle" x="54.5465" y="-10.726" font-family="Avenir-Book" font-size="11.00" fill="#000000">src/Arguments.cpp</text>
</a>
</g>
</g>
<!-- Node9&#45;&gt;Node10 -->
<g id="edge1" class="edge">
<title>Node9&#45;&gt;Node10</title>
<path fill="none" stroke="#191970" d="M240.3445,-59.6741C199.0882,-49.091 140.1313,-33.9673 99.7604,-23.6113"/>
<polygon fill="#191970" stroke="#191970" points="239.6121,-63.0995 250.1682,-62.1941 241.3515,-56.319 239.6121,-63.0995"/>
</g>
<!-- Node11 -->
<g id="node3" class="node">
<title>Node11</title>
<g id="a_node3"><a xlink:href="_formatter_8cpp.html" target="_top" xlink:title="Definitions of grading::Formatter.">
<polygon fill="none" stroke="#000000" points="127.0745,-.5 127.0745,-23.526 230.0185,-23.526 230.0185,-.5 127.0745,-.5"/>
<text text-anchor="middle" x="178.5465" y="-10.726" font-family="Avenir-Book" font-size="11.00" fill="#000000">src/Formatter.cpp</text>
</a>
</g>
</g>
<!-- Node9&#45;&gt;Node11 -->
<g id="edge2" class="edge">
<title>Node9&#45;&gt;Node11</title>
<path fill="none" stroke="#191970" d="M258.3689,-55.5713C239.753,-45.4128 216.3361,-32.6344 199.6905,-23.5511"/>
<polygon fill="#191970" stroke="#191970" points="256.8827,-58.7475 267.3374,-60.4653 260.2359,-52.6028 256.8827,-58.7475"/>
</g>
<!-- Node12 -->
<g id="node4" class="node">
<title>Node12</title>
<g id="a_node4"><a xlink:href="posix_8cpp.html" target="_top" xlink:title=" ">
<polygon fill="none" stroke="#000000" points="247.9535,-.5 247.9535,-23.526 329.1395,-23.526 329.1395,-.5 247.9535,-.5"/>
<text text-anchor="middle" x="288.5465" y="-10.726" font-family="Avenir-Book" font-size="11.00" fill="#000000">src/posix.cpp</text>
</a>
</g>
</g>
<!-- Node9&#45;&gt;Node12 -->
<g id="edge3" class="edge">
<title>Node9&#45;&gt;Node12</title>
<path fill="none" stroke="#191970" d="M288.5465,-50.2286C288.5465,-41.2005 288.5465,-31.0998 288.5465,-23.5511"/>
<polygon fill="#191970" stroke="#191970" points="285.0466,-50.4653 288.5465,-60.4653 292.0466,-50.4654 285.0466,-50.4653"/>
</g>
<!-- Node13 -->
<g id="node5" class="node">
<title>Node13</title>
<g id="a_node5"><a xlink:href="_test_8cpp.html" target="_top" xlink:title="Definitions of grading::Test.">
<polygon fill="none" stroke="#000000" points="347.116,-.5 347.116,-23.526 421.977,-23.526 421.977,-.5 347.116,-.5"/>
<text text-anchor="middle" x="384.5465" y="-10.726" font-family="Avenir-Book" font-size="11.00" fill="#000000">src/Test.cpp</text>
</a>
</g>
</g>
<!-- Node9&#45;&gt;Node13 -->
<g id="edge4" class="edge">
<title>Node9&#45;&gt;Node13</title>
<path fill="none" stroke="#191970" d="M315.5533,-55.1524C331.6887,-45.0634 351.7655,-32.51 366.0936,-23.5511"/>
<polygon fill="#191970" stroke="#191970" points="313.6796,-52.196 307.0563,-60.4653 317.3908,-58.1313 313.6796,-52.196"/>
</g>
<!-- Node14 -->
<g id="node6" class="node">
<title>Node14</title>
<g id="a_node6"><a xlink:href="_test_suite_8cpp.html" target="_top" xlink:title="Definitions of grading::TestSuite.">
<polygon fill="none" stroke="#000000" points="439.796,-.5 439.796,-23.526 539.297,-23.526 539.297,-.5 439.796,-.5"/>
<text text-anchor="middle" x="489.5465" y="-10.726" font-family="Avenir-Book" font-size="11.00" fill="#000000">src/TestSuite.cpp</text>
</a>
</g>
</g>
<!-- Node9&#45;&gt;Node14 -->
<g id="edge5" class="edge">
<title>Node9&#45;&gt;Node14</title>
<path fill="none" stroke="#191970" d="M336.7944,-57.6304C371.6878,-47.2099 418.2226,-33.3129 450.7247,-23.6066"/>
<polygon fill="#191970" stroke="#191970" points="335.4065,-54.392 326.8262,-60.6072 337.4096,-61.0993 335.4065,-54.392"/>
</g>
</g>
</svg>
        <g id="navigator" transform="translate(0 0)" fill="#404254">
                <rect fill="#f2f5e9" fill-opacity="0.5" stroke="#606060" stroke-width=".5" x="0" y="0" width="60" height="60"/>
                <use id="zoomplus" xlink:href="#zoomPlus" x="17" y="9" onmousedown="handleZoom(evt,'in')"/>
                <use id="zoomminus" xlink:href="#zoomMin" x="42" y="9" onmousedown="handleZoom(evt,'out')"/>
                <use id="reset" xlink:href="#resetDef" x="30" y="36" onmousedown="handleReset()"/>
                <g id="arrowUp" xlink:href="#dirArrow" transform="translate(30 24)" onmousedown="handlePan(0,-1)">
                  <use xlink:href="#rim" fill="#404040">
                        <set attributeName="fill" to="#808080" begin="arrowUp.mouseover" end="arrowUp.mouseout"/>
                  </use>
                  <path fill="none" stroke="white" stroke-width="1.5" d="M0,-3.0v7 M-2.5,-0.5L0,-3.0L2.5,-0.5"/>
                </g>
                <g id="arrowRight" xlink:href="#dirArrow" transform="rotate(90) translate(36 -43)" onmousedown="handlePan(1,0)">
                  <use xlink:href="#rim" fill="#404040">
                        <set attributeName="fill" to="#808080" begin="arrowRight.mouseover" end="arrowRight.mouseout"/>
                  </use>
                  <path fill="none" stroke="white" stroke-width="1.5" d="M0,-3.0v7 M-2.5,-0.5L0,-3.0L2.5,-0.5"/>
                </g>
                <g id="arrowDown" xlink:href="#dirArrow" transform="rotate(180) translate(-30 -48)" onmousedown="handlePan(0,1)">
                  <use xlink:href="#rim" fill="#404040">
                        <set attributeName="fill" to="#808080" begin="arrowDown.mouseover" end="arrowDown.mouseout"/>
                  </use>
                  <path fill="none" stroke="white" stroke-width="1.5" d="M0,-3.0v7 M-2.5,-0.5L0,-3.0L2.5,-0.5"/>
                </g>
                <g id="arrowLeft" xlink:href="#dirArrow" transform="rotate(270) translate(-36 17)" onmousedown="handlePan(-1,0)">
                  <use xlink:href="#rim" fill="#404040">
                        <set attributeName="fill" to="#808080" begin="arrowLeft.mouseover" end="arrowLeft.mouseout"/>
                  </use>
                  <path fill="none" stroke="white" stroke-width="1.5" d="M0,-3.0v7 M-2.5,-0.5L0,-3.0L2.5,-0.5"/>
                </g>
        </g>
        <svg viewBox="0 0 15 15" width="100%" height="30px" preserveAspectRatio="xMaxYMin meet">
         <g id="arrow_out" transform="scale(0.3 0.3)">
          <a xlink:href="private_8h__dep__incl_org.svg" target="_base">
           <rect id="button" ry="5" rx="5" y="6" x="6" height="38" width="38"
                fill="#f2f5e9" fill-opacity="0.5" stroke="#606060" stroke-width="1.0"/>
           <path id="arrow"
             d="M 11.500037,31.436501 C 11.940474,20.09759 22.043105,11.32322 32.158766,21.979434 L 37.068811,17.246167 C 37.068811,17.246167 37.088388,32 37.088388,32 L 22.160133,31.978069 C 22.160133,31.978069 26.997745,27.140456 26.997745,27.140456 C 18.528582,18.264221 13.291696,25.230495 11.500037,31.436501 z"
             style="fill:#404040;"/>
          </a>
         </g>
        </svg>
</svg>
