<?xml version="1.0" encoding="UTF-8" standalone="no"?>
<!DOCTYPE svg PUBLIC "-//W3C//DTD SVG 1.1//EN"
 "http://www.w3.org/Graphics/SVG/1.1/DTD/svg11.dtd">
<!-- Generated by graphviz version 2.40.1 (20161225.0304)
 -->
<!-- Title: src/private.h Pages: 1 -->
<!--zoomable 86 -->
<svg id="main" version="1.1" xmlns="http://www.w3.org/2000/svg" xmlns:xlink="http://www.w3.org/1999/xlink" xml:space="preserve" onload="init(evt)">
<style type="text/css"><![CDATA[
.edge:hover path { stroke: red; }
.edge:hover polygon { stroke: red; fill: red; }
]]></style>
<script type="text/javascript"><![CDATA[
var edges = document.getElementsByTagName('g');
if (edges && edges.length) {
  for (var i=0;i<edges.length;i++) {
    if (edges[i].id.substr(0,4)=='edge') {
      edges[i].setAttribute('class','edge');
    }
  }
}
]]></script>
        <defs>
                <circle id="rim" cx="0" cy="0" r="7"/>
                <circle id="rim2" cx="0" cy="0" r="3.5"/>
                <g id="zoomPlus">
                        <use xlink:href="#rim" fill="#404040">
                                <set attributeName="fill" to="#808080" begin="zoomplus.mouseover" end="zoomplus.mouseout"/>
                        </use>
                        <path d="M-4,0h8M0,-4v8" fill="none" stroke="white" stroke-width="1.5" pointer-events="none"/>
                </g>
                <g id="zoomMin">
                        <use xlink:href="#rim" fill="#404040">
                                <set attributeName="fill" to="#808080" begin="zoomminus.mouseover" end="zoomminus.mouseout"/>
                        </use>
                        <path d="M-4,0h8" fill="none" stroke="white" stroke-width="1.5" pointer-events="none"/>
                </g>
                <g id="dirArrow">
                        <path fill="none" stroke="white" stroke-width="1.5" d="M0,-3.0v7 M-2.5,-0.5L0,-3.0L2.5,-0.5"/>
                </g>
               <g id="resetDef">
                       <use xlink:href="#rim2" fill="#404040">
                               <set attributeName="fill" to="#808080" begin="reset.mouseover" end="reset.mouseout"/>
                       </use>
               </g>
        </defs>

<script type="text/javascript">
var viewWidth = 611;
var viewHeight = 86;
var sectionId = 'dynsection-1';
</script>
<script xlink:href="svgpan.js"/>
<svg id="graph" class="graph">
<g id="viewport">
<title>src/private.h</title>
<!-- Node9 -->
<g id="node1" class="node">
<title>Node9</title>
<g id="a_node1"><a xlink:title="Internal header file for libgrading.">
<polygon fill="#bfbfbf" stroke="#000000" points="279.5,-57.5 279.5,-77.5 367.5,-77.5 367.5,-57.5 279.5,-57.5"/>
<text text-anchor="middle" x="323.5" y="-64.7" font-family="Avenir-Book" font-size="11.00" fill="#000000">src/private.h</text>
</a>
</g>
</g>
<!-- Node10 -->
<g id="node2" class="node">
<title>Node10</title>
<g id="a_node2"><a xlink:href="Arguments_8cpp.html" target="_top" xlink:title="Implementation of grading::Arguments.">
<polygon fill="none" stroke="#000000" points="0,-.5 0,-20.5 125,-20.5 125,-.5 0,-.5"/>
<text text-anchor="middle" x="62.5" y="-7.7" font-family="Avenir-Book" font-size="11.00" fill="#000000">src/Arguments.cpp</text>
</a>
</g>
</g>
<!-- Node9&#45;&gt;Node10 -->
<g id="edge1" class="edge">
<title>Node9&#45;&gt;Node10</title>
<path fill="none" stroke="#191970" d="M269.4006,-55.6852C221.7968,-45.2889 153.2571,-30.3205 108.3105,-20.5046"/>
<polygon fill="#191970" stroke="#191970" points="268.7084,-59.1164 279.2249,-57.8307 270.202,-52.2776 268.7084,-59.1164"/>
</g>
<!-- Node11 -->
<g id="node3" class="node">
<title>Node11</title>
<g id="a_node3"><a xlink:href="Formatter_8cpp.html" target="_top" xlink:title="Definitions of grading::Formatter.">
<polygon fill="none" stroke="#000000" points="143.5,-.5 143.5,-20.5 259.5,-20.5 259.5,-.5 143.5,-.5"/>
<text text-anchor="middle" x="201.5" y="-7.7" font-family="Avenir-Book" font-size="11.00" fill="#000000">src/Formatter.cpp</text>
</a>
</g>
</g>
<!-- Node9&#45;&gt;Node11 -->
<g id="edge2" class="edge">
<title>Node9&#45;&gt;Node11</title>
<path fill="none" stroke="#191970" d="M292.8434,-53.1768C271.1526,-43.0426 242.5939,-29.6996 223.2255,-20.6504"/>
<polygon fill="#191970" stroke="#191970" points="291.4282,-56.3788 301.9697,-57.4408 294.3913,-50.0368 291.4282,-56.3788"/>
</g>
<!-- Node12 -->
<g id="node4" class="node">
<title>Node12</title>
<g id="a_node4"><a xlink:href="posix_8cpp.html" target="_top" xlink:title=" ">
<polygon fill="none" stroke="#000000" points="277.5,-.5 277.5,-20.5 369.5,-20.5 369.5,-.5 277.5,-.5"/>
<text text-anchor="middle" x="323.5" y="-7.7" font-family="Avenir-Book" font-size="11.00" fill="#000000">src/posix.cpp</text>
</a>
</g>
</g>
<!-- Node9&#45;&gt;Node12 -->
<g id="edge3" class="edge">
<title>Node9&#45;&gt;Node12</title>
<path fill="none" stroke="#191970" d="M323.5,-47.1771C323.5,-38.1625 323.5,-27.9556 323.5,-20.6022"/>
<polygon fill="#191970" stroke="#191970" points="320.0001,-47.3095 323.5,-57.3095 327.0001,-47.3096 320.0001,-47.3095"/>
</g>
<!-- Node13 -->
<g id="node5" class="node">
<title>Node13</title>
<g id="a_node5"><a xlink:href="Test_8cpp.html" target="_top" xlink:title="Definitions of grading::Test.">
<polygon fill="none" stroke="#000000" points="387.5,-.5 387.5,-20.5 471.5,-20.5 471.5,-.5 387.5,-.5"/>
<text text-anchor="middle" x="429.5" y="-7.7" font-family="Avenir-Book" font-size="11.00" fill="#000000">src/Test.cpp</text>
</a>
</g>
</g>
<!-- Node9&#45;&gt;Node13 -->
<g id="edge4" class="edge">
<title>Node9&#45;&gt;Node13</title>
<path fill="none" stroke="#191970" d="M351.4075,-52.4931C370.1204,-42.4305 394.2588,-29.4505 410.7134,-20.6022"/>
<polygon fill="#191970" stroke="#191970" points="349.6004,-49.4909 342.4507,-57.3095 352.9157,-55.656 349.6004,-49.4909"/>
</g>
<!-- Node14 -->
<g id="node6" class="node">
<title>Node14</title>
<g id="a_node6"><a xlink:href="TestSuite_8cpp.html" target="_top" xlink:title="Definitions of grading::TestSuite.">
<polygon fill="none" stroke="#000000" points="490,-.5 490,-20.5 603,-20.5 603,-.5 490,-.5"/>
<text text-anchor="middle" x="546.5" y="-7.7" font-family="Avenir-Book" font-size="11.00" fill="#000000">src/TestSuite.cpp</text>
</a>
</g>
</g>
<!-- Node9&#45;&gt;Node14 -->
<g id="edge5" class="edge">
<title>Node9&#45;&gt;Node14</title>
<path fill="none" stroke="#191970" d="M372.7678,-54.9069C413.2052,-44.5709 469.7086,-30.1283 507.1644,-20.5544"/>
<polygon fill="#191970" stroke="#191970" points="371.6763,-51.5733 362.8546,-57.4408 373.4099,-58.3552 371.6763,-51.5733"/>
</g>
</g>
</svg>
        <g id="navigator" transform="translate(0 0)" fill="#404254">
                <rect fill="#f2f5e9" fill-opacity="0.5" stroke="#606060" stroke-width=".5" x="0" y="0" width="60" height="60"/>
                <use id="zoomplus" xlink:href="#zoomPlus" x="17" y="9" onmousedown="handleZoom(evt,'in')"/>
                <use id="zoomminus" xlink:href="#zoomMin" x="42" y="9" onmousedown="handleZoom(evt,'out')"/>
                <use id="reset" xlink:href="#resetDef" x="30" y="36" onmousedown="handleReset()"/>
                <g id="arrowUp" xlink:href="#dirArrow" transform="translate(30 24)" onmousedown="handlePan(0,-1)">
                  <use xlink:href="#rim" fill="#404040">
                        <set attributeName="fill" to="#808080" begin="arrowUp.mouseover" end="arrowUp.mouseout"/>
                  </use>
                  <path fill="none" stroke="white" stroke-width="1.5" d="M0,-3.0v7 M-2.5,-0.5L0,-3.0L2.5,-0.5"/>
                </g>
                <g id="arrowRight" xlink:href="#dirArrow" transform="rotate(90) translate(36 -43)" onmousedown="handlePan(1,0)">
                  <use xlink:href="#rim" fill="#404040">
                        <set attributeName="fill" to="#808080" begin="arrowRight.mouseover" end="arrowRight.mouseout"/>
                  </use>
                  <path fill="none" stroke="white" stroke-width="1.5" d="M0,-3.0v7 M-2.5,-0.5L0,-3.0L2.5,-0.5"/>
                </g>
                <g id="arrowDown" xlink:href="#dirArrow" transform="rotate(180) translate(-30 -48)" onmousedown="handlePan(0,1)">
                  <use xlink:href="#rim" fill="#404040">
                        <set attributeName="fill" to="#808080" begin="arrowDown.mouseover" end="arrowDown.mouseout"/>
                  </use>
                  <path fill="none" stroke="white" stroke-width="1.5" d="M0,-3.0v7 M-2.5,-0.5L0,-3.0L2.5,-0.5"/>
                </g>
                <g id="arrowLeft" xlink:href="#dirArrow" transform="rotate(270) translate(-36 17)" onmousedown="handlePan(-1,0)">
                  <use xlink:href="#rim" fill="#404040">
                        <set attributeName="fill" to="#808080" begin="arrowLeft.mouseover" end="arrowLeft.mouseout"/>
                  </use>
                  <path fill="none" stroke="white" stroke-width="1.5" d="M0,-3.0v7 M-2.5,-0.5L0,-3.0L2.5,-0.5"/>
                </g>
        </g>
        <svg viewBox="0 0 15 15" width="100%" height="30px" preserveAspectRatio="xMaxYMin meet">
         <g id="arrow_out" transform="scale(0.3 0.3)">
          <a xlink:href="private_8h__dep__incl_org.svg" target="_base">
           <rect id="button" ry="5" rx="5" y="6" x="6" height="38" width="38"
                fill="#f2f5e9" fill-opacity="0.5" stroke="#606060" stroke-width="1.0"/>
           <path id="arrow"
             d="M 11.500037,31.436501 C 11.940474,20.09759 22.043105,11.32322 32.158766,21.979434 L 37.068811,17.246167 C 37.068811,17.246167 37.088388,32 37.088388,32 L 22.160133,31.978069 C 22.160133,31.978069 26.997745,27.140456 26.997745,27.140456 C 18.528582,18.264221 13.291696,25.230495 11.500037,31.436501 z"
             style="fill:#404040;"/>
          </a>
         </g>
        </svg>
</svg>
