<?xml version="1.0" encoding="UTF-8" standalone="no"?>
<!DOCTYPE svg PUBLIC "-//W3C//DTD SVG 1.1//EN"
 "http://www.w3.org/Graphics/SVG/1.1/DTD/svg11.dtd">
<!-- Generated by graphviz version 2.38.0 (20140413.2041)
 -->
<!-- Title: src/private.h Pages: 1 -->
<svg width="464pt" height="86pt"
 viewBox="0.00 0.00 464.50 86.00" xmlns="http://www.w3.org/2000/svg" xmlns:xlink="http://www.w3.org/1999/xlink">
<g id="graph0" class="graph" transform="scale(1 1) rotate(0) translate(4 82)">
<title>src/private.h</title>
<!-- Node1 -->
<g id="node1" class="node"><title>Node1</title>
<polygon fill="#bfbfbf" stroke="black" points="193,-57.5 193,-77.5 278,-77.5 278,-57.5 193,-57.5"/>
<text text-anchor="middle" x="235.5" y="-64.7" font-family="Avenir-Book" font-size="11.00">src/private.h</text>
</g>
<!-- Node2 -->
<g id="node2" class="node"><title>Node2</title>
<g id="a_node2"><a xlink:href="Arguments_8cpp.html" target="_top" xlink:title="Implementation of grading::Arguments. ">
<polygon fill="none" stroke="black" points="0,-0.5 0,-20.5 121,-20.5 121,-0.5 0,-0.5"/>
<text text-anchor="middle" x="60.5" y="-7.7" font-family="Avenir-Book" font-size="11.00">src/Arguments.cpp</text>
</a>
</g>
</g>
<!-- Node1&#45;&gt;Node2 -->
<g id="edge1" class="edge"><title>Node1&#45;&gt;Node2</title>
<path fill="none" stroke="midnightblue" d="M196.962,-54.3879C164.411,-44.1578 118.53,-29.7381 89.1498,-20.5042"/>
<polygon fill="midnightblue" stroke="midnightblue" points="196.013,-57.7585 206.602,-57.4179 198.112,-51.0806 196.013,-57.7585"/>
</g>
<!-- Node3 -->
<g id="node3" class="node"><title>Node3</title>
<g id="a_node3"><a xlink:href="posix_8cpp.html" target="_top" xlink:title="src/posix.cpp">
<polygon fill="none" stroke="black" points="139,-0.5 139,-20.5 228,-20.5 228,-0.5 139,-0.5"/>
<text text-anchor="middle" x="183.5" y="-7.7" font-family="Avenir-Book" font-size="11.00">src/posix.cpp</text>
</a>
</g>
</g>
<!-- Node1&#45;&gt;Node3 -->
<g id="edge2" class="edge"><title>Node1&#45;&gt;Node3</title>
<path fill="none" stroke="midnightblue" d="M219.912,-50.0129C210.87,-40.4485 199.814,-28.7552 192.273,-20.7795"/>
<polygon fill="midnightblue" stroke="midnightblue" points="217.5,-52.5559 226.913,-57.4179 222.586,-47.7468 217.5,-52.5559"/>
</g>
<!-- Node4 -->
<g id="node4" class="node"><title>Node4</title>
<g id="a_node4"><a xlink:href="Test_8cpp.html" target="_top" xlink:title="Definitions of grading::Test. ">
<polygon fill="none" stroke="black" points="246.5,-0.5 246.5,-20.5 328.5,-20.5 328.5,-0.5 246.5,-0.5"/>
<text text-anchor="middle" x="287.5" y="-7.7" font-family="Avenir-Book" font-size="11.00">src/Test.cpp</text>
</a>
</g>
</g>
<!-- Node1&#45;&gt;Node4 -->
<g id="edge3" class="edge"><title>Node1&#45;&gt;Node4</title>
<path fill="none" stroke="midnightblue" d="M251.088,-50.0129C260.13,-40.4485 271.186,-28.7552 278.727,-20.7795"/>
<polygon fill="midnightblue" stroke="midnightblue" points="248.414,-47.7468 244.087,-57.4179 253.5,-52.5559 248.414,-47.7468"/>
</g>
<!-- Node5 -->
<g id="node5" class="node"><title>Node5</title>
<g id="a_node5"><a xlink:href="TestSuite_8cpp.html" target="_top" xlink:title="Definitions of grading::TestSuite. ">
<polygon fill="none" stroke="black" points="346.5,-0.5 346.5,-20.5 456.5,-20.5 456.5,-0.5 346.5,-0.5"/>
<text text-anchor="middle" x="401.5" y="-7.7" font-family="Avenir-Book" font-size="11.00">src/TestSuite.cpp</text>
</a>
</g>
</g>
<!-- Node1&#45;&gt;Node5 -->
<g id="edge4" class="edge"><title>Node1&#45;&gt;Node5</title>
<path fill="none" stroke="midnightblue" d="M272.456,-54.2554C303.308,-44.0336 346.574,-29.6983 374.324,-20.5042"/>
<polygon fill="midnightblue" stroke="midnightblue" points="271.303,-50.9503 262.912,-57.4179 273.505,-57.5951 271.303,-50.9503"/>
</g>
</g>
</svg>
