<?xml version="1.0" encoding="UTF-8" standalone="no"?>
<!DOCTYPE svg PUBLIC "-//W3C//DTD SVG 1.1//EN"
 "http://www.w3.org/Graphics/SVG/1.1/DTD/svg11.dtd">
<!-- Generated by graphviz version 2.40.1 (20161225.0304)
 -->
<!-- Title: src/private.h Pages: 1 -->
<svg width="611pt" height="86pt"
 viewBox="0.00 0.00 611.00 86.00" xmlns="http://www.w3.org/2000/svg" xmlns:xlink="http://www.w3.org/1999/xlink">
<g id="graph0" class="graph" transform="scale(1 1) rotate(0) translate(4 82)">
<title>src/private.h</title>
<!-- Node9 -->
<g id="node1" class="node">
<title>Node9</title>
<g id="a_node1"><a xlink:title="Internal header file for libgrading.">
<polygon fill="#bfbfbf" stroke="#000000" points="279.5,-57.5 279.5,-77.5 367.5,-77.5 367.5,-57.5 279.5,-57.5"/>
<text text-anchor="middle" x="323.5" y="-64.7" font-family="Avenir-Book" font-size="11.00" fill="#000000">src/private.h</text>
</a>
</g>
</g>
<!-- Node10 -->
<g id="node2" class="node">
<title>Node10</title>
<g id="a_node2"><a xlink:href="Arguments_8cpp.html" target="_top" xlink:title="Implementation of grading::Arguments.">
<polygon fill="none" stroke="#000000" points="0,-.5 0,-20.5 125,-20.5 125,-.5 0,-.5"/>
<text text-anchor="middle" x="62.5" y="-7.7" font-family="Avenir-Book" font-size="11.00" fill="#000000">src/Arguments.cpp</text>
</a>
</g>
</g>
<!-- Node9&#45;&gt;Node10 -->
<g id="edge1" class="edge">
<title>Node9&#45;&gt;Node10</title>
<path fill="none" stroke="#191970" d="M269.4006,-55.6852C221.7968,-45.2889 153.2571,-30.3205 108.3105,-20.5046"/>
<polygon fill="#191970" stroke="#191970" points="268.7084,-59.1164 279.2249,-57.8307 270.202,-52.2776 268.7084,-59.1164"/>
</g>
<!-- Node11 -->
<g id="node3" class="node">
<title>Node11</title>
<g id="a_node3"><a xlink:href="Formatter_8cpp.html" target="_top" xlink:title="Definitions of grading::Formatter.">
<polygon fill="none" stroke="#000000" points="143.5,-.5 143.5,-20.5 259.5,-20.5 259.5,-.5 143.5,-.5"/>
<text text-anchor="middle" x="201.5" y="-7.7" font-family="Avenir-Book" font-size="11.00" fill="#000000">src/Formatter.cpp</text>
</a>
</g>
</g>
<!-- Node9&#45;&gt;Node11 -->
<g id="edge2" class="edge">
<title>Node9&#45;&gt;Node11</title>
<path fill="none" stroke="#191970" d="M292.8434,-53.1768C271.1526,-43.0426 242.5939,-29.6996 223.2255,-20.6504"/>
<polygon fill="#191970" stroke="#191970" points="291.4282,-56.3788 301.9697,-57.4408 294.3913,-50.0368 291.4282,-56.3788"/>
</g>
<!-- Node12 -->
<g id="node4" class="node">
<title>Node12</title>
<g id="a_node4"><a xlink:href="posix_8cpp.html" target="_top" xlink:title=" ">
<polygon fill="none" stroke="#000000" points="277.5,-.5 277.5,-20.5 369.5,-20.5 369.5,-.5 277.5,-.5"/>
<text text-anchor="middle" x="323.5" y="-7.7" font-family="Avenir-Book" font-size="11.00" fill="#000000">src/posix.cpp</text>
</a>
</g>
</g>
<!-- Node9&#45;&gt;Node12 -->
<g id="edge3" class="edge">
<title>Node9&#45;&gt;Node12</title>
<path fill="none" stroke="#191970" d="M323.5,-47.1771C323.5,-38.1625 323.5,-27.9556 323.5,-20.6022"/>
<polygon fill="#191970" stroke="#191970" points="320.0001,-47.3095 323.5,-57.3095 327.0001,-47.3096 320.0001,-47.3095"/>
</g>
<!-- Node13 -->
<g id="node5" class="node">
<title>Node13</title>
<g id="a_node5"><a xlink:href="Test_8cpp.html" target="_top" xlink:title="Definitions of grading::Test.">
<polygon fill="none" stroke="#000000" points="387.5,-.5 387.5,-20.5 471.5,-20.5 471.5,-.5 387.5,-.5"/>
<text text-anchor="middle" x="429.5" y="-7.7" font-family="Avenir-Book" font-size="11.00" fill="#000000">src/Test.cpp</text>
</a>
</g>
</g>
<!-- Node9&#45;&gt;Node13 -->
<g id="edge4" class="edge">
<title>Node9&#45;&gt;Node13</title>
<path fill="none" stroke="#191970" d="M351.4075,-52.4931C370.1204,-42.4305 394.2588,-29.4505 410.7134,-20.6022"/>
<polygon fill="#191970" stroke="#191970" points="349.6004,-49.4909 342.4507,-57.3095 352.9157,-55.656 349.6004,-49.4909"/>
</g>
<!-- Node14 -->
<g id="node6" class="node">
<title>Node14</title>
<g id="a_node6"><a xlink:href="TestSuite_8cpp.html" target="_top" xlink:title="Definitions of grading::TestSuite.">
<polygon fill="none" stroke="#000000" points="490,-.5 490,-20.5 603,-20.5 603,-.5 490,-.5"/>
<text text-anchor="middle" x="546.5" y="-7.7" font-family="Avenir-Book" font-size="11.00" fill="#000000">src/TestSuite.cpp</text>
</a>
</g>
</g>
<!-- Node9&#45;&gt;Node14 -->
<g id="edge5" class="edge">
<title>Node9&#45;&gt;Node14</title>
<path fill="none" stroke="#191970" d="M372.7678,-54.9069C413.2052,-44.5709 469.7086,-30.1283 507.1644,-20.5544"/>
<polygon fill="#191970" stroke="#191970" points="371.6763,-51.5733 362.8546,-57.4408 373.4099,-58.3552 371.6763,-51.5733"/>
</g>
</g>
</svg>
