<?xml version="1.0" encoding="UTF-8" standalone="no"?>
<!DOCTYPE svg PUBLIC "-//W3C//DTD SVG 1.1//EN"
 "http://www.w3.org/Graphics/SVG/1.1/DTD/svg11.dtd">
<!-- Generated by graphviz version 2.40.1 (20161225.0304)
 -->
<!-- Title: src/private.h Pages: 1 -->
<svg width="547pt" height="92pt"
 viewBox="0.00 0.00 547.30 92.05" xmlns="http://www.w3.org/2000/svg" xmlns:xlink="http://www.w3.org/1999/xlink">
<g id="graph0" class="graph" transform="scale(1 1) rotate(0) translate(4 88.0519)">
<title>src/private.h</title>
<!-- Node9 -->
<g id="node1" class="node">
<title>Node9</title>
<g id="a_node1"><a xlink:title="Internal header file for libgrading.">
<polygon fill="#bfbfbf" stroke="#000000" points="250.3075,-60.526 250.3075,-83.5519 326.7855,-83.5519 326.7855,-60.526 250.3075,-60.526"/>
<text text-anchor="middle" x="288.5465" y="-70.7519" font-family="Avenir-Book" font-size="11.00" fill="#000000">src/private.h</text>
</a>
</g>
</g>
<!-- Node10 -->
<g id="node2" class="node">
<title>Node10</title>
<g id="a_node2"><a xlink:href="_arguments_8cpp.html" target="_top" xlink:title="Implementation of grading::Arguments.">
<polygon fill="none" stroke="#000000" points="0,-.5 0,-23.526 109.093,-23.526 109.093,-.5 0,-.5"/>
<text text-anchor="middle" x="54.5465" y="-10.726" font-family="Avenir-Book" font-size="11.00" fill="#000000">src/Arguments.cpp</text>
</a>
</g>
</g>
<!-- Node9&#45;&gt;Node10 -->
<g id="edge1" class="edge">
<title>Node9&#45;&gt;Node10</title>
<path fill="none" stroke="#191970" d="M240.3445,-59.6741C199.0882,-49.091 140.1313,-33.9673 99.7604,-23.6113"/>
<polygon fill="#191970" stroke="#191970" points="239.6121,-63.0995 250.1682,-62.1941 241.3515,-56.319 239.6121,-63.0995"/>
</g>
<!-- Node11 -->
<g id="node3" class="node">
<title>Node11</title>
<g id="a_node3"><a xlink:href="_formatter_8cpp.html" target="_top" xlink:title="Definitions of grading::Formatter.">
<polygon fill="none" stroke="#000000" points="127.0745,-.5 127.0745,-23.526 230.0185,-23.526 230.0185,-.5 127.0745,-.5"/>
<text text-anchor="middle" x="178.5465" y="-10.726" font-family="Avenir-Book" font-size="11.00" fill="#000000">src/Formatter.cpp</text>
</a>
</g>
</g>
<!-- Node9&#45;&gt;Node11 -->
<g id="edge2" class="edge">
<title>Node9&#45;&gt;Node11</title>
<path fill="none" stroke="#191970" d="M258.3689,-55.5713C239.753,-45.4128 216.3361,-32.6344 199.6905,-23.5511"/>
<polygon fill="#191970" stroke="#191970" points="256.8827,-58.7475 267.3374,-60.4653 260.2359,-52.6028 256.8827,-58.7475"/>
</g>
<!-- Node12 -->
<g id="node4" class="node">
<title>Node12</title>
<g id="a_node4"><a xlink:href="posix_8cpp.html" target="_top" xlink:title=" ">
<polygon fill="none" stroke="#000000" points="247.9535,-.5 247.9535,-23.526 329.1395,-23.526 329.1395,-.5 247.9535,-.5"/>
<text text-anchor="middle" x="288.5465" y="-10.726" font-family="Avenir-Book" font-size="11.00" fill="#000000">src/posix.cpp</text>
</a>
</g>
</g>
<!-- Node9&#45;&gt;Node12 -->
<g id="edge3" class="edge">
<title>Node9&#45;&gt;Node12</title>
<path fill="none" stroke="#191970" d="M288.5465,-50.2286C288.5465,-41.2005 288.5465,-31.0998 288.5465,-23.5511"/>
<polygon fill="#191970" stroke="#191970" points="285.0466,-50.4653 288.5465,-60.4653 292.0466,-50.4654 285.0466,-50.4653"/>
</g>
<!-- Node13 -->
<g id="node5" class="node">
<title>Node13</title>
<g id="a_node5"><a xlink:href="_test_8cpp.html" target="_top" xlink:title="Definitions of grading::Test.">
<polygon fill="none" stroke="#000000" points="347.116,-.5 347.116,-23.526 421.977,-23.526 421.977,-.5 347.116,-.5"/>
<text text-anchor="middle" x="384.5465" y="-10.726" font-family="Avenir-Book" font-size="11.00" fill="#000000">src/Test.cpp</text>
</a>
</g>
</g>
<!-- Node9&#45;&gt;Node13 -->
<g id="edge4" class="edge">
<title>Node9&#45;&gt;Node13</title>
<path fill="none" stroke="#191970" d="M315.5533,-55.1524C331.6887,-45.0634 351.7655,-32.51 366.0936,-23.5511"/>
<polygon fill="#191970" stroke="#191970" points="313.6796,-52.196 307.0563,-60.4653 317.3908,-58.1313 313.6796,-52.196"/>
</g>
<!-- Node14 -->
<g id="node6" class="node">
<title>Node14</title>
<g id="a_node6"><a xlink:href="_test_suite_8cpp.html" target="_top" xlink:title="Definitions of grading::TestSuite.">
<polygon fill="none" stroke="#000000" points="439.796,-.5 439.796,-23.526 539.297,-23.526 539.297,-.5 439.796,-.5"/>
<text text-anchor="middle" x="489.5465" y="-10.726" font-family="Avenir-Book" font-size="11.00" fill="#000000">src/TestSuite.cpp</text>
</a>
</g>
</g>
<!-- Node9&#45;&gt;Node14 -->
<g id="edge5" class="edge">
<title>Node9&#45;&gt;Node14</title>
<path fill="none" stroke="#191970" d="M336.7944,-57.6304C371.6878,-47.2099 418.2226,-33.3129 450.7247,-23.6066"/>
<polygon fill="#191970" stroke="#191970" points="335.4065,-54.392 326.8262,-60.6072 337.4096,-61.0993 335.4065,-54.392"/>
</g>
</g>
</svg>
