<?xml version="1.0" encoding="UTF-8" standalone="no"?>
<!DOCTYPE svg PUBLIC "-//W3C//DTD SVG 1.1//EN"
 "http://www.w3.org/Graphics/SVG/1.1/DTD/svg11.dtd">
<!-- Generated by graphviz version 2.40.1 (20161225.0304)
 -->
<!-- Title: Arguments Pages: 1 -->
<svg width="356pt" height="29pt"
 viewBox="0.00 0.00 356.00 29.00" xmlns="http://www.w3.org/2000/svg" xmlns:xlink="http://www.w3.org/1999/xlink">
<g id="graph0" class="graph" transform="scale(1 1) rotate(0) translate(4 25)">
<title>Arguments</title>
<!-- Node1 -->
<g id="node1" class="node">
<title>Node1</title>
<g id="a_node1"><a xlink:title="Construct a &quot;failed to parse normal arguments&quot; object.">
<polygon fill="#bfbfbf" stroke="#000000" points="268,-.5 268,-20.5 348,-20.5 348,-.5 268,-.5"/>
<text text-anchor="middle" x="308" y="-7.7" font-family="Avenir-Book" font-size="11.00" fill="#000000">Arguments</text>
</a>
</g>
</g>
<!-- Node2 -->
<g id="node2" class="node">
<title>Node2</title>
<g id="a_node2"><a xlink:href="structgrading_1_1Arguments.html#a7732fee01761ae341c2a811613637372" target="_top" xlink:title="Parse command&#45;line arguments.">
<polygon fill="none" stroke="#000000" points="185,-.5 185,-20.5 232,-20.5 232,-.5 185,-.5"/>
<text text-anchor="middle" x="208.5" y="-7.7" font-family="Avenir-Book" font-size="11.00" fill="#000000">Parse</text>
</a>
</g>
</g>
<!-- Node1&#45;&gt;Node2 -->
<g id="edge1" class="edge">
<title>Node1&#45;&gt;Node2</title>
<path fill="none" stroke="#191970" d="M257.7915,-10.5C248.8656,-10.5 239.9593,-10.5 232.2221,-10.5"/>
<polygon fill="#191970" stroke="#191970" points="257.8164,-14.0001 267.8163,-10.5 257.8163,-7.0001 257.8164,-14.0001"/>
</g>
<!-- Node3 -->
<g id="node3" class="node">
<title>Node3</title>
<g id="a_node3"><a xlink:href="classgrading_1_1TestSuite.html#a8e131cc39871a01859f64c5490713d73" target="_top" xlink:title="Run all tests, using command&#45;line arguments to guide the testing strategy, timeouts,...">
<polygon fill="none" stroke="#000000" points="0,-.5 0,-20.5 149,-20.5 149,-.5 0,-.5"/>
<text text-anchor="middle" x="74.5" y="-7.7" font-family="Avenir-Book" font-size="11.00" fill="#000000">grading::TestSuite::Run</text>
</a>
</g>
</g>
<!-- Node2&#45;&gt;Node3 -->
<g id="edge2" class="edge">
<title>Node2&#45;&gt;Node3</title>
<path fill="none" stroke="#191970" d="M174.6418,-10.5C166.7362,-10.5 158.0078,-10.5 149.0978,-10.5"/>
<polygon fill="#191970" stroke="#191970" points="174.852,-14.0001 184.8519,-10.5 174.8519,-7.0001 174.852,-14.0001"/>
</g>
</g>
</svg>
