<?xml version="1.0" encoding="UTF-8" standalone="no"?>
<!DOCTYPE svg PUBLIC "-//W3C//DTD SVG 1.1//EN"
 "http://www.w3.org/Graphics/SVG/1.1/DTD/svg11.dtd">
<!-- Generated by graphviz version 2.40.1 (20161225.0304)
 -->
<!-- Title: Arguments Pages: 1 -->
<svg width="322pt" height="32pt"
 viewBox="0.00 0.00 321.71 32.03" xmlns="http://www.w3.org/2000/svg" xmlns:xlink="http://www.w3.org/1999/xlink">
<g id="graph0" class="graph" transform="scale(1 1) rotate(0) translate(4 28.026)">
<title>Arguments</title>
<!-- Node1 -->
<g id="node1" class="node">
<title>Node1</title>
<g id="a_node1"><a xlink:title="Construct a &quot;failed to parse normal arguments&quot; object.">
<polygon fill="#bfbfbf" stroke="#000000" points="243.931,-.5 243.931,-23.526 313.71,-23.526 313.71,-.5 243.931,-.5"/>
<text text-anchor="middle" x="278.8205" y="-10.726" font-family="Avenir-Book" font-size="11.00" fill="#000000">Arguments</text>
</a>
</g>
</g>
<!-- Node2 -->
<g id="node2" class="node">
<title>Node2</title>
<g id="a_node2"><a xlink:href="structgrading_1_1_arguments.html#a7732fee01761ae341c2a811613637372" target="_top" xlink:title="Parse command&#45;line arguments.">
<polygon fill="none" stroke="#000000" points="165.454,-.5 165.454,-23.526 207.931,-23.526 207.931,-.5 165.454,-.5"/>
<text text-anchor="middle" x="186.6925" y="-10.726" font-family="Avenir-Book" font-size="11.00" fill="#000000">Parse</text>
</a>
</g>
</g>
<!-- Node1&#45;&gt;Node2 -->
<g id="edge1" class="edge">
<title>Node1&#45;&gt;Node2</title>
<path fill="none" stroke="#191970" d="M233.7191,-12.013C224.7721,-12.013 215.7766,-12.013 208.0836,-12.013"/>
<polygon fill="#191970" stroke="#191970" points="233.7281,-15.5131 243.728,-12.013 233.728,-8.5131 233.7281,-15.5131"/>
</g>
<!-- Node3 -->
<g id="node3" class="node">
<title>Node3</title>
<g id="a_node3"><a xlink:href="classgrading_1_1_test_suite.html#a8e131cc39871a01859f64c5490713d73" target="_top" xlink:title="Run all tests, using command&#45;line arguments to guide the testing strategy, timeouts,...">
<polygon fill="none" stroke="#000000" points="0,-.5 0,-23.526 129.454,-23.526 129.454,-.5 0,-.5"/>
<text text-anchor="middle" x="64.727" y="-10.726" font-family="Avenir-Book" font-size="11.00" fill="#000000">grading::TestSuite::Run</text>
</a>
</g>
</g>
<!-- Node2&#45;&gt;Node3 -->
<g id="edge2" class="edge">
<title>Node2&#45;&gt;Node3</title>
<path fill="none" stroke="#191970" d="M155.2217,-12.013C147.2682,-12.013 138.4322,-12.013 129.4874,-12.013"/>
<polygon fill="#191970" stroke="#191970" points="155.4478,-15.5131 165.4477,-12.013 155.4477,-8.5131 155.4478,-15.5131"/>
</g>
</g>
</svg>
