<?xml version="1.0" encoding="UTF-8" standalone="no"?>
<!DOCTYPE svg PUBLIC "-//W3C//DTD SVG 1.1//EN"
 "http://www.w3.org/Graphics/SVG/1.1/DTD/svg11.dtd">
<!-- Generated by graphviz version 2.40.1 (20161225.0304)
 -->
<!-- Title: src/TestExitStatus.cpp Pages: 1 -->
<!--zoomable 143 -->
<svg id="main" version="1.1" xmlns="http://www.w3.org/2000/svg" xmlns:xlink="http://www.w3.org/1999/xlink" xml:space="preserve" onload="init(evt)">
<style type="text/css"><![CDATA[
.edge:hover path { stroke: red; }
.edge:hover polygon { stroke: red; fill: red; }
]]></style>
<script type="text/javascript"><![CDATA[
var edges = document.getElementsByTagName('g');
if (edges && edges.length) {
  for (var i=0;i<edges.length;i++) {
    if (edges[i].id.substr(0,4)=='edge') {
      edges[i].setAttribute('class','edge');
    }
  }
}
]]></script>
        <defs>
                <circle id="rim" cx="0" cy="0" r="7"/>
                <circle id="rim2" cx="0" cy="0" r="3.5"/>
                <g id="zoomPlus">
                        <use xlink:href="#rim" fill="#404040">
                                <set attributeName="fill" to="#808080" begin="zoomplus.mouseover" end="zoomplus.mouseout"/>
                        </use>
                        <path d="M-4,0h8M0,-4v8" fill="none" stroke="white" stroke-width="1.5" pointer-events="none"/>
                </g>
                <g id="zoomMin">
                        <use xlink:href="#rim" fill="#404040">
                                <set attributeName="fill" to="#808080" begin="zoomminus.mouseover" end="zoomminus.mouseout"/>
                        </use>
                        <path d="M-4,0h8" fill="none" stroke="white" stroke-width="1.5" pointer-events="none"/>
                </g>
                <g id="dirArrow">
                        <path fill="none" stroke="white" stroke-width="1.5" d="M0,-3.0v7 M-2.5,-0.5L0,-3.0L2.5,-0.5"/>
                </g>
               <g id="resetDef">
                       <use xlink:href="#rim2" fill="#404040">
                               <set attributeName="fill" to="#808080" begin="reset.mouseover" end="reset.mouseout"/>
                       </use>
               </g>
        </defs>

<script type="text/javascript">
var viewWidth = 584;
var viewHeight = 143;
var sectionId = 'dynsection-0';
</script>
<script xlink:href="svgpan.js"/>
<svg id="graph" class="graph">
<g id="viewport">
<title>src/TestExitStatus.cpp</title>
<!-- Node0 -->
<g id="node1" class="node">
<title>Node0</title>
<g id="a_node1"><a xlink:title="Definitions of grading::TestExitStatus functions.">
<polygon fill="#bfbfbf" stroke="#000000" points="263.5,-114.5 263.5,-134.5 405.5,-134.5 405.5,-114.5 263.5,-114.5"/>
<text text-anchor="middle" x="334.5" y="-121.7" font-family="Avenir-Book" font-size="11.00" fill="#000000">src/TestExitStatus.cpp</text>
</a>
</g>
</g>
<!-- Node1 -->
<g id="node2" class="node">
<title>Node1</title>
<g id="a_node2"><a xlink:href="libgrading_8h.html" target="_top" xlink:title="A library for grading C&#45; and C++&#45;based assignments.">
<polygon fill="none" stroke="#000000" points="245.5,-57.5 245.5,-77.5 331.5,-77.5 331.5,-57.5 245.5,-57.5"/>
<text text-anchor="middle" x="288.5" y="-64.7" font-family="Avenir-Book" font-size="11.00" fill="#000000">libgrading.h</text>
</a>
</g>
</g>
<!-- Node0&#45;&gt;Node1 -->
<g id="edge1" class="edge">
<title>Node0&#45;&gt;Node1</title>
<path fill="none" stroke="#191970" d="M326.2761,-114.3095C319.8656,-106.3661 310.7994,-95.1319 303.1556,-85.6602"/>
<polygon fill="#191970" stroke="#191970" points="305.6566,-83.1862 296.6527,-77.6022 300.2092,-87.5823 305.6566,-83.1862"/>
</g>
<!-- Node9 -->
<g id="node10" class="node">
<title>Node9</title>
<g id="a_node10"><a xlink:title=" ">
<polygon fill="none" stroke="#bfbfbf" points="350,-57.5 350,-77.5 413,-77.5 413,-57.5 350,-57.5"/>
<text text-anchor="middle" x="381.5" y="-64.7" font-family="Avenir-Book" font-size="11.00" fill="#000000">ostream</text>
</a>
</g>
</g>
<!-- Node0&#45;&gt;Node9 -->
<g id="edge9" class="edge">
<title>Node0&#45;&gt;Node9</title>
<path fill="none" stroke="#191970" d="M342.9027,-114.3095C349.5193,-106.2851 358.9052,-94.9022 366.7644,-85.3708"/>
<polygon fill="#191970" stroke="#191970" points="369.5086,-87.5443 373.1701,-77.6022 364.1078,-83.091 369.5086,-87.5443"/>
</g>
<!-- Node2 -->
<g id="node3" class="node">
<title>Node2</title>
<g id="a_node3"><a xlink:title=" ">
<polygon fill="none" stroke="#bfbfbf" points="0,-.5 0,-20.5 73,-20.5 73,-.5 0,-.5"/>
<text text-anchor="middle" x="36.5" y="-7.7" font-family="Avenir-Book" font-size="11.00" fill="#000000">functional</text>
</a>
</g>
</g>
<!-- Node1&#45;&gt;Node2 -->
<g id="edge2" class="edge">
<title>Node1&#45;&gt;Node2</title>
<path fill="none" stroke="#191970" d="M245.4874,-57.8225C205.9247,-48.9141 145.3537,-35.2575 83.1507,-21.144"/>
<polygon fill="#191970" stroke="#191970" points="83.6832,-17.6759 73.1565,-18.8756 82.1337,-24.5023 83.6832,-17.6759"/>
</g>
<!-- Node3 -->
<g id="node4" class="node">
<title>Node3</title>
<g id="a_node4"><a xlink:title=" ">
<polygon fill="none" stroke="#bfbfbf" points="91.5,-.5 91.5,-20.5 157.5,-20.5 157.5,-.5 91.5,-.5"/>
<text text-anchor="middle" x="124.5" y="-7.7" font-family="Avenir-Book" font-size="11.00" fill="#000000">iostream</text>
</a>
</g>
</g>
<!-- Node1&#45;&gt;Node3 -->
<g id="edge3" class="edge">
<title>Node1&#45;&gt;Node3</title>
<path fill="none" stroke="#191970" d="M259.5576,-57.4408C232.7074,-48.1087 192.5564,-34.1537 163.0081,-23.8839"/>
<polygon fill="#191970" stroke="#191970" points="164.0232,-20.5314 153.4284,-20.5544 161.7251,-27.1434 164.0232,-20.5314"/>
</g>
<!-- Node4 -->
<g id="node5" class="node">
<title>Node4</title>
<g id="a_node5"><a xlink:title=" ">
<polygon fill="none" stroke="#bfbfbf" points="175.5,-.5 175.5,-20.5 239.5,-20.5 239.5,-.5 175.5,-.5"/>
<text text-anchor="middle" x="207.5" y="-7.7" font-family="Avenir-Book" font-size="11.00" fill="#000000">memory</text>
</a>
</g>
</g>
<!-- Node1&#45;&gt;Node4 -->
<g id="edge4" class="edge">
<title>Node1&#45;&gt;Node4</title>
<path fill="none" stroke="#191970" d="M274.0188,-57.3095C261.8093,-48.7177 244.1287,-36.2758 230.0643,-26.3786"/>
<polygon fill="#191970" stroke="#191970" points="232.0481,-23.4949 221.8558,-20.6022 228.0196,-29.2195 232.0481,-23.4949"/>
</g>
<!-- Node5 -->
<g id="node6" class="node">
<title>Node5</title>
<g id="a_node6"><a xlink:title=" ">
<polygon fill="none" stroke="#bfbfbf" points="257.5,-.5 257.5,-20.5 319.5,-20.5 319.5,-.5 257.5,-.5"/>
<text text-anchor="middle" x="288.5" y="-7.7" font-family="Avenir-Book" font-size="11.00" fill="#000000">sstream</text>
</a>
</g>
</g>
<!-- Node1&#45;&gt;Node5 -->
<g id="edge5" class="edge">
<title>Node1&#45;&gt;Node5</title>
<path fill="none" stroke="#191970" d="M288.5,-57.3095C288.5,-49.9335 288.5,-39.72 288.5,-30.715"/>
<polygon fill="#191970" stroke="#191970" points="292.0001,-30.6022 288.5,-20.6022 285.0001,-30.6023 292.0001,-30.6022"/>
</g>
<!-- Node6 -->
<g id="node7" class="node">
<title>Node6</title>
<g id="a_node7"><a xlink:title=" ">
<polygon fill="none" stroke="#bfbfbf" points="337.5,-.5 337.5,-20.5 387.5,-20.5 387.5,-.5 337.5,-.5"/>
<text text-anchor="middle" x="362.5" y="-7.7" font-family="Avenir-Book" font-size="11.00" fill="#000000">string</text>
</a>
</g>
</g>
<!-- Node1&#45;&gt;Node6 -->
<g id="edge6" class="edge">
<title>Node1&#45;&gt;Node6</title>
<path fill="none" stroke="#191970" d="M301.7297,-57.3095C312.6736,-48.8798 328.429,-36.7439 341.1549,-26.9415"/>
<polygon fill="#191970" stroke="#191970" points="343.5984,-29.4773 349.3848,-20.6022 339.3267,-23.9318 343.5984,-29.4773"/>
</g>
<!-- Node7 -->
<g id="node8" class="node">
<title>Node7</title>
<g id="a_node8"><a xlink:title=" ">
<polygon fill="none" stroke="#bfbfbf" points="406,-.5 406,-20.5 505,-20.5 505,-.5 406,-.5"/>
<text text-anchor="middle" x="455.5" y="-7.7" font-family="Avenir-Book" font-size="11.00" fill="#000000">unordered_set</text>
</a>
</g>
</g>
<!-- Node1&#45;&gt;Node7 -->
<g id="edge7" class="edge">
<title>Node1&#45;&gt;Node7</title>
<path fill="none" stroke="#191970" d="M317.9718,-57.4408C345.3132,-48.1087 386.1987,-34.1537 416.2875,-23.8839"/>
<polygon fill="#191970" stroke="#191970" points="417.7091,-27.097 426.0424,-20.5544 415.4479,-20.4723 417.7091,-27.097"/>
</g>
<!-- Node8 -->
<g id="node9" class="node">
<title>Node8</title>
<g id="a_node9"><a xlink:title=" ">
<polygon fill="none" stroke="#bfbfbf" points="523.5,-.5 523.5,-20.5 575.5,-20.5 575.5,-.5 523.5,-.5"/>
<text text-anchor="middle" x="549.5" y="-7.7" font-family="Avenir-Book" font-size="11.00" fill="#000000">vector</text>
</a>
</g>
</g>
<!-- Node1&#45;&gt;Node8 -->
<g id="edge8" class="edge">
<title>Node1&#45;&gt;Node8</title>
<path fill="none" stroke="#191970" d="M331.5553,-58.8555C386.1879,-47.8569 476.9328,-29.4807 513.3838,-21.0347"/>
<polygon fill="#191970" stroke="#191970" points="514.2981,-24.4146 523.1961,-18.6633 512.6537,-17.6104 514.2981,-24.4146"/>
</g>
</g>
</svg>
        <g id="navigator" transform="translate(0 0)" fill="#404254">
                <rect fill="#f2f5e9" fill-opacity="0.5" stroke="#606060" stroke-width=".5" x="0" y="0" width="60" height="60"/>
                <use id="zoomplus" xlink:href="#zoomPlus" x="17" y="9" onmousedown="handleZoom(evt,'in')"/>
                <use id="zoomminus" xlink:href="#zoomMin" x="42" y="9" onmousedown="handleZoom(evt,'out')"/>
                <use id="reset" xlink:href="#resetDef" x="30" y="36" onmousedown="handleReset()"/>
                <g id="arrowUp" xlink:href="#dirArrow" transform="translate(30 24)" onmousedown="handlePan(0,-1)">
                  <use xlink:href="#rim" fill="#404040">
                        <set attributeName="fill" to="#808080" begin="arrowUp.mouseover" end="arrowUp.mouseout"/>
                  </use>
                  <path fill="none" stroke="white" stroke-width="1.5" d="M0,-3.0v7 M-2.5,-0.5L0,-3.0L2.5,-0.5"/>
                </g>
                <g id="arrowRight" xlink:href="#dirArrow" transform="rotate(90) translate(36 -43)" onmousedown="handlePan(1,0)">
                  <use xlink:href="#rim" fill="#404040">
                        <set attributeName="fill" to="#808080" begin="arrowRight.mouseover" end="arrowRight.mouseout"/>
                  </use>
                  <path fill="none" stroke="white" stroke-width="1.5" d="M0,-3.0v7 M-2.5,-0.5L0,-3.0L2.5,-0.5"/>
                </g>
                <g id="arrowDown" xlink:href="#dirArrow" transform="rotate(180) translate(-30 -48)" onmousedown="handlePan(0,1)">
                  <use xlink:href="#rim" fill="#404040">
                        <set attributeName="fill" to="#808080" begin="arrowDown.mouseover" end="arrowDown.mouseout"/>
                  </use>
                  <path fill="none" stroke="white" stroke-width="1.5" d="M0,-3.0v7 M-2.5,-0.5L0,-3.0L2.5,-0.5"/>
                </g>
                <g id="arrowLeft" xlink:href="#dirArrow" transform="rotate(270) translate(-36 17)" onmousedown="handlePan(-1,0)">
                  <use xlink:href="#rim" fill="#404040">
                        <set attributeName="fill" to="#808080" begin="arrowLeft.mouseover" end="arrowLeft.mouseout"/>
                  </use>
                  <path fill="none" stroke="white" stroke-width="1.5" d="M0,-3.0v7 M-2.5,-0.5L0,-3.0L2.5,-0.5"/>
                </g>
        </g>
        <svg viewBox="0 0 15 15" width="100%" height="30px" preserveAspectRatio="xMaxYMin meet">
         <g id="arrow_out" transform="scale(0.3 0.3)">
          <a xlink:href="TestExitStatus_8cpp__incl_org.svg" target="_base">
           <rect id="button" ry="5" rx="5" y="6" x="6" height="38" width="38"
                fill="#f2f5e9" fill-opacity="0.5" stroke="#606060" stroke-width="1.0"/>
           <path id="arrow"
             d="M 11.500037,31.436501 C 11.940474,20.09759 22.043105,11.32322 32.158766,21.979434 L 37.068811,17.246167 C 37.068811,17.246167 37.088388,32 37.088388,32 L 22.160133,31.978069 C 22.160133,31.978069 26.997745,27.140456 26.997745,27.140456 C 18.528582,18.264221 13.291696,25.230495 11.500037,31.436501 z"
             style="fill:#404040;"/>
          </a>
         </g>
        </svg>
</svg>
