<?xml version="1.0" encoding="UTF-8" standalone="no"?>
<!DOCTYPE svg PUBLIC "-//W3C//DTD SVG 1.1//EN"
 "http://www.w3.org/Graphics/SVG/1.1/DTD/svg11.dtd">
<!-- Generated by graphviz version 2.38.0 (20140413.2041)
 -->
<!-- Title: src/TestBuilder.cpp Pages: 1 -->
<svg width="571pt" height="143pt"
 viewBox="0.00 0.00 571.00 143.00" xmlns="http://www.w3.org/2000/svg" xmlns:xlink="http://www.w3.org/1999/xlink">
<g id="graph0" class="graph" transform="scale(1 1) rotate(0) translate(4 139)">
<title>src/TestBuilder.cpp</title>
<!-- Node1 -->
<g id="node1" class="node"><title>Node1</title>
<polygon fill="#bfbfbf" stroke="black" points="223.5,-114.5 223.5,-134.5 341.5,-134.5 341.5,-114.5 223.5,-114.5"/>
<text text-anchor="middle" x="282.5" y="-121.7" font-family="Avenir-Book" font-size="11.00">src/TestBuilder.cpp</text>
</g>
<!-- Node2 -->
<g id="node2" class="node"><title>Node2</title>
<g id="a_node2"><a xlink:href="libgrading_8h.html" target="_top" xlink:title="A library for grading C&#45; and C++&#45;based assignments. ">
<polygon fill="none" stroke="black" points="243,-57.5 243,-77.5 322,-77.5 322,-57.5 243,-57.5"/>
<text text-anchor="middle" x="282.5" y="-64.7" font-family="Avenir-Book" font-size="11.00">libgrading.h</text>
</a>
</g>
</g>
<!-- Node1&#45;&gt;Node2 -->
<g id="edge1" class="edge"><title>Node1&#45;&gt;Node2</title>
<path fill="none" stroke="midnightblue" d="M282.5,-114.418C282.5,-107.216 282.5,-96.8962 282.5,-87.8632"/>
<polygon fill="midnightblue" stroke="midnightblue" points="286,-87.7794 282.5,-77.7795 279,-87.7795 286,-87.7794"/>
</g>
<!-- Node3 -->
<g id="node3" class="node"><title>Node3</title>
<polygon fill="none" stroke="#bfbfbf" points="0,-0.5 0,-20.5 69,-20.5 69,-0.5 0,-0.5"/>
<text text-anchor="middle" x="34.5" y="-7.7" font-family="Avenir-Book" font-size="11.00">functional</text>
</g>
<!-- Node2&#45;&gt;Node3 -->
<g id="edge2" class="edge"><title>Node2&#45;&gt;Node3</title>
<path fill="none" stroke="midnightblue" d="M242.929,-57.7243C198.211,-47.8068 125.592,-31.7019 78.954,-21.3588"/>
<polygon fill="midnightblue" stroke="midnightblue" points="79.6492,-17.928 69.1286,-19.1797 78.1336,-24.7619 79.6492,-17.928"/>
</g>
<!-- Node4 -->
<g id="node4" class="node"><title>Node4</title>
<polygon fill="none" stroke="#bfbfbf" points="87,-0.5 87,-20.5 152,-20.5 152,-0.5 87,-0.5"/>
<text text-anchor="middle" x="119.5" y="-7.7" font-family="Avenir-Book" font-size="11.00">iostream</text>
</g>
<!-- Node2&#45;&gt;Node4 -->
<g id="edge3" class="edge"><title>Node2&#45;&gt;Node4</title>
<path fill="none" stroke="midnightblue" d="M255.584,-57.4179C228.369,-48.2348 186.125,-33.9807 155.926,-23.7909"/>
<polygon fill="midnightblue" stroke="midnightblue" points="156.779,-20.3851 146.185,-20.5042 154.541,-27.0177 156.779,-20.3851"/>
</g>
<!-- Node5 -->
<g id="node5" class="node"><title>Node5</title>
<polygon fill="none" stroke="#bfbfbf" points="170,-0.5 170,-20.5 233,-20.5 233,-0.5 170,-0.5"/>
<text text-anchor="middle" x="201.5" y="-7.7" font-family="Avenir-Book" font-size="11.00">memory</text>
</g>
<!-- Node2&#45;&gt;Node5 -->
<g id="edge4" class="edge"><title>Node2&#45;&gt;Node5</title>
<path fill="none" stroke="midnightblue" d="M269.124,-57.4179C256.696,-48.9788 237.96,-36.257 223.359,-26.3426"/>
<polygon fill="midnightblue" stroke="midnightblue" points="225.135,-23.3176 214.895,-20.5956 221.202,-29.1088 225.135,-23.3176"/>
</g>
<!-- Node6 -->
<g id="node6" class="node"><title>Node6</title>
<polygon fill="none" stroke="#bfbfbf" points="251.5,-0.5 251.5,-20.5 313.5,-20.5 313.5,-0.5 251.5,-0.5"/>
<text text-anchor="middle" x="282.5" y="-7.7" font-family="Avenir-Book" font-size="11.00">sstream</text>
</g>
<!-- Node2&#45;&gt;Node6 -->
<g id="edge5" class="edge"><title>Node2&#45;&gt;Node6</title>
<path fill="none" stroke="midnightblue" d="M282.5,-57.4179C282.5,-50.2164 282.5,-39.8962 282.5,-30.8632"/>
<polygon fill="midnightblue" stroke="midnightblue" points="286,-30.7794 282.5,-20.7795 279,-30.7795 286,-30.7794"/>
</g>
<!-- Node7 -->
<g id="node7" class="node"><title>Node7</title>
<polygon fill="none" stroke="#bfbfbf" points="332,-0.5 332,-20.5 379,-20.5 379,-0.5 332,-0.5"/>
<text text-anchor="middle" x="355.5" y="-7.7" font-family="Avenir-Book" font-size="11.00">string</text>
</g>
<!-- Node2&#45;&gt;Node7 -->
<g id="edge6" class="edge"><title>Node2&#45;&gt;Node7</title>
<path fill="none" stroke="midnightblue" d="M294.554,-57.4179C305.583,-49.1084 322.123,-36.6469 335.191,-26.8015"/>
<polygon fill="midnightblue" stroke="midnightblue" points="337.303,-29.5924 343.184,-20.7795 333.091,-24.0016 337.303,-29.5924"/>
</g>
<!-- Node8 -->
<g id="node8" class="node"><title>Node8</title>
<polygon fill="none" stroke="#bfbfbf" points="397.5,-0.5 397.5,-20.5 493.5,-20.5 493.5,-0.5 397.5,-0.5"/>
<text text-anchor="middle" x="445.5" y="-7.7" font-family="Avenir-Book" font-size="11.00">unordered_set</text>
</g>
<!-- Node2&#45;&gt;Node8 -->
<g id="edge7" class="edge"><title>Node2&#45;&gt;Node8</title>
<path fill="none" stroke="midnightblue" d="M309.416,-57.4179C336.631,-48.2348 378.875,-33.9807 409.074,-23.7909"/>
<polygon fill="midnightblue" stroke="midnightblue" points="410.459,-27.0177 418.815,-20.5042 408.221,-20.3851 410.459,-27.0177"/>
</g>
<!-- Node9 -->
<g id="node9" class="node"><title>Node9</title>
<polygon fill="none" stroke="#bfbfbf" points="512,-0.5 512,-20.5 563,-20.5 563,-0.5 512,-0.5"/>
<text text-anchor="middle" x="537.5" y="-7.7" font-family="Avenir-Book" font-size="11.00">vector</text>
</g>
<!-- Node2&#45;&gt;Node9 -->
<g id="edge8" class="edge"><title>Node2&#45;&gt;Node9</title>
<path fill="none" stroke="midnightblue" d="M322.005,-59.0846C364.18,-51.0007 433.168,-37.2994 502.195,-20.9567"/>
<polygon fill="midnightblue" stroke="midnightblue" points="503.017,-24.3587 511.932,-18.6335 501.393,-17.5498 503.017,-24.3587"/>
</g>
</g>
</svg>
